G04 Layer_Color=128*
%FSLAX25Y25*%
%MOIN*%
G70*
G01*
G75*
%ADD77C,0.00200*%
D77*
X248983Y228763D02*
X250983D01*
X249983Y227763D02*
Y229763D01*
X243773Y199219D02*
X245773D01*
X244773Y198219D02*
Y200219D01*
X257686Y221560D02*
X260048D01*
X258867Y220379D02*
Y222741D01*
X254404Y202950D02*
X256766D01*
X255585Y201768D02*
Y204131D01*
X441228Y295200D02*
X444772D01*
X443000Y293428D02*
Y296972D01*
X431228Y295200D02*
X434772D01*
X433000Y293428D02*
Y296972D01*
X421228Y295200D02*
X424772D01*
X423000Y293428D02*
Y296972D01*
X411228Y295200D02*
X414772D01*
X413000Y293428D02*
Y296972D01*
X303299Y195712D02*
X306843D01*
X305071Y193941D02*
Y197484D01*
X296228Y188641D02*
X299772D01*
X298000Y186870D02*
Y190413D01*
X289157Y181570D02*
X292701D01*
X290929Y179799D02*
Y183342D01*
X492228Y401000D02*
X495772D01*
X494000Y399228D02*
Y402772D01*
X492228Y391000D02*
X495772D01*
X494000Y389228D02*
Y392772D01*
X482228Y401000D02*
X485772D01*
X484000Y399228D02*
Y402772D01*
X482228Y391000D02*
X485772D01*
X484000Y389228D02*
Y392772D01*
X472228Y401000D02*
X475772D01*
X474000Y399228D02*
Y402772D01*
X472228Y391000D02*
X475772D01*
X474000Y389228D02*
Y392772D01*
X597728Y171000D02*
X601272D01*
X599500Y169228D02*
Y172772D01*
X587728Y171000D02*
X591272D01*
X589500Y169228D02*
Y172772D01*
X597728Y181000D02*
X601272D01*
X599500Y179228D02*
Y182772D01*
X587728Y181000D02*
X591272D01*
X589500Y179228D02*
Y182772D01*
X266228Y169500D02*
X269772D01*
X268000Y167728D02*
Y171272D01*
X256228Y169500D02*
X259772D01*
X258000Y167728D02*
Y171272D01*
X266228Y179500D02*
X269772D01*
X268000Y177728D02*
Y181272D01*
X256228Y179500D02*
X259772D01*
X258000Y177728D02*
Y181272D01*
X301673Y408400D02*
X310728D01*
X306200Y403872D02*
Y412927D01*
X319672Y408400D02*
X328728D01*
X324200Y403872D02*
Y412927D01*
X337672Y408400D02*
X346727D01*
X342200Y403872D02*
Y412928D01*
X512173Y408400D02*
X521228D01*
X516700Y403872D02*
Y412927D01*
X530172Y408400D02*
X539227D01*
X534700Y403872D02*
Y412927D01*
X548172Y408400D02*
X557228D01*
X552700Y403872D02*
Y412928D01*
X355331Y334950D02*
X359268D01*
X357300Y332981D02*
Y336918D01*
X355331Y344750D02*
X359268D01*
X357300Y342781D02*
Y346719D01*
X355331Y325150D02*
X359268D01*
X357300Y323182D02*
Y327118D01*
X341950Y365450D02*
X348250D01*
X345100Y362300D02*
Y368600D01*
X341950Y304450D02*
X348250D01*
X345100Y301300D02*
Y307600D01*
X326731Y296550D02*
X330668D01*
X328700Y294582D02*
Y298518D01*
X316932Y296550D02*
X320868D01*
X318900Y294582D02*
Y298518D01*
X289550Y365450D02*
X295850D01*
X292700Y362300D02*
Y368600D01*
X307132Y296550D02*
X311069D01*
X309100Y294582D02*
Y298518D01*
X289550Y304450D02*
X295850D01*
X292700Y301300D02*
Y307600D01*
X576831Y335450D02*
X580768D01*
X578800Y333482D02*
Y337419D01*
X576831Y345250D02*
X580768D01*
X578800Y343282D02*
Y347218D01*
X576831Y325650D02*
X580768D01*
X578800Y323681D02*
Y327619D01*
X563450Y365950D02*
X569750D01*
X566600Y362800D02*
Y369100D01*
X563450Y304950D02*
X569750D01*
X566600Y301800D02*
Y308100D01*
X548232Y297050D02*
X552169D01*
X550200Y295081D02*
Y299019D01*
X538432Y297050D02*
X542369D01*
X540400Y295081D02*
Y299019D01*
X511050Y365950D02*
X517350D01*
X514200Y362800D02*
Y369100D01*
X528631Y297050D02*
X532569D01*
X530600Y295081D02*
Y299019D01*
X511050Y304950D02*
X517350D01*
X514200Y301800D02*
Y308100D01*
X427500Y286506D02*
X430500D01*
X429000Y285006D02*
Y288006D01*
X371228Y274800D02*
X374772D01*
X373000Y273028D02*
Y276572D01*
X381228Y274800D02*
X384772D01*
X383000Y273028D02*
Y276572D01*
X391228Y274800D02*
X394772D01*
X393000Y273028D02*
Y276572D01*
X401228Y274800D02*
X404772D01*
X403000Y273028D02*
Y276572D01*
X282228Y199000D02*
X285772D01*
X284000Y197228D02*
Y200772D01*
X275157Y206071D02*
X278701D01*
X276929Y204299D02*
Y207843D01*
X289299Y206071D02*
X292843D01*
X291071Y204299D02*
Y207843D01*
X282228Y213142D02*
X285772D01*
X284000Y211370D02*
Y214914D01*
X278622Y281000D02*
X281378D01*
X280000Y279622D02*
Y282378D01*
X298622Y281000D02*
X301378D01*
X300000Y279622D02*
Y282378D01*
X467410Y341100D02*
X468590D01*
X468000Y340510D02*
Y341690D01*
X461610Y341300D02*
X462790D01*
X462200Y340709D02*
Y341891D01*
X365409Y309000D02*
X366590D01*
X366000Y308410D02*
Y309591D01*
X362910Y312000D02*
X364090D01*
X363500Y311409D02*
Y312591D01*
X300909Y254500D02*
X302091D01*
X301500Y253909D02*
Y255090D01*
X300899Y257990D02*
X302080D01*
X301490Y257399D02*
Y258580D01*
X357410Y249500D02*
X358591D01*
X358000Y248909D02*
Y250091D01*
X355909Y244500D02*
X357090D01*
X356500Y243910D02*
Y245091D01*
X458410Y378500D02*
X459590D01*
X459000Y377909D02*
Y379090D01*
X466409Y379000D02*
X467591D01*
X467000Y378410D02*
Y379591D01*
X551909Y380500D02*
X553090D01*
X552500Y379909D02*
Y381090D01*
X515909Y381000D02*
X517091D01*
X516500Y380410D02*
Y381591D01*
X304909Y283000D02*
X306090D01*
X305500Y282410D02*
Y283591D01*
X257159Y247750D02*
X258341D01*
X257750Y247160D02*
Y248341D01*
X249909Y217500D02*
X251091D01*
X250500Y216910D02*
Y218091D01*
X248410Y210500D02*
X249590D01*
X249000Y209910D02*
Y211090D01*
X282909Y227500D02*
X284090D01*
X283500Y226909D02*
Y228091D01*
X315409Y240500D02*
X316590D01*
X316000Y239910D02*
Y241090D01*
X296909Y274500D02*
X298091D01*
X297500Y273909D02*
Y275091D01*
X268910Y262000D02*
X270091D01*
X269500Y261409D02*
Y262591D01*
X256410Y268000D02*
X257591D01*
X257000Y267409D02*
Y268590D01*
X263409Y268000D02*
X264591D01*
X264000Y267409D02*
Y268590D01*
X300410Y248000D02*
X301590D01*
X301000Y247410D02*
Y248590D01*
X442909Y264000D02*
X444091D01*
X443500Y263409D02*
Y264591D01*
X469410Y264000D02*
X470590D01*
X470000Y263409D02*
Y264591D01*
X253909Y247000D02*
X255090D01*
X254500Y246410D02*
Y247590D01*
X285409Y253346D02*
X286591D01*
X286000Y252756D02*
Y253937D01*
X283551Y241142D02*
X284732D01*
X284142Y240551D02*
Y241732D01*
X301168Y242242D02*
X302349D01*
X301758Y241651D02*
Y242832D01*
X295409Y261000D02*
X296590D01*
X296000Y260409D02*
Y261591D01*
X284409Y261000D02*
X285591D01*
X285000Y260409D02*
Y261591D01*
X269409Y268000D02*
X270590D01*
X270000Y267409D02*
Y268590D01*
X468409Y308500D02*
X469591D01*
X469000Y307909D02*
Y309090D01*
X465614Y308713D02*
X466795D01*
X466205Y308122D02*
Y309303D01*
X440909Y328000D02*
X442091D01*
X441500Y327410D02*
Y328590D01*
X443910Y309000D02*
X445090D01*
X444500Y308410D02*
Y309591D01*
X446910Y327500D02*
X448091D01*
X447500Y326909D02*
Y328091D01*
X448910Y309000D02*
X450091D01*
X449500Y308410D02*
Y309591D01*
X450910Y327500D02*
X452091D01*
X451500Y326909D02*
Y328091D01*
X454910Y309000D02*
X456090D01*
X455500Y308410D02*
Y309591D01*
X435910Y328500D02*
X437090D01*
X436500Y327909D02*
Y329090D01*
X428909Y309500D02*
X430091D01*
X429500Y308910D02*
Y310090D01*
X425910Y309500D02*
X427091D01*
X426500Y308910D02*
Y310090D01*
X421410Y309500D02*
X422590D01*
X422000Y308910D02*
Y310090D01*
X413410Y309500D02*
X414591D01*
X414000Y308910D02*
Y310090D01*
X407740Y309409D02*
X408921D01*
X408331Y308818D02*
Y309999D01*
X386910Y327500D02*
X388090D01*
X387500Y326909D02*
Y328091D01*
X431410Y339000D02*
X432590D01*
X432000Y338409D02*
Y339591D01*
X411909Y339000D02*
X413091D01*
X412500Y338409D02*
Y339591D01*
X418409Y339500D02*
X419591D01*
X419000Y338910D02*
Y340090D01*
X449909Y337000D02*
X451090D01*
X450500Y336409D02*
Y337591D01*
X540410Y242500D02*
X541590D01*
X541000Y241910D02*
Y243091D01*
X554410Y242500D02*
X555590D01*
X555000Y241910D02*
Y243091D01*
X583410Y242500D02*
X584590D01*
X584000Y241910D02*
Y243091D01*
X597409Y242500D02*
X598591D01*
X598000Y241910D02*
Y243091D01*
X604910Y222500D02*
X606090D01*
X605500Y221909D02*
Y223091D01*
X583410Y222500D02*
X584590D01*
X584000Y221909D02*
Y223091D01*
X539910Y222500D02*
X541090D01*
X540500Y221909D02*
Y223091D01*
X553909Y222500D02*
X555091D01*
X554500Y221909D02*
Y223091D01*
X242910Y218500D02*
X244091D01*
X243500Y217910D02*
Y219091D01*
X241409Y212000D02*
X242590D01*
X242000Y211409D02*
Y212591D01*
X256909Y291900D02*
X258090D01*
X257500Y291309D02*
Y292491D01*
X262910Y292200D02*
X264090D01*
X263500Y291610D02*
Y292791D01*
X269409Y292100D02*
X270590D01*
X270000Y291510D02*
Y292690D01*
X277509Y270900D02*
X278691D01*
X278100Y270309D02*
Y271491D01*
M02*
