M48
;Layer_Color=9474304
;FILE_FORMAT=2:5
INCH
;TYPE=PLATED
T1F00S00C0.01181
T3F00S00C0.02756
T5F00S00C0.03543
T6F00S00C0.03937
T7F00S00C0.06299
T8F00S00C0.09055
;TYPE=NON_PLATED
%
T01
X0470000Y0264000
X0469000Y0308500
X0541000Y0242500
X0555000
X0554500Y0222500
X0540500
X0584000
Y0242500
X0598000
X0605500Y0222500
X0443500Y0264000
X0444500Y0309000
X0449500
X0455500
X0466205Y0308713
X0429500Y0309500
X0426500
X0422000
X0414000
X0408331Y0309409
X0366000Y0309000
X0363500Y0312000
X0358000Y0249500
X0356500Y0244500
X0316000Y0240500
X0301758Y0242242
X0301000Y0248000
X0301500Y0254500
X0301490Y0257990
X0296000Y0261000
X0285000
X0286000Y0253346
X0284142Y0241142
X0283500Y0227500
X0250500Y0217500
X0243500Y0218500
X0242000Y0212000
X0249000Y0210500
X0254500Y0247000
X0257750Y0247750
X0257000Y0268000
X0264000
X0270000
X0269500Y0262000
X0278100Y0270900
X0297500Y0274500
X0305500Y0283000
X0270000Y0292100
X0263500Y0292200
X0257500Y0291900
X0387500Y0327500
X0412500Y0339000
X0419000Y0339500
X0432000Y0339000
X0436500Y0328500
X0441500Y0328000
X0447500Y0327500
X0451500
X0450500Y0337000
X0462200Y0341300
X0468000Y0341100
X0467000Y0379000
X0459000Y0378500
X0516500Y0381000
X0552500Y0380500
T03
X0280000Y0281000
X0300000
T05
X0589500Y0171000
X0599500
Y0181000
X0589500
X0443000Y0295200
X0433000
X0423000
X0413000
X0403000Y0274800
X0393000
X0383000
X0373000
X0305071Y0195712
X0298000Y0188641
X0290929Y0181570
X0284000Y0199000
X0276929Y0206071
X0291071
X0284000Y0213142
X0268000Y0179500
Y0169500
X0258000
Y0179500
X0474000Y0391000
X0484000
X0494000
Y0401000
X0484000
X0474000
T06
X0530600Y0297050
X0540400
X0550200Y0297050
X0328700Y0296550
X0318900Y0296550
X0309100
X0357300Y0325150
Y0334950
X0357300Y0344750
X0578800Y0345250
X0578800Y0335450
Y0325650
T07
X0514200Y0304950
X0566600Y0304950
X0345100Y0304450
X0292700Y0304450
X0292700Y0365450
X0345100Y0365450
X0514200Y0365950
X0566600Y0365950
T08
X0306200Y0408400
X0324200Y0408400
X0342200Y0408400
X0516700Y0408400
X0534700Y0408400
X0552700Y0408400
M30
