G04 Layer_Color=255*
%FSLAX25Y25*%
%MOIN*%
G70*
G01*
G75*
G04:AMPARAMS|DCode=13|XSize=39.37mil|YSize=35.43mil|CornerRadius=1.77mil|HoleSize=0mil|Usage=FLASHONLY|Rotation=180.000|XOffset=0mil|YOffset=0mil|HoleType=Round|Shape=RoundedRectangle|*
%AMROUNDEDRECTD13*
21,1,0.03937,0.03189,0,0,180.0*
21,1,0.03583,0.03543,0,0,180.0*
1,1,0.00354,-0.01791,0.01595*
1,1,0.00354,0.01791,0.01595*
1,1,0.00354,0.01791,-0.01595*
1,1,0.00354,-0.01791,-0.01595*
%
%ADD13ROUNDEDRECTD13*%
G04:AMPARAMS|DCode=14|XSize=39.37mil|YSize=35.43mil|CornerRadius=1.77mil|HoleSize=0mil|Usage=FLASHONLY|Rotation=270.000|XOffset=0mil|YOffset=0mil|HoleType=Round|Shape=RoundedRectangle|*
%AMROUNDEDRECTD14*
21,1,0.03937,0.03189,0,0,270.0*
21,1,0.03583,0.03543,0,0,270.0*
1,1,0.00354,-0.01595,-0.01791*
1,1,0.00354,-0.01595,0.01791*
1,1,0.00354,0.01595,0.01791*
1,1,0.00354,0.01595,-0.01791*
%
%ADD14ROUNDEDRECTD14*%
%ADD16R,0.03937X0.04331*%
%ADD17R,0.04331X0.03937*%
G04:AMPARAMS|DCode=21|XSize=78.74mil|YSize=94.49mil|CornerRadius=0mil|HoleSize=0mil|Usage=FLASHONLY|Rotation=80.000|XOffset=0mil|YOffset=0mil|HoleType=Round|Shape=Round|*
%AMOVALD21*
21,1,0.01575,0.07874,0.00000,0.00000,170.0*
1,1,0.07874,0.00775,-0.00137*
1,1,0.07874,-0.00775,0.00137*
%
%ADD21OVALD21*%

G04:AMPARAMS|DCode=22|XSize=39.37mil|YSize=78.74mil|CornerRadius=0mil|HoleSize=0mil|Usage=FLASHONLY|Rotation=260.000|XOffset=0mil|YOffset=0mil|HoleType=Round|Shape=Round|*
%AMOVALD22*
21,1,0.03937,0.03937,0.00000,0.00000,350.0*
1,1,0.03937,-0.01939,0.00342*
1,1,0.03937,0.01939,-0.00342*
%
%ADD22OVALD22*%

%ADD23R,0.05906X0.05906*%
%ADD24P,0.08352X4X270.0*%
%ADD25C,0.05906*%
%ADD26R,0.05906X0.05906*%
%ADD27O,0.12000X0.16000*%
%ADD28C,0.07087*%
%ADD29C,0.09843*%
%ADD30O,0.86614X0.03937*%
%ADD31C,0.04724*%
%ADD33R,0.01575X0.11811*%
%ADD34O,0.01181X0.06496*%
%ADD35O,0.06496X0.01181*%
G04:AMPARAMS|DCode=36|XSize=39.37mil|YSize=43.31mil|CornerRadius=0mil|HoleSize=0mil|Usage=FLASHONLY|Rotation=80.000|XOffset=0mil|YOffset=0mil|HoleType=Round|Shape=Rectangle|*
%AMROTATEDRECTD36*
4,1,4,0.01791,-0.02315,-0.02474,-0.01563,-0.01791,0.02315,0.02474,0.01563,0.01791,-0.02315,0.0*
%
%ADD36ROTATEDRECTD36*%

%ADD37R,0.01575X0.03937*%
D13*
X462000Y336846D02*
D03*
Y330153D02*
D03*
X468000Y336846D02*
D03*
Y330153D02*
D03*
D14*
X588154Y222500D02*
D03*
X594846D02*
D03*
X544654D02*
D03*
X551346D02*
D03*
X587653Y242500D02*
D03*
X594347D02*
D03*
X544654Y242469D02*
D03*
X551346D02*
D03*
X431847Y328500D02*
D03*
X425153D02*
D03*
X412153D02*
D03*
X418847D02*
D03*
X412153Y334500D02*
D03*
X418847D02*
D03*
X405847D02*
D03*
X399153D02*
D03*
X392846D02*
D03*
X386154D02*
D03*
X300346Y293000D02*
D03*
X293653D02*
D03*
X279153D02*
D03*
X285846D02*
D03*
D16*
X455500Y336846D02*
D03*
Y330153D02*
D03*
X552500Y381153D02*
D03*
Y387846D02*
D03*
X342500Y381153D02*
D03*
Y387846D02*
D03*
X516500Y381153D02*
D03*
Y387846D02*
D03*
X306500Y381153D02*
D03*
Y387846D02*
D03*
D17*
X425153Y335000D02*
D03*
X431847D02*
D03*
X429347Y303500D02*
D03*
X422653D02*
D03*
X436654Y303500D02*
D03*
X443347D02*
D03*
D21*
X249983Y228763D02*
D03*
X244773Y199219D02*
D03*
D22*
X258867Y221560D02*
D03*
X255585Y202950D02*
D03*
D23*
X443000Y295200D02*
D03*
X433000D02*
D03*
X423000D02*
D03*
X413000D02*
D03*
X474000Y391000D02*
D03*
X373000Y274800D02*
D03*
X383000D02*
D03*
X393000D02*
D03*
X403000D02*
D03*
D24*
X305071Y195712D02*
D03*
X298000Y188641D02*
D03*
X290929Y181570D02*
D03*
X284000Y199000D02*
D03*
D25*
X494000Y401000D02*
D03*
Y391000D02*
D03*
X484000Y401000D02*
D03*
Y391000D02*
D03*
X474000Y401000D02*
D03*
X589500Y171000D02*
D03*
X599500Y181000D02*
D03*
X589500D02*
D03*
X258000Y169500D02*
D03*
X268000Y179500D02*
D03*
X258000D02*
D03*
X276929Y206071D02*
D03*
X291071D02*
D03*
X284000Y213142D02*
D03*
D26*
X599500Y171000D02*
D03*
X268000Y169500D02*
D03*
D27*
X306200Y408400D02*
D03*
X324200Y408400D02*
D03*
X342200Y408400D02*
D03*
X516700Y408400D02*
D03*
X534700Y408400D02*
D03*
X552700Y408400D02*
D03*
D28*
X357300Y334950D02*
D03*
X357300Y344750D02*
D03*
X357300Y325150D02*
D03*
X328700Y296550D02*
D03*
X318900Y296550D02*
D03*
X309100D02*
D03*
X578800Y335450D02*
D03*
X578800Y345250D02*
D03*
X578800Y325650D02*
D03*
X550200Y297050D02*
D03*
X540400Y297050D02*
D03*
X530600D02*
D03*
D29*
X345100Y365450D02*
D03*
X345100Y304450D02*
D03*
X292700Y365450D02*
D03*
X292700Y304450D02*
D03*
X566600Y365950D02*
D03*
X566600Y304950D02*
D03*
X514200Y365950D02*
D03*
X514200Y304950D02*
D03*
D30*
X429000Y286506D02*
D03*
D31*
X280000Y281000D02*
D03*
X300000D02*
D03*
D33*
X468961Y318494D02*
D03*
X460693D02*
D03*
X444158D02*
D03*
X452425D02*
D03*
X430378D02*
D03*
X422110D02*
D03*
X413842D02*
D03*
X405575D02*
D03*
X397307D02*
D03*
X389039D02*
D03*
X466205D02*
D03*
X463449D02*
D03*
X455181D02*
D03*
X457937D02*
D03*
X446913D02*
D03*
X449669D02*
D03*
X438646D02*
D03*
X441402D02*
D03*
X435890D02*
D03*
X433134D02*
D03*
X427622D02*
D03*
X424866D02*
D03*
X419354D02*
D03*
X416598D02*
D03*
X411087D02*
D03*
X408331D02*
D03*
X402819D02*
D03*
X400063D02*
D03*
X394551D02*
D03*
X391795D02*
D03*
D34*
X282173Y267143D02*
D03*
X284142D02*
D03*
X286110D02*
D03*
X288079D02*
D03*
X290047D02*
D03*
X292016D02*
D03*
X293984D02*
D03*
X295953D02*
D03*
X297921D02*
D03*
X299890D02*
D03*
X301858D02*
D03*
X303827D02*
D03*
Y235057D02*
D03*
X301858D02*
D03*
X299890D02*
D03*
X297921D02*
D03*
X295953D02*
D03*
X293984D02*
D03*
X292016D02*
D03*
X290047D02*
D03*
X288079D02*
D03*
X286110D02*
D03*
X284142D02*
D03*
X282173D02*
D03*
D35*
X309043Y261927D02*
D03*
Y259958D02*
D03*
Y257990D02*
D03*
Y256021D02*
D03*
Y254053D02*
D03*
Y252084D02*
D03*
Y250116D02*
D03*
Y248147D02*
D03*
Y246179D02*
D03*
Y244210D02*
D03*
Y242242D02*
D03*
Y240273D02*
D03*
X276957D02*
D03*
Y242242D02*
D03*
Y244210D02*
D03*
Y246179D02*
D03*
Y248147D02*
D03*
Y250116D02*
D03*
Y252084D02*
D03*
Y254053D02*
D03*
Y256021D02*
D03*
Y257990D02*
D03*
Y259958D02*
D03*
Y261927D02*
D03*
D36*
X248796Y210419D02*
D03*
X242204Y211581D02*
D03*
X250296Y217419D02*
D03*
X243704Y218581D02*
D03*
D37*
X256776Y278063D02*
D03*
X259925D02*
D03*
X263075D02*
D03*
X266224D02*
D03*
X256776Y285937D02*
D03*
X259925D02*
D03*
X263075D02*
D03*
X266224D02*
D03*
M02*
