G04 Layer_Color=2752767*
%FSLAX25Y25*%
%MOIN*%
G70*
G01*
G75*
%ADD77C,0.00200*%
%ADD78C,0.00267*%
D77*
X249183Y227963D02*
Y229563D01*
X250783D01*
Y227963D01*
X249183D01*
X243973Y198419D02*
Y200019D01*
X245573D01*
Y198419D01*
X243973D01*
X443000Y294400D02*
X442200Y296000D01*
X443800D01*
X443000Y294400D01*
X433000D02*
X432200Y296000D01*
X433800D01*
X433000Y294400D01*
X423000D02*
X422200Y296000D01*
X423800D01*
X423000Y294400D01*
X413000D02*
X412200Y296000D01*
X413800D01*
X413000Y294400D01*
X305071Y194913D02*
X304271Y196512D01*
X305871D01*
X305071Y194913D01*
X298000Y187841D02*
X297200Y189441D01*
X298800D01*
X298000Y187841D01*
X290929Y180770D02*
X290129Y182370D01*
X291729D01*
X290929Y180770D01*
X494000Y400200D02*
X493200Y401800D01*
X494800D01*
X494000Y400200D01*
Y390200D02*
X493200Y391800D01*
X494800D01*
X494000Y390200D01*
X484000Y400200D02*
X483200Y401800D01*
X484800D01*
X484000Y400200D01*
Y390200D02*
X483200Y391800D01*
X484800D01*
X484000Y390200D01*
X474000Y400200D02*
X473200Y401800D01*
X474800D01*
X474000Y400200D01*
Y390200D02*
X473200Y391800D01*
X474800D01*
X474000Y390200D01*
X599500Y170200D02*
X598700Y171800D01*
X600300D01*
X599500Y170200D01*
X589500D02*
X588700Y171800D01*
X590300D01*
X589500Y170200D01*
X599500Y180200D02*
X598700Y181800D01*
X600300D01*
X599500Y180200D01*
X589500D02*
X588700Y181800D01*
X590300D01*
X589500Y180200D01*
X268000Y168700D02*
X267200Y170300D01*
X268800D01*
X268000Y168700D01*
X258000D02*
X257200Y170300D01*
X258800D01*
X258000Y168700D01*
X268000Y178700D02*
X267200Y180300D01*
X268800D01*
X268000Y178700D01*
X258000D02*
X257200Y180300D01*
X258800D01*
X258000Y178700D01*
X306200Y407600D02*
X306600Y408000D01*
X307000D01*
X306600Y408400D01*
X307000Y408800D01*
X306600D01*
X306200Y409200D01*
X305800Y408800D01*
X305400D01*
X305800Y408400D01*
X305400Y408000D01*
X305800D01*
X306200Y407600D01*
X324200Y407600D02*
X324600Y408000D01*
X325000D01*
X324600Y408400D01*
X325000Y408800D01*
X324600D01*
X324200Y409200D01*
X323800Y408800D01*
X323400D01*
X323800Y408400D01*
X323400Y408000D01*
X323800D01*
X324200Y407600D01*
X342200Y407600D02*
X342600Y408000D01*
X343000D01*
X342600Y408400D01*
X343000Y408800D01*
X342600D01*
X342200Y409200D01*
X341800Y408800D01*
X341400D01*
X341800Y408400D01*
X341400Y408000D01*
X341800D01*
X342200Y407600D01*
X516700Y407600D02*
X517100Y408000D01*
X517500D01*
X517100Y408400D01*
X517500Y408800D01*
X517100D01*
X516700Y409200D01*
X516300Y408800D01*
X515900D01*
X516300Y408400D01*
X515900Y408000D01*
X516300D01*
X516700Y407600D01*
X534700Y407600D02*
X535100Y408000D01*
X535500D01*
X535100Y408400D01*
X535500Y408800D01*
X535100D01*
X534700Y409200D01*
X534300Y408800D01*
X533900D01*
X534300Y408400D01*
X533900Y408000D01*
X534300D01*
X534700Y407600D01*
X552700Y407600D02*
X553100Y408000D01*
X553500D01*
X553100Y408400D01*
X553500Y408800D01*
X553100D01*
X552700Y409200D01*
X552300Y408800D01*
X551900D01*
X552300Y408400D01*
X551900Y408000D01*
X552300D01*
X552700Y407600D01*
X356500Y334150D02*
X356900Y334950D01*
X356500Y335750D01*
X357300Y335350D01*
X358100Y335750D01*
X357700Y334950D01*
X358100Y334150D01*
X357300Y334550D01*
X356500Y334150D01*
X356500Y343950D02*
X356900Y344750D01*
X356500Y345550D01*
X357300Y345150D01*
X358100Y345550D01*
X357700Y344750D01*
X358100Y343950D01*
X357300Y344350D01*
X356500Y343950D01*
X356500Y324350D02*
X356900Y325150D01*
X356500Y325950D01*
X357300Y325550D01*
X358100Y325950D01*
X357700Y325150D01*
X358100Y324350D01*
X357300Y324750D01*
X356500Y324350D01*
X344700Y365050D02*
Y364650D01*
X345500D01*
Y365050D01*
X345900D01*
Y365850D01*
X345500D01*
Y366250D01*
X344700D01*
Y365850D01*
X344300D01*
Y365050D01*
X344700D01*
X344700Y304050D02*
Y303650D01*
X345500D01*
Y304050D01*
X345900D01*
Y304850D01*
X345500D01*
Y305250D01*
X344700D01*
Y304850D01*
X344300D01*
Y304050D01*
X344700D01*
X327900Y295750D02*
X328300Y296550D01*
X327900Y297350D01*
X328700Y296950D01*
X329500Y297350D01*
X329100Y296550D01*
X329500Y295750D01*
X328700Y296150D01*
X327900Y295750D01*
X318100Y295750D02*
X318500Y296550D01*
X318100Y297350D01*
X318900Y296950D01*
X319700Y297350D01*
X319300Y296550D01*
X319700Y295750D01*
X318900Y296150D01*
X318100Y295750D01*
X292300Y365050D02*
Y364650D01*
X293100D01*
Y365050D01*
X293500D01*
Y365850D01*
X293100D01*
Y366250D01*
X292300D01*
Y365850D01*
X291900D01*
Y365050D01*
X292300D01*
X308300Y295750D02*
X308700Y296550D01*
X308300Y297350D01*
X309100Y296950D01*
X309900Y297350D01*
X309500Y296550D01*
X309900Y295750D01*
X309100Y296150D01*
X308300Y295750D01*
X292300Y304050D02*
Y303650D01*
X293100D01*
Y304050D01*
X293500D01*
Y304850D01*
X293100D01*
Y305250D01*
X292300D01*
Y304850D01*
X291900D01*
Y304050D01*
X292300D01*
X578000Y334650D02*
X578400Y335450D01*
X578000Y336250D01*
X578800Y335850D01*
X579600Y336250D01*
X579200Y335450D01*
X579600Y334650D01*
X578800Y335050D01*
X578000Y334650D01*
X578000Y344450D02*
X578400Y345250D01*
X578000Y346050D01*
X578800Y345650D01*
X579600Y346050D01*
X579200Y345250D01*
X579600Y344450D01*
X578800Y344850D01*
X578000Y344450D01*
X578000Y324850D02*
X578400Y325650D01*
X578000Y326450D01*
X578800Y326050D01*
X579600Y326450D01*
X579200Y325650D01*
X579600Y324850D01*
X578800Y325250D01*
X578000Y324850D01*
X566200Y365550D02*
Y365150D01*
X567000D01*
Y365550D01*
X567400D01*
Y366350D01*
X567000D01*
Y366750D01*
X566200D01*
Y366350D01*
X565800D01*
Y365550D01*
X566200D01*
X566200Y304550D02*
Y304150D01*
X567000D01*
Y304550D01*
X567400D01*
Y305350D01*
X567000D01*
Y305750D01*
X566200D01*
Y305350D01*
X565800D01*
Y304550D01*
X566200D01*
X549400Y296250D02*
X549800Y297050D01*
X549400Y297850D01*
X550200Y297450D01*
X551000Y297850D01*
X550600Y297050D01*
X551000Y296250D01*
X550200Y296650D01*
X549400Y296250D01*
X539600Y296250D02*
X540000Y297050D01*
X539600Y297850D01*
X540400Y297450D01*
X541200Y297850D01*
X540800Y297050D01*
X541200Y296250D01*
X540400Y296650D01*
X539600Y296250D01*
X513800Y365550D02*
Y365150D01*
X514600D01*
Y365550D01*
X515000D01*
Y366350D01*
X514600D01*
Y366750D01*
X513800D01*
Y366350D01*
X513400D01*
Y365550D01*
X513800D01*
X529800Y296250D02*
X530200Y297050D01*
X529800Y297850D01*
X530600Y297450D01*
X531400Y297850D01*
X531000Y297050D01*
X531400Y296250D01*
X530600Y296650D01*
X529800Y296250D01*
X513800Y304550D02*
Y304150D01*
X514600D01*
Y304550D01*
X515000D01*
Y305350D01*
X514600D01*
Y305750D01*
X513800D01*
Y305350D01*
X513400D01*
Y304550D01*
X513800D01*
X428200Y285706D02*
X428600D01*
X429000Y286106D01*
X429400Y285706D01*
X429800D01*
Y286106D01*
X429400Y286506D01*
X429800Y286906D01*
Y287306D01*
X429400D01*
X429000Y286906D01*
X428600Y287306D01*
X428200D01*
Y286906D01*
X428600Y286506D01*
X428200Y286106D01*
Y285706D01*
X373000Y274000D02*
X372200Y275600D01*
X373800D01*
X373000Y274000D01*
X383000D02*
X382200Y275600D01*
X383800D01*
X383000Y274000D01*
X393000D02*
X392200Y275600D01*
X393800D01*
X393000Y274000D01*
X403000D02*
X402200Y275600D01*
X403800D01*
X403000Y274000D01*
X284000Y198200D02*
X283200Y199800D01*
X284800D01*
X284000Y198200D01*
X276929Y205271D02*
X276129Y206871D01*
X277729D01*
X276929Y205271D01*
X291071D02*
X290271Y206871D01*
X291871D01*
X291071Y205271D01*
X284000Y212342D02*
X283200Y213942D01*
X284800D01*
X284000Y212342D01*
X279200Y281000D02*
X280000Y281800D01*
X280800Y281000D01*
X280000Y280200D01*
X279200Y281000D01*
X299200D02*
X300000Y281800D01*
X300800Y281000D01*
X300000Y280200D01*
X299200Y281000D01*
X467200Y340300D02*
Y341900D01*
X468800D01*
Y340300D01*
X467200D01*
X467600Y340700D02*
Y341500D01*
X468400D01*
Y340700D01*
X467600D01*
X461400Y340500D02*
Y342100D01*
X463000D01*
Y340500D01*
X461400D01*
X461800Y340900D02*
Y341700D01*
X462600D01*
Y340900D01*
X461800D01*
X365200Y308200D02*
Y309800D01*
X366800D01*
Y308200D01*
X365200D01*
X365600Y308600D02*
Y309400D01*
X366400D01*
Y308600D01*
X365600D01*
X362700Y311200D02*
Y312800D01*
X364300D01*
Y311200D01*
X362700D01*
X363100Y311600D02*
Y312400D01*
X363900D01*
Y311600D01*
X363100D01*
X300700Y253700D02*
Y255300D01*
X302300D01*
Y253700D01*
X300700D01*
X301100Y254100D02*
Y254900D01*
X301900D01*
Y254100D01*
X301100D01*
X300690Y257190D02*
Y258790D01*
X302290D01*
Y257190D01*
X300690D01*
X301090Y257590D02*
Y258390D01*
X301890D01*
Y257590D01*
X301090D01*
X357200Y248700D02*
Y250300D01*
X358800D01*
Y248700D01*
X357200D01*
X357600Y249100D02*
Y249900D01*
X358400D01*
Y249100D01*
X357600D01*
X355700Y243700D02*
Y245300D01*
X357300D01*
Y243700D01*
X355700D01*
X356100Y244100D02*
Y244900D01*
X356900D01*
Y244100D01*
X356100D01*
X458200Y377700D02*
Y379300D01*
X459800D01*
Y377700D01*
X458200D01*
X458600Y378100D02*
Y378900D01*
X459400D01*
Y378100D01*
X458600D01*
X466200Y378200D02*
Y379800D01*
X467800D01*
Y378200D01*
X466200D01*
X466600Y378600D02*
Y379400D01*
X467400D01*
Y378600D01*
X466600D01*
X551700Y379700D02*
Y381300D01*
X553300D01*
Y379700D01*
X551700D01*
X552100Y380100D02*
Y380900D01*
X552900D01*
Y380100D01*
X552100D01*
X515700Y380200D02*
Y381800D01*
X517300D01*
Y380200D01*
X515700D01*
X516100Y380600D02*
Y381400D01*
X516900D01*
Y380600D01*
X516100D01*
X304700Y282200D02*
Y283800D01*
X306300D01*
Y282200D01*
X304700D01*
X305100Y282600D02*
Y283400D01*
X305900D01*
Y282600D01*
X305100D01*
X256950Y246950D02*
Y248550D01*
X258550D01*
Y246950D01*
X256950D01*
X257350Y247350D02*
Y248150D01*
X258150D01*
Y247350D01*
X257350D01*
X249700Y216700D02*
Y218300D01*
X251300D01*
Y216700D01*
X249700D01*
X250100Y217100D02*
Y217900D01*
X250900D01*
Y217100D01*
X250100D01*
X248200Y209700D02*
Y211300D01*
X249800D01*
Y209700D01*
X248200D01*
X248600Y210100D02*
Y210900D01*
X249400D01*
Y210100D01*
X248600D01*
X282700Y226700D02*
Y228300D01*
X284300D01*
Y226700D01*
X282700D01*
X283100Y227100D02*
Y227900D01*
X283900D01*
Y227100D01*
X283100D01*
X315200Y239700D02*
Y241300D01*
X316800D01*
Y239700D01*
X315200D01*
X315600Y240100D02*
Y240900D01*
X316400D01*
Y240100D01*
X315600D01*
X296700Y273700D02*
Y275300D01*
X298300D01*
Y273700D01*
X296700D01*
X297100Y274100D02*
Y274900D01*
X297900D01*
Y274100D01*
X297100D01*
X268700Y261200D02*
Y262800D01*
X270300D01*
Y261200D01*
X268700D01*
X269100Y261600D02*
Y262400D01*
X269900D01*
Y261600D01*
X269100D01*
X256200Y267200D02*
Y268800D01*
X257800D01*
Y267200D01*
X256200D01*
X256600Y267600D02*
Y268400D01*
X257400D01*
Y267600D01*
X256600D01*
X263200Y267200D02*
Y268800D01*
X264800D01*
Y267200D01*
X263200D01*
X263600Y267600D02*
Y268400D01*
X264400D01*
Y267600D01*
X263600D01*
X300200Y247200D02*
Y248800D01*
X301800D01*
Y247200D01*
X300200D01*
X300600Y247600D02*
Y248400D01*
X301400D01*
Y247600D01*
X300600D01*
X442700Y263200D02*
Y264800D01*
X444300D01*
Y263200D01*
X442700D01*
X443100Y263600D02*
Y264400D01*
X443900D01*
Y263600D01*
X443100D01*
X469200Y263200D02*
Y264800D01*
X470800D01*
Y263200D01*
X469200D01*
X469600Y263600D02*
Y264400D01*
X470400D01*
Y263600D01*
X469600D01*
X253700Y246200D02*
Y247800D01*
X255300D01*
Y246200D01*
X253700D01*
X254100Y246600D02*
Y247400D01*
X254900D01*
Y246600D01*
X254100D01*
X285200Y252547D02*
Y254147D01*
X286800D01*
Y252547D01*
X285200D01*
X285600Y252946D02*
Y253747D01*
X286400D01*
Y252946D01*
X285600D01*
X283342Y240342D02*
Y241942D01*
X284942D01*
Y240342D01*
X283342D01*
X283742Y240742D02*
Y241542D01*
X284542D01*
Y240742D01*
X283742D01*
X300958Y241442D02*
Y243042D01*
X302558D01*
Y241442D01*
X300958D01*
X301358Y241842D02*
Y242642D01*
X302158D01*
Y241842D01*
X301358D01*
X295200Y260200D02*
Y261800D01*
X296800D01*
Y260200D01*
X295200D01*
X295600Y260600D02*
Y261400D01*
X296400D01*
Y260600D01*
X295600D01*
X284200Y260200D02*
Y261800D01*
X285800D01*
Y260200D01*
X284200D01*
X284600Y260600D02*
Y261400D01*
X285400D01*
Y260600D01*
X284600D01*
X269200Y267200D02*
Y268800D01*
X270800D01*
Y267200D01*
X269200D01*
X269600Y267600D02*
Y268400D01*
X270400D01*
Y267600D01*
X269600D01*
X468200Y307700D02*
Y309300D01*
X469800D01*
Y307700D01*
X468200D01*
X468600Y308100D02*
Y308900D01*
X469400D01*
Y308100D01*
X468600D01*
X465405Y307913D02*
Y309513D01*
X467005D01*
Y307913D01*
X465405D01*
X465805Y308313D02*
Y309113D01*
X466605D01*
Y308313D01*
X465805D01*
X440700Y327200D02*
Y328800D01*
X442300D01*
Y327200D01*
X440700D01*
X441100Y327600D02*
Y328400D01*
X441900D01*
Y327600D01*
X441100D01*
X443700Y308200D02*
Y309800D01*
X445300D01*
Y308200D01*
X443700D01*
X444100Y308600D02*
Y309400D01*
X444900D01*
Y308600D01*
X444100D01*
X446700Y326700D02*
Y328300D01*
X448300D01*
Y326700D01*
X446700D01*
X447100Y327100D02*
Y327900D01*
X447900D01*
Y327100D01*
X447100D01*
X448700Y308200D02*
Y309800D01*
X450300D01*
Y308200D01*
X448700D01*
X449100Y308600D02*
Y309400D01*
X449900D01*
Y308600D01*
X449100D01*
X450700Y326700D02*
Y328300D01*
X452300D01*
Y326700D01*
X450700D01*
X451100Y327100D02*
Y327900D01*
X451900D01*
Y327100D01*
X451100D01*
X454700Y308200D02*
Y309800D01*
X456300D01*
Y308200D01*
X454700D01*
X455100Y308600D02*
Y309400D01*
X455900D01*
Y308600D01*
X455100D01*
X435700Y327700D02*
Y329300D01*
X437300D01*
Y327700D01*
X435700D01*
X436100Y328100D02*
Y328900D01*
X436900D01*
Y328100D01*
X436100D01*
X428700Y308700D02*
Y310300D01*
X430300D01*
Y308700D01*
X428700D01*
X429100Y309100D02*
Y309900D01*
X429900D01*
Y309100D01*
X429100D01*
X425700Y308700D02*
Y310300D01*
X427300D01*
Y308700D01*
X425700D01*
X426100Y309100D02*
Y309900D01*
X426900D01*
Y309100D01*
X426100D01*
X421200Y308700D02*
Y310300D01*
X422800D01*
Y308700D01*
X421200D01*
X421600Y309100D02*
Y309900D01*
X422400D01*
Y309100D01*
X421600D01*
X413200Y308700D02*
Y310300D01*
X414800D01*
Y308700D01*
X413200D01*
X413600Y309100D02*
Y309900D01*
X414400D01*
Y309100D01*
X413600D01*
X407531Y308609D02*
Y310209D01*
X409131D01*
Y308609D01*
X407531D01*
X407931Y309009D02*
Y309809D01*
X408731D01*
Y309009D01*
X407931D01*
X386700Y326700D02*
Y328300D01*
X388300D01*
Y326700D01*
X386700D01*
X387100Y327100D02*
Y327900D01*
X387900D01*
Y327100D01*
X387100D01*
X431200Y338200D02*
Y339800D01*
X432800D01*
Y338200D01*
X431200D01*
X431600Y338600D02*
Y339400D01*
X432400D01*
Y338600D01*
X431600D01*
X411700Y338200D02*
Y339800D01*
X413300D01*
Y338200D01*
X411700D01*
X412100Y338600D02*
Y339400D01*
X412900D01*
Y338600D01*
X412100D01*
X418200Y338700D02*
Y340300D01*
X419800D01*
Y338700D01*
X418200D01*
X418600Y339100D02*
Y339900D01*
X419400D01*
Y339100D01*
X418600D01*
X449700Y336200D02*
Y337800D01*
X451300D01*
Y336200D01*
X449700D01*
X450100Y336600D02*
Y337400D01*
X450900D01*
Y336600D01*
X450100D01*
X540200Y241700D02*
Y243300D01*
X541800D01*
Y241700D01*
X540200D01*
X540600Y242100D02*
Y242900D01*
X541400D01*
Y242100D01*
X540600D01*
X554200Y241700D02*
Y243300D01*
X555800D01*
Y241700D01*
X554200D01*
X554600Y242100D02*
Y242900D01*
X555400D01*
Y242100D01*
X554600D01*
X583200Y241700D02*
Y243300D01*
X584800D01*
Y241700D01*
X583200D01*
X583600Y242100D02*
Y242900D01*
X584400D01*
Y242100D01*
X583600D01*
X597200Y241700D02*
Y243300D01*
X598800D01*
Y241700D01*
X597200D01*
X597600Y242100D02*
Y242900D01*
X598400D01*
Y242100D01*
X597600D01*
X604700Y221700D02*
Y223300D01*
X606300D01*
Y221700D01*
X604700D01*
X605100Y222100D02*
Y222900D01*
X605900D01*
Y222100D01*
X605100D01*
X583200Y221700D02*
Y223300D01*
X584800D01*
Y221700D01*
X583200D01*
X583600Y222100D02*
Y222900D01*
X584400D01*
Y222100D01*
X583600D01*
X539700Y221700D02*
Y223300D01*
X541300D01*
Y221700D01*
X539700D01*
X540100Y222100D02*
Y222900D01*
X540900D01*
Y222100D01*
X540100D01*
X553700Y221700D02*
Y223300D01*
X555300D01*
Y221700D01*
X553700D01*
X554100Y222100D02*
Y222900D01*
X554900D01*
Y222100D01*
X554100D01*
X242700Y217700D02*
Y219300D01*
X244300D01*
Y217700D01*
X242700D01*
X243100Y218100D02*
Y218900D01*
X243900D01*
Y218100D01*
X243100D01*
X241200Y211200D02*
Y212800D01*
X242800D01*
Y211200D01*
X241200D01*
X241600Y211600D02*
Y212400D01*
X242400D01*
Y211600D01*
X241600D01*
X256700Y291100D02*
Y292700D01*
X258300D01*
Y291100D01*
X256700D01*
X257100Y291500D02*
Y292300D01*
X257900D01*
Y291500D01*
X257100D01*
X262700Y291400D02*
Y293000D01*
X264300D01*
Y291400D01*
X262700D01*
X263100Y291800D02*
Y292600D01*
X263900D01*
Y291800D01*
X263100D01*
X269200Y291300D02*
Y292900D01*
X270800D01*
Y291300D01*
X269200D01*
X269600Y291700D02*
Y292500D01*
X270400D01*
Y291700D01*
X269600D01*
X277300Y270100D02*
Y271700D01*
X278900D01*
Y270100D01*
X277300D01*
X277700Y270500D02*
Y271300D01*
X278500D01*
Y270500D01*
X277700D01*
D78*
X259667Y221560D02*
G03*
X259667Y221560I-800J0D01*
G01*
X256385Y202950D02*
G03*
X256385Y202950I-800J0D01*
G01*
M02*
