G04 Layer_Color=128*
%FSLAX25Y25*%
%MOIN*%
G70*
G01*
G75*
G04:AMPARAMS|DCode=13|XSize=39.37mil|YSize=35.43mil|CornerRadius=1.77mil|HoleSize=0mil|Usage=FLASHONLY|Rotation=180.000|XOffset=0mil|YOffset=0mil|HoleType=Round|Shape=RoundedRectangle|*
%AMROUNDEDRECTD13*
21,1,0.03937,0.03189,0,0,180.0*
21,1,0.03583,0.03543,0,0,180.0*
1,1,0.00354,-0.01791,0.01595*
1,1,0.00354,0.01791,0.01595*
1,1,0.00354,0.01791,-0.01595*
1,1,0.00354,-0.01791,-0.01595*
%
%ADD13ROUNDEDRECTD13*%
G04:AMPARAMS|DCode=14|XSize=39.37mil|YSize=35.43mil|CornerRadius=1.77mil|HoleSize=0mil|Usage=FLASHONLY|Rotation=270.000|XOffset=0mil|YOffset=0mil|HoleType=Round|Shape=RoundedRectangle|*
%AMROUNDEDRECTD14*
21,1,0.03937,0.03189,0,0,270.0*
21,1,0.03583,0.03543,0,0,270.0*
1,1,0.00354,-0.01595,-0.01791*
1,1,0.00354,-0.01595,0.01791*
1,1,0.00354,0.01595,0.01791*
1,1,0.00354,0.01595,-0.01791*
%
%ADD14ROUNDEDRECTD14*%
%ADD16R,0.03937X0.04331*%
%ADD17R,0.04331X0.03937*%
%ADD33R,0.01575X0.11811*%
%ADD34O,0.01181X0.06496*%
%ADD35O,0.06496X0.01181*%
G04:AMPARAMS|DCode=36|XSize=39.37mil|YSize=43.31mil|CornerRadius=0mil|HoleSize=0mil|Usage=FLASHONLY|Rotation=80.000|XOffset=0mil|YOffset=0mil|HoleType=Round|Shape=Rectangle|*
%AMROTATEDRECTD36*
4,1,4,0.01791,-0.02315,-0.02474,-0.01563,-0.01791,0.02315,0.02474,0.01563,0.01791,-0.02315,0.0*
%
%ADD36ROTATEDRECTD36*%

%ADD37R,0.01575X0.03937*%
D13*
X462000Y336846D02*
D03*
Y330153D02*
D03*
X468000Y336846D02*
D03*
Y330153D02*
D03*
D14*
X588154Y222500D02*
D03*
X594846D02*
D03*
X544654D02*
D03*
X551346D02*
D03*
X587653Y242500D02*
D03*
X594347D02*
D03*
X544654Y242469D02*
D03*
X551346D02*
D03*
X431847Y328500D02*
D03*
X425153D02*
D03*
X412153D02*
D03*
X418847D02*
D03*
X412153Y334500D02*
D03*
X418847D02*
D03*
X405847D02*
D03*
X399153D02*
D03*
X392846D02*
D03*
X386154D02*
D03*
X300346Y293000D02*
D03*
X293653D02*
D03*
X279153D02*
D03*
X285846D02*
D03*
D16*
X455500Y336846D02*
D03*
Y330153D02*
D03*
X552500Y381153D02*
D03*
Y387846D02*
D03*
X342500Y381153D02*
D03*
Y387846D02*
D03*
X516500Y381153D02*
D03*
Y387846D02*
D03*
X306500Y381153D02*
D03*
Y387846D02*
D03*
D17*
X425153Y335000D02*
D03*
X431847D02*
D03*
X429347Y303500D02*
D03*
X422653D02*
D03*
X436654Y303500D02*
D03*
X443347D02*
D03*
D33*
X468961Y318494D02*
D03*
X460693D02*
D03*
X444158D02*
D03*
X452425D02*
D03*
X430378D02*
D03*
X422110D02*
D03*
X413842D02*
D03*
X405575D02*
D03*
X397307D02*
D03*
X389039D02*
D03*
X466205D02*
D03*
X463449D02*
D03*
X455181D02*
D03*
X457937D02*
D03*
X446913D02*
D03*
X449669D02*
D03*
X438646D02*
D03*
X441402D02*
D03*
X435890D02*
D03*
X433134D02*
D03*
X427622D02*
D03*
X424866D02*
D03*
X419354D02*
D03*
X416598D02*
D03*
X411087D02*
D03*
X408331D02*
D03*
X402819D02*
D03*
X400063D02*
D03*
X394551D02*
D03*
X391795D02*
D03*
D34*
X282173Y267143D02*
D03*
X284142D02*
D03*
X286110D02*
D03*
X288079D02*
D03*
X290047D02*
D03*
X292016D02*
D03*
X293984D02*
D03*
X295953D02*
D03*
X297921D02*
D03*
X299890D02*
D03*
X301858D02*
D03*
X303827D02*
D03*
Y235057D02*
D03*
X301858D02*
D03*
X299890D02*
D03*
X297921D02*
D03*
X295953D02*
D03*
X293984D02*
D03*
X292016D02*
D03*
X290047D02*
D03*
X288079D02*
D03*
X286110D02*
D03*
X284142D02*
D03*
X282173D02*
D03*
D35*
X309043Y261927D02*
D03*
Y259958D02*
D03*
Y257990D02*
D03*
Y256021D02*
D03*
Y254053D02*
D03*
Y252084D02*
D03*
Y250116D02*
D03*
Y248147D02*
D03*
Y246179D02*
D03*
Y244210D02*
D03*
Y242242D02*
D03*
Y240273D02*
D03*
X276957D02*
D03*
Y242242D02*
D03*
Y244210D02*
D03*
Y246179D02*
D03*
Y248147D02*
D03*
Y250116D02*
D03*
Y252084D02*
D03*
Y254053D02*
D03*
Y256021D02*
D03*
Y257990D02*
D03*
Y259958D02*
D03*
Y261927D02*
D03*
D36*
X248796Y210419D02*
D03*
X242204Y211581D02*
D03*
X250296Y217419D02*
D03*
X243704Y218581D02*
D03*
D37*
X256776Y278063D02*
D03*
X259925D02*
D03*
X263075D02*
D03*
X266224D02*
D03*
X256776Y285937D02*
D03*
X259925D02*
D03*
X263075D02*
D03*
X266224D02*
D03*
M02*
