G04 Layer_Color=16711935*
%FSLAX25Y25*%
%MOIN*%
G70*
G01*
G75*
%ADD10C,0.01000*%
%ADD43C,0.00394*%
D10*
X374426Y408700D02*
X484769D01*
X372699Y408892D02*
X374426Y408700D01*
X371056Y409458D02*
X372699Y408892D01*
X369577Y410370D02*
X371056Y409458D01*
X368334Y411585D02*
X369577Y410370D01*
X365082Y415216D02*
X368334Y411585D01*
X361522Y418545D02*
X365082Y415216D01*
X357682Y421547D02*
X361522Y418545D01*
X353592Y424198D02*
X357682Y421547D01*
X349283Y426477D02*
X353592Y424198D01*
X344790Y428367D02*
X349283Y426477D01*
X340147Y429852D02*
X344790Y428367D01*
X335392Y430921D02*
X340147Y429852D01*
X330560Y431566D02*
X335392Y430921D01*
X325691Y431781D02*
X330560Y431566D01*
X320957Y431578D02*
X325691Y431781D01*
X316258Y430968D02*
X320957Y431578D01*
X311629Y429957D02*
X316258Y430968D01*
X307104Y428553D02*
X311629Y429957D01*
X302716Y426765D02*
X307104Y428553D01*
X298498Y424607D02*
X302716Y426765D01*
X294481Y422094D02*
X298498Y424607D01*
X290695Y419246D02*
X294481Y422094D01*
X287167Y416083D02*
X290695Y419246D01*
X283924Y412628D02*
X287167Y416083D01*
X280989Y408908D02*
X283924Y412628D01*
X278385Y404950D02*
X280989Y408908D01*
X276130Y400783D02*
X278385Y404950D01*
X274242Y396437D02*
X276130Y400783D01*
X272734Y391945D02*
X274242Y396437D01*
X271617Y387341D02*
X272734Y391945D01*
X232747Y190490D02*
X271617Y387341D01*
X232747Y190490D02*
X232948Y186916D01*
X233548Y183387D01*
X234539Y179947D01*
X235908Y176640D01*
X237640Y173507D01*
X239711Y170587D01*
X242097Y167918D01*
X244766Y165533D01*
X247686Y163461D01*
X250819Y161730D01*
X254126Y160360D01*
X257566Y159369D01*
X261095Y158769D01*
X264669Y158569D01*
X268243Y158769D01*
X271772Y159369D01*
X275212Y160360D01*
X278519Y161730D01*
X281652Y163461D01*
X284572Y165533D01*
X287241Y167918D01*
X368236Y248913D01*
X367970Y248962D02*
X369601Y250213D01*
X371500Y251000D01*
X373538Y251268D01*
X373804Y251220D02*
X485391D01*
X487429Y250951D01*
X489328Y250165D01*
X490959Y248913D01*
X571954Y167918D01*
X574623Y165533D01*
X577543Y163461D01*
X580676Y161730D01*
X583983Y160360D01*
X587423Y159369D01*
X590952Y158769D01*
X594526Y158569D01*
X598100Y158769D01*
X601629Y159369D01*
X605069Y160360D01*
X608377Y161730D01*
X611510Y163461D01*
X614429Y165533D01*
X617098Y167918D01*
X619484Y170587D01*
X621555Y173507D01*
X623287Y176640D01*
X624657Y179947D01*
X625648Y183387D01*
X626247Y186916D01*
X626448Y190490D01*
X587578Y387341D02*
X626448Y190490D01*
X586461Y391945D02*
X587578Y387341D01*
X584953Y396437D02*
X586461Y391945D01*
X583065Y400783D02*
X584953Y396437D01*
X580810Y404950D02*
X583065Y400783D01*
X578206Y408908D02*
X580810Y404950D01*
X575272Y412628D02*
X578206Y408908D01*
X572028Y416083D02*
X575272Y412628D01*
X568501Y419246D02*
X572028Y416083D01*
X564714Y422094D02*
X568501Y419246D01*
X560697Y424607D02*
X564714Y422094D01*
X556479Y426765D02*
X560697Y424607D01*
X552091Y428553D02*
X556479Y426765D01*
X547566Y429957D02*
X552091Y428553D01*
X542937Y430968D02*
X547566Y429957D01*
X538238Y431578D02*
X542937Y430968D01*
X533504Y431781D02*
X538238Y431578D01*
X528635Y431566D02*
X533504Y431781D01*
X523803Y430921D02*
X528635Y431566D01*
X519048Y429852D02*
X523803Y430921D01*
X514405Y428367D02*
X519048Y429852D01*
X509912Y426477D02*
X514405Y428367D01*
X505603Y424198D02*
X509912Y426477D01*
X501513Y421547D02*
X505603Y424198D01*
X497673Y418545D02*
X501513Y421547D01*
X494113Y415216D02*
X497673Y418545D01*
X490861Y411585D02*
X494113Y415216D01*
X489618Y410370D02*
X490861Y411585D01*
X488139Y409458D02*
X489618Y410370D01*
X486496Y408892D02*
X488139Y409458D01*
X484769Y408700D02*
X486496Y408892D01*
D43*
X701799Y622701D02*
X702000Y622500D01*
M02*
