G04 Layer_Color=8388736*
%FSLAX25Y25*%
%MOIN*%
G70*
G01*
G75*
G04:AMPARAMS|DCode=48|XSize=21.78mil|YSize=78.87mil|CornerRadius=0mil|HoleSize=0mil|Usage=FLASHONLY|Rotation=80.000|XOffset=0mil|YOffset=0mil|HoleType=Round|Shape=Rectangle|*
%AMROTATEDRECTD48*
4,1,4,0.03694,-0.01757,-0.04073,-0.00388,-0.03694,0.01757,0.04073,0.00388,0.03694,-0.01757,0.0*
%
%ADD48ROTATEDRECTD48*%

G04:AMPARAMS|DCode=49|XSize=55.24mil|YSize=47.37mil|CornerRadius=13.84mil|HoleSize=0mil|Usage=FLASHONLY|Rotation=90.000|XOffset=0mil|YOffset=0mil|HoleType=Round|Shape=RoundedRectangle|*
%AMROUNDEDRECTD49*
21,1,0.05524,0.01969,0,0,90.0*
21,1,0.02756,0.04737,0,0,90.0*
1,1,0.02769,0.00984,0.01378*
1,1,0.02769,0.00984,-0.01378*
1,1,0.02769,-0.00984,-0.01378*
1,1,0.02769,-0.00984,0.01378*
%
%ADD49ROUNDEDRECTD49*%
G04:AMPARAMS|DCode=50|XSize=47.37mil|YSize=43.43mil|CornerRadius=5.77mil|HoleSize=0mil|Usage=FLASHONLY|Rotation=180.000|XOffset=0mil|YOffset=0mil|HoleType=Round|Shape=RoundedRectangle|*
%AMROUNDEDRECTD50*
21,1,0.04737,0.03189,0,0,180.0*
21,1,0.03583,0.04343,0,0,180.0*
1,1,0.01154,-0.01791,0.01595*
1,1,0.01154,0.01791,0.01595*
1,1,0.01154,0.01791,-0.01595*
1,1,0.01154,-0.01791,-0.01595*
%
%ADD50ROUNDEDRECTD50*%
G04:AMPARAMS|DCode=51|XSize=47.37mil|YSize=43.43mil|CornerRadius=5.77mil|HoleSize=0mil|Usage=FLASHONLY|Rotation=270.000|XOffset=0mil|YOffset=0mil|HoleType=Round|Shape=RoundedRectangle|*
%AMROUNDEDRECTD51*
21,1,0.04737,0.03189,0,0,270.0*
21,1,0.03583,0.04343,0,0,270.0*
1,1,0.01154,-0.01595,-0.01791*
1,1,0.01154,-0.01595,0.01791*
1,1,0.01154,0.01595,0.01791*
1,1,0.01154,0.01595,-0.01791*
%
%ADD51ROUNDEDRECTD51*%
%ADD52R,0.03950X0.04540*%
%ADD53R,0.04737X0.05131*%
%ADD54R,0.05131X0.04737*%
%ADD55R,0.10642X0.08674*%
%ADD56R,0.08674X0.10642*%
G04:AMPARAMS|DCode=57|XSize=86.74mil|YSize=102.49mil|CornerRadius=0mil|HoleSize=0mil|Usage=FLASHONLY|Rotation=80.000|XOffset=0mil|YOffset=0mil|HoleType=Round|Shape=Round|*
%AMOVALD57*
21,1,0.01575,0.08674,0.00000,0.00000,170.0*
1,1,0.08674,0.00775,-0.00137*
1,1,0.08674,-0.00775,0.00137*
%
%ADD57OVALD57*%

G04:AMPARAMS|DCode=58|XSize=47.37mil|YSize=86.74mil|CornerRadius=0mil|HoleSize=0mil|Usage=FLASHONLY|Rotation=260.000|XOffset=0mil|YOffset=0mil|HoleType=Round|Shape=Round|*
%AMOVALD58*
21,1,0.03937,0.04737,0.00000,0.00000,350.0*
1,1,0.04737,-0.01939,0.00342*
1,1,0.04737,0.01939,-0.00342*
%
%ADD58OVALD58*%

%ADD59R,0.06706X0.06706*%
%ADD60P,0.09483X4X270.0*%
%ADD61C,0.06706*%
%ADD62R,0.06706X0.06706*%
%ADD63O,0.12800X0.16800*%
%ADD64C,0.07887*%
%ADD65C,0.10642*%
%ADD66O,0.87414X0.04737*%
%ADD67C,0.05524*%
D48*
X258622Y212009D02*
D03*
X258143Y209295D02*
D03*
X257665Y206581D02*
D03*
X259579Y217437D02*
D03*
X259101Y214723D02*
D03*
D49*
X257300Y291998D02*
D03*
X263599D02*
D03*
X269997D02*
D03*
Y272017D02*
D03*
X263599Y272116D02*
D03*
X257300D02*
D03*
D50*
X329000Y268154D02*
D03*
Y274847D02*
D03*
X297500Y267653D02*
D03*
Y274346D02*
D03*
X283500Y234347D02*
D03*
Y227654D02*
D03*
D51*
X276346Y262000D02*
D03*
X269654D02*
D03*
X309154Y240500D02*
D03*
X315846D02*
D03*
D52*
X457457Y264000D02*
D03*
X464543D02*
D03*
D53*
X322000Y274847D02*
D03*
Y268154D02*
D03*
X286000Y253346D02*
D03*
Y246654D02*
D03*
D54*
X300847Y248000D02*
D03*
X294153D02*
D03*
X443653Y264000D02*
D03*
X450347D02*
D03*
D55*
X561780Y242469D02*
D03*
X534221D02*
D03*
X604780Y242500D02*
D03*
X577220D02*
D03*
X561780Y222500D02*
D03*
X534221D02*
D03*
X605280D02*
D03*
X577720D02*
D03*
D56*
X344000Y272280D02*
D03*
Y244721D02*
D03*
D57*
X249983Y228763D02*
D03*
X244773Y199219D02*
D03*
D58*
X258867Y221560D02*
D03*
X255585Y202950D02*
D03*
D59*
X443000Y295200D02*
D03*
X433000D02*
D03*
X423000D02*
D03*
X413000D02*
D03*
X474000Y391000D02*
D03*
X373000Y274800D02*
D03*
X383000D02*
D03*
X393000D02*
D03*
X403000D02*
D03*
D60*
X305071Y195712D02*
D03*
X298000Y188641D02*
D03*
X290929Y181570D02*
D03*
X284000Y199000D02*
D03*
D61*
X494000Y401000D02*
D03*
Y391000D02*
D03*
X484000Y401000D02*
D03*
Y391000D02*
D03*
X474000Y401000D02*
D03*
X589500Y171000D02*
D03*
X599500Y181000D02*
D03*
X589500D02*
D03*
X258000Y169500D02*
D03*
X268000Y179500D02*
D03*
X258000D02*
D03*
X276929Y206071D02*
D03*
X291071D02*
D03*
X284000Y213142D02*
D03*
D62*
X599500Y171000D02*
D03*
X268000Y169500D02*
D03*
D63*
X306200Y408400D02*
D03*
X324200Y408400D02*
D03*
X342200Y408400D02*
D03*
X516700Y408400D02*
D03*
X534700Y408400D02*
D03*
X552700Y408400D02*
D03*
D64*
X357300Y334950D02*
D03*
X357300Y344750D02*
D03*
X357300Y325150D02*
D03*
X328700Y296550D02*
D03*
X318900Y296550D02*
D03*
X309100D02*
D03*
X578800Y335450D02*
D03*
X578800Y345250D02*
D03*
X578800Y325650D02*
D03*
X550200Y297050D02*
D03*
X540400Y297050D02*
D03*
X530600D02*
D03*
D65*
X345100Y365450D02*
D03*
X345100Y304450D02*
D03*
X292700Y365450D02*
D03*
X292700Y304450D02*
D03*
X566600Y365950D02*
D03*
X566600Y304950D02*
D03*
X514200Y365950D02*
D03*
X514200Y304950D02*
D03*
D66*
X429000Y286506D02*
D03*
D67*
X280000Y281000D02*
D03*
X300000D02*
D03*
M02*
