G04 Layer_Color=32896*
%FSLAX25Y25*%
%MOIN*%
G70*
G01*
G75*
%ADD10C,0.01000*%
%ADD40C,0.00800*%
%ADD41C,0.00500*%
%ADD42C,0.00787*%
%ADD43C,0.00394*%
%ADD45C,0.00600*%
%ADD73C,0.02362*%
D10*
X255201Y278850D02*
Y285150D01*
X267799Y278850D02*
Y285150D01*
D40*
X304000Y273500D02*
G03*
X304000Y288500I0J7500D01*
G01*
X276000D02*
G03*
X276000Y273500I0J-7500D01*
G01*
X304000D01*
X276000Y288500D02*
X304000D01*
D41*
X597602Y219843D02*
Y225157D01*
X593272D02*
X597602D01*
X593272Y219843D02*
X597602D01*
X585398D02*
Y225157D01*
X589728D01*
X585398Y219843D02*
X589728D01*
X554102D02*
Y225157D01*
X549772D02*
X554102D01*
X549772Y219843D02*
X554102D01*
X541898D02*
Y225157D01*
X546228D01*
X541898Y219843D02*
X546228D01*
X597102Y239843D02*
Y245158D01*
X592772D02*
X597102D01*
X592772Y239843D02*
X597102D01*
X584898D02*
Y245158D01*
X589228D01*
X584898Y239843D02*
X589228D01*
X554102Y239811D02*
Y245126D01*
X549772D02*
X554102D01*
X549772Y239811D02*
X554102D01*
X541898D02*
Y245126D01*
X546228D01*
X541898Y239811D02*
X546228D01*
X422398Y325842D02*
Y331157D01*
Y325842D02*
X426728D01*
X422398Y331157D02*
X426728D01*
X434602Y325842D02*
Y331157D01*
X430272Y325842D02*
X434602D01*
X430272Y331157D02*
X434602D01*
X421602Y325842D02*
Y331157D01*
X417272D02*
X421602D01*
X417272Y325842D02*
X421602D01*
X409398D02*
Y331157D01*
X413728D01*
X409398Y325842D02*
X413728D01*
X421602Y331842D02*
Y337158D01*
X417272D02*
X421602D01*
X417272Y331842D02*
X421602D01*
X409398D02*
Y337158D01*
X413728D01*
X409398Y331842D02*
X413728D01*
X396398D02*
Y337158D01*
Y331842D02*
X400728D01*
X396398Y337158D02*
X400728D01*
X408602Y331842D02*
Y337158D01*
X404272Y331842D02*
X408602D01*
X404272Y337158D02*
X408602D01*
X459342Y327398D02*
X464657D01*
Y331728D01*
X459342Y327398D02*
Y331728D01*
Y339602D02*
X464657D01*
Y335272D02*
Y339602D01*
X459342Y335272D02*
Y339602D01*
X465343Y327398D02*
X470657D01*
Y331728D01*
X465343Y327398D02*
Y331728D01*
Y339602D02*
X470657D01*
Y335272D02*
Y339602D01*
X465343Y335272D02*
Y339602D01*
X383398Y331842D02*
Y337158D01*
Y331842D02*
X387728D01*
X383398Y337158D02*
X387728D01*
X395602Y331842D02*
Y337158D01*
X391272Y331842D02*
X395602D01*
X391272Y337158D02*
X395602D01*
X290898Y290342D02*
Y295657D01*
Y290342D02*
X295228D01*
X290898Y295657D02*
X295228D01*
X303102Y290342D02*
Y295657D01*
X298772Y290342D02*
X303102D01*
X298772Y295657D02*
X303102D01*
X288602Y290342D02*
Y295657D01*
X284272D02*
X288602D01*
X284272Y290342D02*
X288602D01*
X276398D02*
Y295657D01*
X280728D01*
X276398Y290342D02*
X280728D01*
D42*
X405386Y290266D02*
X452236D01*
X387071Y310688D02*
X470929D01*
X385890Y301494D02*
X397118Y290266D01*
X452236D02*
X460504D01*
X472110Y301872D01*
X397118Y290266D02*
X405386D01*
X472110Y301872D02*
Y317825D01*
X385890Y301494D02*
Y317825D01*
X470929Y310688D02*
Y317825D01*
X387071Y310688D02*
Y317825D01*
X470929D02*
X472110D01*
X385890D02*
X387071D01*
X281780Y262320D02*
X304221D01*
X281780Y239879D02*
X304221D01*
X281780D02*
Y262320D01*
X304221Y239879D02*
Y262320D01*
D43*
X429500Y338000D02*
X435000D01*
Y332000D02*
Y338000D01*
X429500Y332000D02*
X435000D01*
X422000Y338000D02*
X427500D01*
X422000Y332000D02*
Y338000D01*
Y332000D02*
X427500D01*
X419500Y300500D02*
X425000D01*
X419500D02*
Y306500D01*
X425000D01*
X427000Y300500D02*
X432500D01*
Y306500D01*
X427000D02*
X432500D01*
X441000Y306500D02*
X446500D01*
Y300500D02*
Y306500D01*
X441000Y300500D02*
X446500D01*
X433500Y306500D02*
X439000D01*
X433500Y300500D02*
Y306500D01*
Y300500D02*
X439000D01*
X238578Y209174D02*
X243994Y208219D01*
X238578Y209174D02*
X239620Y215083D01*
X245036Y214128D01*
X245964Y207872D02*
X251380Y206917D01*
X252422Y212826D01*
X247006Y213781D02*
X252422Y212826D01*
X240078Y216174D02*
X245494Y215219D01*
X240078Y216174D02*
X241120Y222083D01*
X246536Y221128D01*
X247464Y214872D02*
X252880Y213917D01*
X253922Y219826D01*
X248506Y220781D02*
X253922Y219826D01*
X458500Y327000D02*
Y332500D01*
X452500Y327000D02*
X458500D01*
X452500D02*
Y332500D01*
X458500Y334500D02*
Y340000D01*
X452500D02*
X458500D01*
X452500Y334500D02*
Y340000D01*
X549500Y385500D02*
Y391000D01*
X555500D01*
Y385500D02*
Y391000D01*
X549500Y378000D02*
Y383500D01*
Y378000D02*
X555500D01*
Y383500D01*
X339500Y385500D02*
Y391000D01*
X345500D01*
Y385500D02*
Y391000D01*
X339500Y378000D02*
Y383500D01*
Y378000D02*
X345500D01*
Y383500D01*
X513500Y385500D02*
Y391000D01*
X519500D01*
Y385500D02*
Y391000D01*
X513500Y378000D02*
Y383500D01*
Y378000D02*
X519500D01*
Y383500D01*
X303500Y385500D02*
Y391000D01*
X309500D01*
Y385500D02*
Y391000D01*
X303500Y378000D02*
Y383500D01*
Y378000D02*
X309500D01*
Y383500D01*
D45*
X282434Y300132D02*
X283101Y300799D01*
X284434D01*
X285100Y300132D01*
Y297466D01*
X284434Y296800D01*
X283101D01*
X282434Y297466D01*
X281101Y296800D02*
X279768D01*
X280435D01*
Y300799D01*
X281101Y300132D01*
X300434D02*
X301101Y300799D01*
X302434D01*
X303100Y300132D01*
Y297466D01*
X302434Y296800D01*
X301101D01*
X300434Y297466D01*
X296435Y296800D02*
X299101D01*
X296435Y299466D01*
Y300132D01*
X297102Y300799D01*
X298435D01*
X299101Y300132D01*
X390334Y341832D02*
X391001Y342499D01*
X392334D01*
X393000Y341832D01*
Y339166D01*
X392334Y338500D01*
X391001D01*
X390334Y339166D01*
X389001Y341832D02*
X388335Y342499D01*
X387002D01*
X386335Y341832D01*
Y341166D01*
X387002Y340499D01*
X386335Y339833D01*
Y339166D01*
X387002Y338500D01*
X388335D01*
X389001Y339166D01*
Y339833D01*
X388335Y340499D01*
X389001Y341166D01*
Y341832D01*
X388335Y340499D02*
X387002D01*
X469432Y343666D02*
X470099Y342999D01*
Y341666D01*
X469432Y341000D01*
X466766D01*
X466100Y341666D01*
Y342999D01*
X466766Y343666D01*
Y344999D02*
X466100Y345665D01*
Y346998D01*
X466766Y347664D01*
X469432D01*
X470099Y346998D01*
Y345665D01*
X469432Y344999D01*
X468766D01*
X468099Y345665D01*
Y347664D01*
X463132Y343666D02*
X463799Y342999D01*
Y341666D01*
X463132Y341000D01*
X460466D01*
X459800Y341666D01*
Y342999D01*
X460466Y343666D01*
X459800Y344999D02*
Y346332D01*
Y345665D01*
X463799D01*
X463132Y344999D01*
Y348331D02*
X463799Y348997D01*
Y350330D01*
X463132Y350997D01*
X460466D01*
X459800Y350330D01*
Y348997D01*
X460466Y348331D01*
X463132D01*
X404234Y342032D02*
X404901Y342699D01*
X406234D01*
X406900Y342032D01*
Y339366D01*
X406234Y338700D01*
X404901D01*
X404234Y339366D01*
X402901Y338700D02*
X401568D01*
X402235D01*
Y342699D01*
X402901Y342032D01*
X399569Y338700D02*
X398236D01*
X398903D01*
Y342699D01*
X399569Y342032D01*
X417234Y347432D02*
X417901Y348099D01*
X419234D01*
X419900Y347432D01*
Y344766D01*
X419234Y344100D01*
X417901D01*
X417234Y344766D01*
X415901Y344100D02*
X414568D01*
X415235D01*
Y348099D01*
X415901Y347432D01*
X409903Y344100D02*
X412569D01*
X409903Y346766D01*
Y347432D01*
X410570Y348099D01*
X411903D01*
X412569Y347432D01*
X417634Y342232D02*
X418301Y342899D01*
X419634D01*
X420300Y342232D01*
Y339566D01*
X419634Y338900D01*
X418301D01*
X417634Y339566D01*
X416301Y338900D02*
X414968D01*
X415635D01*
Y342899D01*
X416301Y342232D01*
X412969D02*
X412303Y342899D01*
X410970D01*
X410303Y342232D01*
Y341566D01*
X410970Y340899D01*
X411636D01*
X410970D01*
X410303Y340233D01*
Y339566D01*
X410970Y338900D01*
X412303D01*
X412969Y339566D01*
X430534Y342332D02*
X431201Y342999D01*
X432534D01*
X433200Y342332D01*
Y339666D01*
X432534Y339000D01*
X431201D01*
X430534Y339666D01*
X429201Y339000D02*
X427868D01*
X428535D01*
Y342999D01*
X429201Y342332D01*
X423870Y339000D02*
Y342999D01*
X425869Y340999D01*
X423203D01*
X550834Y249732D02*
X551501Y250399D01*
X552834D01*
X553500Y249732D01*
Y247066D01*
X552834Y246400D01*
X551501D01*
X550834Y247066D01*
X549501Y246400D02*
X548168D01*
X548835D01*
Y250399D01*
X549501Y249732D01*
X543503Y250399D02*
X546169D01*
Y248399D01*
X544836Y249066D01*
X544170D01*
X543503Y248399D01*
Y247066D01*
X544170Y246400D01*
X545503D01*
X546169Y247066D01*
X593934Y249632D02*
X594601Y250299D01*
X595934D01*
X596600Y249632D01*
Y246966D01*
X595934Y246300D01*
X594601D01*
X593934Y246966D01*
X592601Y246300D02*
X591268D01*
X591935D01*
Y250299D01*
X592601Y249632D01*
X586603Y250299D02*
X587936Y249632D01*
X589269Y248299D01*
Y246966D01*
X588603Y246300D01*
X587270D01*
X586603Y246966D01*
Y247633D01*
X587270Y248299D01*
X589269D01*
X550234Y229432D02*
X550901Y230099D01*
X552234D01*
X552900Y229432D01*
Y226766D01*
X552234Y226100D01*
X550901D01*
X550234Y226766D01*
X548901Y226100D02*
X547568D01*
X548235D01*
Y230099D01*
X548901Y229432D01*
X545569Y230099D02*
X542903D01*
Y229432D01*
X545569Y226766D01*
Y226100D01*
X594034Y229832D02*
X594701Y230499D01*
X596034D01*
X596700Y229832D01*
Y227166D01*
X596034Y226500D01*
X594701D01*
X594034Y227166D01*
X592701Y226500D02*
X591368D01*
X592035D01*
Y230499D01*
X592701Y229832D01*
X589369D02*
X588703Y230499D01*
X587370D01*
X586703Y229832D01*
Y229166D01*
X587370Y228499D01*
X586703Y227833D01*
Y227166D01*
X587370Y226500D01*
X588703D01*
X589369Y227166D01*
Y227833D01*
X588703Y228499D01*
X589369Y229166D01*
Y229832D01*
X588703Y228499D02*
X587370D01*
X310900Y381600D02*
X314899D01*
Y383599D01*
X314232Y384266D01*
X312899D01*
X312233Y383599D01*
Y381600D01*
Y382933D02*
X310900Y384266D01*
X314232Y385599D02*
X314899Y386265D01*
Y387598D01*
X314232Y388264D01*
X313566D01*
X312899Y387598D01*
Y386932D01*
Y387598D01*
X312233Y388264D01*
X311566D01*
X310900Y387598D01*
Y386265D01*
X311566Y385599D01*
X521000Y382100D02*
X524999D01*
Y384099D01*
X524332Y384766D01*
X522999D01*
X522333Y384099D01*
Y382100D01*
Y383433D02*
X521000Y384766D01*
Y388098D02*
X524999D01*
X522999Y386099D01*
Y388765D01*
X346600Y381700D02*
X350599D01*
Y383699D01*
X349932Y384366D01*
X348599D01*
X347933Y383699D01*
Y381700D01*
Y383033D02*
X346600Y384366D01*
X350599Y388365D02*
Y385699D01*
X348599D01*
X349266Y387032D01*
Y387698D01*
X348599Y388365D01*
X347266D01*
X346600Y387698D01*
Y386365D01*
X347266Y385699D01*
X556500Y381700D02*
X560499D01*
Y383699D01*
X559832Y384366D01*
X558499D01*
X557833Y383699D01*
Y381700D01*
Y383033D02*
X556500Y384366D01*
X560499Y388365D02*
X559832Y387032D01*
X558499Y385699D01*
X557166D01*
X556500Y386365D01*
Y387698D01*
X557166Y388365D01*
X557833D01*
X558499Y387698D01*
Y385699D01*
X453600Y341000D02*
X457599D01*
Y342999D01*
X456932Y343666D01*
X455599D01*
X454933Y342999D01*
Y341000D01*
Y342333D02*
X453600Y343666D01*
X456932Y344999D02*
X457599Y345665D01*
Y346998D01*
X456932Y347664D01*
X456266D01*
X455599Y346998D01*
X454933Y347664D01*
X454266D01*
X453600Y346998D01*
Y345665D01*
X454266Y344999D01*
X454933D01*
X455599Y345665D01*
X456266Y344999D01*
X456932D01*
X455599Y345665D02*
Y346998D01*
X265100Y289500D02*
Y293499D01*
X263101D01*
X262434Y292832D01*
Y291499D01*
X263101Y290833D01*
X265100D01*
X263767D02*
X262434Y289500D01*
X261101Y290166D02*
X260435Y289500D01*
X259102D01*
X258436Y290166D01*
Y292832D01*
X259102Y293499D01*
X260435D01*
X261101Y292832D01*
Y292166D01*
X260435Y291499D01*
X258436D01*
X264900Y212400D02*
X265594Y216338D01*
X263625Y216685D01*
X262853Y216144D01*
X262622Y214832D01*
X263162Y214060D01*
X265131Y213713D01*
X263819Y213944D02*
X262275Y212863D01*
X260962Y213094D02*
X259649Y213326D01*
X260306Y213210D01*
X261000Y217148D01*
X261541Y216376D01*
X258259Y216955D02*
X257718Y217727D01*
X256406Y217958D01*
X255634Y217418D01*
X255171Y214792D01*
X255711Y214020D01*
X257024Y213789D01*
X257796Y214329D01*
X258259Y216955D01*
X263500Y205700D02*
X264194Y209638D01*
X262225Y209985D01*
X261453Y209444D01*
X261222Y208132D01*
X261762Y207360D01*
X263732Y207013D01*
X262419Y207244D02*
X260875Y206163D01*
X259562Y206394D02*
X258249Y206626D01*
X258906Y206510D01*
X259600Y210448D01*
X260141Y209676D01*
X256280Y206973D02*
X254968Y207205D01*
X255624Y207089D01*
X256318Y211027D01*
X256859Y210255D01*
X458000Y301600D02*
Y305599D01*
X456001D01*
X455334Y304932D01*
Y303599D01*
X456001Y302933D01*
X458000D01*
X456667D02*
X455334Y301600D01*
X454001D02*
X452668D01*
X453335D01*
Y305599D01*
X454001Y304932D01*
X448003Y301600D02*
X450669D01*
X448003Y304266D01*
Y304932D01*
X448670Y305599D01*
X450003D01*
X450669Y304932D01*
X418400Y301300D02*
Y305299D01*
X416401D01*
X415734Y304632D01*
Y303299D01*
X416401Y302633D01*
X418400D01*
X417067D02*
X415734Y301300D01*
X414401D02*
X413068D01*
X413735D01*
Y305299D01*
X414401Y304632D01*
X409070Y301300D02*
Y305299D01*
X411069Y303299D01*
X408403D01*
X433100Y344400D02*
Y348399D01*
X431101D01*
X430434Y347732D01*
Y346399D01*
X431101Y345733D01*
X433100D01*
X431767D02*
X430434Y344400D01*
X429101D02*
X427768D01*
X428435D01*
Y348399D01*
X429101Y347732D01*
X423103Y348399D02*
X425769D01*
Y346399D01*
X424436Y347066D01*
X423770D01*
X423103Y346399D01*
Y345066D01*
X423770Y344400D01*
X425103D01*
X425769Y345066D01*
X276916Y268870D02*
Y265538D01*
X276250Y264872D01*
X274917D01*
X274251Y265538D01*
Y268870D01*
X270918Y264872D02*
Y268870D01*
X272918Y266871D01*
X270252D01*
X319400Y283099D02*
Y282432D01*
X318067Y281099D01*
X316734Y282432D01*
Y283099D01*
X318067Y281099D02*
Y279100D01*
X315401D02*
X314068D01*
X314735D01*
Y283099D01*
X315401Y282432D01*
D73*
X286898Y258383D02*
G03*
X286898Y258383I-1181J0D01*
G01*
M02*
