G04 Layer_Color=65535*
%FSLAX25Y25*%
%MOIN*%
G70*
G01*
G75*
%ADD10C,0.01000*%
%ADD39C,0.02000*%
%ADD40C,0.00800*%
%ADD41C,0.00500*%
%ADD42C,0.00787*%
%ADD43C,0.00394*%
%ADD44C,0.00700*%
%ADD45C,0.00600*%
%ADD46R,0.09843X0.05906*%
%ADD47R,0.05906X0.09843*%
G36*
X312454Y206522D02*
X310646Y204714D01*
X311619Y203244D01*
Y203258D01*
X311626Y203278D01*
X311633Y203313D01*
X311640Y203361D01*
X311661Y203423D01*
X311681Y203485D01*
X311737Y203651D01*
X311806Y203830D01*
X311909Y204017D01*
X312033Y204210D01*
X312185Y204389D01*
X312192Y204396D01*
X312213Y204417D01*
X312240Y204445D01*
X312289Y204479D01*
X312351Y204527D01*
X312413Y204576D01*
X312496Y204631D01*
X312579Y204686D01*
X312792Y204790D01*
X312903Y204845D01*
X313027Y204886D01*
X313165Y204928D01*
X313303Y204955D01*
X313448Y204976D01*
X313683D01*
X313738Y204962D01*
X313814Y204955D01*
X313897Y204942D01*
X313986Y204921D01*
X314090Y204900D01*
X314207Y204866D01*
X314318Y204824D01*
X314442Y204769D01*
X314566Y204714D01*
X314690Y204631D01*
X314815Y204548D01*
X314946Y204445D01*
X315070Y204334D01*
X315077Y204327D01*
X315098Y204307D01*
X315132Y204272D01*
X315167Y204224D01*
X315215Y204162D01*
X315270Y204093D01*
X315332Y204017D01*
X315394Y203927D01*
X315512Y203713D01*
X315622Y203478D01*
X315677Y203340D01*
X315719Y203202D01*
X315753Y203057D01*
X315774Y202912D01*
Y202899D01*
Y202871D01*
Y202816D01*
Y202747D01*
Y202664D01*
X315767Y202560D01*
X315753Y202450D01*
X315726Y202326D01*
X315705Y202195D01*
X315664Y202057D01*
X315608Y201905D01*
X315546Y201760D01*
X315463Y201608D01*
X315374Y201463D01*
X315256Y201318D01*
X315125Y201173D01*
X315118Y201167D01*
X315098Y201146D01*
X315063Y201111D01*
X315015Y201077D01*
X314960Y201035D01*
X314891Y200980D01*
X314815Y200918D01*
X314725Y200856D01*
X314525Y200739D01*
X314297Y200635D01*
X314173Y200594D01*
X314042Y200559D01*
X313911Y200525D01*
X313773Y200511D01*
X313648D01*
X313586Y200518D01*
X313510Y200525D01*
X313427Y200538D01*
X313331Y200552D01*
X313124Y200607D01*
X312889Y200690D01*
X312654Y200815D01*
X312530Y200897D01*
X312413Y200987D01*
X312958Y201615D01*
X312965Y201608D01*
X312979Y201594D01*
X313006Y201581D01*
X313041Y201560D01*
X313138Y201505D01*
X313262Y201436D01*
X313400Y201367D01*
X313559Y201318D01*
X313724Y201277D01*
X313897Y201270D01*
X313917Y201277D01*
X313973D01*
X314049Y201298D01*
X314159Y201325D01*
X314276Y201374D01*
X314407Y201436D01*
X314545Y201518D01*
X314670Y201629D01*
X314677Y201636D01*
X314690Y201650D01*
X314711Y201670D01*
X314732Y201705D01*
X314801Y201788D01*
X314877Y201905D01*
X314939Y202050D01*
X315008Y202216D01*
X315042Y202402D01*
X315056Y202498D01*
Y202609D01*
X315049Y202616D01*
X315056Y202637D01*
X315042Y202706D01*
X315022Y202823D01*
X314980Y202961D01*
X314911Y203127D01*
X314822Y203313D01*
X314690Y203499D01*
X314525Y203692D01*
X314518Y203699D01*
X314504Y203713D01*
X314476Y203741D01*
X314442Y203761D01*
X314401Y203803D01*
X314345Y203844D01*
X314214Y203934D01*
X314069Y204024D01*
X313897Y204099D01*
X313703Y204155D01*
X313503Y204175D01*
X313476D01*
X313414Y204169D01*
X313310Y204162D01*
X313179Y204127D01*
X313034Y204079D01*
X312861Y204003D01*
X312696Y203892D01*
X312530Y203754D01*
X312516Y203741D01*
X312482Y203706D01*
X312441Y203651D01*
X312379Y203575D01*
X312323Y203478D01*
X312261Y203375D01*
X312213Y203258D01*
X312171Y203133D01*
Y203120D01*
X312158Y203078D01*
X312144Y203009D01*
X312130Y202926D01*
Y202830D01*
Y202719D01*
X312137Y202602D01*
X312158Y202485D01*
X311557Y202036D01*
X309673Y204803D01*
X311923Y207053D01*
X312454Y206522D01*
D02*
G37*
G36*
X445669Y392000D02*
X444366D01*
X439315Y399554D01*
Y392000D01*
X438100D01*
Y401618D01*
X439388D01*
X444454Y394064D01*
Y401618D01*
X445669D01*
Y392000D01*
D02*
G37*
G36*
X319252Y205452D02*
X318638Y204838D01*
X312344Y207612D01*
X313000Y208268D01*
X317465Y206149D01*
X317472Y206142D01*
X317492Y206135D01*
X317520Y206122D01*
X317561Y206108D01*
X317658Y206053D01*
X317789Y205991D01*
X317948Y205915D01*
X318113Y205832D01*
X318452Y205645D01*
X318445Y205652D01*
Y205666D01*
X318431Y205694D01*
X318410Y205728D01*
X318355Y205825D01*
X318286Y205949D01*
X318210Y206094D01*
X318127Y206260D01*
X318038Y206446D01*
X317948Y206632D01*
X315884Y211153D01*
X316492Y211760D01*
X319252Y205452D01*
D02*
G37*
G36*
X329328Y215528D02*
X328693Y214893D01*
X328058Y215528D01*
X328693Y216163D01*
X329328Y215528D01*
D02*
G37*
G36*
X323324Y217626D02*
X323490Y217599D01*
X323510Y217592D01*
X323566Y217578D01*
X323648Y217550D01*
X323745Y217509D01*
X323862Y217447D01*
X323987Y217378D01*
X324111Y217295D01*
X324235Y217184D01*
X324249Y217171D01*
X324283Y217136D01*
X324332Y217074D01*
X324387Y216991D01*
X324449Y216888D01*
X324511Y216770D01*
X324573Y216639D01*
X324608Y216494D01*
X324615Y216474D01*
X324622Y216425D01*
Y216343D01*
X324628Y216239D01*
X324622Y216108D01*
X324608Y215970D01*
X324580Y215804D01*
X324525Y215639D01*
X324532Y215646D01*
X324552Y215652D01*
X324573Y215673D01*
X324615Y215687D01*
X324704Y215735D01*
X324835Y215784D01*
X324980Y215832D01*
X325153Y215866D01*
X325339Y215887D01*
X325533Y215873D01*
X325553Y215866D01*
X325622Y215853D01*
X325719Y215825D01*
X325850Y215791D01*
X325995Y215728D01*
X326154Y215639D01*
X326326Y215521D01*
X326492Y215370D01*
X326499Y215363D01*
X326519Y215342D01*
X326547Y215314D01*
X326582Y215266D01*
X326630Y215204D01*
X326678Y215142D01*
X326733Y215059D01*
X326782Y214969D01*
X326892Y214762D01*
X326947Y214638D01*
X326982Y214507D01*
X327016Y214376D01*
X327044Y214238D01*
X327058Y214086D01*
X327065Y213927D01*
Y213913D01*
Y213886D01*
X327058Y213851D01*
X327051Y213789D01*
X327044Y213713D01*
X327023Y213623D01*
X326995Y213527D01*
X326968Y213430D01*
X326933Y213313D01*
X326885Y213195D01*
X326830Y213071D01*
X326768Y212940D01*
X326692Y212809D01*
X326595Y212685D01*
X326492Y212554D01*
X326381Y212429D01*
X326374Y212423D01*
X326354Y212402D01*
X326326Y212374D01*
X326278Y212340D01*
X326216Y212292D01*
X326154Y212243D01*
X326078Y212181D01*
X325995Y212126D01*
X325795Y212009D01*
X325560Y211912D01*
X325443Y211864D01*
X325319Y211836D01*
X325181Y211808D01*
X325043Y211795D01*
X324918D01*
X324849Y211808D01*
X324773Y211815D01*
X324684Y211822D01*
X324594Y211843D01*
X324373Y211898D01*
X324145Y211988D01*
X323904Y212105D01*
X323786Y212181D01*
X323669Y212271D01*
X324152Y212906D01*
X324159Y212899D01*
X324180Y212892D01*
X324207Y212864D01*
X324249Y212850D01*
X324352Y212788D01*
X324490Y212719D01*
X324642Y212650D01*
X324815Y212588D01*
X324987Y212554D01*
X325153Y212540D01*
X325174Y212547D01*
X325229D01*
X325305Y212567D01*
X325415Y212595D01*
X325526Y212636D01*
X325657Y212699D01*
X325795Y212782D01*
X325919Y212892D01*
X325926Y212899D01*
X325940Y212913D01*
X325960Y212933D01*
X325981Y212968D01*
X326043Y213044D01*
X326112Y213154D01*
X326188Y213299D01*
X326257Y213451D01*
X326298Y213630D01*
X326312Y213824D01*
Y213851D01*
X326305Y213913D01*
X326292Y214010D01*
X326264Y214148D01*
X326216Y214293D01*
X326140Y214452D01*
X326036Y214610D01*
X325905Y214769D01*
X325898Y214776D01*
X325891Y214783D01*
X325871Y214804D01*
X325836Y214824D01*
X325760Y214886D01*
X325650Y214955D01*
X325526Y215024D01*
X325367Y215087D01*
X325201Y215128D01*
X325022Y215142D01*
X324939D01*
X324849Y215121D01*
X324725Y215093D01*
X324587Y215052D01*
X324442Y214976D01*
X324297Y214886D01*
X324145Y214762D01*
X324138Y214755D01*
X324118Y214735D01*
X324083Y214700D01*
X324042Y214645D01*
X323993Y214583D01*
X323931Y214507D01*
X323869Y214417D01*
X323807Y214314D01*
X323379Y214866D01*
X323386Y214873D01*
X323414Y214900D01*
X323448Y214921D01*
X323476Y214949D01*
X323483Y214955D01*
X323490Y214962D01*
X323510Y214983D01*
X323538Y215011D01*
X323593Y215080D01*
X323669Y215183D01*
X323745Y215300D01*
X323814Y215439D01*
X323883Y215590D01*
X323931Y215763D01*
X323938Y215784D01*
X323945Y215846D01*
X323938Y215935D01*
X323931Y216053D01*
X323911Y216184D01*
X323855Y216322D01*
X323773Y216474D01*
X323648Y216625D01*
X323641Y216632D01*
X323635Y216639D01*
X323600Y216674D01*
X323531Y216715D01*
X323441Y216777D01*
X323345Y216833D01*
X323220Y216874D01*
X323082Y216915D01*
X322937Y216922D01*
X322868D01*
X322786Y216909D01*
X322689Y216881D01*
X322572Y216846D01*
X322454Y216784D01*
X322323Y216708D01*
X322199Y216598D01*
X322192Y216591D01*
X322185Y216584D01*
X322144Y216543D01*
X322096Y216467D01*
X322040Y216384D01*
X321971Y216273D01*
X321923Y216142D01*
X321882Y216004D01*
X321861Y215846D01*
Y215832D01*
Y215777D01*
X321875Y215694D01*
X321902Y215583D01*
X321937Y215452D01*
X321999Y215307D01*
X322082Y215142D01*
X322199Y214969D01*
X321544Y214507D01*
X321537Y214514D01*
X321523Y214541D01*
X321502Y214576D01*
X321474Y214617D01*
X321440Y214679D01*
X321398Y214748D01*
X321323Y214921D01*
X321240Y215114D01*
X321178Y215342D01*
X321136Y215577D01*
Y215825D01*
Y215839D01*
Y215853D01*
X321143Y215887D01*
X321157Y215942D01*
X321171Y215998D01*
X321185Y216067D01*
X321226Y216232D01*
X321302Y216419D01*
X321412Y216625D01*
X321550Y216833D01*
X321633Y216943D01*
X321730Y217040D01*
X321737Y217046D01*
X321744Y217053D01*
X321764Y217074D01*
X321792Y217102D01*
X321868Y217164D01*
X321971Y217240D01*
X322096Y217323D01*
X322240Y217412D01*
X322399Y217488D01*
X322572Y217550D01*
X322579Y217557D01*
X322592D01*
X322655Y217578D01*
X322744Y217599D01*
X322862Y217619D01*
X323000Y217633D01*
X323158Y217640D01*
X323324Y217626D01*
D02*
G37*
G36*
X464042Y400491D02*
X458830D01*
Y397490D01*
X463339D01*
Y396363D01*
X458830D01*
Y392000D01*
X457557D01*
Y401618D01*
X464042D01*
Y400491D01*
D02*
G37*
G36*
X420273Y350704D02*
X426581D01*
Y349200D01*
X418574D01*
Y362031D01*
X420273D01*
Y350704D01*
D02*
G37*
G36*
X410625Y362227D02*
X410782D01*
X410977Y362207D01*
X411172Y362168D01*
X411407Y362148D01*
X411895Y362031D01*
X412442Y361875D01*
X412989Y361680D01*
X413262Y361543D01*
X413535Y361387D01*
X413555D01*
X413594Y361348D01*
X413672Y361309D01*
X413770Y361230D01*
X413887Y361152D01*
X414024Y361035D01*
X414336Y360781D01*
X414688Y360449D01*
X415059Y360039D01*
X415391Y359570D01*
X415703Y359024D01*
Y359004D01*
X415742Y358945D01*
X415781Y358867D01*
X415820Y358750D01*
X415879Y358613D01*
X415938Y358438D01*
X416016Y358242D01*
X416094Y358028D01*
X416152Y357774D01*
X416230Y357520D01*
X416348Y356934D01*
X416426Y356289D01*
X416465Y355586D01*
Y355567D01*
Y355508D01*
Y355391D01*
X416445Y355254D01*
Y355079D01*
X416426Y354883D01*
X416406Y354668D01*
X416367Y354415D01*
X416269Y353868D01*
X416133Y353282D01*
X415938Y352676D01*
X415664Y352090D01*
Y352071D01*
X415625Y352032D01*
X415586Y351954D01*
X415527Y351836D01*
X415430Y351719D01*
X415332Y351563D01*
X415098Y351231D01*
X414785Y350860D01*
X414395Y350469D01*
X413945Y350098D01*
X413438Y349766D01*
X413418D01*
X413379Y349727D01*
X413301Y349688D01*
X413184Y349649D01*
X413047Y349591D01*
X412891Y349513D01*
X412715Y349454D01*
X412500Y349376D01*
X412051Y349239D01*
X411524Y349102D01*
X410938Y349024D01*
X410332Y348985D01*
X410157D01*
X410020Y349005D01*
X409864D01*
X409688Y349024D01*
X409473Y349063D01*
X409239Y349102D01*
X408750Y349200D01*
X408204Y349356D01*
X407637Y349571D01*
X407364Y349688D01*
X407090Y349845D01*
X407071Y349864D01*
X407032Y349884D01*
X406954Y349942D01*
X406856Y350001D01*
X406739Y350098D01*
X406602Y350196D01*
X406290Y350469D01*
X405938Y350821D01*
X405567Y351212D01*
X405235Y351700D01*
X404923Y352227D01*
Y352247D01*
X404884Y352305D01*
X404864Y352383D01*
X404805Y352501D01*
X404747Y352637D01*
X404688Y352794D01*
X404630Y352989D01*
X404571Y353204D01*
X404493Y353438D01*
X404434Y353672D01*
X404317Y354219D01*
X404239Y354805D01*
X404200Y355430D01*
Y355469D01*
Y355567D01*
X404219Y355743D01*
Y355957D01*
X404259Y356231D01*
X404298Y356543D01*
X404337Y356875D01*
X404415Y357266D01*
X404513Y357657D01*
X404610Y358067D01*
X404747Y358477D01*
X404923Y358887D01*
X405118Y359297D01*
X405333Y359707D01*
X405606Y360078D01*
X405899Y360430D01*
X405919Y360449D01*
X405977Y360508D01*
X406075Y360606D01*
X406212Y360723D01*
X406387Y360859D01*
X406583Y360996D01*
X406817Y361172D01*
X407090Y361348D01*
X407403Y361504D01*
X407735Y361680D01*
X408106Y361816D01*
X408497Y361973D01*
X408907Y362070D01*
X409356Y362168D01*
X409844Y362227D01*
X410332Y362246D01*
X410508D01*
X410625Y362227D01*
D02*
G37*
G36*
X437928Y360527D02*
X430351D01*
Y356582D01*
X437440D01*
Y355079D01*
X430351D01*
Y350704D01*
X438221D01*
Y349200D01*
X428652D01*
Y362031D01*
X437928D01*
Y360527D01*
D02*
G37*
G36*
X452403Y401604D02*
X452520D01*
X452813Y401589D01*
X453121Y401560D01*
X453443Y401501D01*
X453750Y401443D01*
X453897Y401399D01*
X454028Y401355D01*
X454043D01*
X454058Y401340D01*
X454145Y401311D01*
X454263Y401238D01*
X454409Y401135D01*
X454585Y401018D01*
X454760Y400857D01*
X454936Y400667D01*
X455097Y400433D01*
X455112Y400403D01*
X455156Y400316D01*
X455229Y400184D01*
X455302Y400008D01*
X455375Y399788D01*
X455448Y399540D01*
X455492Y399276D01*
X455507Y398983D01*
Y398969D01*
Y398939D01*
Y398881D01*
X455492Y398808D01*
Y398720D01*
X455478Y398617D01*
X455419Y398383D01*
X455346Y398105D01*
X455229Y397827D01*
X455053Y397534D01*
X454951Y397388D01*
X454834Y397256D01*
X454804Y397227D01*
X454760Y397197D01*
X454716Y397139D01*
X454643Y397095D01*
X454555Y397022D01*
X454453Y396963D01*
X454336Y396890D01*
X454204Y396817D01*
X454043Y396743D01*
X453882Y396670D01*
X453692Y396597D01*
X453501Y396524D01*
X453282Y396465D01*
X453047Y396421D01*
X452799Y396377D01*
X452828Y396363D01*
X452886Y396333D01*
X452974Y396289D01*
X453077Y396231D01*
X453326Y396070D01*
X453457Y395982D01*
X453560Y395894D01*
X453589Y395865D01*
X453662Y395806D01*
X453765Y395689D01*
X453897Y395543D01*
X454058Y395353D01*
X454233Y395133D01*
X454424Y394884D01*
X454614Y394606D01*
X456283Y392000D01*
X454687D01*
X453413Y393991D01*
Y394006D01*
X453384Y394035D01*
X453355Y394079D01*
X453326Y394137D01*
X453223Y394284D01*
X453091Y394474D01*
X452945Y394694D01*
X452784Y394913D01*
X452637Y395118D01*
X452491Y395309D01*
X452477Y395323D01*
X452433Y395382D01*
X452359Y395470D01*
X452286Y395572D01*
X452067Y395777D01*
X451964Y395880D01*
X451847Y395953D01*
X451832Y395967D01*
X451803Y395982D01*
X451745Y396011D01*
X451671Y396055D01*
X451496Y396143D01*
X451276Y396216D01*
X451261D01*
X451232Y396231D01*
X451173D01*
X451100Y396246D01*
X450998Y396260D01*
X450881D01*
X450734Y396275D01*
X449095D01*
Y392000D01*
X447821D01*
Y401618D01*
X452286D01*
X452403Y401604D01*
D02*
G37*
G36*
X445818Y362012D02*
X446170Y361992D01*
X446561Y361953D01*
X446932Y361894D01*
X447244Y361836D01*
X447264D01*
X447303Y361816D01*
X447342D01*
X447420Y361777D01*
X447635Y361719D01*
X447889Y361621D01*
X448182Y361504D01*
X448494Y361348D01*
X448806Y361152D01*
X449119Y360918D01*
X449138D01*
X449158Y360879D01*
X449295Y360762D01*
X449471Y360566D01*
X449685Y360313D01*
X449939Y360000D01*
X450193Y359629D01*
X450427Y359199D01*
X450642Y358711D01*
Y358692D01*
X450662Y358652D01*
X450681Y358574D01*
X450721Y358477D01*
X450760Y358360D01*
X450799Y358203D01*
X450857Y358028D01*
X450896Y357832D01*
X450935Y357617D01*
X450994Y357383D01*
X451072Y356875D01*
X451131Y356309D01*
X451150Y355684D01*
Y355664D01*
Y355625D01*
Y355547D01*
Y355430D01*
X451131Y355313D01*
Y355157D01*
X451111Y354805D01*
X451072Y354415D01*
X450994Y353965D01*
X450916Y353516D01*
X450799Y353086D01*
Y353067D01*
X450779Y353028D01*
X450760Y352969D01*
X450740Y352891D01*
X450662Y352696D01*
X450564Y352422D01*
X450447Y352130D01*
X450291Y351817D01*
X450115Y351504D01*
X449920Y351212D01*
X449900Y351172D01*
X449822Y351094D01*
X449724Y350958D01*
X449568Y350782D01*
X449412Y350606D01*
X449197Y350411D01*
X448982Y350216D01*
X448748Y350040D01*
X448728Y350020D01*
X448631Y349981D01*
X448494Y349903D01*
X448318Y349805D01*
X448103Y349708D01*
X447850Y349610D01*
X447557Y349513D01*
X447225Y349415D01*
X447186D01*
X447068Y349376D01*
X446893Y349356D01*
X446639Y349317D01*
X446346Y349278D01*
X445994Y349239D01*
X445604Y349219D01*
X445174Y349200D01*
X440565D01*
Y362031D01*
X445486D01*
X445818Y362012D01*
D02*
G37*
G36*
X328604Y222906D02*
X328769Y222878D01*
X328790Y222871D01*
X328845Y222857D01*
X328928Y222830D01*
X329025Y222788D01*
X329142Y222726D01*
X329266Y222657D01*
X329390Y222574D01*
X329515Y222464D01*
X329528Y222450D01*
X329563Y222416D01*
X329611Y222354D01*
X329666Y222271D01*
X329729Y222167D01*
X329791Y222050D01*
X329853Y221919D01*
X329887Y221774D01*
X329894Y221753D01*
X329901Y221705D01*
Y221622D01*
X329908Y221519D01*
X329901Y221388D01*
X329887Y221249D01*
X329860Y221084D01*
X329804Y220918D01*
X329811Y220925D01*
X329832Y220932D01*
X329853Y220953D01*
X329894Y220967D01*
X329984Y221015D01*
X330115Y221063D01*
X330260Y221111D01*
X330432Y221146D01*
X330619Y221167D01*
X330812Y221153D01*
X330833Y221146D01*
X330902Y221132D01*
X330998Y221105D01*
X331130Y221070D01*
X331274Y221008D01*
X331433Y220918D01*
X331606Y220801D01*
X331771Y220649D01*
X331778Y220642D01*
X331799Y220621D01*
X331826Y220594D01*
X331861Y220546D01*
X331909Y220483D01*
X331958Y220421D01*
X332013Y220339D01*
X332061Y220249D01*
X332172Y220042D01*
X332227Y219917D01*
X332261Y219786D01*
X332296Y219655D01*
X332323Y219517D01*
X332337Y219365D01*
X332344Y219207D01*
Y219193D01*
Y219165D01*
X332337Y219131D01*
X332330Y219069D01*
X332323Y218993D01*
X332303Y218903D01*
X332275Y218806D01*
X332247Y218710D01*
X332213Y218592D01*
X332165Y218475D01*
X332109Y218351D01*
X332047Y218220D01*
X331971Y218089D01*
X331875Y217964D01*
X331771Y217833D01*
X331661Y217709D01*
X331654Y217702D01*
X331633Y217681D01*
X331606Y217654D01*
X331557Y217619D01*
X331495Y217571D01*
X331433Y217523D01*
X331357Y217461D01*
X331274Y217405D01*
X331074Y217288D01*
X330840Y217191D01*
X330722Y217143D01*
X330598Y217115D01*
X330460Y217088D01*
X330322Y217074D01*
X330198D01*
X330129Y217088D01*
X330053Y217095D01*
X329963Y217102D01*
X329873Y217122D01*
X329653Y217178D01*
X329425Y217267D01*
X329183Y217385D01*
X329066Y217461D01*
X328949Y217550D01*
X329432Y218185D01*
X329439Y218178D01*
X329459Y218171D01*
X329487Y218144D01*
X329528Y218130D01*
X329632Y218068D01*
X329770Y217999D01*
X329922Y217930D01*
X330094Y217868D01*
X330267Y217833D01*
X330432Y217819D01*
X330453Y217826D01*
X330508D01*
X330584Y217847D01*
X330695Y217875D01*
X330805Y217916D01*
X330936Y217978D01*
X331074Y218061D01*
X331199Y218171D01*
X331205Y218178D01*
X331219Y218192D01*
X331240Y218213D01*
X331261Y218247D01*
X331323Y218323D01*
X331392Y218434D01*
X331468Y218579D01*
X331537Y218730D01*
X331578Y218910D01*
X331592Y219103D01*
Y219131D01*
X331585Y219193D01*
X331571Y219289D01*
X331543Y219427D01*
X331495Y219572D01*
X331419Y219731D01*
X331316Y219890D01*
X331185Y220049D01*
X331178Y220056D01*
X331171Y220062D01*
X331150Y220083D01*
X331116Y220104D01*
X331040Y220166D01*
X330929Y220235D01*
X330805Y220304D01*
X330646Y220366D01*
X330481Y220408D01*
X330301Y220421D01*
X330219D01*
X330129Y220401D01*
X330005Y220373D01*
X329867Y220332D01*
X329722Y220256D01*
X329577Y220166D01*
X329425Y220042D01*
X329418Y220035D01*
X329397Y220014D01*
X329363Y219980D01*
X329321Y219924D01*
X329273Y219862D01*
X329211Y219786D01*
X329149Y219697D01*
X329087Y219593D01*
X328659Y220145D01*
X328666Y220152D01*
X328693Y220180D01*
X328728Y220200D01*
X328755Y220228D01*
X328762Y220235D01*
X328769Y220242D01*
X328790Y220263D01*
X328818Y220290D01*
X328873Y220359D01*
X328949Y220463D01*
X329025Y220580D01*
X329094Y220718D01*
X329163Y220870D01*
X329211Y221042D01*
X329218Y221063D01*
X329225Y221125D01*
X329218Y221215D01*
X329211Y221332D01*
X329190Y221463D01*
X329135Y221601D01*
X329052Y221753D01*
X328928Y221905D01*
X328921Y221912D01*
X328914Y221919D01*
X328880Y221953D01*
X328811Y221995D01*
X328721Y222057D01*
X328624Y222112D01*
X328500Y222153D01*
X328362Y222195D01*
X328217Y222202D01*
X328148D01*
X328065Y222188D01*
X327969Y222160D01*
X327851Y222126D01*
X327734Y222064D01*
X327603Y221988D01*
X327479Y221878D01*
X327472Y221871D01*
X327465Y221864D01*
X327423Y221822D01*
X327375Y221746D01*
X327320Y221663D01*
X327251Y221553D01*
X327203Y221422D01*
X327161Y221284D01*
X327140Y221125D01*
Y221111D01*
Y221056D01*
X327154Y220973D01*
X327182Y220863D01*
X327216Y220732D01*
X327278Y220587D01*
X327361Y220421D01*
X327479Y220249D01*
X326823Y219786D01*
X326816Y219793D01*
X326802Y219821D01*
X326782Y219855D01*
X326754Y219897D01*
X326719Y219959D01*
X326678Y220028D01*
X326602Y220200D01*
X326519Y220394D01*
X326457Y220621D01*
X326416Y220856D01*
Y221105D01*
Y221118D01*
Y221132D01*
X326423Y221167D01*
X326436Y221222D01*
X326450Y221277D01*
X326464Y221346D01*
X326505Y221512D01*
X326582Y221698D01*
X326692Y221905D01*
X326830Y222112D01*
X326913Y222222D01*
X327009Y222319D01*
X327016Y222326D01*
X327023Y222333D01*
X327044Y222354D01*
X327071Y222381D01*
X327147Y222443D01*
X327251Y222519D01*
X327375Y222602D01*
X327520Y222692D01*
X327679Y222768D01*
X327851Y222830D01*
X327858Y222837D01*
X327872D01*
X327934Y222857D01*
X328024Y222878D01*
X328141Y222899D01*
X328279Y222913D01*
X328438Y222920D01*
X328604Y222906D01*
D02*
G37*
G36*
X252653Y240479D02*
X252873Y236159D01*
X252871Y236150D01*
X252877Y236129D01*
X252880Y236089D01*
X252883Y236049D01*
X252881Y235980D01*
X252888Y235909D01*
X252898Y235739D01*
X252902Y235540D01*
X252911Y235310D01*
X252909Y235073D01*
X252915Y234824D01*
X252917Y234834D01*
X252933Y234870D01*
X252951Y234917D01*
X252982Y234981D01*
X253015Y235054D01*
X253049Y235137D01*
X253142Y235329D01*
X253226Y235522D01*
X253308Y235706D01*
X253341Y235780D01*
X253374Y235853D01*
X253394Y235909D01*
X253410Y235946D01*
X255364Y240002D01*
X256373Y239824D01*
X256712Y236463D01*
X256711Y236454D01*
X256721Y236402D01*
X256721Y236343D01*
X256734Y236251D01*
X256735Y236142D01*
X256751Y236011D01*
X256755Y235861D01*
X256766Y235701D01*
X256776Y235531D01*
X256784Y235351D01*
X256802Y234951D01*
X256810Y234543D01*
X256807Y234138D01*
X256809Y234147D01*
X256822Y234165D01*
X256827Y234193D01*
X256845Y234240D01*
X256875Y234294D01*
X256896Y234360D01*
X256929Y234433D01*
X256963Y234516D01*
X257047Y234710D01*
X257138Y234942D01*
X257251Y235189D01*
X257367Y235456D01*
X259064Y239349D01*
X259910Y239200D01*
X257076Y233188D01*
X256259Y233332D01*
X255780Y238372D01*
X255782Y238382D01*
X255776Y238403D01*
X255771Y238433D01*
X255768Y238473D01*
X255758Y238584D01*
X255750Y238704D01*
X255735Y238846D01*
X255726Y238966D01*
X255716Y239077D01*
X255713Y239117D01*
X255709Y239148D01*
X255705Y239128D01*
X255678Y239084D01*
X255643Y239001D01*
X255597Y238910D01*
X255547Y238790D01*
X255498Y238680D01*
X255437Y238561D01*
X255386Y238442D01*
X253212Y233870D01*
X252338Y234024D01*
X251798Y240630D01*
X252653Y240479D01*
D02*
G37*
G36*
X262861Y238680D02*
X262871Y238678D01*
X262890Y238674D01*
X262928Y238668D01*
X262986Y238657D01*
X263044Y238647D01*
X263121Y238634D01*
X263282Y238595D01*
X263454Y238555D01*
X263642Y238502D01*
X263820Y238441D01*
X263969Y238385D01*
X263978Y238383D01*
X263996Y238370D01*
X264015Y238367D01*
X264050Y238341D01*
X264151Y238294D01*
X264267Y238223D01*
X264401Y238140D01*
X264541Y238036D01*
X264678Y237913D01*
X264812Y237771D01*
X264821Y237769D01*
X264827Y237748D01*
X264885Y237679D01*
X264954Y237567D01*
X265038Y237423D01*
X265136Y237248D01*
X265229Y237043D01*
X265306Y236811D01*
X265370Y236552D01*
X265368Y236543D01*
X265374Y236522D01*
X265377Y236482D01*
X265388Y236430D01*
X265397Y236369D01*
X265403Y236289D01*
X265416Y236197D01*
X265419Y236098D01*
X265419Y235989D01*
X265428Y235868D01*
X265422Y235612D01*
X265402Y235328D01*
X265357Y235018D01*
X265355Y235009D01*
X265352Y234990D01*
X265345Y234951D01*
X265335Y234893D01*
X265315Y234838D01*
X265302Y234761D01*
X265262Y234589D01*
X265209Y234401D01*
X265131Y234186D01*
X265054Y233972D01*
X264959Y233771D01*
X264957Y233761D01*
X264944Y233743D01*
X264929Y233716D01*
X264913Y233680D01*
X264858Y233590D01*
X264786Y233464D01*
X264703Y233330D01*
X264599Y233190D01*
X264485Y233051D01*
X264364Y232924D01*
X264351Y232907D01*
X264305Y232875D01*
X264245Y232816D01*
X264153Y232743D01*
X264061Y232670D01*
X263938Y232593D01*
X263816Y232515D01*
X263685Y232449D01*
X263674Y232441D01*
X263622Y232430D01*
X263548Y232404D01*
X263453Y232371D01*
X263339Y232342D01*
X263206Y232316D01*
X263053Y232293D01*
X262881Y232274D01*
X262862Y232277D01*
X262801Y232268D01*
X262713Y232274D01*
X262584Y232277D01*
X262437Y232283D01*
X262260Y232294D01*
X262066Y232318D01*
X261853Y232346D01*
X259585Y232746D01*
X260698Y239061D01*
X262861Y238680D01*
D02*
G37*
G36*
X264814Y302010D02*
X264892D01*
X265058Y301990D01*
X265243Y301961D01*
X265458Y301922D01*
X265672Y301864D01*
X265887Y301785D01*
X265897D01*
X265916Y301776D01*
X265946Y301766D01*
X265985Y301746D01*
X266082Y301698D01*
X266209Y301620D01*
X266356Y301532D01*
X266502Y301424D01*
X266649Y301307D01*
X266775Y301161D01*
X266785Y301141D01*
X266824Y301093D01*
X266883Y301005D01*
X266961Y300878D01*
X267039Y300731D01*
X267117Y300556D01*
X267195Y300351D01*
X267263Y300116D01*
X266492Y299902D01*
Y299911D01*
X266483Y299921D01*
X266473Y299980D01*
X266434Y300068D01*
X266395Y300185D01*
X266346Y300302D01*
X266287Y300429D01*
X266219Y300556D01*
X266141Y300673D01*
X266131Y300683D01*
X266102Y300722D01*
X266053Y300770D01*
X265985Y300839D01*
X265897Y300907D01*
X265790Y300985D01*
X265672Y301053D01*
X265526Y301122D01*
X265507Y301132D01*
X265458Y301151D01*
X265370Y301180D01*
X265263Y301210D01*
X265136Y301239D01*
X264989Y301268D01*
X264823Y301288D01*
X264648Y301297D01*
X264550D01*
X264443Y301288D01*
X264306Y301278D01*
X264150Y301249D01*
X263974Y301219D01*
X263808Y301171D01*
X263642Y301112D01*
X263623Y301102D01*
X263574Y301083D01*
X263496Y301044D01*
X263398Y300985D01*
X263291Y300917D01*
X263174Y300839D01*
X263067Y300751D01*
X262959Y300643D01*
X262949Y300634D01*
X262920Y300595D01*
X262871Y300536D01*
X262813Y300458D01*
X262744Y300360D01*
X262676Y300253D01*
X262618Y300136D01*
X262559Y300009D01*
Y299999D01*
X262549Y299980D01*
X262540Y299951D01*
X262520Y299902D01*
X262501Y299853D01*
X262481Y299785D01*
X262442Y299628D01*
X262393Y299433D01*
X262354Y299219D01*
X262325Y298975D01*
X262315Y298721D01*
Y298711D01*
Y298682D01*
Y298643D01*
X262325Y298574D01*
Y298506D01*
X262335Y298418D01*
X262344Y298321D01*
X262354Y298223D01*
X262383Y297989D01*
X262442Y297745D01*
X262510Y297511D01*
X262608Y297276D01*
Y297267D01*
X262618Y297247D01*
X262637Y297218D01*
X262666Y297179D01*
X262735Y297081D01*
X262823Y296954D01*
X262940Y296818D01*
X263086Y296671D01*
X263262Y296535D01*
X263457Y296417D01*
X263467D01*
X263486Y296408D01*
X263515Y296388D01*
X263555Y296378D01*
X263603Y296359D01*
X263672Y296330D01*
X263818Y296281D01*
X264003Y296232D01*
X264199Y296183D01*
X264423Y296154D01*
X264657Y296144D01*
X264755D01*
X264862Y296154D01*
X264999Y296173D01*
X265155Y296193D01*
X265341Y296232D01*
X265536Y296281D01*
X265731Y296349D01*
X265741D01*
X265751Y296359D01*
X265780Y296369D01*
X265819Y296388D01*
X265916Y296427D01*
X266034Y296486D01*
X266160Y296554D01*
X266287Y296632D01*
X266414Y296720D01*
X266531Y296808D01*
Y298018D01*
X264648D01*
Y298770D01*
X267361D01*
Y296388D01*
X267351Y296378D01*
X267332Y296369D01*
X267302Y296339D01*
X267254Y296310D01*
X267195Y296261D01*
X267127Y296222D01*
X266961Y296105D01*
X266766Y295988D01*
X266551Y295861D01*
X266307Y295744D01*
X266063Y295637D01*
X266053D01*
X266034Y295627D01*
X265995Y295617D01*
X265946Y295598D01*
X265887Y295578D01*
X265819Y295559D01*
X265731Y295539D01*
X265643Y295519D01*
X265438Y295471D01*
X265214Y295432D01*
X264960Y295402D01*
X264706Y295393D01*
X264618D01*
X264550Y295402D01*
X264462D01*
X264365Y295412D01*
X264257Y295422D01*
X264140Y295441D01*
X263867Y295490D01*
X263584Y295559D01*
X263281Y295656D01*
X262988Y295793D01*
X262979Y295803D01*
X262959Y295812D01*
X262910Y295832D01*
X262862Y295871D01*
X262793Y295910D01*
X262725Y295959D01*
X262559Y296086D01*
X262364Y296252D01*
X262178Y296457D01*
X261993Y296691D01*
X261827Y296954D01*
Y296964D01*
X261807Y296993D01*
X261788Y297032D01*
X261769Y297091D01*
X261739Y297159D01*
X261700Y297247D01*
X261671Y297345D01*
X261632Y297462D01*
X261593Y297579D01*
X261563Y297715D01*
X261495Y298008D01*
X261456Y298330D01*
X261437Y298672D01*
Y298682D01*
Y298711D01*
Y298760D01*
X261446Y298828D01*
Y298916D01*
X261456Y299014D01*
X261466Y299121D01*
X261485Y299238D01*
X261534Y299511D01*
X261603Y299804D01*
X261700Y300116D01*
X261827Y300419D01*
Y300429D01*
X261847Y300458D01*
X261866Y300497D01*
X261895Y300556D01*
X261944Y300624D01*
X261993Y300692D01*
X262110Y300878D01*
X262276Y301073D01*
X262461Y301268D01*
X262696Y301454D01*
X262813Y301541D01*
X262949Y301620D01*
X262959D01*
X262979Y301639D01*
X263028Y301659D01*
X263076Y301678D01*
X263145Y301717D01*
X263232Y301746D01*
X263330Y301785D01*
X263437Y301824D01*
X263555Y301854D01*
X263681Y301893D01*
X263974Y301961D01*
X264287Y302000D01*
X264638Y302020D01*
X264755D01*
X264814Y302010D01*
D02*
G37*
G36*
X248225Y241330D02*
X248451Y241319D01*
X248683Y241288D01*
X248693Y241287D01*
X248712Y241283D01*
X248750Y241277D01*
X248798Y241268D01*
X248864Y241247D01*
X248931Y241235D01*
X249091Y241187D01*
X249278Y241124D01*
X249483Y241048D01*
X249685Y240953D01*
X249873Y240841D01*
X249882Y240839D01*
X249890Y240828D01*
X249917Y240813D01*
X249953Y240787D01*
X250038Y240712D01*
X250151Y240623D01*
X250269Y240503D01*
X250383Y240364D01*
X250494Y240206D01*
X250582Y240032D01*
X250589Y240011D01*
X250617Y239947D01*
X250648Y239842D01*
X250676Y239718D01*
X250708Y239564D01*
X250735Y239381D01*
X250741Y239191D01*
X250725Y238986D01*
X249917Y239069D01*
X249919Y239078D01*
X249922Y239098D01*
X249918Y239128D01*
X249915Y239168D01*
X249914Y239278D01*
X249900Y239419D01*
X249867Y239573D01*
X249816Y239731D01*
X249735Y239894D01*
X249633Y240041D01*
X249615Y240054D01*
X249574Y240101D01*
X249496Y240164D01*
X249391Y240242D01*
X249247Y240327D01*
X249063Y240409D01*
X248849Y240486D01*
X248591Y240542D01*
X248582Y240543D01*
X248562Y240547D01*
X248524Y240553D01*
X248466Y240564D01*
X248407Y240564D01*
X248330Y240578D01*
X248161Y240578D01*
X247974Y240581D01*
X247783Y240565D01*
X247598Y240528D01*
X247512Y240494D01*
X247437Y240458D01*
X247425Y240450D01*
X247380Y240418D01*
X247312Y240371D01*
X247239Y240294D01*
X247155Y240210D01*
X247087Y240103D01*
X247026Y239985D01*
X246982Y239844D01*
X246978Y239825D01*
X246971Y239787D01*
X246969Y239718D01*
X246975Y239637D01*
X246988Y239546D01*
X247020Y239441D01*
X247062Y239345D01*
X247124Y239244D01*
X247131Y239233D01*
X247174Y239196D01*
X247200Y239172D01*
X247233Y239136D01*
X247288Y239106D01*
X247350Y239066D01*
X247420Y239014D01*
X247499Y238960D01*
X247591Y238914D01*
X247699Y238856D01*
X247825Y238784D01*
X247963Y238720D01*
X248119Y238653D01*
X248293Y238572D01*
X248303Y238571D01*
X248340Y238554D01*
X248386Y238536D01*
X248450Y238505D01*
X248533Y238471D01*
X248624Y238425D01*
X248827Y238339D01*
X249046Y238231D01*
X249265Y238123D01*
X249375Y238074D01*
X249464Y238019D01*
X249554Y237964D01*
X249625Y237921D01*
X249635Y237919D01*
X249653Y237907D01*
X249669Y237884D01*
X249704Y237858D01*
X249790Y237783D01*
X249903Y237694D01*
X250020Y237574D01*
X250134Y237435D01*
X250237Y237288D01*
X250319Y237135D01*
X250326Y237114D01*
X250346Y237061D01*
X250380Y236975D01*
X250408Y236852D01*
X250434Y236718D01*
X250455Y236556D01*
X250453Y236378D01*
X250431Y236193D01*
X250429Y236184D01*
X250428Y236174D01*
X250422Y236145D01*
X250416Y236107D01*
X250379Y236014D01*
X250338Y235893D01*
X250284Y235754D01*
X250197Y235600D01*
X250100Y235439D01*
X249975Y235293D01*
X249962Y235275D01*
X249903Y235226D01*
X249832Y235159D01*
X249719Y235080D01*
X249584Y234985D01*
X249419Y234895D01*
X249227Y234820D01*
X249016Y234748D01*
X249007Y234750D01*
X248986Y234744D01*
X248955Y234739D01*
X248914Y234727D01*
X248862Y234716D01*
X248801Y234707D01*
X248640Y234696D01*
X248459Y234678D01*
X248241Y234677D01*
X248015Y234687D01*
X247763Y234721D01*
X247753Y234723D01*
X247725Y234728D01*
X247676Y234737D01*
X247619Y234747D01*
X247553Y234768D01*
X247467Y234784D01*
X247372Y234810D01*
X247268Y234838D01*
X247052Y234906D01*
X246820Y234997D01*
X246590Y235097D01*
X246373Y235214D01*
X246364Y235216D01*
X246346Y235229D01*
X246321Y235253D01*
X246286Y235279D01*
X246190Y235356D01*
X246080Y235464D01*
X245945Y235597D01*
X245823Y235747D01*
X245696Y235928D01*
X245592Y236125D01*
X245594Y236135D01*
X245586Y236146D01*
X245572Y236178D01*
X245560Y236220D01*
X245539Y236273D01*
X245520Y236336D01*
X245488Y236490D01*
X245459Y236664D01*
X245437Y236876D01*
X245436Y237094D01*
X245458Y237328D01*
X246258Y237256D01*
X246256Y237247D01*
X246254Y237237D01*
X246254Y237178D01*
X246258Y237088D01*
X246256Y236969D01*
X246273Y236837D01*
X246288Y236696D01*
X246323Y236561D01*
X246369Y236424D01*
X246376Y236413D01*
X246398Y236369D01*
X246436Y236303D01*
X246501Y236222D01*
X246574Y236130D01*
X246665Y236025D01*
X246786Y235924D01*
X246917Y235822D01*
X246926Y235820D01*
X246934Y235809D01*
X246988Y235780D01*
X247070Y235736D01*
X247190Y235685D01*
X247317Y235623D01*
X247485Y235563D01*
X247664Y235512D01*
X247855Y235468D01*
X247865Y235467D01*
X247874Y235465D01*
X247932Y235455D01*
X248030Y235447D01*
X248137Y235438D01*
X248273Y235424D01*
X248413Y235429D01*
X248562Y235433D01*
X248715Y235455D01*
X248736Y235462D01*
X248778Y235474D01*
X248850Y235491D01*
X248936Y235526D01*
X249042Y235566D01*
X249140Y235618D01*
X249240Y235680D01*
X249332Y235753D01*
X249344Y235761D01*
X249370Y235796D01*
X249407Y235839D01*
X249457Y235899D01*
X249500Y235971D01*
X249546Y236062D01*
X249582Y236155D01*
X249610Y236259D01*
X249612Y236269D01*
X249618Y236307D01*
X249619Y236366D01*
X249621Y236435D01*
X249617Y236525D01*
X249594Y236618D01*
X249571Y236712D01*
X249528Y236808D01*
X249520Y236820D01*
X249506Y236852D01*
X249465Y236899D01*
X249418Y236967D01*
X249351Y237038D01*
X249265Y237113D01*
X249152Y237202D01*
X249027Y237283D01*
X249020Y237295D01*
X248983Y237311D01*
X248909Y237344D01*
X248865Y237371D01*
X248810Y237401D01*
X248737Y237434D01*
X248663Y237467D01*
X248572Y237512D01*
X248481Y237558D01*
X248371Y237607D01*
X248241Y237660D01*
X248104Y237724D01*
X247957Y237789D01*
X247948Y237791D01*
X247920Y237806D01*
X247874Y237824D01*
X247820Y237853D01*
X247756Y237884D01*
X247682Y237917D01*
X247508Y237997D01*
X247318Y238100D01*
X247128Y238203D01*
X246957Y238302D01*
X246876Y238347D01*
X246815Y238397D01*
X246806Y238399D01*
X246798Y238410D01*
X246747Y238458D01*
X246679Y238520D01*
X246594Y238604D01*
X246494Y238711D01*
X246406Y238826D01*
X246320Y238960D01*
X246246Y239102D01*
X246240Y239123D01*
X246219Y239176D01*
X246202Y239248D01*
X246181Y239351D01*
X246153Y239475D01*
X246148Y239615D01*
X246146Y239774D01*
X246164Y239929D01*
X246166Y239938D01*
X246167Y239948D01*
X246172Y239977D01*
X246179Y240015D01*
X246214Y240099D01*
X246253Y240211D01*
X246307Y240350D01*
X246381Y240485D01*
X246477Y240637D01*
X246591Y240775D01*
X246592Y240785D01*
X246604Y240793D01*
X246651Y240834D01*
X246731Y240899D01*
X246835Y240980D01*
X246958Y241057D01*
X247111Y241140D01*
X247293Y241216D01*
X247491Y241271D01*
X247500Y241269D01*
X247512Y241277D01*
X247542Y241282D01*
X247594Y241292D01*
X247643Y241293D01*
X247704Y241302D01*
X247848Y241327D01*
X248027Y241335D01*
X248225Y241330D01*
D02*
G37*
G36*
X258255Y301903D02*
X258333D01*
X258528Y301893D01*
X258733Y301873D01*
X258948Y301834D01*
X259153Y301795D01*
X259250Y301766D01*
X259338Y301737D01*
X259348D01*
X259358Y301727D01*
X259416Y301707D01*
X259494Y301659D01*
X259592Y301590D01*
X259709Y301512D01*
X259826Y301405D01*
X259943Y301278D01*
X260051Y301122D01*
X260061Y301102D01*
X260090Y301044D01*
X260139Y300956D01*
X260187Y300839D01*
X260236Y300692D01*
X260285Y300526D01*
X260314Y300351D01*
X260324Y300155D01*
Y300146D01*
Y300126D01*
Y300087D01*
X260314Y300038D01*
Y299980D01*
X260304Y299911D01*
X260265Y299755D01*
X260217Y299570D01*
X260139Y299384D01*
X260021Y299189D01*
X259953Y299092D01*
X259875Y299004D01*
X259856Y298984D01*
X259826Y298965D01*
X259797Y298926D01*
X259748Y298897D01*
X259690Y298848D01*
X259621Y298809D01*
X259543Y298760D01*
X259455Y298711D01*
X259348Y298662D01*
X259241Y298613D01*
X259114Y298565D01*
X258987Y298516D01*
X258840Y298477D01*
X258684Y298447D01*
X258518Y298418D01*
X258538Y298409D01*
X258577Y298389D01*
X258635Y298360D01*
X258704Y298321D01*
X258870Y298213D01*
X258958Y298155D01*
X259026Y298096D01*
X259045Y298077D01*
X259094Y298038D01*
X259163Y297959D01*
X259250Y297862D01*
X259358Y297735D01*
X259475Y297589D01*
X259602Y297423D01*
X259729Y297237D01*
X260841Y295500D01*
X259777D01*
X258928Y296827D01*
Y296837D01*
X258909Y296857D01*
X258889Y296886D01*
X258870Y296925D01*
X258801Y297023D01*
X258714Y297149D01*
X258616Y297296D01*
X258509Y297442D01*
X258411Y297579D01*
X258313Y297706D01*
X258304Y297715D01*
X258274Y297755D01*
X258226Y297813D01*
X258177Y297881D01*
X258030Y298018D01*
X257962Y298086D01*
X257884Y298135D01*
X257874Y298145D01*
X257855Y298155D01*
X257816Y298174D01*
X257767Y298203D01*
X257650Y298262D01*
X257503Y298311D01*
X257494D01*
X257474Y298321D01*
X257435D01*
X257386Y298330D01*
X257318Y298340D01*
X257240D01*
X257142Y298350D01*
X256049D01*
Y295500D01*
X255200D01*
Y301912D01*
X258177D01*
X258255Y301903D01*
D02*
G37*
G36*
X335795Y221995D02*
X335181Y221381D01*
X328887Y224155D01*
X329542Y224811D01*
X334007Y222692D01*
X334014Y222685D01*
X334035Y222678D01*
X334063Y222664D01*
X334104Y222650D01*
X334201Y222595D01*
X334332Y222533D01*
X334490Y222457D01*
X334656Y222374D01*
X334994Y222188D01*
X334987Y222195D01*
Y222209D01*
X334974Y222236D01*
X334953Y222271D01*
X334898Y222368D01*
X334829Y222492D01*
X334753Y222637D01*
X334670Y222802D01*
X334580Y222989D01*
X334490Y223175D01*
X332427Y227695D01*
X333034Y228303D01*
X335795Y221995D01*
D02*
G37*
G36*
X271158Y301903D02*
X271226D01*
X271392Y301893D01*
X271577Y301864D01*
X271773Y301834D01*
X271968Y301785D01*
X272143Y301717D01*
X272153D01*
X272163Y301707D01*
X272221Y301678D01*
X272300Y301629D01*
X272397Y301571D01*
X272514Y301483D01*
X272631Y301376D01*
X272739Y301258D01*
X272846Y301112D01*
X272856Y301093D01*
X272885Y301044D01*
X272924Y300956D01*
X272973Y300849D01*
X273022Y300722D01*
X273061Y300585D01*
X273090Y300429D01*
X273100Y300263D01*
Y300243D01*
Y300195D01*
X273090Y300116D01*
X273071Y300009D01*
X273041Y299892D01*
X273002Y299765D01*
X272953Y299619D01*
X272875Y299482D01*
X272866Y299463D01*
X272836Y299424D01*
X272778Y299355D01*
X272709Y299277D01*
X272612Y299180D01*
X272495Y299092D01*
X272358Y298994D01*
X272192Y298906D01*
X272202D01*
X272221Y298897D01*
X272251Y298887D01*
X272290Y298877D01*
X272397Y298828D01*
X272524Y298770D01*
X272670Y298682D01*
X272817Y298584D01*
X272963Y298467D01*
X273090Y298321D01*
X273100Y298301D01*
X273139Y298252D01*
X273188Y298165D01*
X273256Y298047D01*
X273315Y297901D01*
X273363Y297745D01*
X273402Y297559D01*
X273412Y297354D01*
Y297335D01*
Y297276D01*
X273402Y297188D01*
X273393Y297081D01*
X273363Y296954D01*
X273334Y296808D01*
X273285Y296661D01*
X273217Y296515D01*
X273207Y296496D01*
X273188Y296447D01*
X273139Y296378D01*
X273090Y296291D01*
X273022Y296193D01*
X272944Y296095D01*
X272846Y295998D01*
X272748Y295910D01*
X272739Y295900D01*
X272700Y295881D01*
X272641Y295842D01*
X272553Y295793D01*
X272456Y295744D01*
X272329Y295695D01*
X272192Y295646D01*
X272046Y295598D01*
X272026D01*
X271968Y295578D01*
X271880Y295568D01*
X271763Y295549D01*
X271607Y295529D01*
X271431Y295519D01*
X271236Y295500D01*
X268571D01*
Y301912D01*
X271089D01*
X271158Y301903D01*
D02*
G37*
%LPC*%
G36*
X410332Y360781D02*
X410157D01*
X410040Y360762D01*
X409883Y360742D01*
X409688Y360723D01*
X409493Y360684D01*
X409278Y360625D01*
X408790Y360469D01*
X408536Y360371D01*
X408282Y360254D01*
X408008Y360117D01*
X407755Y359942D01*
X407501Y359746D01*
X407247Y359531D01*
X407227Y359512D01*
X407188Y359473D01*
X407129Y359395D01*
X407051Y359297D01*
X406954Y359160D01*
X406837Y358984D01*
X406719Y358789D01*
X406602Y358555D01*
X406485Y358281D01*
X406368Y357989D01*
X406251Y357657D01*
X406153Y357266D01*
X406075Y356856D01*
X406016Y356426D01*
X405977Y355938D01*
X405958Y355411D01*
Y355391D01*
Y355313D01*
Y355196D01*
X405977Y355020D01*
X405997Y354825D01*
X406016Y354610D01*
X406055Y354356D01*
X406114Y354082D01*
X406251Y353497D01*
X406368Y353204D01*
X406485Y352891D01*
X406622Y352598D01*
X406778Y352305D01*
X406973Y352012D01*
X407188Y351758D01*
X407208Y351739D01*
X407247Y351700D01*
X407325Y351641D01*
X407422Y351544D01*
X407540Y351446D01*
X407676Y351348D01*
X407852Y351212D01*
X408047Y351094D01*
X408262Y350977D01*
X408497Y350860D01*
X408750Y350743D01*
X409043Y350645D01*
X409336Y350548D01*
X409649Y350489D01*
X409961Y350450D01*
X410313Y350430D01*
X410489D01*
X410625Y350450D01*
X410801Y350469D01*
X410977Y350508D01*
X411192Y350548D01*
X411426Y350606D01*
X411914Y350762D01*
X412188Y350860D01*
X412442Y350997D01*
X412715Y351153D01*
X412969Y351329D01*
X413223Y351524D01*
X413457Y351758D01*
X413477Y351778D01*
X413516Y351817D01*
X413574Y351895D01*
X413653Y352012D01*
X413750Y352149D01*
X413848Y352325D01*
X413965Y352520D01*
X414082Y352735D01*
X414199Y353008D01*
X414317Y353282D01*
X414414Y353594D01*
X414512Y353946D01*
X414590Y354317D01*
X414648Y354708D01*
X414688Y355137D01*
X414707Y355586D01*
Y355606D01*
Y355664D01*
Y355743D01*
Y355840D01*
X414688Y355977D01*
Y356153D01*
X414648Y356524D01*
X414570Y356934D01*
X414473Y357403D01*
X414336Y357871D01*
X414160Y358320D01*
Y358340D01*
X414141Y358379D01*
X414102Y358438D01*
X414063Y358516D01*
X413945Y358731D01*
X413770Y358984D01*
X413555Y359278D01*
X413281Y359590D01*
X412969Y359883D01*
X412617Y360137D01*
X412598D01*
X412578Y360156D01*
X412520Y360195D01*
X412442Y360234D01*
X412227Y360332D01*
X411953Y360469D01*
X411621Y360586D01*
X411231Y360684D01*
X410801Y360762D01*
X410332Y360781D01*
D02*
G37*
G36*
X452125Y400550D02*
X449095D01*
Y397373D01*
X451964D01*
X452125Y397388D01*
X452315Y397402D01*
X452535Y397417D01*
X452769Y397446D01*
X452989Y397490D01*
X453179Y397549D01*
X453208Y397563D01*
X453267Y397578D01*
X453355Y397622D01*
X453457Y397680D01*
X453575Y397768D01*
X453706Y397871D01*
X453823Y397988D01*
X453926Y398119D01*
X453940Y398134D01*
X453970Y398193D01*
X454014Y398266D01*
X454058Y398383D01*
X454102Y398500D01*
X454145Y398647D01*
X454175Y398808D01*
X454189Y398983D01*
Y398998D01*
Y399013D01*
Y399100D01*
X454160Y399218D01*
X454131Y399379D01*
X454072Y399554D01*
X453984Y399745D01*
X453853Y399935D01*
X453692Y400111D01*
X453662Y400125D01*
X453604Y400184D01*
X453472Y400257D01*
X453311Y400330D01*
X453091Y400418D01*
X452828Y400477D01*
X452506Y400535D01*
X452125Y400550D01*
D02*
G37*
G36*
X444940Y360527D02*
X442264D01*
Y350704D01*
X445193D01*
X445408Y350723D01*
X445701Y350743D01*
X446014Y350762D01*
X446346Y350801D01*
X446658Y350860D01*
X446951Y350938D01*
X446990Y350958D01*
X447068Y350977D01*
X447205Y351036D01*
X447361Y351114D01*
X447557Y351212D01*
X447752Y351309D01*
X447928Y351446D01*
X448103Y351602D01*
X448123Y351622D01*
X448201Y351719D01*
X448318Y351856D01*
X448455Y352032D01*
X448592Y352266D01*
X448748Y352540D01*
X448904Y352872D01*
X449041Y353223D01*
Y353243D01*
X449060Y353262D01*
X449080Y353321D01*
X449099Y353399D01*
X449119Y353497D01*
X449158Y353614D01*
X449217Y353907D01*
X449275Y354278D01*
X449334Y354708D01*
X449373Y355176D01*
X449392Y355703D01*
Y355723D01*
Y355801D01*
Y355899D01*
Y356035D01*
X449373Y356211D01*
X449353Y356407D01*
X449334Y356621D01*
X449314Y356836D01*
X449236Y357344D01*
X449119Y357852D01*
X448943Y358340D01*
X448846Y358574D01*
X448728Y358789D01*
Y358809D01*
X448689Y358828D01*
X448670Y358887D01*
X448611Y358965D01*
X448475Y359160D01*
X448279Y359375D01*
X448045Y359629D01*
X447771Y359863D01*
X447459Y360078D01*
X447127Y360254D01*
X447088Y360274D01*
X446990Y360293D01*
X446834Y360332D01*
X446600Y360391D01*
X446287Y360449D01*
X445916Y360488D01*
X445467Y360508D01*
X444940Y360527D01*
D02*
G37*
G36*
X261404Y238173D02*
X260552Y233339D01*
X261888Y233103D01*
X261897Y233101D01*
X261916Y233098D01*
X261945Y233093D01*
X261993Y233084D01*
X262101Y233075D01*
X262247Y233060D01*
X262402Y233042D01*
X262569Y233032D01*
X262728Y233034D01*
X262879Y233047D01*
X262900Y233053D01*
X262940Y233056D01*
X263012Y233073D01*
X263096Y233098D01*
X263200Y233129D01*
X263305Y233160D01*
X263403Y233212D01*
X263504Y233274D01*
X263515Y233282D01*
X263562Y233323D01*
X263631Y233380D01*
X263714Y233455D01*
X263801Y233558D01*
X263902Y233679D01*
X264008Y233829D01*
X264106Y233990D01*
X264107Y234000D01*
X264119Y234008D01*
X264133Y234035D01*
X264150Y234072D01*
X264168Y234118D01*
X264197Y234173D01*
X264251Y234312D01*
X264312Y234489D01*
X264378Y234696D01*
X264438Y234923D01*
X264494Y235181D01*
X264495Y235190D01*
X264502Y235229D01*
X264511Y235277D01*
X264523Y235344D01*
X264528Y235432D01*
X264535Y235530D01*
X264545Y235637D01*
X264554Y235745D01*
X264559Y236001D01*
X264546Y236262D01*
X264502Y236517D01*
X264474Y236641D01*
X264435Y236757D01*
X264436Y236767D01*
X264419Y236779D01*
X264414Y236810D01*
X264392Y236854D01*
X264342Y236962D01*
X264264Y237084D01*
X264171Y237229D01*
X264057Y237368D01*
X263922Y237501D01*
X263774Y237617D01*
X263756Y237630D01*
X263710Y237648D01*
X263636Y237681D01*
X263526Y237730D01*
X263377Y237786D01*
X263198Y237837D01*
X262979Y237886D01*
X262721Y237941D01*
X261404Y238173D01*
D02*
G37*
G36*
X258069Y301200D02*
X256049D01*
Y299082D01*
X257962D01*
X258069Y299092D01*
X258196Y299101D01*
X258343Y299111D01*
X258499Y299131D01*
X258645Y299160D01*
X258772Y299199D01*
X258792Y299209D01*
X258831Y299219D01*
X258889Y299248D01*
X258958Y299287D01*
X259036Y299345D01*
X259123Y299414D01*
X259202Y299492D01*
X259270Y299580D01*
X259280Y299589D01*
X259299Y299628D01*
X259329Y299677D01*
X259358Y299755D01*
X259387Y299833D01*
X259416Y299931D01*
X259436Y300038D01*
X259446Y300155D01*
Y300165D01*
Y300175D01*
Y300234D01*
X259426Y300312D01*
X259407Y300419D01*
X259367Y300536D01*
X259309Y300663D01*
X259221Y300790D01*
X259114Y300907D01*
X259094Y300917D01*
X259055Y300956D01*
X258967Y301005D01*
X258860Y301053D01*
X258714Y301112D01*
X258538Y301151D01*
X258323Y301190D01*
X258069Y301200D01*
D02*
G37*
G36*
X271109Y298457D02*
X269420D01*
Y296252D01*
X271236D01*
X271431Y296261D01*
X271519Y296271D01*
X271587Y296281D01*
X271597D01*
X271636Y296291D01*
X271694Y296300D01*
X271763Y296320D01*
X271919Y296369D01*
X272075Y296447D01*
X272085Y296457D01*
X272114Y296466D01*
X272143Y296496D01*
X272192Y296544D01*
X272251Y296593D01*
X272300Y296652D01*
X272358Y296730D01*
X272407Y296808D01*
X272417Y296818D01*
X272426Y296847D01*
X272446Y296896D01*
X272475Y296964D01*
X272495Y297042D01*
X272514Y297140D01*
X272524Y297237D01*
X272534Y297354D01*
Y297374D01*
Y297413D01*
X272524Y297481D01*
X272514Y297559D01*
X272485Y297657D01*
X272456Y297764D01*
X272407Y297872D01*
X272339Y297969D01*
X272329Y297979D01*
X272309Y298018D01*
X272260Y298057D01*
X272202Y298116D01*
X272134Y298184D01*
X272046Y298243D01*
X271948Y298301D01*
X271831Y298350D01*
X271812Y298360D01*
X271773Y298369D01*
X271694Y298389D01*
X271597Y298409D01*
X271460Y298428D01*
X271304Y298438D01*
X271109Y298457D01*
D02*
G37*
G36*
X270933Y301161D02*
X269420D01*
Y299209D01*
X270992D01*
X271109Y299219D01*
X271245Y299228D01*
X271382Y299238D01*
X271499Y299258D01*
X271607Y299277D01*
X271616Y299287D01*
X271655Y299297D01*
X271714Y299316D01*
X271792Y299355D01*
X271870Y299394D01*
X271948Y299453D01*
X272026Y299521D01*
X272095Y299599D01*
X272104Y299609D01*
X272124Y299638D01*
X272143Y299687D01*
X272182Y299755D01*
X272212Y299833D01*
X272231Y299931D01*
X272251Y300038D01*
X272260Y300165D01*
Y300175D01*
Y300224D01*
X272251Y300282D01*
X272241Y300360D01*
X272221Y300448D01*
X272192Y300536D01*
X272153Y300634D01*
X272104Y300731D01*
X272095Y300741D01*
X272075Y300770D01*
X272036Y300809D01*
X271987Y300868D01*
X271929Y300917D01*
X271851Y300975D01*
X271763Y301024D01*
X271665Y301063D01*
X271655D01*
X271607Y301083D01*
X271538Y301093D01*
X271441Y301112D01*
X271304Y301132D01*
X271138Y301141D01*
X270933Y301161D01*
D02*
G37*
%LPD*%
D10*
X347922Y334950D02*
G03*
X347922Y334950I-29022J0D01*
G01*
X373757D02*
G03*
X373757Y334950I-54857J0D01*
G01*
X569422Y335450D02*
G03*
X569422Y335450I-29022J0D01*
G01*
X595257D02*
G03*
X595257Y335450I-54857J0D01*
G01*
X256119Y277037D02*
X270686D01*
X474472Y286604D02*
X482150Y294282D01*
Y301762D01*
X375850Y294675D02*
X383921Y286604D01*
X375850Y294675D02*
Y301762D01*
Y381093D02*
X482150D01*
Y301762D02*
Y381093D01*
X375850Y301762D02*
Y381093D01*
Y325778D02*
Y331683D01*
Y301762D02*
X482150D01*
D39*
X296641Y396589D02*
G03*
X300578Y392652I3937J0D01*
G01*
X300578Y424148D02*
G03*
X296641Y420211I0J-3937D01*
G01*
X347822Y392652D02*
G03*
X351759Y396589I0J3937D01*
G01*
X351759Y420211D02*
G03*
X347822Y424148I-3937J0D01*
G01*
X507141Y396589D02*
G03*
X511078Y392652I3937J0D01*
G01*
X511078Y424148D02*
G03*
X507141Y420211I0J-3937D01*
G01*
X558322Y392652D02*
G03*
X562259Y396589I0J3937D01*
G01*
X562259Y420211D02*
G03*
X558322Y424148I-3937J0D01*
G01*
X302200Y392463D02*
X346200Y392463D01*
X296641Y396589D02*
Y420211D01*
X351759Y396589D02*
Y420211D01*
X302200Y424337D02*
X346200Y424337D01*
X512700Y392463D02*
X556700Y392463D01*
X507141Y396589D02*
Y420211D01*
X562259Y396589D02*
Y420211D01*
X512700Y424337D02*
X556700Y424337D01*
D40*
X256105Y197261D02*
X256446Y199192D01*
X260961Y224797D02*
X261301Y226728D01*
X235910Y200782D02*
X241120Y230326D01*
X255392Y227770D02*
X261301Y226728D01*
X250197Y198303D02*
X256105Y197261D01*
X241120Y230326D02*
X244566Y229718D01*
X235910Y200782D02*
X239357Y200174D01*
X459900Y261600D02*
Y266400D01*
Y261600D02*
X462300Y264000D01*
X459900Y266400D02*
X462300Y264000D01*
X455000Y261200D02*
X458900D01*
X455000Y266800D02*
X458900D01*
X455000Y261200D02*
Y266800D01*
X463000Y261200D02*
X467000D01*
Y266800D01*
X463000D02*
X467000D01*
D41*
X326343Y277602D02*
X331658D01*
Y273272D02*
Y277602D01*
X326343Y273272D02*
Y277602D01*
Y265398D02*
X331658D01*
Y269728D01*
X326343Y265398D02*
Y269728D01*
X294843Y277102D02*
X300157D01*
Y272772D02*
Y277102D01*
X294843Y272772D02*
Y277102D01*
Y264898D02*
X300157D01*
Y269228D01*
X294843Y264898D02*
Y269228D01*
X280842Y224898D02*
X286157D01*
X280842D02*
Y229228D01*
X286157Y224898D02*
Y229228D01*
X280842Y237102D02*
X286157D01*
X280842Y232772D02*
Y237102D01*
X286157Y232772D02*
Y237102D01*
X266898Y259343D02*
Y264657D01*
X271228D01*
X266898Y259343D02*
X271228D01*
X279102D02*
Y264657D01*
X274772D02*
X279102D01*
X274772Y259343D02*
X279102D01*
X318602Y237842D02*
Y243158D01*
X314272Y237842D02*
X318602D01*
X314272Y243158D02*
X318602D01*
X306398Y237842D02*
Y243158D01*
Y237842D02*
X310728D01*
X306398Y243158D02*
X310728D01*
X318900Y373550D02*
X318900Y342050D01*
X357500Y296550D02*
X357500Y373550D01*
X318900Y296550D02*
X357500Y296550D01*
X318900Y342050D02*
X318900Y296550D01*
X300800Y373550D02*
X357500Y373550D01*
X296000Y334950D02*
X357300Y334950D01*
X280100Y373550D02*
X300800D01*
X280100Y334950D02*
X296000Y334950D01*
X280100Y296550D02*
X318900Y296550D01*
X280100Y296550D02*
Y373550D01*
X540400Y374050D02*
X540400Y342550D01*
X579000Y297050D02*
X579000Y374050D01*
X540400Y297050D02*
X579000Y297050D01*
X540400Y342550D02*
X540400Y297050D01*
X522300Y374050D02*
X579000Y374050D01*
X517500Y335450D02*
X578800Y335450D01*
X501600Y374050D02*
X522300D01*
X501600Y335450D02*
X517500Y335450D01*
X501600Y297050D02*
X540400Y297050D01*
X501600Y297050D02*
Y374050D01*
D42*
X408000Y290200D02*
Y300200D01*
X448000D01*
X408000Y290200D02*
X448000D01*
Y300200D01*
X283858Y181570D02*
X290929Y174499D01*
X283858Y181570D02*
X305071Y202784D01*
X290929Y174499D02*
X312142Y195712D01*
X305071Y202784D02*
X312142Y195712D01*
X479833Y386000D02*
X499000D01*
X469000D02*
X499000D01*
X469000Y406000D02*
X499000D01*
X469000Y386000D02*
Y406000D01*
X499000Y386000D02*
Y406000D01*
X604500Y166000D02*
Y186000D01*
X584500D02*
X604500D01*
X584500Y166000D02*
X604500D01*
X584500D02*
Y186000D01*
X273000Y164500D02*
Y184500D01*
X253000D02*
X273000D01*
X253000Y164500D02*
X273000D01*
X253000D02*
Y184500D01*
X408000Y269800D02*
Y279800D01*
X368000Y269800D02*
X408000D01*
X368000Y279800D02*
X408000D01*
X368000Y269800D02*
Y279800D01*
X284000Y191929D02*
X298142Y206071D01*
X284000Y220213D02*
X298142Y206071D01*
X269858D02*
X284000Y191929D01*
X269858Y206071D02*
X284000Y220213D01*
D43*
X319000Y265000D02*
Y270500D01*
Y265000D02*
X325000D01*
Y270500D01*
X319000Y272500D02*
Y278000D01*
X325000D01*
Y272500D02*
Y278000D01*
X283000Y243500D02*
Y249000D01*
Y243500D02*
X289000D01*
Y249000D01*
X283000Y251000D02*
Y256500D01*
X289000D01*
Y251000D02*
Y256500D01*
X291000Y251000D02*
X296500D01*
X291000Y245000D02*
Y251000D01*
Y245000D02*
X296500D01*
X298500Y251000D02*
X304000D01*
Y245000D02*
Y251000D01*
X298500Y245000D02*
X304000D01*
X448000Y261000D02*
X453500D01*
Y267000D01*
X448000D02*
X453500D01*
X440500Y261000D02*
X446000D01*
X440500D02*
Y267000D01*
X446000D01*
D44*
X560795Y247390D02*
Y250342D01*
X535221D02*
X560795D01*
X535205Y247390D02*
X535221Y250342D01*
X535205Y234594D02*
Y237547D01*
Y234594D02*
X560795D01*
Y237547D01*
X603795Y247421D02*
Y250374D01*
X578221D02*
X603795D01*
X578205Y247421D02*
X578221Y250374D01*
X578205Y234626D02*
Y237579D01*
Y234626D02*
X603795D01*
Y237579D01*
X560795Y227421D02*
Y230374D01*
X535221D02*
X560795D01*
X535205Y227421D02*
X535221Y230374D01*
X535205Y214626D02*
Y217579D01*
Y214626D02*
X560795D01*
Y217579D01*
X604295Y227421D02*
Y230374D01*
X578721D02*
X604295D01*
X578705Y227421D02*
X578721Y230374D01*
X578705Y214626D02*
Y217579D01*
Y214626D02*
X604295D01*
Y217579D01*
X336126Y271295D02*
X339079D01*
X336126Y245721D02*
Y271295D01*
Y245721D02*
X339079Y245705D01*
X348921D02*
X351874D01*
Y271295D01*
X348921D02*
X351874D01*
D45*
X330432Y261934D02*
X331099Y262601D01*
Y263934D01*
X330432Y264600D01*
X327766D01*
X327100Y263934D01*
Y262601D01*
X327766Y261934D01*
X330432Y260601D02*
X331099Y259935D01*
Y258602D01*
X330432Y257936D01*
X329766D01*
X329099Y258602D01*
Y259268D01*
Y258602D01*
X328433Y257936D01*
X327766D01*
X327100Y258602D01*
Y259935D01*
X327766Y260601D01*
X290068Y270319D02*
X289401Y269653D01*
Y268320D01*
X290068Y267653D01*
X292734D01*
X293400Y268320D01*
Y269653D01*
X292734Y270319D01*
X293400Y273652D02*
X289401D01*
X291401Y271652D01*
Y274318D01*
X291132Y231434D02*
X291799Y232101D01*
Y233434D01*
X291132Y234100D01*
X288466D01*
X287800Y233434D01*
Y232101D01*
X288466Y231434D01*
X291799Y227435D02*
Y230101D01*
X289799D01*
X290466Y228768D01*
Y228102D01*
X289799Y227435D01*
X288466D01*
X287800Y228102D01*
Y229435D01*
X288466Y230101D01*
X272366Y257232D02*
X271699Y257899D01*
X270366D01*
X269700Y257232D01*
Y254566D01*
X270366Y253900D01*
X271699D01*
X272366Y254566D01*
X276364Y257899D02*
X275032Y257232D01*
X273699Y255899D01*
Y254566D01*
X274365Y253900D01*
X275698D01*
X276364Y254566D01*
Y255233D01*
X275698Y255899D01*
X273699D01*
X312266Y247732D02*
X311599Y248399D01*
X310266D01*
X309600Y247732D01*
Y245066D01*
X310266Y244400D01*
X311599D01*
X312266Y245066D01*
X313599Y248399D02*
X316265D01*
Y247732D01*
X313599Y245066D01*
Y244400D01*
X459300Y272099D02*
Y268100D01*
X461299D01*
X461966Y268766D01*
Y271432D01*
X461299Y272099D01*
X459300D01*
X463299Y268100D02*
X464632D01*
X463965D01*
Y272099D01*
X463299Y271432D01*
X405800Y307699D02*
Y305033D01*
X407133Y303700D01*
X408466Y305033D01*
Y307699D01*
X416463Y307032D02*
X415797Y307699D01*
X414464D01*
X413797Y307032D01*
Y304366D01*
X414464Y303700D01*
X415797D01*
X416463Y304366D01*
Y305699D01*
X415130D01*
X424461Y307032D02*
X423794Y307699D01*
X422461D01*
X421795Y307032D01*
Y306366D01*
X422461Y305699D01*
X423794D01*
X424461Y305033D01*
Y304366D01*
X423794Y303700D01*
X422461D01*
X421795Y304366D01*
X428459Y307032D02*
X427793Y307699D01*
X426460D01*
X425794Y307032D01*
Y304366D01*
X426460Y303700D01*
X427793D01*
X428459Y304366D01*
X429792Y307699D02*
Y303700D01*
X432458D01*
X440455Y307032D02*
X439789Y307699D01*
X438456D01*
X437790Y307032D01*
Y306366D01*
X438456Y305699D01*
X439789D01*
X440455Y305033D01*
Y304366D01*
X439789Y303700D01*
X438456D01*
X437790Y304366D01*
X441788Y307699D02*
Y303700D01*
X443788D01*
X444454Y304366D01*
Y307032D01*
X443788Y307699D01*
X441788D01*
X445787Y303700D02*
Y306366D01*
X447120Y307699D01*
X448453Y306366D01*
Y303700D01*
Y305699D01*
X445787D01*
X606100Y172900D02*
Y176899D01*
X608099D01*
X608766Y176232D01*
Y174899D01*
X608099Y174233D01*
X606100D01*
X610099Y176232D02*
X610765Y176899D01*
X612098D01*
X612765Y176232D01*
Y175566D01*
X612098Y174899D01*
X611432D01*
X612098D01*
X612765Y174233D01*
Y173566D01*
X612098Y172900D01*
X610765D01*
X610099Y173566D01*
X243800Y172900D02*
Y176899D01*
X245799D01*
X246466Y176232D01*
Y174899D01*
X245799Y174233D01*
X243800D01*
X249798Y172900D02*
Y176899D01*
X247799Y174899D01*
X250465D01*
X319900Y263900D02*
X323899D01*
Y261901D01*
X323232Y261234D01*
X321899D01*
X321233Y261901D01*
Y263900D01*
Y262567D02*
X319900Y261234D01*
Y259901D02*
Y258568D01*
Y259235D01*
X323899D01*
X323232Y259901D01*
X283000Y258200D02*
Y262199D01*
X284999D01*
X285666Y261532D01*
Y260199D01*
X284999Y259533D01*
X283000D01*
X284333D02*
X285666Y258200D01*
X289665D02*
X286999D01*
X289665Y260866D01*
Y261532D01*
X288998Y262199D01*
X287665D01*
X286999Y261532D01*
X295400Y252000D02*
Y255999D01*
X297399D01*
X298066Y255332D01*
Y253999D01*
X297399Y253333D01*
X295400D01*
X296733D02*
X298066Y252000D01*
X299399Y255999D02*
X302064D01*
Y255332D01*
X299399Y252666D01*
Y252000D01*
X442200Y268000D02*
Y271999D01*
X444199D01*
X444866Y271332D01*
Y269999D01*
X444199Y269333D01*
X442200D01*
X443533D02*
X444866Y268000D01*
X446199D02*
X447532D01*
X446865D01*
Y271999D01*
X446199Y271332D01*
X449531D02*
X450197Y271999D01*
X451530D01*
X452197Y271332D01*
Y270666D01*
X451530Y269999D01*
X450864D01*
X451530D01*
X452197Y269333D01*
Y268666D01*
X451530Y268000D01*
X450197D01*
X449531Y268666D01*
X359366Y392932D02*
X358699Y393599D01*
X357366D01*
X356700Y392932D01*
Y392266D01*
X357366Y391599D01*
X358699D01*
X359366Y390933D01*
Y390266D01*
X358699Y389600D01*
X357366D01*
X356700Y390266D01*
X363365Y389600D02*
X360699D01*
X363365Y392266D01*
Y392932D01*
X362698Y393599D01*
X361365D01*
X360699Y392932D01*
X569166Y396532D02*
X568499Y397199D01*
X567166D01*
X566500Y396532D01*
Y395866D01*
X567166Y395199D01*
X568499D01*
X569166Y394533D01*
Y393866D01*
X568499Y393200D01*
X567166D01*
X566500Y393866D01*
X570499Y396532D02*
X571165Y397199D01*
X572498D01*
X573165Y396532D01*
Y395866D01*
X572498Y395199D01*
X571832D01*
X572498D01*
X573165Y394533D01*
Y393866D01*
X572498Y393200D01*
X571165D01*
X570499Y393866D01*
X565466Y251432D02*
X564799Y252099D01*
X563466D01*
X562800Y251432D01*
Y250766D01*
X563466Y250099D01*
X564799D01*
X565466Y249433D01*
Y248766D01*
X564799Y248100D01*
X563466D01*
X562800Y248766D01*
X568798Y248100D02*
Y252099D01*
X566799Y250099D01*
X569464D01*
X608866Y251532D02*
X608199Y252199D01*
X606866D01*
X606200Y251532D01*
Y250866D01*
X606866Y250199D01*
X608199D01*
X608866Y249533D01*
Y248866D01*
X608199Y248200D01*
X606866D01*
X606200Y248866D01*
X612864Y252199D02*
X610199D01*
Y250199D01*
X611532Y250866D01*
X612198D01*
X612864Y250199D01*
Y248866D01*
X612198Y248200D01*
X610865D01*
X610199Y248866D01*
X565266Y231532D02*
X564599Y232199D01*
X563266D01*
X562600Y231532D01*
Y230866D01*
X563266Y230199D01*
X564599D01*
X565266Y229533D01*
Y228866D01*
X564599Y228200D01*
X563266D01*
X562600Y228866D01*
X569265Y232199D02*
X567932Y231532D01*
X566599Y230199D01*
Y228866D01*
X567265Y228200D01*
X568598D01*
X569265Y228866D01*
Y229533D01*
X568598Y230199D01*
X566599D01*
X609366Y232232D02*
X608699Y232899D01*
X607366D01*
X606700Y232232D01*
Y231566D01*
X607366Y230899D01*
X608699D01*
X609366Y230233D01*
Y229566D01*
X608699Y228900D01*
X607366D01*
X606700Y229566D01*
X610699Y232899D02*
X613365D01*
Y232232D01*
X610699Y229566D01*
Y228900D01*
X360700Y379599D02*
Y376266D01*
X361366Y375600D01*
X362699D01*
X363366Y376266D01*
Y379599D01*
X364699Y375600D02*
X366032D01*
X365365D01*
Y379599D01*
X364699Y378932D01*
X486200Y378099D02*
Y374766D01*
X486866Y374100D01*
X488199D01*
X488866Y374766D01*
Y378099D01*
X492865Y374100D02*
X490199D01*
X492865Y376766D01*
Y377432D01*
X492198Y378099D01*
X490865D01*
X490199Y377432D01*
X368800Y267899D02*
X371466D01*
X370133D01*
Y263900D01*
X372799Y267899D02*
X375465Y263900D01*
Y267899D02*
X372799Y263900D01*
X380796D02*
Y267899D01*
X382796D01*
X383462Y267232D01*
Y265899D01*
X382796Y265233D01*
X380796D01*
X382129D02*
X383462Y263900D01*
X384795Y267899D02*
X387461Y263900D01*
Y267899D02*
X384795Y263900D01*
X395458Y267232D02*
X394792Y267899D01*
X393459D01*
X392792Y267232D01*
Y264566D01*
X393459Y263900D01*
X394792D01*
X395458Y264566D01*
Y265899D01*
X394125D01*
X400790Y267899D02*
Y265233D01*
X402123Y263900D01*
X403455Y265233D01*
Y267899D01*
X289900Y217500D02*
X292727Y220327D01*
X294141Y218914D01*
Y217971D01*
X293199Y217029D01*
X292256D01*
X290843Y218443D01*
X294613Y212788D02*
X292727Y214672D01*
X296498D01*
X296969Y215144D01*
Y216086D01*
X296026Y217029D01*
X295084D01*
X357166Y259732D02*
X356499Y260399D01*
X355166D01*
X354500Y259732D01*
Y259066D01*
X355166Y258399D01*
X356499D01*
X357166Y257733D01*
Y257066D01*
X356499Y256400D01*
X355166D01*
X354500Y257066D01*
X358499Y256400D02*
X359832D01*
X359165D01*
Y260399D01*
X358499Y259732D01*
D46*
X548013Y242458D02*
D03*
X591013Y242489D02*
D03*
X548013Y222489D02*
D03*
X591513D02*
D03*
D47*
X344011Y258513D02*
D03*
M02*
