G04 Layer_Color=16711935*
%FSLAX25Y25*%
%MOIN*%
G70*
G01*
G75*
%ADD57C,0.00394*%
%ADD92C,0.00197*%
D57*
X333638Y288669D02*
G03*
X333638Y288669I-1969J0D01*
G01*
X479236Y264945D02*
G03*
X479236Y264945I-1181J0D01*
G01*
X250966Y336866D02*
G03*
X250966Y336866I-1969J0D01*
G01*
X329909Y339441D02*
G03*
X329909Y339441I-1969J0D01*
G01*
X343874Y285126D02*
Y300874D01*
X328126Y285126D02*
Y300874D01*
X343874D01*
X328126Y285126D02*
X343874D01*
X475398Y255398D02*
X487602D01*
X475398Y267602D02*
X487602D01*
Y255398D02*
Y267602D01*
X475398Y255398D02*
Y267602D01*
X245454Y333323D02*
X264746D01*
X245454Y348677D02*
X264746D01*
X245454Y333323D02*
Y348677D01*
X264746Y333323D02*
Y348677D01*
X324398Y335898D02*
X336602D01*
X324398Y348102D02*
X336602D01*
X324398Y335898D02*
Y348102D01*
X336602Y335898D02*
Y348102D01*
D92*
X256987Y319433D02*
Y322567D01*
X252642D02*
X257358D01*
X252642Y319433D02*
X257358D01*
X253013D02*
Y322567D01*
X252642Y319433D02*
Y322567D01*
X257358Y319433D02*
Y322567D01*
X252638Y319425D02*
Y322575D01*
X251850D02*
X253031D01*
X251850Y319425D02*
Y322575D01*
Y319425D02*
X253031D01*
X256968D02*
X258150D01*
X257362Y319429D02*
Y322575D01*
X258150Y319425D02*
Y322575D01*
X256968D02*
X258150D01*
X252638Y319425D02*
X257362Y319429D01*
X252638Y322575D02*
X257362Y322571D01*
X256987Y312933D02*
Y316067D01*
X252642D02*
X257358D01*
X252642Y312933D02*
X257358D01*
X253013D02*
Y316067D01*
X252642Y312933D02*
Y316067D01*
X257358Y312933D02*
Y316067D01*
X252638Y312925D02*
Y316075D01*
X251850D02*
X253031D01*
X251850Y312925D02*
Y316075D01*
Y312925D02*
X253031D01*
X256968D02*
X258150D01*
X257362Y312929D02*
Y316075D01*
X258150Y312925D02*
Y316075D01*
X256968D02*
X258150D01*
X252638Y312925D02*
X257362Y312929D01*
X252638Y316075D02*
X257362Y316071D01*
X525787Y178445D02*
X525791Y183169D01*
X528933D02*
X528937Y178445D01*
X525787Y182776D02*
Y183957D01*
X528937D01*
X525787Y183169D02*
X528933D01*
X528937Y182776D02*
Y183957D01*
Y177657D02*
Y178839D01*
X525787Y177657D02*
X528937D01*
X525787D02*
Y178839D01*
Y178445D02*
X528937D01*
X525795Y183165D02*
X528929D01*
X525795Y178449D02*
X528929D01*
X525795Y178820D02*
X528929D01*
Y178449D02*
Y183165D01*
X525795Y178449D02*
Y183165D01*
Y182794D02*
X528929D01*
X519291Y178445D02*
X519295Y183169D01*
X522437D02*
X522441Y178445D01*
X519291Y182776D02*
Y183957D01*
X522441D01*
X519291Y183169D02*
X522437D01*
X522441Y182776D02*
Y183957D01*
Y177657D02*
Y178839D01*
X519291Y177657D02*
X522441D01*
X519291D02*
Y178839D01*
Y178445D02*
X522441D01*
X519299Y183165D02*
X522433D01*
X519299Y178449D02*
X522433D01*
X519299Y178820D02*
X522433D01*
Y178449D02*
Y183165D01*
X519299Y178449D02*
Y183165D01*
Y182794D02*
X522433D01*
X493925Y183638D02*
X493929Y188362D01*
X497071D02*
X497075Y183638D01*
X493925Y187969D02*
Y189150D01*
X497075D01*
X493925Y188362D02*
X497071D01*
X497075Y187969D02*
Y189150D01*
Y182850D02*
Y184031D01*
X493925Y182850D02*
X497075D01*
X493925D02*
Y184031D01*
Y183638D02*
X497075D01*
X493933Y188358D02*
X497067D01*
X493933Y183642D02*
X497067D01*
X493933Y184013D02*
X497067D01*
Y183642D02*
Y188358D01*
X493933Y183642D02*
Y188358D01*
Y187987D02*
X497067D01*
X487425Y183638D02*
X487429Y188362D01*
X490571D02*
X490575Y183638D01*
X487425Y187969D02*
Y189150D01*
X490575D01*
X487425Y188362D02*
X490571D01*
X490575Y187969D02*
Y189150D01*
Y182850D02*
Y184031D01*
X487425Y182850D02*
X490575D01*
X487425D02*
Y184031D01*
Y183638D02*
X490575D01*
X487433Y188358D02*
X490567D01*
X487433Y183642D02*
X490567D01*
X487433Y184013D02*
X490567D01*
Y183642D02*
Y188358D01*
X487433Y183642D02*
Y188358D01*
Y187987D02*
X490567D01*
X491925Y258138D02*
X491929Y262862D01*
X495071D02*
X495075Y258138D01*
X491925Y262469D02*
Y263650D01*
X495075D01*
X491925Y262862D02*
X495071D01*
X495075Y262469D02*
Y263650D01*
Y257350D02*
Y258531D01*
X491925Y257350D02*
X495075D01*
X491925D02*
Y258531D01*
Y258138D02*
X495075D01*
X491933Y262858D02*
X495067D01*
X491933Y258142D02*
X495067D01*
X491933Y258513D02*
X495067D01*
Y258142D02*
Y262858D01*
X491933Y258142D02*
Y262858D01*
Y262487D02*
X495067D01*
X498425Y258138D02*
X498429Y262862D01*
X501571D02*
X501575Y258138D01*
X498425Y262469D02*
Y263650D01*
X501575D01*
X498425Y262862D02*
X501571D01*
X501575Y262469D02*
Y263650D01*
Y257350D02*
Y258531D01*
X498425Y257350D02*
X501575D01*
X498425D02*
Y258531D01*
Y258138D02*
X501575D01*
X498433Y262858D02*
X501567D01*
X498433Y258142D02*
X501567D01*
X498433Y258513D02*
X501567D01*
Y258142D02*
Y262858D01*
X498433Y258142D02*
Y262858D01*
Y262487D02*
X501567D01*
X487669Y273543D02*
X492394Y273539D01*
X487669Y270394D02*
X492394Y270398D01*
X492000Y273543D02*
X493181D01*
Y270394D02*
Y273543D01*
X492394Y270398D02*
Y273543D01*
X492000Y270394D02*
X493181D01*
X486882D02*
X488063D01*
X486882D02*
Y273543D01*
X488063D01*
X487669Y270394D02*
Y273543D01*
X492390Y270402D02*
Y273535D01*
X487673Y270402D02*
Y273535D01*
X488044Y270402D02*
Y273535D01*
X487673Y270402D02*
X492390D01*
X487673Y273535D02*
X492390D01*
X492019Y270402D02*
Y273535D01*
X487669Y279543D02*
X492394Y279539D01*
X487669Y276394D02*
X492394Y276398D01*
X492000Y279543D02*
X493181D01*
Y276394D02*
Y279543D01*
X492394Y276398D02*
Y279543D01*
X492000Y276394D02*
X493181D01*
X486882D02*
X488063D01*
X486882D02*
Y279543D01*
X488063D01*
X487669Y276394D02*
Y279543D01*
X492390Y276402D02*
Y279535D01*
X487673Y276402D02*
Y279535D01*
X488044Y276402D02*
Y279535D01*
X487673Y276402D02*
X492390D01*
X487673Y279535D02*
X492390D01*
X492019Y276402D02*
Y279535D01*
X313071Y337638D02*
X313075Y342362D01*
X309925D02*
X309929Y337638D01*
X313075Y336850D02*
Y338032D01*
X309925Y336850D02*
X313075D01*
X309929Y337638D02*
X313075D01*
X309925Y336850D02*
Y338032D01*
Y341968D02*
Y343150D01*
X313075D01*
Y341968D02*
Y343150D01*
X309925Y342362D02*
X313075D01*
X309933Y337642D02*
X313067D01*
X309933Y342358D02*
X313067D01*
X309933Y341987D02*
X313067D01*
X309933Y337642D02*
Y342358D01*
X313067Y337642D02*
Y342358D01*
X309933Y338013D02*
X313067D01*
X319571Y337638D02*
X319575Y342362D01*
X316425D02*
X316429Y337638D01*
X319575Y336850D02*
Y338032D01*
X316425Y336850D02*
X319575D01*
X316429Y337638D02*
X319575D01*
X316425Y336850D02*
Y338032D01*
Y341968D02*
Y343150D01*
X319575D01*
Y341968D02*
Y343150D01*
X316425Y342362D02*
X319575D01*
X316433Y337642D02*
X319567D01*
X316433Y342358D02*
X319567D01*
X316433Y341987D02*
X319567D01*
X316433Y337642D02*
Y342358D01*
X319567Y337642D02*
Y342358D01*
X316433Y338013D02*
X319567D01*
X313984Y303929D02*
X318709Y303925D01*
X313984Y307071D02*
X318709Y307075D01*
X313197Y303925D02*
X314378D01*
X313197D02*
Y307075D01*
X313984Y303925D02*
Y307071D01*
X313197Y307075D02*
X314378D01*
X318315D02*
X319496D01*
Y303925D02*
Y307075D01*
X318315Y303925D02*
X319496D01*
X318709D02*
Y307075D01*
X313988Y303933D02*
Y307067D01*
X318705Y303933D02*
Y307067D01*
X318334Y303933D02*
Y307067D01*
X313988D02*
X318705D01*
X313988Y303933D02*
X318705D01*
X314359D02*
Y307067D01*
X313984Y290929D02*
X318709Y290925D01*
X313984Y294071D02*
X318709Y294075D01*
X313197Y290925D02*
X314378D01*
X313197D02*
Y294075D01*
X313984Y290925D02*
Y294071D01*
X313197Y294075D02*
X314378D01*
X318315D02*
X319496D01*
Y290925D02*
Y294075D01*
X318315Y290925D02*
X319496D01*
X318709D02*
Y294075D01*
X313988Y290933D02*
Y294067D01*
X318705Y290933D02*
Y294067D01*
X318334Y290933D02*
Y294067D01*
X313988D02*
X318705D01*
X313988Y290933D02*
X318705D01*
X314359D02*
Y294067D01*
X313984Y288075D02*
X318709Y288071D01*
X313984Y284925D02*
X318709Y284929D01*
X318315Y288075D02*
X319496D01*
Y284925D02*
Y288075D01*
X318709Y284929D02*
Y288075D01*
X318315Y284925D02*
X319496D01*
X313197D02*
X314378D01*
X313197D02*
Y288075D01*
X314378D01*
X313984Y284925D02*
Y288075D01*
X318705Y284933D02*
Y288067D01*
X313988Y284933D02*
Y288067D01*
X314359Y284933D02*
Y288067D01*
X313988Y284933D02*
X318705D01*
X313988Y288067D02*
X318705D01*
X318334Y284933D02*
Y288067D01*
X332425Y324138D02*
X332429Y328862D01*
X335571D02*
X335575Y324138D01*
X332425Y328468D02*
Y329650D01*
X335575D01*
X332425Y328862D02*
X335571D01*
X335575Y328468D02*
Y329650D01*
Y323350D02*
Y324532D01*
X332425Y323350D02*
X335575D01*
X332425D02*
Y324532D01*
Y324138D02*
X335575D01*
X332433Y328858D02*
X335567D01*
X332433Y324142D02*
X335567D01*
X332433Y324513D02*
X335567D01*
Y324142D02*
Y328858D01*
X332433Y324142D02*
Y328858D01*
Y328487D02*
X335567D01*
X339138Y357075D02*
X343862Y357071D01*
X339138Y353925D02*
X343862Y353929D01*
X343468Y357075D02*
X344650D01*
Y353925D02*
Y357075D01*
X343862Y353929D02*
Y357075D01*
X343468Y353925D02*
X344650D01*
X338350D02*
X339531D01*
X338350D02*
Y357075D01*
X339531D01*
X339138Y353925D02*
Y357075D01*
X343858Y353933D02*
Y357067D01*
X339142Y353933D02*
Y357067D01*
X339513Y353933D02*
Y357067D01*
X339142Y353933D02*
X343858D01*
X339142Y357067D02*
X343858D01*
X343487Y353933D02*
Y357067D01*
X339138Y363575D02*
X343862Y363571D01*
X339138Y360425D02*
X343862Y360429D01*
X343468Y363575D02*
X344650D01*
Y360425D02*
Y363575D01*
X343862Y360429D02*
Y363575D01*
X343468Y360425D02*
X344650D01*
X338350D02*
X339531D01*
X338350D02*
Y363575D01*
X339531D01*
X339138Y360425D02*
Y363575D01*
X343858Y360433D02*
Y363567D01*
X339142Y360433D02*
Y363567D01*
X339513Y360433D02*
Y363567D01*
X339142Y360433D02*
X343858D01*
X339142Y363567D02*
X343858D01*
X343487Y360433D02*
Y363567D01*
X322138Y331575D02*
X326862Y331571D01*
X322138Y328425D02*
X326862Y328429D01*
X326468Y331575D02*
X327650D01*
Y328425D02*
Y331575D01*
X326862Y328429D02*
Y331575D01*
X326468Y328425D02*
X327650D01*
X321350D02*
X322532D01*
X321350D02*
Y331575D01*
X322532D01*
X322138Y328425D02*
Y331575D01*
X326858Y328433D02*
Y331567D01*
X322142Y328433D02*
Y331567D01*
X322513Y328433D02*
Y331567D01*
X322142Y328433D02*
X326858D01*
X322142Y331567D02*
X326858D01*
X326487Y328433D02*
Y331567D01*
X345138Y324575D02*
X349862Y324571D01*
X345138Y321425D02*
X349862Y321429D01*
X349468Y324575D02*
X350650D01*
Y321425D02*
Y324575D01*
X349862Y321429D02*
Y324575D01*
X349468Y321425D02*
X350650D01*
X344350D02*
X345532D01*
X344350D02*
Y324575D01*
X345532D01*
X345138Y321425D02*
Y324575D01*
X349858Y321433D02*
Y324567D01*
X345142Y321433D02*
Y324567D01*
X345513Y321433D02*
Y324567D01*
X345142Y321433D02*
X349858D01*
X345142Y324567D02*
X349858D01*
X349487Y321433D02*
Y324567D01*
X345138Y330575D02*
X349862Y330571D01*
X345138Y327425D02*
X349862Y327429D01*
X349468Y330575D02*
X350650D01*
Y327425D02*
Y330575D01*
X349862Y327429D02*
Y330575D01*
X349468Y327425D02*
X350650D01*
X344350D02*
X345532D01*
X344350D02*
Y330575D01*
X345532D01*
X345138Y327425D02*
Y330575D01*
X349858Y327433D02*
Y330567D01*
X345142Y327433D02*
Y330567D01*
X345513Y327433D02*
Y330567D01*
X345142Y327433D02*
X349858D01*
X345142Y330567D02*
X349858D01*
X349487Y327433D02*
Y330567D01*
X371925Y287138D02*
X371929Y291862D01*
X375071D02*
X375075Y287138D01*
X371925Y291469D02*
Y292650D01*
X375075D01*
X371925Y291862D02*
X375071D01*
X375075Y291469D02*
Y292650D01*
Y286350D02*
Y287531D01*
X371925Y286350D02*
X375075D01*
X371925D02*
Y287531D01*
Y287138D02*
X375075D01*
X371933Y291858D02*
X375067D01*
X371933Y287142D02*
X375067D01*
X371933Y287513D02*
X375067D01*
Y287142D02*
Y291858D01*
X371933Y287142D02*
Y291858D01*
Y291487D02*
X375067D01*
X375071Y300138D02*
X375075Y304862D01*
X371925D02*
X371929Y300138D01*
X375075Y299350D02*
Y300532D01*
X371925Y299350D02*
X375075D01*
X371929Y300138D02*
X375075D01*
X371925Y299350D02*
Y300532D01*
Y304468D02*
Y305650D01*
X375075D01*
Y304468D02*
Y305650D01*
X371925Y304862D02*
X375075D01*
X371933Y300142D02*
X375067D01*
X371933Y304858D02*
X375067D01*
X371933Y304487D02*
X375067D01*
X371933Y300142D02*
Y304858D01*
X375067Y300142D02*
Y304858D01*
X371933Y300513D02*
X375067D01*
X333071Y356138D02*
X333075Y360862D01*
X329925D02*
X329929Y356138D01*
X333075Y355350D02*
Y356532D01*
X329925Y355350D02*
X333075D01*
X329929Y356138D02*
X333075D01*
X329925Y355350D02*
Y356532D01*
Y360469D02*
Y361650D01*
X333075D01*
Y360469D02*
Y361650D01*
X329925Y360862D02*
X333075D01*
X329933Y356142D02*
X333067D01*
X329933Y360858D02*
X333067D01*
X329933Y360487D02*
X333067D01*
X329933Y356142D02*
Y360858D01*
X333067Y356142D02*
Y360858D01*
X329933Y356513D02*
X333067D01*
X335571Y311138D02*
X335575Y315862D01*
X332425D02*
X332429Y311138D01*
X335575Y310350D02*
Y311531D01*
X332425Y310350D02*
X335575D01*
X332429Y311138D02*
X335575D01*
X332425Y310350D02*
Y311531D01*
Y315469D02*
Y316650D01*
X335575D01*
Y315469D02*
Y316650D01*
X332425Y315862D02*
X335575D01*
X332433Y311142D02*
X335567D01*
X332433Y315858D02*
X335567D01*
X332433Y315487D02*
X335567D01*
X332433Y311142D02*
Y315858D01*
X335567Y311142D02*
Y315858D01*
X332433Y311513D02*
X335567D01*
X341571Y311138D02*
X341575Y315862D01*
X338425D02*
X338429Y311138D01*
X341575Y310350D02*
Y311531D01*
X338425Y310350D02*
X341575D01*
X338429Y311138D02*
X341575D01*
X338425Y310350D02*
Y311531D01*
Y315469D02*
Y316650D01*
X341575D01*
Y315469D02*
Y316650D01*
X338425Y315862D02*
X341575D01*
X338433Y311142D02*
X341567D01*
X338433Y315858D02*
X341567D01*
X338433Y315487D02*
X341567D01*
X338433Y311142D02*
Y315858D01*
X341567Y311142D02*
Y315858D01*
X338433Y311513D02*
X341567D01*
X344925Y311138D02*
X344929Y315862D01*
X348071D02*
X348075Y311138D01*
X344925Y315469D02*
Y316650D01*
X348075D01*
X344925Y315862D02*
X348071D01*
X348075Y315469D02*
Y316650D01*
Y310350D02*
Y311531D01*
X344925Y310350D02*
X348075D01*
X344925D02*
Y311531D01*
Y311138D02*
X348075D01*
X344933Y315858D02*
X348067D01*
X344933Y311142D02*
X348067D01*
X344933Y311513D02*
X348067D01*
Y311142D02*
Y315858D01*
X344933Y311142D02*
Y315858D01*
Y315487D02*
X348067D01*
X350571Y293862D02*
X350575Y289138D01*
X347425D02*
X347429Y293862D01*
X350575Y293468D02*
Y294650D01*
X347425D02*
X350575D01*
X347429Y293862D02*
X350575D01*
X347425Y293468D02*
Y294650D01*
Y288350D02*
Y289531D01*
Y288350D02*
X350575D01*
Y289531D01*
X347425Y289138D02*
X350575D01*
X347433Y293858D02*
X350567D01*
X347433Y289142D02*
X350567D01*
X347433Y289513D02*
X350567D01*
X347433Y289142D02*
Y293858D01*
X350567Y289142D02*
Y293858D01*
X347433Y293487D02*
X350567D01*
M02*
