G04 Layer_Color=8388736*
%FSLAX25Y25*%
%MOIN*%
G70*
G01*
G75*
%ADD60R,1.11122X0.86713*%
%ADD61R,0.11036X0.11036*%
%ADD62O,0.04147X0.01784*%
%ADD63O,0.01784X0.04147*%
%ADD64R,0.06896X0.09849*%
%ADD65R,0.02762X0.01345*%
%ADD66O,0.03162X0.09461*%
%ADD67R,0.04737X0.05131*%
G04:AMPARAMS|DCode=68|XSize=47.37mil|YSize=43.43mil|CornerRadius=5.77mil|HoleSize=0mil|Usage=FLASHONLY|Rotation=270.000|XOffset=0mil|YOffset=0mil|HoleType=Round|Shape=RoundedRectangle|*
%AMROUNDEDRECTD68*
21,1,0.04737,0.03189,0,0,270.0*
21,1,0.03583,0.04343,0,0,270.0*
1,1,0.01154,-0.01595,-0.01791*
1,1,0.01154,-0.01595,0.01791*
1,1,0.01154,0.01595,0.01791*
1,1,0.01154,0.01595,-0.01791*
%
%ADD68ROUNDEDRECTD68*%
G04:AMPARAMS|DCode=69|XSize=47.37mil|YSize=43.43mil|CornerRadius=5.77mil|HoleSize=0mil|Usage=FLASHONLY|Rotation=0.000|XOffset=0mil|YOffset=0mil|HoleType=Round|Shape=RoundedRectangle|*
%AMROUNDEDRECTD69*
21,1,0.04737,0.03189,0,0,0.0*
21,1,0.03583,0.04343,0,0,0.0*
1,1,0.01154,0.01791,-0.01595*
1,1,0.01154,-0.01791,-0.01595*
1,1,0.01154,-0.01791,0.01595*
1,1,0.01154,0.01791,0.01595*
%
%ADD69ROUNDEDRECTD69*%
%ADD70R,0.03950X0.04540*%
G04:AMPARAMS|DCode=71|XSize=86.74mil|YSize=126.11mil|CornerRadius=11.87mil|HoleSize=0mil|Usage=FLASHONLY|Rotation=90.000|XOffset=0mil|YOffset=0mil|HoleType=Round|Shape=RoundedRectangle|*
%AMROUNDEDRECTD71*
21,1,0.08674,0.10236,0,0,90.0*
21,1,0.06299,0.12611,0,0,90.0*
1,1,0.02375,0.05118,0.03150*
1,1,0.02375,0.05118,-0.03150*
1,1,0.02375,-0.05118,-0.03150*
1,1,0.02375,-0.05118,0.03150*
%
%ADD71ROUNDEDRECTD71*%
%ADD72R,0.05524X0.20485*%
%ADD73R,0.05131X0.04737*%
%ADD74O,0.06706X0.02769*%
%ADD75O,0.01784X0.03950*%
%ADD76O,0.03950X0.01784*%
%ADD77R,0.07493X0.07493*%
%ADD78C,0.02369*%
%ADD79C,0.06706*%
%ADD80R,0.06706X0.06706*%
%ADD81P,0.09483X4X90.0*%
%ADD82C,0.08674*%
%ADD83R,0.06706X0.06706*%
%ADD84R,0.06800X0.06800*%
%ADD85C,0.06800*%
G04:AMPARAMS|DCode=86|XSize=106.42mil|YSize=86.74mil|CornerRadius=0mil|HoleSize=0mil|Usage=FLASHONLY|Rotation=10.000|XOffset=0mil|YOffset=0mil|HoleType=Round|Shape=Octagon|*
%AMOCTAGOND86*
4,1,8,0.05617,-0.01212,0.04864,0.03060,0.02352,0.04819,-0.03858,0.03724,-0.05617,0.01212,-0.04864,-0.03060,-0.02352,-0.04819,0.03858,-0.03724,0.05617,-0.01212,0.0*
%
%ADD86OCTAGOND86*%

%ADD87C,0.07099*%
%ADD88C,0.05524*%
%ADD89C,0.20800*%
%ADD90C,0.05800*%
%ADD91C,0.03162*%
D60*
X361467Y182333D02*
D03*
D61*
X336000Y293000D02*
D03*
D62*
X328520Y289063D02*
D03*
Y291032D02*
D03*
Y293000D02*
D03*
Y294969D02*
D03*
Y296937D02*
D03*
X343480D02*
D03*
Y294969D02*
D03*
Y293000D02*
D03*
Y291032D02*
D03*
Y289063D02*
D03*
D63*
X332063Y300480D02*
D03*
X334032D02*
D03*
X336000D02*
D03*
X337968D02*
D03*
X339937D02*
D03*
Y285520D02*
D03*
X337968D02*
D03*
X336000D02*
D03*
X334032D02*
D03*
X332063D02*
D03*
D64*
X481500Y261500D02*
D03*
D65*
X487012Y265437D02*
D03*
Y263469D02*
D03*
Y261500D02*
D03*
Y259531D02*
D03*
Y257563D02*
D03*
X475988D02*
D03*
Y259531D02*
D03*
Y261500D02*
D03*
Y263469D02*
D03*
Y265437D02*
D03*
D66*
X247600Y330551D02*
D03*
X252600D02*
D03*
X257600D02*
D03*
X262600D02*
D03*
X247600Y351449D02*
D03*
X252600D02*
D03*
X257600D02*
D03*
X262600D02*
D03*
D67*
X242500Y369153D02*
D03*
Y375847D02*
D03*
D68*
X251654Y321000D02*
D03*
X258347D02*
D03*
X251654Y314500D02*
D03*
X258347D02*
D03*
X493378Y271969D02*
D03*
X486685D02*
D03*
X493378Y277969D02*
D03*
X486685D02*
D03*
X313000Y305500D02*
D03*
X319693D02*
D03*
X313000Y292500D02*
D03*
X319693D02*
D03*
Y286500D02*
D03*
X313000D02*
D03*
X344847Y355500D02*
D03*
X338154D02*
D03*
X344847Y362000D02*
D03*
X338154D02*
D03*
X327847Y330000D02*
D03*
X321153D02*
D03*
X350847Y323000D02*
D03*
X344153D02*
D03*
X350847Y329000D02*
D03*
X344153D02*
D03*
D69*
X527362Y184153D02*
D03*
Y177461D02*
D03*
X520866Y184153D02*
D03*
Y177461D02*
D03*
X495500Y189347D02*
D03*
Y182653D02*
D03*
X489000Y189347D02*
D03*
Y182653D02*
D03*
X493500Y263846D02*
D03*
Y257154D02*
D03*
X500000Y263846D02*
D03*
Y257154D02*
D03*
X311500Y336653D02*
D03*
Y343347D02*
D03*
X318000Y336653D02*
D03*
Y343347D02*
D03*
X334000Y329847D02*
D03*
Y323153D02*
D03*
X373500Y292846D02*
D03*
Y286154D02*
D03*
Y299153D02*
D03*
Y305847D02*
D03*
X331500Y355153D02*
D03*
Y361846D02*
D03*
X334000Y310154D02*
D03*
Y316846D02*
D03*
X340000Y310154D02*
D03*
Y316846D02*
D03*
X346500D02*
D03*
Y310154D02*
D03*
D70*
X487043Y250000D02*
D03*
X479957D02*
D03*
X511043Y197500D02*
D03*
X503957D02*
D03*
D71*
X459000Y275370D02*
D03*
Y246630D02*
D03*
D72*
X342524Y376500D02*
D03*
X320476D02*
D03*
X331500D02*
D03*
D73*
X493653Y250000D02*
D03*
X500347Y250000D02*
D03*
X518153Y197500D02*
D03*
X524847D02*
D03*
X527347Y191000D02*
D03*
X520653D02*
D03*
X319693Y299000D02*
D03*
X313000D02*
D03*
X344153Y336000D02*
D03*
X350847D02*
D03*
X344153Y342500D02*
D03*
X350847D02*
D03*
D74*
X504000Y191500D02*
D03*
Y184020D02*
D03*
X513449Y191500D02*
D03*
Y184020D02*
D03*
X504000Y187760D02*
D03*
D75*
X327547Y336291D02*
D03*
X329516D02*
D03*
X331484D02*
D03*
X333453D02*
D03*
Y347709D02*
D03*
X331484D02*
D03*
X329516D02*
D03*
X327547D02*
D03*
D76*
X336209Y339047D02*
D03*
Y341016D02*
D03*
Y342984D02*
D03*
Y344953D02*
D03*
X324791D02*
D03*
Y342984D02*
D03*
Y341016D02*
D03*
Y339047D02*
D03*
D77*
X330500Y342000D02*
D03*
D78*
X479500Y261500D02*
D03*
X483764D02*
D03*
X481500Y265240D02*
D03*
Y257760D02*
D03*
D79*
X189500Y158500D02*
D03*
X199500D02*
D03*
X189500Y148500D02*
D03*
X215500Y192142D02*
D03*
X222571Y185071D02*
D03*
X208429D02*
D03*
X521000Y150000D02*
D03*
X531000Y160000D02*
D03*
X521000D02*
D03*
X425500Y380000D02*
D03*
Y370000D02*
D03*
X415500Y380000D02*
D03*
Y370000D02*
D03*
X405500Y380000D02*
D03*
D80*
X199500Y148500D02*
D03*
X531000Y150000D02*
D03*
D81*
X215500Y178000D02*
D03*
D82*
X251500Y367996D02*
D03*
Y380004D02*
D03*
D83*
X405500Y370000D02*
D03*
D84*
X461058Y312883D02*
D03*
D85*
X461000Y323000D02*
D03*
X471058Y322883D02*
D03*
X471058Y312883D02*
D03*
X481058Y322883D02*
D03*
X491058Y312883D02*
D03*
X481058Y312883D02*
D03*
X491058Y322883D02*
D03*
X460013Y205934D02*
D03*
X467085Y213005D02*
D03*
D86*
X528949Y258632D02*
D03*
X537153Y212105D02*
D03*
D87*
X535102Y223737D02*
D03*
X531000Y247000D02*
D03*
X533051Y235368D02*
D03*
D88*
X361500Y306500D02*
D03*
Y286500D02*
D03*
D89*
X405057Y150990D02*
D03*
D90*
X372736Y227756D02*
D03*
X360236Y228051D02*
D03*
X348425D02*
D03*
X396654Y227756D02*
D03*
X384547D02*
D03*
X333957Y227953D02*
D03*
D91*
X338165Y295165D02*
D03*
Y290835D02*
D03*
X333661Y295177D02*
D03*
X333858Y290846D02*
D03*
M02*
