M48
;Layer_Color=9474304
;FILE_FORMAT=2:5
INCH,LZ
;TYPE=PLATED
T1F00S00C0.01181
T2F00S00C0.02756
T3F00S00C0.02800
T4F00S00C0.03000
T5F00S00C0.03543
T7F00S00C0.04000
T8F00S00C0.04724
T9F00S00C0.12800
%
T01
X0489075Y0195472
X0495472
X0508858Y0187795
X0513779Y018776
X0532142Y0191
X0531988Y0184055
X0474902Y025
X04815Y025776
X04795Y02615
X0483764
X04815Y026524
X0377854Y0292913
X0378248Y0299114
X0353346Y0291043
X0348819Y0287992
X0338165Y0290835
X0333858Y0290846
X0333661Y0295177
X0338165Y0295165
X0326969Y028248
X032815Y0309547
X0348524Y0254724
X0307791Y02865
X0307874Y0292717
X0307776Y0299114
X0307972Y030561
X0251673Y0307087
X03Y0314567
X0300197Y0317913
Y0321161
X0307185Y0336614
X0311516Y0332579
X0317323Y033002
X0339862Y0328937
X0340158Y032313
X0341248Y0347547
X0336327Y0351189
X0327654Y0352665
X0350492Y0355512
Y0362106
X0350894Y0376583
X0350847Y03425
X04065Y0348
X041Y0351
X04155Y0347
X042Y03435
X0425Y034
X043Y03365
X0312606Y0376583
T02
X0535102Y0223737
X0533051Y0235368
X0531Y0247
X03615Y02865
Y03065
T03
X0333957Y0227953
X0348425Y0228051
X0360236
X0372736Y0227756
X0384547
X0396654
T04
X0460013Y0205934
X0467085Y0213005
T05
X01895Y01485
X01995
X0521Y015
X0531
Y016
X0521
X01995Y01585
X01895
X0208429Y0185071
X02155Y0192142
X0222571Y0185071
X02155Y0178
X04055Y037
X04155
X04255
Y038
X04155
X04055
T07
X0461058Y0312883
X0461Y0323
X0471058Y0322883
X0471058Y0312883
X0481058Y0312883
X0481058Y0322883
X0491058Y0322883
X0491058Y0312883
T08
X02515Y0367996
Y0380004
T09
X0405057Y015099
M30
