G04 Layer_Color=8421504*
%FSLAX25Y25*%
%MOIN*%
G70*
G01*
G75*
%ADD10R,0.10236X0.10236*%
%ADD11O,0.03347X0.00984*%
%ADD12O,0.00984X0.03347*%
%ADD14R,0.02362X0.00945*%
%ADD15O,0.02362X0.08661*%
%ADD16R,0.03937X0.04331*%
G04:AMPARAMS|DCode=17|XSize=39.37mil|YSize=35.43mil|CornerRadius=1.77mil|HoleSize=0mil|Usage=FLASHONLY|Rotation=270.000|XOffset=0mil|YOffset=0mil|HoleType=Round|Shape=RoundedRectangle|*
%AMROUNDEDRECTD17*
21,1,0.03937,0.03189,0,0,270.0*
21,1,0.03583,0.03543,0,0,270.0*
1,1,0.00354,-0.01595,-0.01791*
1,1,0.00354,-0.01595,0.01791*
1,1,0.00354,0.01595,0.01791*
1,1,0.00354,0.01595,-0.01791*
%
%ADD17ROUNDEDRECTD17*%
G04:AMPARAMS|DCode=18|XSize=39.37mil|YSize=35.43mil|CornerRadius=1.77mil|HoleSize=0mil|Usage=FLASHONLY|Rotation=0.000|XOffset=0mil|YOffset=0mil|HoleType=Round|Shape=RoundedRectangle|*
%AMROUNDEDRECTD18*
21,1,0.03937,0.03189,0,0,0.0*
21,1,0.03583,0.03543,0,0,0.0*
1,1,0.00354,0.01791,-0.01595*
1,1,0.00354,-0.01791,-0.01595*
1,1,0.00354,-0.01791,0.01595*
1,1,0.00354,0.01791,0.01595*
%
%ADD18ROUNDEDRECTD18*%
%ADD19R,0.03150X0.03740*%
G04:AMPARAMS|DCode=20|XSize=78.74mil|YSize=118.11mil|CornerRadius=7.87mil|HoleSize=0mil|Usage=FLASHONLY|Rotation=90.000|XOffset=0mil|YOffset=0mil|HoleType=Round|Shape=RoundedRectangle|*
%AMROUNDEDRECTD20*
21,1,0.07874,0.10236,0,0,90.0*
21,1,0.06299,0.11811,0,0,90.0*
1,1,0.01575,0.05118,0.03150*
1,1,0.01575,0.05118,-0.03150*
1,1,0.01575,-0.05118,-0.03150*
1,1,0.01575,-0.05118,0.03150*
%
%ADD20ROUNDEDRECTD20*%
%ADD21R,0.04724X0.19685*%
%ADD22R,0.04331X0.03937*%
%ADD23O,0.05906X0.01969*%
%ADD24O,0.00984X0.03150*%
%ADD25O,0.03150X0.00984*%
%ADD26R,0.06693X0.06693*%
G36*
X484453Y256933D02*
X478547D01*
Y261106D01*
X484453D01*
Y256933D01*
D02*
G37*
G36*
Y261894D02*
X478547D01*
Y266067D01*
X484453D01*
Y261894D01*
D02*
G37*
D10*
X336000Y293000D02*
D03*
D11*
X328520Y289063D02*
D03*
Y291032D02*
D03*
Y293000D02*
D03*
Y294969D02*
D03*
Y296937D02*
D03*
X343480D02*
D03*
Y294969D02*
D03*
Y293000D02*
D03*
Y291032D02*
D03*
Y289063D02*
D03*
D12*
X332063Y300480D02*
D03*
X334032D02*
D03*
X336000D02*
D03*
X337968D02*
D03*
X339937D02*
D03*
Y285520D02*
D03*
X337968D02*
D03*
X336000D02*
D03*
X334032D02*
D03*
X332063D02*
D03*
D14*
X487012Y265437D02*
D03*
Y263469D02*
D03*
Y261500D02*
D03*
Y259531D02*
D03*
Y257563D02*
D03*
X475988D02*
D03*
Y259531D02*
D03*
Y261500D02*
D03*
Y263469D02*
D03*
Y265437D02*
D03*
D15*
X247600Y330551D02*
D03*
X252600D02*
D03*
X257600D02*
D03*
X262600D02*
D03*
X247600Y351449D02*
D03*
X252600D02*
D03*
X257600D02*
D03*
X262600D02*
D03*
D16*
X242500Y369153D02*
D03*
Y375847D02*
D03*
D17*
X251654Y321000D02*
D03*
X258347D02*
D03*
X251654Y314500D02*
D03*
X258347D02*
D03*
X493378Y271969D02*
D03*
X486685D02*
D03*
X493378Y277969D02*
D03*
X486685D02*
D03*
X313000Y305500D02*
D03*
X319693D02*
D03*
X313000Y292500D02*
D03*
X319693D02*
D03*
Y286500D02*
D03*
X313000D02*
D03*
X344847Y355500D02*
D03*
X338154D02*
D03*
X344847Y362000D02*
D03*
X338154D02*
D03*
X327847Y330000D02*
D03*
X321153D02*
D03*
X350847Y323000D02*
D03*
X344153D02*
D03*
X350847Y329000D02*
D03*
X344153D02*
D03*
D18*
X527362Y184153D02*
D03*
Y177461D02*
D03*
X520866Y184153D02*
D03*
Y177461D02*
D03*
X495500Y189347D02*
D03*
Y182653D02*
D03*
X489000Y189347D02*
D03*
Y182653D02*
D03*
X493500Y263846D02*
D03*
Y257154D02*
D03*
X500000Y263846D02*
D03*
Y257154D02*
D03*
X311500Y336653D02*
D03*
Y343347D02*
D03*
X318000Y336653D02*
D03*
Y343347D02*
D03*
X334000Y329847D02*
D03*
Y323153D02*
D03*
X373500Y292846D02*
D03*
Y286154D02*
D03*
Y299153D02*
D03*
Y305847D02*
D03*
X331500Y355153D02*
D03*
Y361846D02*
D03*
X334000Y310154D02*
D03*
Y316846D02*
D03*
X340000Y310154D02*
D03*
Y316846D02*
D03*
X346500D02*
D03*
Y310154D02*
D03*
D19*
X487043Y250000D02*
D03*
X479957D02*
D03*
X511043Y197500D02*
D03*
X503957D02*
D03*
D20*
X459000Y275370D02*
D03*
Y246630D02*
D03*
D21*
X342524Y376500D02*
D03*
X320476D02*
D03*
X331500D02*
D03*
D22*
X493653Y250000D02*
D03*
X500347Y250000D02*
D03*
X518153Y197500D02*
D03*
X524847D02*
D03*
X527347Y191000D02*
D03*
X520653D02*
D03*
X319693Y299000D02*
D03*
X313000D02*
D03*
X344153Y336000D02*
D03*
X350847D02*
D03*
X344153Y342500D02*
D03*
X350847D02*
D03*
D23*
X504000Y191500D02*
D03*
Y184020D02*
D03*
X513449Y191500D02*
D03*
Y184020D02*
D03*
X504000Y187760D02*
D03*
D24*
X327547Y336291D02*
D03*
X329516D02*
D03*
X331484D02*
D03*
X333453D02*
D03*
Y347709D02*
D03*
X331484D02*
D03*
X329516D02*
D03*
X327547D02*
D03*
D25*
X336209Y339047D02*
D03*
Y341016D02*
D03*
Y342984D02*
D03*
Y344953D02*
D03*
X324791D02*
D03*
Y342984D02*
D03*
Y341016D02*
D03*
Y339047D02*
D03*
D26*
X330500Y342000D02*
D03*
M02*
