G04 Layer_Color=65535*
%FSLAX25Y25*%
%MOIN*%
G70*
G01*
G75*
%ADD28C,0.01000*%
%ADD30C,0.02000*%
%ADD54C,0.00984*%
%ADD55C,0.00800*%
%ADD56C,0.00787*%
%ADD57C,0.00394*%
%ADD58C,0.00500*%
%ADD59C,0.00600*%
G36*
X517292Y247839D02*
X517410Y247840D01*
X517560Y247836D01*
X517712Y247814D01*
X517887Y247775D01*
X518057Y247716D01*
X518066Y247718D01*
X518078Y247710D01*
X518132Y247680D01*
X518221Y247626D01*
X518332Y247556D01*
X518447Y247468D01*
X518577Y247352D01*
X518711Y247207D01*
X518830Y247040D01*
X518832Y247030D01*
X518843Y247022D01*
X518858Y246995D01*
X518885Y246950D01*
X518903Y246904D01*
X518933Y246850D01*
X519005Y246724D01*
X519073Y246557D01*
X519136Y246370D01*
X519204Y246154D01*
X519254Y245925D01*
X519256Y245916D01*
X519260Y245896D01*
X519266Y245858D01*
X519275Y245810D01*
X519277Y245741D01*
X519289Y245674D01*
X519298Y245507D01*
X519304Y245309D01*
X519302Y245091D01*
X519282Y244870D01*
X519241Y244654D01*
X519242Y244645D01*
X519234Y244633D01*
X519230Y244603D01*
X519217Y244561D01*
X519177Y244455D01*
X519132Y244318D01*
X519059Y244166D01*
X518967Y244011D01*
X518857Y243853D01*
X518723Y243711D01*
X518706Y243698D01*
X518655Y243649D01*
X518567Y243584D01*
X518460Y243516D01*
X518326Y243433D01*
X518163Y243344D01*
X517988Y243274D01*
X517789Y243219D01*
X517591Y244007D01*
X517600Y244008D01*
X517620Y244012D01*
X517647Y244026D01*
X517684Y244043D01*
X517786Y244081D01*
X517914Y244143D01*
X518048Y244226D01*
X518178Y244328D01*
X518304Y244459D01*
X518407Y244606D01*
X518413Y244627D01*
X518443Y244682D01*
X518476Y244777D01*
X518513Y244903D01*
X518544Y245066D01*
X518558Y245267D01*
X518557Y245495D01*
X518521Y245756D01*
X518519Y245766D01*
X518516Y245785D01*
X518509Y245824D01*
X518499Y245881D01*
X518479Y245937D01*
X518466Y246014D01*
X518408Y246172D01*
X518347Y246350D01*
X518267Y246524D01*
X518169Y246685D01*
X518107Y246754D01*
X518047Y246813D01*
X518036Y246820D01*
X517991Y246852D01*
X517923Y246900D01*
X517826Y246942D01*
X517718Y246992D01*
X517595Y247020D01*
X517463Y247037D01*
X517315Y247030D01*
X517296Y247027D01*
X517258Y247020D01*
X517192Y246999D01*
X517119Y246966D01*
X517037Y246922D01*
X516949Y246857D01*
X516873Y246784D01*
X516800Y246692D01*
X516792Y246680D01*
X516772Y246627D01*
X516758Y246595D01*
X516736Y246551D01*
X516727Y246490D01*
X516710Y246418D01*
X516685Y246334D01*
X516662Y246241D01*
X516650Y246140D01*
X516632Y246018D01*
X516607Y245875D01*
X516594Y245724D01*
X516585Y245554D01*
X516569Y245362D01*
X516570Y245353D01*
X516568Y245313D01*
X516567Y245263D01*
X516559Y245192D01*
X516555Y245102D01*
X516543Y245001D01*
X516533Y244781D01*
X516506Y244539D01*
X516479Y244296D01*
X516471Y244176D01*
X516449Y244073D01*
X516428Y243970D01*
X516412Y243888D01*
X516414Y243878D01*
X516408Y243858D01*
X516392Y243835D01*
X516380Y243793D01*
X516339Y243687D01*
X516294Y243550D01*
X516221Y243398D01*
X516130Y243244D01*
X516027Y243096D01*
X515911Y242967D01*
X515893Y242954D01*
X515850Y242917D01*
X515782Y242855D01*
X515675Y242787D01*
X515559Y242717D01*
X515413Y242641D01*
X515245Y242582D01*
X515064Y242540D01*
X515055Y242539D01*
X515045Y242537D01*
X515016Y242532D01*
X514978Y242525D01*
X514878Y242527D01*
X514750Y242525D01*
X514601Y242528D01*
X514427Y242557D01*
X514242Y242594D01*
X514062Y242661D01*
X514041Y242667D01*
X513975Y242705D01*
X513888Y242749D01*
X513775Y242828D01*
X513639Y242923D01*
X513498Y243047D01*
X513362Y243201D01*
X513223Y243375D01*
X513221Y243385D01*
X513208Y243402D01*
X513193Y243429D01*
X513167Y243464D01*
X513139Y243509D01*
X513110Y243563D01*
X513045Y243710D01*
X512966Y243875D01*
X512890Y244080D01*
X512822Y244296D01*
X512769Y244544D01*
X512767Y244553D01*
X512762Y244582D01*
X512753Y244630D01*
X512743Y244688D01*
X512741Y244757D01*
X512726Y244843D01*
X512718Y244941D01*
X512709Y245049D01*
X512699Y245275D01*
X512705Y245524D01*
X512720Y245774D01*
X512756Y246018D01*
X512755Y246028D01*
X512761Y246049D01*
X512775Y246081D01*
X512788Y246123D01*
X512827Y246239D01*
X512891Y246379D01*
X512970Y246551D01*
X513069Y246718D01*
X513196Y246899D01*
X513345Y247064D01*
X513355Y247065D01*
X513363Y247077D01*
X513388Y247101D01*
X513423Y247127D01*
X513466Y247164D01*
X513519Y247203D01*
X513653Y247286D01*
X513806Y247373D01*
X513998Y247466D01*
X514202Y247542D01*
X514430Y247602D01*
X514636Y246825D01*
X514626Y246824D01*
X514617Y246822D01*
X514561Y246802D01*
X514478Y246768D01*
X514366Y246728D01*
X514248Y246668D01*
X514120Y246605D01*
X514005Y246526D01*
X513892Y246437D01*
X513884Y246425D01*
X513850Y246390D01*
X513801Y246331D01*
X513748Y246243D01*
X513686Y246143D01*
X513618Y246022D01*
X513565Y245873D01*
X513514Y245716D01*
X513515Y245706D01*
X513507Y245695D01*
X513498Y245634D01*
X513485Y245542D01*
X513478Y245412D01*
X513463Y245271D01*
X513465Y245093D01*
X513478Y244907D01*
X513502Y244713D01*
X513504Y244703D01*
X513505Y244693D01*
X513516Y244636D01*
X513542Y244541D01*
X513570Y244437D01*
X513604Y244304D01*
X513656Y244175D01*
X513710Y244036D01*
X513784Y243900D01*
X513797Y243883D01*
X513823Y243848D01*
X513864Y243785D01*
X513925Y243717D01*
X514000Y243631D01*
X514082Y243556D01*
X514175Y243483D01*
X514275Y243422D01*
X514286Y243414D01*
X514328Y243402D01*
X514381Y243381D01*
X514455Y243355D01*
X514537Y243339D01*
X514638Y243327D01*
X514738Y243325D01*
X514845Y243334D01*
X514855Y243336D01*
X514893Y243343D01*
X514949Y243362D01*
X515015Y243384D01*
X515098Y243418D01*
X515178Y243472D01*
X515257Y243526D01*
X515334Y243599D01*
X515342Y243610D01*
X515367Y243634D01*
X515397Y243689D01*
X515445Y243757D01*
X515489Y243844D01*
X515529Y243950D01*
X515575Y244087D01*
X515609Y244232D01*
X515617Y244243D01*
X515619Y244283D01*
X515625Y244364D01*
X515636Y244415D01*
X515645Y244476D01*
X515650Y244556D01*
X515656Y244637D01*
X515668Y244738D01*
X515680Y244839D01*
X515688Y244959D01*
X515694Y245099D01*
X515706Y245250D01*
X515718Y245411D01*
X515716Y245420D01*
X515721Y245451D01*
X515722Y245501D01*
X515731Y245562D01*
X515738Y245632D01*
X515744Y245713D01*
X515760Y245904D01*
X515791Y246117D01*
X515823Y246331D01*
X515858Y246526D01*
X515872Y246617D01*
X515898Y246691D01*
X515897Y246701D01*
X515905Y246712D01*
X515933Y246777D01*
X515967Y246862D01*
X516018Y246970D01*
X516084Y247100D01*
X516161Y247223D01*
X516258Y247349D01*
X516366Y247467D01*
X516384Y247480D01*
X516427Y247518D01*
X516489Y247558D01*
X516578Y247614D01*
X516685Y247682D01*
X516814Y247735D01*
X516963Y247791D01*
X517115Y247828D01*
X517125Y247829D01*
X517135Y247831D01*
X517163Y247836D01*
X517202Y247843D01*
X517292Y247839D01*
D02*
G37*
G36*
X492429Y213588D02*
X492436Y213581D01*
X492457Y213560D01*
X492485Y213533D01*
X492526Y213491D01*
X492574Y213429D01*
X492629Y213374D01*
X492761Y213229D01*
X492892Y213070D01*
X493016Y212891D01*
X493133Y212718D01*
X493182Y212629D01*
X493223Y212546D01*
X493230Y212539D01*
Y212525D01*
X493258Y212470D01*
X493278Y212380D01*
X493299Y212263D01*
X493327Y212125D01*
X493333Y211966D01*
X493327Y211793D01*
X493292Y211607D01*
X493285Y211586D01*
X493264Y211524D01*
X493237Y211428D01*
X493188Y211310D01*
X493119Y211172D01*
X493037Y211021D01*
X492933Y210876D01*
X492802Y210731D01*
X492795Y210724D01*
X492781Y210710D01*
X492754Y210682D01*
X492712Y210655D01*
X492671Y210613D01*
X492616Y210572D01*
X492478Y210489D01*
X492312Y210392D01*
X492126Y210317D01*
X491905Y210261D01*
X491787Y210241D01*
X491670Y210234D01*
X491643D01*
X491608Y210241D01*
X491560Y210234D01*
X491505Y210248D01*
X491429Y210255D01*
X491353Y210275D01*
X491263Y210296D01*
X491166Y210324D01*
X491056Y210365D01*
X490946Y210406D01*
X490821Y210461D01*
X490697Y210517D01*
X490566Y210593D01*
X490435Y210682D01*
X490297Y210779D01*
X490304Y210758D01*
X490317Y210717D01*
X490338Y210655D01*
X490359Y210579D01*
X490400Y210386D01*
X490421Y210282D01*
X490428Y210192D01*
Y210165D01*
X490435Y210103D01*
X490428Y209999D01*
X490421Y209868D01*
X490407Y209702D01*
X490386Y209516D01*
X490359Y209309D01*
X490317Y209088D01*
X489876Y207073D01*
X489124Y207825D01*
X489462Y209364D01*
X489469Y209371D01*
Y209399D01*
X489476Y209433D01*
X489489Y209475D01*
X489510Y209592D01*
X489538Y209744D01*
X489572Y209916D01*
X489600Y210096D01*
X489627Y210261D01*
X489648Y210420D01*
Y210434D01*
X489655Y210482D01*
X489662Y210558D01*
X489676Y210641D01*
X489669Y210841D01*
Y210938D01*
X489648Y211028D01*
Y211041D01*
X489641Y211062D01*
X489627Y211103D01*
X489614Y211159D01*
X489572Y211283D01*
X489503Y211421D01*
X489496Y211428D01*
X489489Y211449D01*
X489462Y211476D01*
X489434Y211518D01*
X489393Y211573D01*
X489337Y211628D01*
X489275Y211704D01*
X489193Y211787D01*
X488503Y212477D01*
X486487Y210461D01*
X485887Y211062D01*
X490421Y215596D01*
X492429Y213588D01*
D02*
G37*
G36*
X519852Y241918D02*
X515868Y240234D01*
X515858Y240232D01*
X515840Y240219D01*
X515804Y240203D01*
X515767Y240187D01*
X515701Y240165D01*
X515637Y240134D01*
X515481Y240067D01*
X515295Y239994D01*
X515083Y239907D01*
X514859Y239828D01*
X514627Y239738D01*
X514637Y239739D01*
X514677Y239737D01*
X514726Y239736D01*
X514797Y239728D01*
X514878Y239722D01*
X514967Y239719D01*
X515179Y239696D01*
X515390Y239684D01*
X515590Y239670D01*
X515671Y239664D01*
X515751Y239658D01*
X515810Y239659D01*
X515850Y239656D01*
X520330Y239207D01*
X520508Y238198D01*
X517466Y236730D01*
X517457Y236728D01*
X517412Y236701D01*
X517356Y236681D01*
X517275Y236637D01*
X517172Y236599D01*
X517054Y236539D01*
X516915Y236484D01*
X516768Y236419D01*
X516612Y236351D01*
X516445Y236282D01*
X516076Y236128D01*
X515696Y235982D01*
X515313Y235845D01*
X515323Y235847D01*
X515344Y235841D01*
X515373Y235846D01*
X515422Y235844D01*
X515484Y235835D01*
X515553Y235838D01*
X515633Y235832D01*
X515723Y235828D01*
X515933Y235816D01*
X516182Y235810D01*
X516453Y235788D01*
X516744Y235770D01*
X520982Y235507D01*
X521132Y234661D01*
X514513Y235268D01*
X514369Y236085D01*
X518941Y238259D01*
X518951Y238260D01*
X518968Y238273D01*
X518996Y238288D01*
X519032Y238304D01*
X519133Y238352D01*
X519243Y238401D01*
X519371Y238463D01*
X519481Y238512D01*
X519582Y238560D01*
X519619Y238576D01*
X519646Y238591D01*
X519627Y238588D01*
X519575Y238598D01*
X519485Y238602D01*
X519384Y238614D01*
X519254Y238621D01*
X519134Y238630D01*
X519002Y238646D01*
X518872Y238653D01*
X513832Y239132D01*
X513678Y240006D01*
X519701Y242773D01*
X519852Y241918D01*
D02*
G37*
G36*
X522499Y226904D02*
X521759Y226774D01*
X521393Y228850D01*
X515818Y227867D01*
X515671Y228703D01*
X521246Y229686D01*
X520880Y231762D01*
X521620Y231893D01*
X522499Y226904D01*
D02*
G37*
G36*
X521443Y232892D02*
X515129Y231779D01*
X514981Y232615D01*
X521296Y233729D01*
X521443Y232892D01*
D02*
G37*
G36*
X475355Y229737D02*
X475466Y229723D01*
X475583Y229703D01*
X475728Y229682D01*
X475887Y229647D01*
X476052Y229592D01*
X476232Y229537D01*
X476411Y229454D01*
X476605Y229371D01*
X476784Y229261D01*
X476977Y229137D01*
X477170Y228985D01*
X477350Y228819D01*
X477357Y228812D01*
X477378Y228792D01*
X477412Y228757D01*
X477447Y228709D01*
X477502Y228654D01*
X477564Y228578D01*
X477619Y228495D01*
X477695Y228405D01*
X477826Y228191D01*
X477964Y227943D01*
X478088Y227680D01*
X478137Y227536D01*
X478178Y227384D01*
X478185Y227377D01*
Y227349D01*
X478199Y227308D01*
X478206Y227246D01*
X478219Y227177D01*
X478226Y227087D01*
X478247Y226887D01*
X478254Y226645D01*
X478240Y226369D01*
X478192Y226086D01*
X478109Y225783D01*
X478102Y225776D01*
X478095Y225741D01*
X478081Y225700D01*
X478054Y225644D01*
X478026Y225575D01*
X477985Y225493D01*
X477943Y225396D01*
X477895Y225293D01*
X477826Y225182D01*
X477764Y225065D01*
X477598Y224816D01*
X477398Y224561D01*
X477164Y224299D01*
X477157Y224292D01*
X477136Y224271D01*
X477095Y224230D01*
X477039Y224188D01*
X476977Y224126D01*
X476901Y224064D01*
X476819Y223995D01*
X476715Y223919D01*
X476487Y223761D01*
X476232Y223602D01*
X475949Y223457D01*
X475645Y223346D01*
X475638Y223340D01*
X475611D01*
X475569Y223326D01*
X475507Y223305D01*
X475431Y223298D01*
X475342Y223277D01*
X475141Y223243D01*
X474900Y223222D01*
X474624D01*
X474334Y223250D01*
X474037Y223312D01*
X474030Y223319D01*
X474003D01*
X473961Y223333D01*
X473906Y223360D01*
X473837Y223388D01*
X473754Y223415D01*
X473671Y223457D01*
X473568Y223505D01*
X473361Y223616D01*
X473126Y223754D01*
X472892Y223933D01*
X472664Y224133D01*
X472657Y224140D01*
X472636Y224161D01*
X472602Y224195D01*
X472560Y224251D01*
X472505Y224306D01*
X472450Y224375D01*
X472388Y224464D01*
X472319Y224561D01*
X472181Y224768D01*
X472043Y225016D01*
X471918Y225293D01*
X471863Y225431D01*
X471822Y225582D01*
Y225596D01*
X471815Y225617D01*
X471808Y225665D01*
X471794Y225721D01*
X471787Y225796D01*
X471774Y225879D01*
X471760Y226086D01*
Y226335D01*
X471767Y226604D01*
X471822Y226894D01*
X471898Y227190D01*
X471905Y227197D01*
X471912Y227232D01*
X471932Y227266D01*
X471953Y227328D01*
X471981Y227397D01*
X472015Y227473D01*
X472063Y227563D01*
X472119Y227660D01*
X472174Y227770D01*
X472236Y227874D01*
X472388Y228108D01*
X472567Y228343D01*
X472774Y228578D01*
X472788Y228591D01*
X472823Y228626D01*
X472892Y228681D01*
X472967Y228757D01*
X473078Y228840D01*
X473202Y228937D01*
X473333Y229040D01*
X473499Y229150D01*
X473671Y229254D01*
X473851Y229364D01*
X474044Y229461D01*
X474251Y229544D01*
X474465Y229620D01*
X474686Y229689D01*
X474914Y229723D01*
X475141Y229744D01*
X475266D01*
X475355Y229737D01*
D02*
G37*
G36*
X229438Y240059D02*
X227857D01*
Y250097D01*
X227837Y250078D01*
X227759Y250000D01*
X227622Y249902D01*
X227447Y249765D01*
X227232Y249590D01*
X226978Y249414D01*
X226685Y249199D01*
X226353Y249004D01*
X226333D01*
X226314Y248984D01*
X226197Y248906D01*
X226021Y248809D01*
X225806Y248691D01*
X225552Y248555D01*
X225279Y248437D01*
X224986Y248301D01*
X224712Y248183D01*
Y249726D01*
X224732D01*
X224771Y249746D01*
X224849Y249785D01*
X224927Y249844D01*
X225044Y249902D01*
X225181Y249961D01*
X225494Y250136D01*
X225845Y250351D01*
X226236Y250605D01*
X226626Y250898D01*
X226997Y251211D01*
X227017Y251230D01*
X227036Y251250D01*
X227153Y251367D01*
X227329Y251543D01*
X227544Y251758D01*
X227779Y252031D01*
X228013Y252324D01*
X228228Y252636D01*
X228403Y252949D01*
X229438D01*
Y240059D01*
D02*
G37*
G36*
X480414Y225603D02*
X478116Y221938D01*
X478109Y221932D01*
X478102Y221911D01*
X478081Y221876D01*
X478061Y221842D01*
X478019Y221787D01*
X477985Y221725D01*
X477895Y221580D01*
X477785Y221414D01*
X477660Y221221D01*
X477522Y221027D01*
X477384Y220820D01*
X477391Y220827D01*
X477426Y220848D01*
X477467Y220876D01*
X477529Y220910D01*
X477598Y220952D01*
X477674Y221000D01*
X477861Y221104D01*
X478040Y221214D01*
X478212Y221317D01*
X478281Y221359D01*
X478351Y221400D01*
X478399Y221435D01*
X478433Y221455D01*
X482360Y223657D01*
X483085Y222932D01*
X481435Y219985D01*
X481429Y219978D01*
X481408Y219930D01*
X481373Y219882D01*
X481332Y219799D01*
X481270Y219709D01*
X481208Y219592D01*
X481125Y219468D01*
X481042Y219330D01*
X480952Y219185D01*
X480856Y219033D01*
X480642Y218695D01*
X480414Y218357D01*
X480179Y218025D01*
X480186Y218032D01*
X480207Y218039D01*
X480228Y218060D01*
X480269Y218088D01*
X480324Y218115D01*
X480380Y218157D01*
X480449Y218198D01*
X480524Y218246D01*
X480704Y218357D01*
X480911Y218495D01*
X481146Y218633D01*
X481394Y218785D01*
X485017Y221000D01*
X485625Y220393D01*
X479855Y217094D01*
X479268Y217680D01*
X481767Y222083D01*
X481774Y222090D01*
X481780Y222111D01*
X481794Y222139D01*
X481815Y222173D01*
X481870Y222270D01*
X481932Y222373D01*
X482001Y222498D01*
X482063Y222601D01*
X482119Y222698D01*
X482139Y222732D01*
X482153Y222760D01*
X482139Y222746D01*
X482091Y222725D01*
X482015Y222677D01*
X481925Y222629D01*
X481815Y222560D01*
X481711Y222498D01*
X481594Y222435D01*
X481484Y222366D01*
X477081Y219868D01*
X476453Y220496D01*
X479800Y226217D01*
X480414Y225603D01*
D02*
G37*
G36*
X241860Y251504D02*
X241840Y251484D01*
X241801Y251445D01*
X241742Y251367D01*
X241645Y251269D01*
X241547Y251133D01*
X241410Y250976D01*
X241254Y250781D01*
X241098Y250586D01*
X240922Y250351D01*
X240727Y250078D01*
X240512Y249804D01*
X240317Y249492D01*
X240102Y249160D01*
X239868Y248809D01*
X239653Y248418D01*
X239418Y248027D01*
X239399Y248008D01*
X239360Y247930D01*
X239301Y247813D01*
X239223Y247656D01*
X239125Y247461D01*
X239008Y247227D01*
X238872Y246953D01*
X238735Y246660D01*
X238598Y246348D01*
X238442Y245996D01*
X238286Y245625D01*
X238129Y245234D01*
X237836Y244434D01*
X237563Y243575D01*
Y243555D01*
X237544Y243496D01*
X237524Y243418D01*
X237485Y243301D01*
X237446Y243145D01*
X237407Y242969D01*
X237368Y242754D01*
X237309Y242539D01*
X237270Y242285D01*
X237211Y242012D01*
X237114Y241426D01*
X237036Y240762D01*
X236977Y240059D01*
X235356D01*
Y240079D01*
Y240137D01*
Y240215D01*
X235376Y240333D01*
Y240469D01*
X235395Y240645D01*
X235415Y240860D01*
X235434Y241075D01*
X235473Y241329D01*
X235512Y241621D01*
X235551Y241914D01*
X235610Y242227D01*
X235669Y242578D01*
X235747Y242930D01*
X235942Y243711D01*
Y243731D01*
X235962Y243809D01*
X236001Y243926D01*
X236040Y244082D01*
X236098Y244278D01*
X236176Y244492D01*
X236255Y244746D01*
X236352Y245039D01*
X236469Y245332D01*
X236586Y245664D01*
X236860Y246367D01*
X237192Y247109D01*
X237563Y247851D01*
X237582Y247871D01*
X237622Y247949D01*
X237680Y248047D01*
X237758Y248183D01*
X237856Y248359D01*
X237973Y248555D01*
X238110Y248769D01*
X238247Y249023D01*
X238598Y249551D01*
X238989Y250117D01*
X239399Y250683D01*
X239848Y251230D01*
X233559D01*
Y252734D01*
X241860D01*
Y251504D01*
D02*
G37*
G36*
X489482Y216535D02*
X488951Y216003D01*
X486273Y218681D01*
X484879Y217287D01*
X487385Y214782D01*
X486853Y214250D01*
X484348Y216756D01*
X482802Y215210D01*
X485583Y212428D01*
X485052Y211897D01*
X481670Y215279D01*
X486204Y219813D01*
X489482Y216535D01*
D02*
G37*
G36*
X262079Y273442D02*
X262431Y273422D01*
X262821Y273383D01*
X263193Y273324D01*
X263505Y273266D01*
X263525D01*
X263563Y273246D01*
X263603D01*
X263681Y273207D01*
X263896Y273149D01*
X264149Y273051D01*
X264442Y272934D01*
X264755Y272778D01*
X265067Y272582D01*
X265380Y272348D01*
X265399D01*
X265419Y272309D01*
X265556Y272192D01*
X265731Y271996D01*
X265946Y271743D01*
X266200Y271430D01*
X266454Y271059D01*
X266688Y270629D01*
X266903Y270141D01*
Y270122D01*
X266923Y270082D01*
X266942Y270004D01*
X266981Y269907D01*
X267020Y269790D01*
X267059Y269633D01*
X267118Y269458D01*
X267157Y269262D01*
X267196Y269047D01*
X267255Y268813D01*
X267333Y268305D01*
X267391Y267739D01*
X267411Y267114D01*
Y267094D01*
Y267055D01*
Y266977D01*
Y266860D01*
X267391Y266743D01*
Y266587D01*
X267372Y266235D01*
X267333Y265844D01*
X267255Y265395D01*
X267177Y264946D01*
X267059Y264516D01*
Y264497D01*
X267040Y264458D01*
X267020Y264399D01*
X267001Y264321D01*
X266923Y264126D01*
X266825Y263852D01*
X266708Y263559D01*
X266552Y263247D01*
X266376Y262934D01*
X266180Y262642D01*
X266161Y262602D01*
X266083Y262524D01*
X265985Y262388D01*
X265829Y262212D01*
X265673Y262036D01*
X265458Y261841D01*
X265243Y261646D01*
X265009Y261470D01*
X264989Y261450D01*
X264892Y261411D01*
X264755Y261333D01*
X264579Y261235D01*
X264364Y261138D01*
X264110Y261040D01*
X263817Y260942D01*
X263485Y260845D01*
X263446D01*
X263329Y260806D01*
X263153Y260786D01*
X262899Y260747D01*
X262607Y260708D01*
X262255Y260669D01*
X261864Y260649D01*
X261435Y260630D01*
X256826D01*
Y273461D01*
X261747D01*
X262079Y273442D01*
D02*
G37*
G36*
X242041Y266040D02*
Y266020D01*
Y265962D01*
Y265864D01*
Y265727D01*
X242022Y265551D01*
Y265376D01*
X242002Y265161D01*
X241983Y264927D01*
X241924Y264438D01*
X241846Y263931D01*
X241748Y263423D01*
X241592Y262973D01*
Y262954D01*
X241573Y262915D01*
X241553Y262856D01*
X241514Y262778D01*
X241397Y262583D01*
X241241Y262310D01*
X241026Y262017D01*
X240753Y261704D01*
X240401Y261411D01*
X240010Y261118D01*
X239991D01*
X239952Y261079D01*
X239893Y261060D01*
X239795Y261001D01*
X239698Y260962D01*
X239561Y260903D01*
X239385Y260825D01*
X239210Y260767D01*
X239014Y260708D01*
X238780Y260630D01*
X238546Y260571D01*
X238272Y260532D01*
X237686Y260454D01*
X237022Y260415D01*
X236846D01*
X236729Y260435D01*
X236573D01*
X236397Y260454D01*
X236202Y260474D01*
X235987Y260493D01*
X235518Y260571D01*
X235030Y260669D01*
X234522Y260825D01*
X234073Y261020D01*
X234054D01*
X234015Y261060D01*
X233976Y261079D01*
X233897Y261138D01*
X233683Y261274D01*
X233448Y261489D01*
X233175Y261743D01*
X232921Y262036D01*
X232667Y262407D01*
X232452Y262817D01*
Y262837D01*
X232433Y262876D01*
X232413Y262934D01*
X232374Y263032D01*
X232335Y263149D01*
X232296Y263305D01*
X232257Y263481D01*
X232218Y263677D01*
X232159Y263891D01*
X232120Y264126D01*
X232081Y264399D01*
X232042Y264673D01*
X232003Y264985D01*
X231983Y265317D01*
X231964Y265669D01*
Y266040D01*
Y273461D01*
X233663D01*
Y266040D01*
Y266020D01*
Y265962D01*
Y265883D01*
Y265766D01*
Y265630D01*
X233683Y265473D01*
X233702Y265102D01*
X233741Y264712D01*
X233780Y264302D01*
X233858Y263911D01*
X233897Y263735D01*
X233956Y263579D01*
X233976Y263540D01*
X234015Y263442D01*
X234093Y263305D01*
X234210Y263130D01*
X234347Y262934D01*
X234542Y262720D01*
X234757Y262524D01*
X235030Y262349D01*
X235069Y262329D01*
X235167Y262290D01*
X235323Y262212D01*
X235538Y262153D01*
X235811Y262075D01*
X236124Y261997D01*
X236475Y261958D01*
X236866Y261938D01*
X237042D01*
X237178Y261958D01*
X237335D01*
X237510Y261978D01*
X237901Y262036D01*
X238350Y262153D01*
X238780Y262290D01*
X239190Y262505D01*
X239385Y262622D01*
X239542Y262778D01*
Y262798D01*
X239581Y262817D01*
X239620Y262876D01*
X239659Y262954D01*
X239737Y263052D01*
X239795Y263169D01*
X239874Y263325D01*
X239952Y263501D01*
X240010Y263716D01*
X240089Y263950D01*
X240167Y264204D01*
X240225Y264516D01*
X240264Y264848D01*
X240303Y265200D01*
X240342Y265610D01*
Y266040D01*
Y273461D01*
X242041D01*
Y266040D01*
D02*
G37*
G36*
X254189Y271957D02*
X246611D01*
Y268012D01*
X253701D01*
Y266508D01*
X246611D01*
Y262134D01*
X254482D01*
Y260630D01*
X244912D01*
Y273461D01*
X254189D01*
Y271957D01*
D02*
G37*
G36*
X279924Y244570D02*
X281662D01*
Y243125D01*
X279924D01*
Y240059D01*
X278342D01*
Y243125D01*
X272776D01*
Y244570D01*
X278635Y252871D01*
X279924D01*
Y244570D01*
D02*
G37*
G36*
X267893Y252929D02*
X268049Y252910D01*
X268225Y252890D01*
X268420Y252871D01*
X268635Y252812D01*
X269104Y252695D01*
X269592Y252519D01*
X269846Y252402D01*
X270080Y252265D01*
X270295Y252090D01*
X270510Y251914D01*
X270530Y251894D01*
X270549Y251875D01*
X270608Y251816D01*
X270686Y251738D01*
X270764Y251621D01*
X270862Y251504D01*
X271057Y251211D01*
X271252Y250840D01*
X271428Y250410D01*
X271565Y249922D01*
X271584Y249648D01*
X271604Y249375D01*
Y249336D01*
Y249238D01*
X271584Y249082D01*
X271565Y248887D01*
X271526Y248652D01*
X271467Y248398D01*
X271389Y248125D01*
X271272Y247851D01*
X271252Y247813D01*
X271213Y247715D01*
X271135Y247578D01*
X271018Y247383D01*
X270881Y247148D01*
X270705Y246875D01*
X270471Y246602D01*
X270217Y246289D01*
X270178Y246250D01*
X270080Y246133D01*
X269905Y245957D01*
X269788Y245840D01*
X269651Y245703D01*
X269495Y245547D01*
X269299Y245371D01*
X269104Y245195D01*
X268889Y244981D01*
X268655Y244766D01*
X268381Y244531D01*
X268108Y244297D01*
X267795Y244024D01*
X267776Y244004D01*
X267737Y243965D01*
X267659Y243906D01*
X267561Y243828D01*
X267327Y243633D01*
X267034Y243379D01*
X266741Y243106D01*
X266428Y242832D01*
X266175Y242598D01*
X266077Y242500D01*
X265979Y242403D01*
X265960Y242383D01*
X265921Y242324D01*
X265843Y242246D01*
X265745Y242129D01*
X265530Y241875D01*
X265315Y241563D01*
X271623D01*
Y240059D01*
X263128D01*
Y240079D01*
Y240157D01*
Y240274D01*
X263147Y240411D01*
X263167Y240567D01*
X263186Y240743D01*
X263245Y240938D01*
X263304Y241133D01*
Y241153D01*
X263323Y241172D01*
X263362Y241289D01*
X263440Y241446D01*
X263558Y241680D01*
X263694Y241934D01*
X263890Y242227D01*
X264085Y242520D01*
X264339Y242832D01*
Y242852D01*
X264378Y242871D01*
X264475Y242989D01*
X264632Y243164D01*
X264866Y243399D01*
X265159Y243672D01*
X265510Y244004D01*
X265940Y244375D01*
X266409Y244785D01*
X266428Y244805D01*
X266507Y244863D01*
X266604Y244942D01*
X266741Y245078D01*
X266917Y245215D01*
X267112Y245391D01*
X267542Y245762D01*
X268010Y246211D01*
X268479Y246660D01*
X268713Y246875D01*
X268909Y247090D01*
X269084Y247305D01*
X269241Y247500D01*
Y247519D01*
X269280Y247539D01*
X269319Y247598D01*
X269358Y247676D01*
X269475Y247871D01*
X269612Y248125D01*
X269748Y248418D01*
X269866Y248730D01*
X269944Y249082D01*
X269983Y249414D01*
Y249433D01*
Y249453D01*
X269963Y249570D01*
X269944Y249746D01*
X269905Y249961D01*
X269807Y250215D01*
X269690Y250469D01*
X269534Y250742D01*
X269299Y250996D01*
X269260Y251015D01*
X269182Y251094D01*
X269026Y251191D01*
X268830Y251328D01*
X268577Y251445D01*
X268284Y251543D01*
X267932Y251621D01*
X267542Y251640D01*
X267424D01*
X267346Y251621D01*
X267151Y251601D01*
X266897Y251562D01*
X266604Y251465D01*
X266292Y251347D01*
X265999Y251172D01*
X265725Y250937D01*
X265706Y250898D01*
X265628Y250820D01*
X265510Y250664D01*
X265393Y250449D01*
X265257Y250176D01*
X265159Y249863D01*
X265081Y249492D01*
X265042Y249062D01*
X263421Y249238D01*
Y249258D01*
Y249316D01*
X263440Y249414D01*
X263460Y249531D01*
X263499Y249687D01*
X263518Y249863D01*
X263636Y250254D01*
X263792Y250703D01*
X264007Y251152D01*
X264300Y251601D01*
X264456Y251797D01*
X264651Y251992D01*
X264671Y252011D01*
X264710Y252031D01*
X264768Y252090D01*
X264846Y252148D01*
X264964Y252207D01*
X265100Y252304D01*
X265257Y252382D01*
X265432Y252480D01*
X265628Y252558D01*
X265843Y252656D01*
X266096Y252734D01*
X266350Y252793D01*
X266936Y252910D01*
X267249Y252929D01*
X267581Y252949D01*
X267756D01*
X267893Y252929D01*
D02*
G37*
G36*
X523926Y218811D02*
X521331Y218354D01*
X521907Y215086D01*
X524503Y215543D01*
X524650Y214707D01*
X518335Y213593D01*
X518188Y214430D01*
X521167Y214955D01*
X520591Y218223D01*
X517611Y217698D01*
X517464Y218534D01*
X523779Y219647D01*
X523926Y218811D01*
D02*
G37*
G36*
X520368Y225785D02*
X520666Y225778D01*
X520981Y225735D01*
X521282Y225659D01*
X521291Y225660D01*
X521314Y225645D01*
X521356Y225632D01*
X521419Y225614D01*
X521483Y225585D01*
X521559Y225549D01*
X521744Y225453D01*
X521952Y225341D01*
X522167Y225191D01*
X522389Y225002D01*
X522585Y224788D01*
X522587Y224779D01*
X522609Y224763D01*
X522635Y224728D01*
X522665Y224674D01*
X522704Y224621D01*
X522756Y224551D01*
X522801Y224460D01*
X522857Y224371D01*
X522914Y224272D01*
X522963Y224162D01*
X523076Y223914D01*
X523165Y223632D01*
X523239Y223328D01*
X523241Y223319D01*
X523246Y223290D01*
X523256Y223232D01*
X523258Y223163D01*
X523262Y223084D01*
X523269Y222987D01*
X523278Y222879D01*
X523279Y222760D01*
X523266Y222500D01*
X523227Y222216D01*
X523193Y222071D01*
X523149Y221925D01*
X523095Y221786D01*
X523030Y221646D01*
X523022Y221635D01*
X523016Y221614D01*
X522992Y221580D01*
X522962Y221525D01*
X522923Y221469D01*
X522867Y221389D01*
X522812Y221310D01*
X522747Y221229D01*
X522664Y221136D01*
X522580Y221051D01*
X522478Y220954D01*
X522367Y220855D01*
X522254Y220766D01*
X522121Y220673D01*
X521834Y220504D01*
X521496Y221296D01*
X521506Y221298D01*
X521523Y221311D01*
X521560Y221327D01*
X521605Y221355D01*
X521657Y221394D01*
X521719Y221435D01*
X521852Y221528D01*
X522000Y221643D01*
X522153Y221789D01*
X522284Y221941D01*
X522392Y222118D01*
X522398Y222139D01*
X522426Y222204D01*
X522459Y222299D01*
X522504Y222435D01*
X522537Y222590D01*
X522552Y222781D01*
X522555Y222990D01*
X522524Y223222D01*
X522522Y223232D01*
X522519Y223251D01*
X522512Y223289D01*
X522494Y223336D01*
X522482Y223403D01*
X522461Y223468D01*
X522402Y223636D01*
X522329Y223822D01*
X522226Y224012D01*
X522104Y224198D01*
X521955Y224370D01*
X521953Y224380D01*
X521932Y224386D01*
X521874Y224435D01*
X521782Y224508D01*
X521658Y224595D01*
X521504Y224677D01*
X521330Y224765D01*
X521119Y224837D01*
X520893Y224887D01*
X520883Y224885D01*
X520862Y224891D01*
X520832Y224896D01*
X520782Y224897D01*
X520730Y224907D01*
X520661Y224905D01*
X520501Y224917D01*
X520311Y224923D01*
X520105Y224916D01*
X519880Y224896D01*
X519648Y224865D01*
X519638Y224864D01*
X519609Y224858D01*
X519571Y224852D01*
X519513Y224842D01*
X519448Y224820D01*
X519361Y224805D01*
X519276Y224780D01*
X519182Y224753D01*
X518966Y224686D01*
X518732Y224605D01*
X518502Y224505D01*
X518285Y224387D01*
X518275Y224385D01*
X518258Y224373D01*
X518232Y224348D01*
X518197Y224322D01*
X518091Y224254D01*
X517979Y224155D01*
X517844Y224022D01*
X517722Y223872D01*
X517603Y223702D01*
X517509Y223507D01*
X517510Y223497D01*
X517502Y223486D01*
X517488Y223454D01*
X517476Y223412D01*
X517456Y223300D01*
X517422Y223155D01*
X517401Y222992D01*
X517385Y222801D01*
X517382Y222593D01*
X517410Y222380D01*
X517412Y222370D01*
X517415Y222351D01*
X517422Y222312D01*
X517440Y222266D01*
X517450Y222208D01*
X517474Y222133D01*
X517531Y221975D01*
X517611Y221801D01*
X517724Y221612D01*
X517854Y221437D01*
X518022Y221269D01*
X518034Y221261D01*
X518045Y221253D01*
X518113Y221205D01*
X518224Y221136D01*
X518368Y221052D01*
X518559Y220977D01*
X518782Y220897D01*
X519049Y220845D01*
X519341Y220817D01*
X519277Y219944D01*
X519267Y219942D01*
X519227Y219945D01*
X519176Y219956D01*
X519095Y219961D01*
X519012Y219986D01*
X518899Y220006D01*
X518787Y220026D01*
X518661Y220063D01*
X518379Y220142D01*
X518089Y220269D01*
X517806Y220418D01*
X517670Y220513D01*
X517542Y220619D01*
X517531Y220627D01*
X517518Y220644D01*
X517482Y220678D01*
X517434Y220729D01*
X517383Y220789D01*
X517322Y220858D01*
X517259Y220936D01*
X517192Y221033D01*
X517123Y221140D01*
X517053Y221256D01*
X516980Y221392D01*
X516916Y221529D01*
X516793Y221835D01*
X516753Y222006D01*
X516711Y222187D01*
X516709Y222197D01*
X516702Y222235D01*
X516694Y222283D01*
X516690Y222362D01*
X516675Y222448D01*
X516667Y222546D01*
X516666Y222665D01*
X516655Y222782D01*
X516666Y223061D01*
X516684Y223352D01*
X516742Y223639D01*
X516776Y223784D01*
X516831Y223923D01*
X516839Y223934D01*
X516845Y223955D01*
X516869Y223989D01*
X516889Y224042D01*
X516965Y224174D01*
X517076Y224332D01*
X517210Y224525D01*
X517395Y224716D01*
X517606Y224921D01*
X517861Y225105D01*
X517871Y225107D01*
X517898Y225122D01*
X517933Y225148D01*
X517987Y225177D01*
X518059Y225219D01*
X518141Y225264D01*
X518232Y225309D01*
X518342Y225359D01*
X518452Y225408D01*
X518581Y225460D01*
X518860Y225569D01*
X519161Y225661D01*
X519495Y225730D01*
X519505Y225732D01*
X519543Y225739D01*
X519591Y225747D01*
X519660Y225749D01*
X519747Y225765D01*
X519854Y225774D01*
X519962Y225783D01*
X520090Y225786D01*
X520368Y225785D01*
D02*
G37*
G36*
X275633Y273656D02*
X275789Y273637D01*
X275985Y273617D01*
X276199Y273598D01*
X276434Y273559D01*
X276942Y273442D01*
X277488Y273266D01*
X277762Y273149D01*
X278035Y273012D01*
X278289Y272856D01*
X278543Y272680D01*
X278563Y272660D01*
X278602Y272641D01*
X278660Y272582D01*
X278758Y272504D01*
X278855Y272407D01*
X278992Y272270D01*
X279129Y272133D01*
X279266Y271977D01*
X279422Y271782D01*
X279559Y271586D01*
X279715Y271352D01*
X279871Y271098D01*
X280008Y270844D01*
X280145Y270551D01*
X280379Y269926D01*
X278699Y269536D01*
Y269555D01*
X278680Y269594D01*
X278660Y269672D01*
X278621Y269770D01*
X278563Y269887D01*
X278504Y270024D01*
X278367Y270317D01*
X278191Y270649D01*
X277957Y271000D01*
X277703Y271313D01*
X277391Y271586D01*
X277352Y271606D01*
X277235Y271684D01*
X277059Y271782D01*
X276805Y271918D01*
X276512Y272035D01*
X276141Y272133D01*
X275731Y272211D01*
X275262Y272231D01*
X275125D01*
X275028Y272211D01*
X274891D01*
X274754Y272192D01*
X274403Y272133D01*
X274012Y272055D01*
X273602Y271918D01*
X273192Y271743D01*
X272801Y271508D01*
X272782D01*
X272762Y271469D01*
X272645Y271371D01*
X272469Y271215D01*
X272254Y271000D01*
X272040Y270727D01*
X271805Y270414D01*
X271590Y270024D01*
X271415Y269594D01*
Y269575D01*
X271395Y269536D01*
X271375Y269477D01*
X271356Y269379D01*
X271317Y269282D01*
X271297Y269145D01*
X271219Y268832D01*
X271141Y268461D01*
X271083Y268051D01*
X271043Y267602D01*
X271024Y267133D01*
Y267114D01*
Y267055D01*
Y266977D01*
Y266860D01*
X271043Y266723D01*
Y266547D01*
X271063Y266372D01*
X271083Y266176D01*
X271141Y265727D01*
X271219Y265239D01*
X271337Y264751D01*
X271493Y264282D01*
Y264263D01*
X271512Y264223D01*
X271551Y264165D01*
X271590Y264087D01*
X271688Y263852D01*
X271844Y263598D01*
X272059Y263286D01*
X272313Y262993D01*
X272606Y262700D01*
X272957Y262446D01*
X272977D01*
X272996Y262427D01*
X273055Y262388D01*
X273133Y262349D01*
X273348Y262270D01*
X273622Y262153D01*
X273934Y262056D01*
X274305Y261958D01*
X274715Y261880D01*
X275145Y261860D01*
X275282D01*
X275379Y261880D01*
X275496D01*
X275653Y261899D01*
X275985Y261958D01*
X276356Y262056D01*
X276766Y262212D01*
X277156Y262407D01*
X277547Y262681D01*
X277567Y262700D01*
X277586Y262720D01*
X277703Y262837D01*
X277879Y263032D01*
X278094Y263286D01*
X278309Y263637D01*
X278543Y264048D01*
X278738Y264556D01*
X278895Y265122D01*
X280594Y264692D01*
Y264673D01*
X280574Y264595D01*
X280535Y264497D01*
X280496Y264341D01*
X280418Y264184D01*
X280340Y263969D01*
X280262Y263755D01*
X280145Y263520D01*
X279891Y262993D01*
X279539Y262466D01*
X279149Y261958D01*
X278914Y261724D01*
X278660Y261509D01*
X278641Y261489D01*
X278602Y261470D01*
X278523Y261411D01*
X278406Y261333D01*
X278270Y261255D01*
X278113Y261157D01*
X277938Y261060D01*
X277723Y260962D01*
X277488Y260864D01*
X277235Y260767D01*
X276942Y260669D01*
X276649Y260591D01*
X276004Y260454D01*
X275653Y260435D01*
X275282Y260415D01*
X275086D01*
X274930Y260435D01*
X274754D01*
X274559Y260454D01*
X274324Y260493D01*
X274090Y260513D01*
X273543Y260630D01*
X272977Y260767D01*
X272430Y260981D01*
X272157Y261099D01*
X271903Y261255D01*
X271883Y261274D01*
X271844Y261294D01*
X271786Y261352D01*
X271688Y261411D01*
X271454Y261606D01*
X271180Y261880D01*
X270848Y262212D01*
X270536Y262642D01*
X270204Y263130D01*
X269930Y263696D01*
Y263716D01*
X269911Y263774D01*
X269872Y263852D01*
X269833Y263969D01*
X269774Y264126D01*
X269715Y264302D01*
X269657Y264497D01*
X269598Y264731D01*
X269540Y264966D01*
X269481Y265239D01*
X269364Y265825D01*
X269286Y266450D01*
X269266Y267133D01*
Y267153D01*
Y267231D01*
Y267329D01*
X269286Y267465D01*
Y267641D01*
X269305Y267856D01*
X269325Y268071D01*
X269364Y268325D01*
X269462Y268872D01*
X269579Y269458D01*
X269774Y270063D01*
X270028Y270629D01*
Y270649D01*
X270067Y270688D01*
X270106Y270766D01*
X270165Y270883D01*
X270243Y271000D01*
X270340Y271137D01*
X270594Y271469D01*
X270887Y271840D01*
X271258Y272211D01*
X271708Y272582D01*
X272196Y272895D01*
X272215D01*
X272254Y272934D01*
X272333Y272973D01*
X272450Y273012D01*
X272567Y273071D01*
X272723Y273149D01*
X272918Y273207D01*
X273114Y273285D01*
X273328Y273363D01*
X273563Y273422D01*
X274090Y273559D01*
X274676Y273637D01*
X275301Y273676D01*
X275496D01*
X275633Y273656D01*
D02*
G37*
G36*
X255023Y244570D02*
X256761D01*
Y243125D01*
X255023D01*
Y240059D01*
X253441D01*
Y243125D01*
X247875D01*
Y244570D01*
X253734Y252871D01*
X255023D01*
Y244570D01*
D02*
G37*
G36*
X229093Y260630D02*
X227355D01*
X220617Y270707D01*
Y260630D01*
X218996D01*
Y273461D01*
X220715D01*
X227472Y263384D01*
Y273461D01*
X229093D01*
Y260630D01*
D02*
G37*
G36*
X472774Y233243D02*
X472781Y233236D01*
X472795Y233222D01*
X472816Y233202D01*
X472850Y233167D01*
X472926Y233091D01*
X473023Y232981D01*
X473126Y232863D01*
X473237Y232739D01*
X473333Y232615D01*
X473416Y232505D01*
X473423Y232498D01*
X473430Y232491D01*
X473457Y232435D01*
X473506Y232360D01*
X473561Y232263D01*
X473623Y232146D01*
X473678Y232021D01*
X473727Y231876D01*
X473761Y231732D01*
Y231718D01*
X473775Y231663D01*
X473782Y231587D01*
Y231490D01*
X473775Y231373D01*
X473761Y231235D01*
X473740Y231090D01*
X473692Y230931D01*
X473685Y230910D01*
X473665Y230862D01*
X473630Y230786D01*
X473582Y230682D01*
X473520Y230565D01*
X473437Y230441D01*
X473333Y230310D01*
X473216Y230179D01*
X473209Y230172D01*
X473188Y230151D01*
X473161Y230123D01*
X473112Y230089D01*
X473057Y230048D01*
X472988Y229992D01*
X472919Y229937D01*
X472829Y229889D01*
X472629Y229772D01*
X472402Y229682D01*
X472277Y229640D01*
X472146Y229606D01*
X472008Y229578D01*
X471863Y229571D01*
X471849D01*
X471829Y229578D01*
X471732D01*
X471656Y229599D01*
X471573Y229613D01*
X471477Y229640D01*
X471366Y229682D01*
X471242Y229723D01*
X471111Y229785D01*
X470966Y229861D01*
X470821Y229951D01*
X470655Y230061D01*
X470490Y230186D01*
X470324Y230338D01*
X470145Y230503D01*
X468985Y231663D01*
X467136Y229813D01*
X466535Y230413D01*
X471070Y234948D01*
X472774Y233243D01*
D02*
G37*
G36*
X269779Y377144D02*
X269574Y377427D01*
X268462D01*
X268423Y377417D01*
X268364Y377407D01*
X268296Y377378D01*
X268218Y377339D01*
X268149Y377280D01*
X268101Y377192D01*
X268071Y377075D01*
Y374909D01*
Y374899D01*
X268081Y374860D01*
X268101Y374801D01*
X268130Y374743D01*
X268179Y374674D01*
X268247Y374606D01*
X268335Y374547D01*
X268452Y374508D01*
X268471D01*
X268520Y374489D01*
X268608Y374479D01*
X268725Y374460D01*
X268881Y374440D01*
X269076Y374421D01*
X269301Y374401D01*
X269438Y374391D01*
X269574Y374381D01*
Y374245D01*
X269506D01*
X269457Y374235D01*
X269340D01*
X269184Y374225D01*
X269018Y374216D01*
X268842Y374196D01*
X268686Y374186D01*
X268549Y374167D01*
X268540D01*
X268501Y374157D01*
X268452Y374128D01*
X268384Y374098D01*
X268315Y374050D01*
X268257Y373981D01*
X268208Y373903D01*
X268169Y373796D01*
X268159D01*
X268149Y373806D01*
X268091Y373845D01*
X268003Y373903D01*
X267915Y373991D01*
X267817Y374098D01*
X267730Y374235D01*
X267671Y374401D01*
X267661Y374499D01*
X267652Y374596D01*
Y377222D01*
Y377231D01*
Y377251D01*
Y377290D01*
X267661Y377339D01*
X267691Y377456D01*
X267739Y377592D01*
X267778Y377661D01*
X267817Y377729D01*
X267876Y377788D01*
X267944Y377836D01*
X268022Y377876D01*
X268120Y377905D01*
X268227Y377915D01*
X269115D01*
X269428Y377924D01*
X269730Y377934D01*
X269877D01*
X270004Y377944D01*
X270111D01*
X270199Y377954D01*
X269779Y377144D01*
D02*
G37*
G36*
X273283Y377983D02*
Y375816D01*
X273293Y375806D01*
X273332Y375787D01*
X273400Y375758D01*
X273478Y375719D01*
X273576Y375660D01*
X273703Y375602D01*
X273830Y375543D01*
X273986Y375465D01*
X274142Y375396D01*
X274308Y375319D01*
X274669Y375172D01*
X275050Y375026D01*
X275420Y374909D01*
X274893Y374177D01*
X274786Y374528D01*
X274776Y374538D01*
X274747Y374557D01*
X274708Y374587D01*
X274649Y374625D01*
X274571Y374684D01*
X274483Y374743D01*
X274386Y374811D01*
X274288Y374889D01*
X274054Y375055D01*
X273800Y375240D01*
X273537Y375426D01*
X273283Y375611D01*
Y374216D01*
X273634Y373962D01*
X273215Y373406D01*
X272971Y373689D01*
X272209D01*
X272024Y373679D01*
X271438D01*
X271253Y373669D01*
X271077D01*
X270921Y373659D01*
X270775D01*
X270658Y373650D01*
X270443Y374177D01*
X270833D01*
Y377983D01*
X270550D01*
X270375Y378510D01*
X270462D01*
X270521Y378500D01*
X270784D01*
X270892Y378490D01*
X271146D01*
X271419Y378481D01*
X272512D01*
X272746Y378490D01*
X273010D01*
X273283Y378500D01*
X273566Y378510D01*
X273283Y377983D01*
D02*
G37*
G36*
X275245Y377778D02*
Y377768D01*
X275225Y377749D01*
X275216Y377729D01*
X275186Y377690D01*
X275118Y377583D01*
X275030Y377466D01*
X274933Y377329D01*
X274825Y377192D01*
X274708Y377056D01*
X274591Y376939D01*
X274581Y376929D01*
X274542Y376900D01*
X274483Y376851D01*
X274405Y376802D01*
X274318Y376763D01*
X274220Y376734D01*
X274122Y376724D01*
X274015Y376734D01*
X274005D01*
X273966Y376743D01*
X273927Y376763D01*
X273869Y376782D01*
X273742Y376851D01*
X273683Y376890D01*
X273634Y376939D01*
Y376948D01*
X273615Y376958D01*
X273586Y377007D01*
X273547Y377065D01*
X273537Y377095D01*
X273527Y377114D01*
X273537Y377134D01*
X273547Y377153D01*
X273576Y377173D01*
X273625Y377202D01*
X273683Y377231D01*
X273781Y377261D01*
X273908Y377290D01*
X273917D01*
X273927Y377300D01*
X273956D01*
X273995Y377309D01*
X274044Y377329D01*
X274103Y377348D01*
X274249Y377407D01*
X274435Y377485D01*
X274649Y377583D01*
X274893Y377719D01*
X275167Y377885D01*
X275245Y377778D01*
D02*
G37*
G36*
X243930Y239844D02*
X242680D01*
X246391Y253105D01*
X247640D01*
X243930Y239844D01*
D02*
G37*
G36*
X270687Y376831D02*
Y376821D01*
X270667Y376792D01*
X270648Y376753D01*
X270619Y376695D01*
X270580Y376626D01*
X270540Y376548D01*
X270453Y376382D01*
X270345Y376197D01*
X270238Y376021D01*
X270140Y375865D01*
X270092Y375797D01*
X270053Y375748D01*
X270043Y375738D01*
X270013Y375709D01*
X269974Y375670D01*
X269926Y375621D01*
X269867Y375582D01*
X269789Y375543D01*
X269721Y375514D01*
X269643Y375504D01*
X269613D01*
X269574Y375514D01*
X269535D01*
X269408Y375553D01*
X269340Y375572D01*
X269272Y375611D01*
X269262D01*
X269242Y375631D01*
X269184Y375670D01*
X269115Y375728D01*
X269096Y375758D01*
X269086Y375787D01*
X269096Y375806D01*
X269106Y375826D01*
X269125Y375855D01*
X269164Y375885D01*
X269223Y375933D01*
X269291Y375982D01*
X269399Y376031D01*
X269408D01*
X269418Y376041D01*
X269447Y376050D01*
X269486Y376070D01*
X269535Y376099D01*
X269594Y376129D01*
X269730Y376216D01*
X269906Y376333D01*
X270101Y376480D01*
X270209Y376577D01*
X270326Y376675D01*
X270453Y376782D01*
X270580Y376900D01*
X270687Y376831D01*
D02*
G37*
G36*
X218092Y252929D02*
X218326Y252890D01*
X218599Y252851D01*
X218912Y252773D01*
X219224Y252656D01*
X219517Y252519D01*
X219556Y252500D01*
X219654Y252441D01*
X219791Y252343D01*
X219986Y252226D01*
X220181Y252050D01*
X220396Y251836D01*
X220611Y251601D01*
X220806Y251328D01*
X220826Y251289D01*
X220884Y251191D01*
X220982Y251015D01*
X221099Y250801D01*
X221216Y250527D01*
X221353Y250195D01*
X221490Y249824D01*
X221607Y249414D01*
Y249394D01*
X221626Y249355D01*
Y249297D01*
X221646Y249199D01*
X221685Y249101D01*
X221705Y248965D01*
X221724Y248789D01*
X221763Y248613D01*
X221783Y248398D01*
X221802Y248183D01*
X221841Y247930D01*
X221861Y247656D01*
X221880Y247363D01*
Y247070D01*
X221900Y246387D01*
Y246367D01*
Y246289D01*
Y246172D01*
Y246016D01*
X221880Y245820D01*
Y245606D01*
X221861Y245352D01*
X221841Y245078D01*
X221783Y244492D01*
X221705Y243887D01*
X221587Y243282D01*
X221509Y243008D01*
X221431Y242735D01*
Y242715D01*
X221412Y242676D01*
X221392Y242598D01*
X221353Y242500D01*
X221294Y242383D01*
X221236Y242266D01*
X221080Y241953D01*
X220884Y241602D01*
X220650Y241250D01*
X220377Y240899D01*
X220045Y240586D01*
X220025D01*
X220005Y240547D01*
X219947Y240528D01*
X219888Y240469D01*
X219673Y240352D01*
X219420Y240215D01*
X219068Y240079D01*
X218677Y239961D01*
X218228Y239883D01*
X217721Y239844D01*
X217545D01*
X217408Y239864D01*
X217252Y239883D01*
X217076Y239922D01*
X216881Y239961D01*
X216666Y240001D01*
X216197Y240157D01*
X215943Y240274D01*
X215709Y240391D01*
X215455Y240547D01*
X215221Y240723D01*
X215006Y240918D01*
X214791Y241153D01*
X214772Y241172D01*
X214733Y241231D01*
X214674Y241329D01*
X214596Y241465D01*
X214498Y241641D01*
X214400Y241856D01*
X214283Y242110D01*
X214166Y242422D01*
X214049Y242754D01*
X213932Y243145D01*
X213834Y243575D01*
X213736Y244043D01*
X213658Y244570D01*
X213600Y245117D01*
X213561Y245742D01*
X213541Y246387D01*
Y246406D01*
Y246484D01*
Y246602D01*
Y246758D01*
X213561Y246953D01*
Y247168D01*
X213580Y247422D01*
X213600Y247695D01*
X213658Y248281D01*
X213736Y248887D01*
X213834Y249492D01*
X213912Y249765D01*
X213990Y250039D01*
Y250058D01*
X214010Y250097D01*
X214049Y250176D01*
X214088Y250273D01*
X214127Y250390D01*
X214186Y250527D01*
X214342Y250840D01*
X214537Y251191D01*
X214772Y251543D01*
X215045Y251875D01*
X215377Y252187D01*
X215396D01*
X215416Y252226D01*
X215475Y252265D01*
X215553Y252304D01*
X215748Y252421D01*
X216021Y252578D01*
X216353Y252714D01*
X216764Y252832D01*
X217213Y252910D01*
X217721Y252949D01*
X217896D01*
X218092Y252929D01*
D02*
G37*
G36*
X271526Y399006D02*
X271614D01*
X271721Y398996D01*
X271829Y398987D01*
X271956Y398967D01*
X272229Y398918D01*
X272522Y398860D01*
X272824Y398762D01*
X273107Y398635D01*
X273117D01*
X273137Y398616D01*
X273176Y398596D01*
X273234Y398567D01*
X273293Y398528D01*
X273361Y398479D01*
X273527Y398352D01*
X273712Y398206D01*
X273898Y398020D01*
X274083Y397796D01*
X274239Y397552D01*
Y397542D01*
X274259Y397522D01*
X274279Y397483D01*
X274298Y397425D01*
X274327Y397366D01*
X274366Y397288D01*
X274396Y397191D01*
X274435Y397093D01*
X274474Y396986D01*
X274503Y396869D01*
X274571Y396605D01*
X274610Y396312D01*
X274630Y396000D01*
Y395990D01*
Y395961D01*
Y395902D01*
X274620Y395834D01*
X274610Y395756D01*
X274601Y395658D01*
X274591Y395551D01*
X274571Y395434D01*
X274513Y395180D01*
X274425Y394907D01*
X274366Y394770D01*
X274298Y394634D01*
X274220Y394507D01*
X274132Y394380D01*
X274122Y394370D01*
X274113Y394351D01*
X274083Y394321D01*
X274044Y394272D01*
X273995Y394224D01*
X273927Y394155D01*
X273859Y394087D01*
X273781Y394019D01*
X273683Y393940D01*
X273586Y393872D01*
X273468Y393794D01*
X273342Y393716D01*
X273215Y393648D01*
X273068Y393579D01*
X272756Y393462D01*
X272561Y394302D01*
X272571D01*
X272590Y394311D01*
X272629Y394321D01*
X272678Y394341D01*
X272737Y394370D01*
X272805Y394399D01*
X272951Y394468D01*
X273117Y394555D01*
X273293Y394673D01*
X273449Y394799D01*
X273586Y394956D01*
X273595Y394975D01*
X273634Y395034D01*
X273683Y395122D01*
X273751Y395248D01*
X273810Y395395D01*
X273859Y395580D01*
X273898Y395785D01*
X273908Y396019D01*
Y396029D01*
Y396049D01*
Y396088D01*
X273898Y396136D01*
Y396205D01*
X273888Y396273D01*
X273859Y396449D01*
X273820Y396644D01*
X273751Y396849D01*
X273664Y397054D01*
X273547Y397249D01*
Y397259D01*
X273527Y397269D01*
X273478Y397327D01*
X273400Y397415D01*
X273293Y397522D01*
X273156Y397630D01*
X273000Y397747D01*
X272805Y397854D01*
X272590Y397942D01*
X272580D01*
X272561Y397952D01*
X272532Y397962D01*
X272483Y397971D01*
X272434Y397991D01*
X272366Y398001D01*
X272209Y398040D01*
X272024Y398079D01*
X271819Y398108D01*
X271595Y398128D01*
X271360Y398137D01*
X271224D01*
X271155Y398128D01*
X271068D01*
X270980Y398118D01*
X270882Y398108D01*
X270658Y398079D01*
X270414Y398040D01*
X270170Y397981D01*
X269935Y397903D01*
X269926D01*
X269906Y397893D01*
X269877Y397874D01*
X269838Y397854D01*
X269721Y397806D01*
X269594Y397727D01*
X269438Y397620D01*
X269291Y397493D01*
X269145Y397347D01*
X269018Y397171D01*
Y397161D01*
X269008Y397152D01*
X268989Y397122D01*
X268969Y397083D01*
X268930Y396976D01*
X268871Y396839D01*
X268823Y396683D01*
X268774Y396498D01*
X268735Y396293D01*
X268725Y396078D01*
Y396068D01*
Y396049D01*
Y396010D01*
X268735Y395961D01*
Y395902D01*
X268745Y395824D01*
X268774Y395658D01*
X268823Y395473D01*
X268901Y395268D01*
X268998Y395073D01*
X269135Y394878D01*
X269145Y394868D01*
X269155Y394858D01*
X269213Y394799D01*
X269311Y394712D01*
X269438Y394604D01*
X269613Y394497D01*
X269818Y394380D01*
X270072Y394282D01*
X270355Y394204D01*
X270140Y393355D01*
X270131D01*
X270092Y393365D01*
X270043Y393384D01*
X269965Y393404D01*
X269887Y393443D01*
X269779Y393482D01*
X269672Y393521D01*
X269555Y393579D01*
X269291Y393706D01*
X269028Y393882D01*
X268774Y394077D01*
X268657Y394194D01*
X268549Y394321D01*
X268540Y394331D01*
X268530Y394351D01*
X268501Y394390D01*
X268462Y394448D01*
X268423Y394516D01*
X268374Y394595D01*
X268325Y394682D01*
X268276Y394790D01*
X268227Y394907D01*
X268179Y395034D01*
X268130Y395180D01*
X268091Y395326D01*
X268022Y395649D01*
X268013Y395824D01*
X268003Y396010D01*
Y396019D01*
Y396059D01*
Y396107D01*
X268013Y396185D01*
Y396273D01*
X268022Y396371D01*
X268042Y396488D01*
X268052Y396605D01*
X268110Y396878D01*
X268179Y397161D01*
X268286Y397435D01*
X268344Y397571D01*
X268423Y397698D01*
X268432Y397708D01*
X268442Y397727D01*
X268471Y397757D01*
X268501Y397806D01*
X268598Y397923D01*
X268735Y398059D01*
X268901Y398225D01*
X269115Y398381D01*
X269359Y398547D01*
X269643Y398684D01*
X269652D01*
X269682Y398694D01*
X269721Y398713D01*
X269779Y398733D01*
X269857Y398762D01*
X269945Y398791D01*
X270043Y398821D01*
X270160Y398850D01*
X270277Y398879D01*
X270414Y398908D01*
X270706Y398967D01*
X271019Y399006D01*
X271360Y399016D01*
X271458D01*
X271526Y399006D01*
D02*
G37*
G36*
X274523Y390564D02*
Y389636D01*
X268110Y387031D01*
Y387987D01*
X270053Y388729D01*
Y391423D01*
X268110Y392115D01*
Y393013D01*
X274523Y390564D01*
D02*
G37*
G36*
X268384Y379974D02*
X268413Y379964D01*
X268462Y379945D01*
X268510Y379906D01*
X268588Y379847D01*
X268667Y379769D01*
X268764Y379662D01*
Y379652D01*
X268784Y379642D01*
X268832Y379593D01*
X268920Y379515D01*
X269037Y379418D01*
X269203Y379310D01*
X269291Y379252D01*
X269399Y379193D01*
X269516Y379135D01*
X269633Y379076D01*
X269769Y379017D01*
X269916Y378969D01*
Y378822D01*
X269867D01*
X269818Y378832D01*
X269740D01*
X269662Y378842D01*
X269555Y378852D01*
X269340Y378881D01*
X269106Y378910D01*
X268871Y378949D01*
X268764Y378978D01*
X268676Y378998D01*
X268588Y379027D01*
X268520Y379057D01*
X268510Y379066D01*
X268471Y379086D01*
X268423Y379115D01*
X268354Y379164D01*
X268296Y379222D01*
X268237Y379301D01*
X268188Y379379D01*
X268159Y379476D01*
Y379486D01*
X268149Y379515D01*
Y379564D01*
Y379623D01*
Y379749D01*
X268169Y379818D01*
X268188Y379867D01*
X268208Y379886D01*
X268247Y379925D01*
X268296Y379964D01*
X268325Y379974D01*
X268354Y379984D01*
X268364D01*
X268384Y379974D01*
D02*
G37*
G36*
X274523Y385488D02*
X269486Y382111D01*
X274523D01*
Y381301D01*
X268110D01*
Y382170D01*
X273146Y385537D01*
X268110D01*
Y386347D01*
X274523D01*
Y385488D01*
D02*
G37*
G36*
X467873Y376575D02*
X466134D01*
X459397Y386652D01*
Y376575D01*
X457776D01*
Y389406D01*
X459494D01*
X466252Y379328D01*
Y389406D01*
X467873D01*
Y376575D01*
D02*
G37*
G36*
X258870Y239844D02*
X257620D01*
X261331Y253105D01*
X262581D01*
X258870Y239844D01*
D02*
G37*
G36*
X492383Y387902D02*
X485430D01*
Y383898D01*
X491445D01*
Y382395D01*
X485430D01*
Y376575D01*
X483731D01*
Y389406D01*
X492383D01*
Y387902D01*
D02*
G37*
G36*
X208131Y252929D02*
X208288Y252910D01*
X208463Y252890D01*
X208659Y252871D01*
X208874Y252812D01*
X209342Y252695D01*
X209830Y252519D01*
X210084Y252402D01*
X210319Y252265D01*
X210533Y252090D01*
X210748Y251914D01*
X210768Y251894D01*
X210787Y251875D01*
X210846Y251816D01*
X210924Y251738D01*
X211002Y251621D01*
X211100Y251504D01*
X211295Y251211D01*
X211491Y250840D01*
X211666Y250410D01*
X211803Y249922D01*
X211823Y249648D01*
X211842Y249375D01*
Y249336D01*
Y249238D01*
X211823Y249082D01*
X211803Y248887D01*
X211764Y248652D01*
X211705Y248398D01*
X211627Y248125D01*
X211510Y247851D01*
X211491Y247813D01*
X211451Y247715D01*
X211373Y247578D01*
X211256Y247383D01*
X211119Y247148D01*
X210944Y246875D01*
X210709Y246602D01*
X210455Y246289D01*
X210416Y246250D01*
X210319Y246133D01*
X210143Y245957D01*
X210026Y245840D01*
X209889Y245703D01*
X209733Y245547D01*
X209538Y245371D01*
X209342Y245195D01*
X209127Y244981D01*
X208893Y244766D01*
X208620Y244531D01*
X208346Y244297D01*
X208034Y244024D01*
X208014Y244004D01*
X207975Y243965D01*
X207897Y243906D01*
X207799Y243828D01*
X207565Y243633D01*
X207272Y243379D01*
X206979Y243106D01*
X206667Y242832D01*
X206413Y242598D01*
X206315Y242500D01*
X206217Y242403D01*
X206198Y242383D01*
X206159Y242324D01*
X206081Y242246D01*
X205983Y242129D01*
X205768Y241875D01*
X205553Y241563D01*
X211861D01*
Y240059D01*
X203366D01*
Y240079D01*
Y240157D01*
Y240274D01*
X203385Y240411D01*
X203405Y240567D01*
X203425Y240743D01*
X203483Y240938D01*
X203542Y241133D01*
Y241153D01*
X203561Y241172D01*
X203600Y241289D01*
X203678Y241446D01*
X203796Y241680D01*
X203932Y241934D01*
X204128Y242227D01*
X204323Y242520D01*
X204577Y242832D01*
Y242852D01*
X204616Y242871D01*
X204714Y242989D01*
X204870Y243164D01*
X205104Y243399D01*
X205397Y243672D01*
X205749Y244004D01*
X206178Y244375D01*
X206647Y244785D01*
X206667Y244805D01*
X206745Y244863D01*
X206842Y244942D01*
X206979Y245078D01*
X207155Y245215D01*
X207350Y245391D01*
X207780Y245762D01*
X208248Y246211D01*
X208717Y246660D01*
X208952Y246875D01*
X209147Y247090D01*
X209323Y247305D01*
X209479Y247500D01*
Y247519D01*
X209518Y247539D01*
X209557Y247598D01*
X209596Y247676D01*
X209713Y247871D01*
X209850Y248125D01*
X209987Y248418D01*
X210104Y248730D01*
X210182Y249082D01*
X210221Y249414D01*
Y249433D01*
Y249453D01*
X210202Y249570D01*
X210182Y249746D01*
X210143Y249961D01*
X210045Y250215D01*
X209928Y250469D01*
X209772Y250742D01*
X209538Y250996D01*
X209498Y251015D01*
X209420Y251094D01*
X209264Y251191D01*
X209069Y251328D01*
X208815Y251445D01*
X208522Y251543D01*
X208170Y251621D01*
X207780Y251640D01*
X207663D01*
X207585Y251621D01*
X207389Y251601D01*
X207135Y251562D01*
X206842Y251465D01*
X206530Y251347D01*
X206237Y251172D01*
X205963Y250937D01*
X205944Y250898D01*
X205866Y250820D01*
X205749Y250664D01*
X205631Y250449D01*
X205495Y250176D01*
X205397Y249863D01*
X205319Y249492D01*
X205280Y249062D01*
X203659Y249238D01*
Y249258D01*
Y249316D01*
X203678Y249414D01*
X203698Y249531D01*
X203737Y249687D01*
X203757Y249863D01*
X203874Y250254D01*
X204030Y250703D01*
X204245Y251152D01*
X204538Y251601D01*
X204694Y251797D01*
X204889Y251992D01*
X204909Y252011D01*
X204948Y252031D01*
X205007Y252090D01*
X205085Y252148D01*
X205202Y252207D01*
X205339Y252304D01*
X205495Y252382D01*
X205670Y252480D01*
X205866Y252558D01*
X206081Y252656D01*
X206334Y252734D01*
X206588Y252793D01*
X207174Y252910D01*
X207487Y252929D01*
X207819Y252949D01*
X207995D01*
X208131Y252929D01*
D02*
G37*
G36*
X476856Y389387D02*
X477013D01*
X477403Y389367D01*
X477813Y389328D01*
X478243Y389250D01*
X478653Y389172D01*
X478849Y389113D01*
X479024Y389054D01*
X479044D01*
X479063Y389035D01*
X479180Y388996D01*
X479337Y388898D01*
X479532Y388761D01*
X479766Y388605D01*
X480001Y388390D01*
X480235Y388137D01*
X480450Y387824D01*
X480469Y387785D01*
X480528Y387668D01*
X480626Y387492D01*
X480723Y387258D01*
X480821Y386965D01*
X480919Y386633D01*
X480977Y386281D01*
X480997Y385891D01*
Y385871D01*
Y385832D01*
Y385754D01*
X480977Y385656D01*
Y385539D01*
X480958Y385402D01*
X480880Y385090D01*
X480782Y384719D01*
X480626Y384348D01*
X480391Y383957D01*
X480255Y383762D01*
X480098Y383586D01*
X480059Y383547D01*
X480001Y383508D01*
X479942Y383430D01*
X479845Y383371D01*
X479727Y383274D01*
X479591Y383195D01*
X479434Y383098D01*
X479259Y383000D01*
X479044Y382903D01*
X478829Y382805D01*
X478575Y382707D01*
X478321Y382610D01*
X478028Y382531D01*
X477716Y382473D01*
X477384Y382414D01*
X477423Y382395D01*
X477501Y382356D01*
X477618Y382297D01*
X477755Y382219D01*
X478087Y382004D01*
X478263Y381887D01*
X478399Y381770D01*
X478438Y381731D01*
X478536Y381653D01*
X478673Y381496D01*
X478849Y381301D01*
X479063Y381047D01*
X479298Y380754D01*
X479552Y380422D01*
X479805Y380051D01*
X482032Y376575D01*
X479903D01*
X478204Y379231D01*
Y379250D01*
X478165Y379290D01*
X478126Y379348D01*
X478087Y379426D01*
X477950Y379622D01*
X477774Y379875D01*
X477579Y380168D01*
X477364Y380461D01*
X477169Y380735D01*
X476974Y380989D01*
X476954Y381008D01*
X476896Y381086D01*
X476798Y381203D01*
X476700Y381340D01*
X476407Y381613D01*
X476270Y381750D01*
X476114Y381848D01*
X476095Y381867D01*
X476056Y381887D01*
X475978Y381926D01*
X475880Y381985D01*
X475645Y382102D01*
X475353Y382199D01*
X475333D01*
X475294Y382219D01*
X475216D01*
X475118Y382239D01*
X474981Y382258D01*
X474825D01*
X474630Y382278D01*
X472443D01*
Y376575D01*
X470744D01*
Y389406D01*
X476700D01*
X476856Y389387D01*
D02*
G37*
G36*
X272414Y371102D02*
X272434Y371053D01*
X272473Y370975D01*
X272512Y370926D01*
X272551Y370868D01*
X272610Y370809D01*
X272678Y370741D01*
X272756Y370663D01*
X272854Y370585D01*
X272961Y370507D01*
X273088Y370419D01*
X273234Y370331D01*
X273400Y370233D01*
X273410Y370224D01*
X273439Y370214D01*
X273488Y370185D01*
X273556Y370146D01*
X273644Y370107D01*
X273742Y370058D01*
X273859Y370009D01*
X273986Y369951D01*
X274122Y369892D01*
X274269Y369824D01*
X274591Y369707D01*
X274942Y369580D01*
X275303Y369482D01*
X274854Y368779D01*
X274845Y368789D01*
X274825Y368828D01*
X274786Y368887D01*
X274728Y368955D01*
X274640Y369053D01*
X274513Y369150D01*
X274435Y369199D01*
X274357Y369257D01*
X274259Y369316D01*
X274152Y369375D01*
X274142D01*
X274122Y369394D01*
X274083Y369404D01*
X274035Y369433D01*
X273976Y369472D01*
X273898Y369521D01*
X273800Y369570D01*
X273693Y369638D01*
X273576Y369707D01*
X273439Y369794D01*
X273303Y369882D01*
X273137Y369989D01*
X272971Y370107D01*
X272785Y370233D01*
X272590Y370370D01*
X272375Y370526D01*
X272512Y369101D01*
X272522Y369092D01*
X272541Y369082D01*
X272580Y369062D01*
X272629Y369033D01*
X272697Y368994D01*
X272766Y368955D01*
X272854Y368906D01*
X272951Y368857D01*
X273156Y368750D01*
X273390Y368643D01*
X273644Y368535D01*
X273908Y368438D01*
X273449Y367803D01*
X273439Y367813D01*
X273410Y367852D01*
X273361Y367911D01*
X273322Y367950D01*
X273273Y367999D01*
X273215Y368057D01*
X273146Y368116D01*
X273059Y368184D01*
X272971Y368262D01*
X272863Y368340D01*
X272737Y368438D01*
X272600Y368535D01*
X272444Y368643D01*
X272434Y368652D01*
X272405Y368672D01*
X272356Y368701D01*
X272288Y368750D01*
X272200Y368809D01*
X272102Y368877D01*
X271985Y368965D01*
X271848Y369062D01*
X271702Y369160D01*
X271546Y369277D01*
X271370Y369404D01*
X271185Y369541D01*
X270989Y369687D01*
X270784Y369843D01*
X270345Y370185D01*
Y370175D01*
Y370155D01*
X270355Y370126D01*
X270365Y370077D01*
X270375Y370019D01*
X270384Y369941D01*
X270404Y369843D01*
X270423Y369726D01*
X270443Y369589D01*
X270472Y369433D01*
X270501Y369257D01*
X270531Y369062D01*
X270580Y368838D01*
X270619Y368594D01*
X270667Y368321D01*
X270726Y368018D01*
X270589D01*
Y368028D01*
X270580Y368057D01*
X270570Y368106D01*
X270550Y368174D01*
X270531Y368252D01*
X270501Y368340D01*
X270472Y368447D01*
X270443Y368555D01*
X270375Y368789D01*
X270306Y369033D01*
X270228Y369267D01*
X270150Y369482D01*
Y369492D01*
X270140Y369501D01*
X270131Y369531D01*
X270121Y369570D01*
X270072Y369677D01*
X270013Y369814D01*
X269935Y369970D01*
X269847Y370146D01*
X269740Y370331D01*
X269613Y370526D01*
X270345Y370946D01*
X270355Y370926D01*
X270375Y370878D01*
X270414Y370800D01*
X270482Y370692D01*
X270580Y370565D01*
X270638Y370487D01*
X270706Y370409D01*
X270784Y370331D01*
X270882Y370243D01*
X270980Y370155D01*
X271097Y370058D01*
X271107Y370048D01*
X271126Y370038D01*
X271165Y370009D01*
X271204Y369970D01*
X271263Y369931D01*
X271331Y369872D01*
X271497Y369755D01*
X271692Y369619D01*
X271907Y369472D01*
X272141Y369316D01*
X272375Y369170D01*
Y369189D01*
X272366Y369238D01*
X272346Y369316D01*
X272317Y369414D01*
X272288Y369531D01*
X272258Y369667D01*
X272219Y369814D01*
X272170Y369970D01*
X272161Y369989D01*
X272151Y370038D01*
X272122Y370116D01*
X272073Y370224D01*
X272014Y370341D01*
X271936Y370468D01*
X271848Y370604D01*
X271741Y370741D01*
X272405Y371122D01*
X272414Y371102D01*
D02*
G37*
G36*
X270023Y374001D02*
Y373991D01*
X270013Y373972D01*
X269994Y373933D01*
X269974Y373893D01*
X269955Y373835D01*
X269926Y373767D01*
X269857Y373620D01*
X269779Y373445D01*
X269682Y373269D01*
X269594Y373093D01*
X269496Y372937D01*
X269486Y372918D01*
X269457Y372869D01*
X269408Y372810D01*
X269340Y372732D01*
X269262Y372644D01*
X269184Y372566D01*
X269086Y372508D01*
X268989Y372469D01*
X268979D01*
X268950Y372459D01*
X268901Y372449D01*
X268764D01*
X268686Y372459D01*
X268598Y372478D01*
X268520Y372517D01*
X268510Y372527D01*
X268491Y372537D01*
X268423Y372586D01*
X268344Y372664D01*
X268325Y372703D01*
X268315Y372742D01*
Y372752D01*
X268325Y372761D01*
X268335Y372791D01*
X268364Y372830D01*
X268403Y372869D01*
X268462Y372918D01*
X268549Y372966D01*
X268667Y373025D01*
X268676D01*
X268686Y373035D01*
X268715Y373054D01*
X268754Y373074D01*
X268813Y373103D01*
X268871Y373142D01*
X269018Y373249D01*
X269106Y373308D01*
X269203Y373386D01*
X269301Y373474D01*
X269408Y373571D01*
X269525Y373679D01*
X269652Y373796D01*
X269779Y373923D01*
X269916Y374069D01*
X270023Y374001D01*
D02*
G37*
G36*
X268628Y371151D02*
X268637Y371122D01*
Y371063D01*
X268657Y370995D01*
X268667Y370917D01*
X268676Y370819D01*
X268696Y370712D01*
X268715Y370595D01*
X268754Y370351D01*
X268793Y370087D01*
X268832Y369824D01*
X268871Y369589D01*
Y369580D01*
X268881Y369560D01*
Y369521D01*
X268891Y369472D01*
X268901Y369414D01*
X268920Y369326D01*
X268940Y369238D01*
X268959Y369121D01*
X268989Y369004D01*
X269008Y368857D01*
X269047Y368701D01*
X269076Y368526D01*
X269115Y368340D01*
X269155Y368125D01*
X269203Y367911D01*
X269252Y367667D01*
X269115Y367628D01*
Y367647D01*
X269096Y367696D01*
X269076Y367774D01*
X269037Y367881D01*
X269008Y368018D01*
X268959Y368164D01*
X268911Y368330D01*
X268862Y368506D01*
X268745Y368877D01*
X268628Y369257D01*
X268569Y369443D01*
X268510Y369619D01*
X268452Y369775D01*
X268403Y369921D01*
Y369931D01*
X268393Y369951D01*
X268374Y369989D01*
X268364Y370038D01*
X268315Y370155D01*
X268247Y370302D01*
X268179Y370448D01*
X268110Y370595D01*
X268042Y370722D01*
X268003Y370770D01*
X267974Y370809D01*
X268628Y371161D01*
Y371151D01*
D02*
G37*
G36*
X274952Y365598D02*
Y365588D01*
X274942Y365549D01*
X274923Y365500D01*
X274903Y365422D01*
X274884Y365344D01*
X274854Y365246D01*
X274796Y365041D01*
X274718Y364836D01*
X274679Y364729D01*
X274640Y364641D01*
X274601Y364563D01*
X274562Y364495D01*
X274523Y364446D01*
X274483Y364417D01*
X274474Y364407D01*
X274454Y364397D01*
X274415Y364377D01*
X274376Y364358D01*
X274269Y364329D01*
X274210Y364309D01*
X274083D01*
X274044Y364319D01*
X273927Y364338D01*
X273800Y364377D01*
X273791D01*
X273771Y364387D01*
X273722Y364417D01*
X273664Y364465D01*
X273644Y364485D01*
X273634Y364514D01*
Y364524D01*
X273654Y364543D01*
X273673Y364573D01*
X273703Y364602D01*
X273751Y364641D01*
X273820Y364680D01*
X273908Y364729D01*
X273927Y364739D01*
X273976Y364778D01*
X274064Y364836D01*
X274171Y364934D01*
X274308Y365061D01*
X274474Y365217D01*
X274649Y365402D01*
X274757Y365519D01*
X274854Y365636D01*
X274952Y365598D01*
D02*
G37*
G36*
X267778Y368799D02*
X267798Y368750D01*
X267827Y368672D01*
X267866Y368565D01*
X267925Y368438D01*
X267993Y368282D01*
X268071Y368106D01*
X268169Y367920D01*
X268266Y367715D01*
X268384Y367501D01*
X268510Y367276D01*
X268637Y367052D01*
X268793Y366817D01*
X268950Y366583D01*
X269115Y366349D01*
X269291Y366125D01*
X269301D01*
X269330Y366134D01*
X269389Y366154D01*
X269457Y366173D01*
X269545Y366203D01*
X269652Y366232D01*
X269769Y366261D01*
X269896Y366290D01*
X270043Y366330D01*
X270199Y366369D01*
X270375Y366398D01*
X270550Y366437D01*
X270921Y366495D01*
X271321Y366544D01*
X271146Y367979D01*
X271009Y368262D01*
X271282Y368643D01*
X271497Y366583D01*
X271585D01*
X271634Y366593D01*
X271692D01*
X271770Y366603D01*
X271936D01*
X272034Y366613D01*
X272268Y366622D01*
X272522Y366642D01*
X272824Y366652D01*
X272756Y367667D01*
X272619Y367872D01*
X272893Y368184D01*
X273000Y366652D01*
X273215D01*
X273322Y366661D01*
X273449D01*
X273595Y366671D01*
X273947D01*
X274132Y366681D01*
X274337Y366691D01*
X274552D01*
X274991Y366710D01*
X275450Y366720D01*
X275059Y365920D01*
X274815Y366193D01*
X274318D01*
X274191Y366183D01*
X273751D01*
X273586Y366173D01*
X273410D01*
X273029Y366164D01*
X273176Y364661D01*
X273703Y364202D01*
X273068Y363499D01*
X272863Y366164D01*
X272668D01*
X272590Y366154D01*
X272512D01*
X272327Y366144D01*
X272102Y366134D01*
X271848Y366115D01*
X271565Y366095D01*
X271741Y364446D01*
X272268Y363997D01*
X271673Y363294D01*
X271390Y366056D01*
X271380D01*
X271341Y366047D01*
X271282D01*
X271214Y366037D01*
X271116Y366027D01*
X271019Y366007D01*
X270902Y365988D01*
X270775Y365968D01*
X270501Y365920D01*
X270209Y365861D01*
X269935Y365793D01*
X269809Y365744D01*
X269682Y365705D01*
X269691Y365695D01*
X269711Y365666D01*
X269750Y365627D01*
X269799Y365578D01*
X269867Y365510D01*
X269945Y365441D01*
X270033Y365353D01*
X270121Y365266D01*
X270345Y365071D01*
X270589Y364865D01*
X270863Y364670D01*
X271146Y364485D01*
X270521Y363850D01*
X270482Y364173D01*
X270472Y364182D01*
X270453Y364202D01*
X270423Y364241D01*
X270375Y364290D01*
X270316Y364348D01*
X270248Y364417D01*
X270092Y364582D01*
X269896Y364787D01*
X269691Y365012D01*
X269457Y365256D01*
X269223Y365500D01*
X269213Y365490D01*
X269184Y365471D01*
X269145Y365432D01*
X269086Y365383D01*
X269008Y365324D01*
X268930Y365256D01*
X268842Y365168D01*
X268745Y365080D01*
X268647Y364973D01*
X268549Y364865D01*
X268344Y364612D01*
X268159Y364329D01*
X268081Y364182D01*
X268013Y364026D01*
X269682Y363538D01*
X269643Y363402D01*
X269603D01*
X269565Y363411D01*
X269506D01*
X269438Y363421D01*
X269359D01*
X269174Y363440D01*
X268969Y363450D01*
X268745Y363470D01*
X268520Y363480D01*
X268315Y363489D01*
X268227D01*
X268140Y363480D01*
X268022Y363470D01*
X267886Y363460D01*
X267749Y363431D01*
X267613Y363392D01*
X267486Y363333D01*
X267476Y363323D01*
X267447Y363314D01*
X267407Y363304D01*
X267378Y363294D01*
X267369D01*
X267359Y363304D01*
X267339Y363314D01*
X267320Y363343D01*
X267300Y363382D01*
X267290Y363450D01*
Y363538D01*
X267300Y363665D01*
Y363685D01*
X267310Y363733D01*
X267339Y363811D01*
X267369Y363919D01*
X267427Y364065D01*
X267495Y364231D01*
X267593Y364426D01*
X267720Y364641D01*
Y364651D01*
X267739Y364670D01*
X267759Y364700D01*
X267788Y364748D01*
X267827Y364807D01*
X267876Y364865D01*
X268003Y365022D01*
X268159Y365217D01*
X268354Y365422D01*
X268471Y365529D01*
X268598Y365646D01*
X268725Y365763D01*
X268871Y365880D01*
Y365890D01*
X268852Y365910D01*
X268832Y365939D01*
X268803Y365988D01*
X268764Y366047D01*
X268725Y366115D01*
X268628Y366281D01*
X268520Y366476D01*
X268403Y366691D01*
X268286Y366915D01*
X268179Y367159D01*
Y367169D01*
X268169Y367188D01*
X268149Y367227D01*
X268130Y367276D01*
X268110Y367335D01*
X268081Y367413D01*
X268042Y367501D01*
X268013Y367598D01*
X267964Y367715D01*
X267925Y367832D01*
X267876Y367969D01*
X267837Y368116D01*
X267730Y368428D01*
X267632Y368779D01*
X267769Y368818D01*
X267778Y368799D01*
D02*
G37*
%LPC*%
G36*
X490518Y214492D02*
X489020Y212994D01*
X490304Y211711D01*
X490311Y211704D01*
X490324Y211690D01*
X490345Y211669D01*
X490373Y211642D01*
X490456Y211573D01*
X490552Y211490D01*
X490663Y211393D01*
X490787Y211297D01*
X490911Y211214D01*
X491028Y211152D01*
X491049Y211145D01*
X491084Y211124D01*
X491146Y211103D01*
X491222Y211083D01*
X491318Y211069D01*
X491429Y211055D01*
X491539D01*
X491649Y211069D01*
X491663D01*
X491705Y211083D01*
X491760Y211097D01*
X491836Y211131D01*
X491912Y211165D01*
X492001Y211214D01*
X492091Y211276D01*
X492181Y211352D01*
X492188Y211359D01*
X492195Y211366D01*
X492236Y211407D01*
X492277Y211476D01*
X492340Y211566D01*
X492395Y211676D01*
X492443Y211807D01*
X492471Y211959D01*
X492478Y212118D01*
X492471Y212139D01*
Y212194D01*
X492443Y212290D01*
X492402Y212401D01*
X492340Y212546D01*
X492243Y212698D01*
X492119Y212877D01*
X491946Y213063D01*
X490518Y214492D01*
D02*
G37*
G36*
X475300Y228950D02*
X475259D01*
X475210Y228943D01*
X475148Y228937D01*
X475066Y228923D01*
X474962Y228902D01*
X474852Y228874D01*
X474727Y228833D01*
X474589Y228778D01*
X474444Y228716D01*
X474286Y228640D01*
X474113Y228536D01*
X473941Y228419D01*
X473768Y228288D01*
X473582Y228129D01*
X473388Y227950D01*
X473382Y227943D01*
X473354Y227915D01*
X473313Y227874D01*
X473257Y227805D01*
X473195Y227729D01*
X473126Y227646D01*
X473050Y227542D01*
X472974Y227425D01*
X472816Y227170D01*
X472754Y227025D01*
X472684Y226873D01*
X472629Y226721D01*
X472581Y226562D01*
X472546Y226390D01*
X472533Y226224D01*
Y226210D01*
Y226183D01*
X472540Y226134D01*
Y226065D01*
X472546Y225990D01*
X472560Y225907D01*
X472574Y225796D01*
X472602Y225686D01*
X472636Y225569D01*
X472678Y225444D01*
X472726Y225313D01*
X472795Y225175D01*
X472864Y225037D01*
X472954Y224906D01*
X473050Y224782D01*
X473168Y224651D01*
X473174Y224644D01*
X473195Y224623D01*
X473230Y224589D01*
X473285Y224547D01*
X473354Y224492D01*
X473430Y224444D01*
X473520Y224382D01*
X473623Y224320D01*
X473851Y224202D01*
X473982Y224140D01*
X474120Y224099D01*
X474272Y224057D01*
X474424Y224030D01*
X474582Y224009D01*
X474789D01*
X474838Y224016D01*
X474907Y224030D01*
X474990Y224043D01*
X475086Y224071D01*
X475197Y224099D01*
X475314Y224133D01*
X475452Y224188D01*
X475590Y224244D01*
X475735Y224320D01*
X475894Y224409D01*
X476052Y224513D01*
X476211Y224630D01*
X476377Y224768D01*
X476542Y224920D01*
X476549Y224927D01*
X476570Y224948D01*
X476598Y224975D01*
X476632Y225010D01*
X476674Y225065D01*
X476736Y225127D01*
X476853Y225272D01*
X476970Y225444D01*
X477101Y225644D01*
X477219Y225858D01*
X477315Y226079D01*
X477322Y226086D01*
X477329Y226107D01*
X477336Y226141D01*
X477350Y226183D01*
X477384Y226300D01*
X477412Y226452D01*
X477440Y226631D01*
X477453Y226838D01*
X477447Y227052D01*
X477412Y227266D01*
X477405Y227273D01*
Y227287D01*
X477398Y227322D01*
X477384Y227363D01*
X477343Y227473D01*
X477295Y227618D01*
X477219Y227777D01*
X477115Y227950D01*
X476991Y228129D01*
X476832Y228302D01*
X476825Y228309D01*
X476805Y228329D01*
X476770Y228364D01*
X476722Y228398D01*
X476660Y228447D01*
X476584Y228509D01*
X476501Y228564D01*
X476404Y228619D01*
X476177Y228736D01*
X476052Y228792D01*
X475921Y228840D01*
X475776Y228888D01*
X475625Y228916D01*
X475466Y228937D01*
X475300Y228950D01*
D02*
G37*
G36*
X261200Y271957D02*
X258525D01*
Y262134D01*
X261454D01*
X261669Y262153D01*
X261962Y262173D01*
X262275Y262192D01*
X262607Y262231D01*
X262919Y262290D01*
X263212Y262368D01*
X263251Y262388D01*
X263329Y262407D01*
X263466Y262466D01*
X263622Y262544D01*
X263817Y262642D01*
X264013Y262739D01*
X264189Y262876D01*
X264364Y263032D01*
X264384Y263052D01*
X264462Y263149D01*
X264579Y263286D01*
X264716Y263462D01*
X264852Y263696D01*
X265009Y263969D01*
X265165Y264302D01*
X265302Y264653D01*
Y264673D01*
X265321Y264692D01*
X265341Y264751D01*
X265360Y264829D01*
X265380Y264927D01*
X265419Y265044D01*
X265477Y265337D01*
X265536Y265708D01*
X265595Y266137D01*
X265634Y266606D01*
X265653Y267133D01*
Y267153D01*
Y267231D01*
Y267329D01*
Y267465D01*
X265634Y267641D01*
X265614Y267836D01*
X265595Y268051D01*
X265575Y268266D01*
X265497Y268774D01*
X265380Y269282D01*
X265204Y269770D01*
X265106Y270004D01*
X264989Y270219D01*
Y270239D01*
X264950Y270258D01*
X264931Y270317D01*
X264872Y270395D01*
X264735Y270590D01*
X264540Y270805D01*
X264306Y271059D01*
X264032Y271293D01*
X263720Y271508D01*
X263388Y271684D01*
X263349Y271703D01*
X263251Y271723D01*
X263095Y271762D01*
X262860Y271821D01*
X262548Y271879D01*
X262177Y271918D01*
X261728Y271938D01*
X261200Y271957D01*
D02*
G37*
G36*
X278342Y250312D02*
X274319Y244570D01*
X278342D01*
Y250312D01*
D02*
G37*
G36*
X253441D02*
X249418Y244570D01*
X253441D01*
Y250312D01*
D02*
G37*
G36*
X471139Y233816D02*
X469517Y232194D01*
X470683Y231028D01*
X470690Y231021D01*
X470711Y231000D01*
X470738Y230972D01*
X470787Y230938D01*
X470835Y230890D01*
X470890Y230848D01*
X471028Y230738D01*
X471194Y230627D01*
X471366Y230524D01*
X471546Y230455D01*
X471635Y230434D01*
X471718Y230420D01*
X471739Y230413D01*
X471801Y230420D01*
X471884Y230434D01*
X472001Y230455D01*
X472132Y230489D01*
X472270Y230558D01*
X472422Y230655D01*
X472574Y230779D01*
X472588Y230793D01*
X472622Y230827D01*
X472671Y230890D01*
X472726Y230972D01*
X472788Y231062D01*
X472843Y231172D01*
X472892Y231290D01*
X472919Y231414D01*
Y231428D01*
X472926Y231476D01*
X472933Y231538D01*
X472926Y231628D01*
X472912Y231725D01*
X472898Y231835D01*
X472857Y231945D01*
X472809Y232063D01*
X472802Y232070D01*
X472788Y232097D01*
X472754Y232146D01*
X472705Y232208D01*
X472636Y232291D01*
X472546Y232394D01*
X472429Y232525D01*
X472291Y232663D01*
X471139Y233816D01*
D02*
G37*
G36*
X273078Y377983D02*
X271038D01*
Y374177D01*
X273078D01*
Y377983D01*
D02*
G37*
G36*
X217701Y251640D02*
X217603D01*
X217525Y251621D01*
X217330Y251601D01*
X217076Y251523D01*
X216803Y251406D01*
X216510Y251250D01*
X216217Y251015D01*
X216080Y250859D01*
X215963Y250703D01*
Y250683D01*
X215924Y250644D01*
X215885Y250566D01*
X215846Y250469D01*
X215787Y250332D01*
X215709Y250176D01*
X215631Y249961D01*
X215572Y249726D01*
X215494Y249453D01*
X215416Y249141D01*
X215357Y248789D01*
X215279Y248379D01*
X215240Y247949D01*
X215201Y247481D01*
X215162Y246953D01*
Y246387D01*
Y246348D01*
Y246250D01*
Y246094D01*
X215182Y245879D01*
Y245625D01*
X215201Y245332D01*
X215221Y245000D01*
X215260Y244668D01*
X215338Y243965D01*
X215475Y243262D01*
X215553Y242950D01*
X215650Y242657D01*
X215768Y242383D01*
X215885Y242168D01*
Y242149D01*
X215924Y242129D01*
X216021Y242012D01*
X216178Y241836D01*
X216392Y241660D01*
X216666Y241465D01*
X216978Y241289D01*
X217330Y241172D01*
X217525Y241153D01*
X217721Y241133D01*
X217818D01*
X217896Y241153D01*
X218092Y241192D01*
X218345Y241270D01*
X218638Y241387D01*
X218931Y241563D01*
X219088Y241680D01*
X219244Y241836D01*
X219400Y241992D01*
X219537Y242168D01*
Y242188D01*
X219576Y242227D01*
X219615Y242285D01*
X219654Y242383D01*
X219713Y242500D01*
X219771Y242676D01*
X219830Y242871D01*
X219908Y243086D01*
X219986Y243360D01*
X220045Y243653D01*
X220103Y244004D01*
X220162Y244395D01*
X220220Y244824D01*
X220240Y245293D01*
X220279Y245820D01*
Y246387D01*
Y246426D01*
Y246523D01*
Y246680D01*
X220259Y246895D01*
Y247148D01*
X220240Y247441D01*
X220220Y247754D01*
X220181Y248105D01*
X220103Y248809D01*
X219967Y249492D01*
X219888Y249824D01*
X219791Y250117D01*
X219673Y250371D01*
X219537Y250586D01*
Y250605D01*
X219498Y250625D01*
X219400Y250742D01*
X219244Y250918D01*
X219029Y251113D01*
X218756Y251308D01*
X218443Y251484D01*
X218092Y251601D01*
X217896Y251621D01*
X217701Y251640D01*
D02*
G37*
G36*
X270745Y391178D02*
Y389002D01*
X272512Y389666D01*
X272522D01*
X272551Y389675D01*
X272590Y389695D01*
X272649Y389715D01*
X272717Y389744D01*
X272795Y389773D01*
X272980Y389832D01*
X273195Y389910D01*
X273420Y389988D01*
X273644Y390056D01*
X273859Y390124D01*
X273849D01*
X273830Y390134D01*
X273800D01*
X273751Y390144D01*
X273693Y390163D01*
X273625Y390183D01*
X273468Y390222D01*
X273273Y390271D01*
X273068Y390329D01*
X272844Y390398D01*
X272619Y390476D01*
X270745Y391178D01*
D02*
G37*
G36*
X476485Y387980D02*
X472443D01*
Y383742D01*
X476270D01*
X476485Y383762D01*
X476739Y383781D01*
X477032Y383801D01*
X477345Y383840D01*
X477638Y383898D01*
X477891Y383977D01*
X477931Y383996D01*
X478009Y384016D01*
X478126Y384074D01*
X478263Y384152D01*
X478419Y384270D01*
X478595Y384406D01*
X478751Y384563D01*
X478888Y384738D01*
X478907Y384758D01*
X478946Y384836D01*
X479005Y384934D01*
X479063Y385090D01*
X479122Y385246D01*
X479180Y385441D01*
X479219Y385656D01*
X479239Y385891D01*
Y385910D01*
Y385930D01*
Y386047D01*
X479200Y386203D01*
X479161Y386418D01*
X479083Y386652D01*
X478966Y386906D01*
X478790Y387160D01*
X478575Y387394D01*
X478536Y387414D01*
X478458Y387492D01*
X478282Y387590D01*
X478067Y387687D01*
X477774Y387805D01*
X477423Y387883D01*
X476993Y387961D01*
X476485Y387980D01*
D02*
G37*
%LPD*%
D28*
X452409Y301535D02*
X452409Y372402D01*
X456058Y327883D02*
X456058Y307883D01*
X456058Y338883D02*
X456058Y307883D01*
X452409Y301535D02*
X499653Y301535D01*
X456058Y317883D02*
X466058Y317883D01*
X456058Y327883D02*
X496058Y327883D01*
X466058Y307883D02*
Y317883D01*
X456058Y307883D02*
X496058Y307883D01*
X456058Y338883D02*
X460058Y342883D01*
X465058Y337883D01*
X465058Y338883D01*
X468058Y341883D01*
X469058Y342883D01*
X452409Y372402D02*
X499653D01*
X476058Y327883D02*
Y336883D01*
X474058Y334883D02*
X476058Y336883D01*
X478058Y334883D01*
X479058Y341883D02*
X483058Y337883D01*
X499653Y301535D02*
Y372402D01*
X496058Y337883D02*
X496058Y327883D01*
X496058Y307883D01*
X474058Y337883D02*
X478058Y341883D01*
X469058Y342883D02*
X474058Y337883D01*
X483058D02*
X483058Y339883D01*
X478058Y341883D02*
X479058Y341883D01*
X486058Y342883D02*
X491058Y337883D01*
X483058Y339883D02*
X486058Y342883D01*
X491058Y337883D02*
X491058Y339883D01*
X496058Y337883D02*
X496058Y344883D01*
X491058Y339883D02*
X496058Y344883D01*
X460863Y218202D02*
X467810Y225149D01*
X460863Y218202D02*
X460863Y215976D01*
X452112Y209452D02*
X455029Y212368D01*
X457255Y212368D01*
X447728Y205067D02*
X452112Y209452D01*
X447728Y205067D02*
X463337Y189459D01*
X467810Y225149D02*
X483419Y209541D01*
X457255Y212368D02*
X460863Y215976D01*
X463337Y189459D02*
X483419Y209541D01*
X505224Y182150D02*
Y193370D01*
X512224D01*
Y182150D02*
Y193370D01*
X507789Y182150D02*
X512224D01*
X505224D02*
X509659D01*
D30*
X459483Y355954D02*
X463420Y355954D01*
X459483Y367765D02*
X459483Y355954D01*
X456347Y348780D02*
X456347Y368465D01*
X460284D01*
X463420Y355954D02*
X463420Y367765D01*
X456347Y352716D02*
X476031Y352716D01*
X467357Y355954D02*
X467357Y367765D01*
X463420Y367765D02*
X467357Y367765D01*
X467357Y355954D02*
X471294Y355954D01*
X471294Y367764D02*
X471294Y355954D01*
X471294Y367764D02*
X475232Y367765D01*
X479169Y367764D02*
X479169Y355954D01*
X475232Y367765D02*
X475232Y355954D01*
X479169Y355954D01*
X479169Y367764D02*
X494917Y367765D01*
D54*
X328618Y281976D02*
G03*
X328618Y281976I-492J0D01*
G01*
X244746Y331551D02*
G03*
X244746Y331551I-492J0D01*
G01*
X324890Y332748D02*
G03*
X324890Y332748I-492J0D01*
G01*
D55*
X354000Y282500D02*
G03*
X369000Y282500I7500J0D01*
G01*
Y310500D02*
G03*
X354000Y310500I-7500J0D01*
G01*
X484600Y247600D02*
Y252400D01*
X482200Y250000D02*
X484600Y252400D01*
X482200Y250000D02*
X484600Y247600D01*
X485600Y252800D02*
X489500D01*
X485600Y247200D02*
X489500D01*
Y252800D01*
X477500D02*
X481500D01*
X477500Y247200D02*
Y252800D01*
Y247200D02*
X481500D01*
X508600Y195100D02*
Y199900D01*
X506200Y197500D02*
X508600Y199900D01*
X506200Y197500D02*
X508600Y195100D01*
X509600Y200300D02*
X513500D01*
X509600Y194700D02*
X513500D01*
Y200300D01*
X501500D02*
X505500D01*
X501500Y194700D02*
Y200300D01*
Y194700D02*
X505500D01*
X369000Y282500D02*
Y310500D01*
X354000Y282500D02*
Y310500D01*
D56*
X344465Y284535D02*
Y286996D01*
X342004Y284535D02*
X344465D01*
Y299004D02*
Y301465D01*
X342004D02*
X344465D01*
X327535D02*
X329996D01*
X327535Y299004D02*
Y301465D01*
Y284535D02*
Y286996D01*
Y284535D02*
X329996D01*
X474807Y254807D02*
Y255437D01*
Y254807D02*
X475437D01*
X488193D02*
Y255437D01*
X487563Y254807D02*
X488193D01*
X487563Y268193D02*
X488193D01*
Y267563D02*
Y268193D01*
X474807Y267563D02*
Y268193D01*
X476972D01*
X184500Y143500D02*
Y163500D01*
Y143500D02*
X204500D01*
X184500Y163500D02*
X204500D01*
Y143500D02*
Y163500D01*
X245257Y337457D02*
X264943D01*
X245257Y344543D02*
X264943D01*
X245257Y337457D02*
Y344543D01*
X264943Y337457D02*
Y344543D01*
X201358Y185071D02*
X215500Y199213D01*
X201358Y185071D02*
X215500Y170929D01*
Y199213D02*
X229642Y185071D01*
X215500Y170929D02*
X229642Y185071D01*
X238311Y416618D02*
X238311Y380102D01*
X238311Y416618D02*
X243035Y421343D01*
X260161Y421343D01*
X264394Y417110D02*
X264394Y380102D01*
X260161Y421343D02*
X264394Y417110D01*
X238311Y380102D02*
X244118Y380102D01*
X248646Y384630D01*
X258587Y380102D02*
X264394Y380102D01*
X254059Y384630D02*
X258587Y380102D01*
X248646Y384630D02*
X254059Y384630D01*
X258193Y412347D02*
Y420949D01*
X245035Y412347D02*
X258193D01*
X245035D02*
Y421343D01*
X536000Y145000D02*
Y165000D01*
X516000D02*
X536000D01*
X516000Y145000D02*
X536000D01*
X516000D02*
Y165000D01*
X411333Y365000D02*
X430500D01*
X400500D02*
X430500D01*
X400500Y385000D02*
X430500D01*
X400500Y365000D02*
Y385000D01*
X430500Y365000D02*
Y385000D01*
X444827Y246827D02*
X452110D01*
X465890D02*
X473173D01*
X465693Y275173D02*
X473173Y275173D01*
X444827Y275173D02*
X452110D01*
X444827Y268480D02*
X444827Y246827D01*
X444827Y268480D02*
Y275173D01*
X473173Y246827D02*
Y275173D01*
X323807Y335307D02*
X325480D01*
X323807D02*
Y336980D01*
Y347020D02*
Y348693D01*
X325480D01*
X335520D02*
X337193D01*
Y347020D02*
Y348693D01*
X335520Y335307D02*
X337193D01*
Y336980D01*
D57*
X245500Y373500D02*
Y379000D01*
X239500D02*
X245500D01*
X239500Y373500D02*
Y379000D01*
X245500Y366000D02*
Y371500D01*
X239500Y366000D02*
X245500D01*
X239500D02*
Y371500D01*
X498000Y247000D02*
X503500D01*
Y253000D01*
X498000Y253000D02*
X503500Y253000D01*
X490500Y247000D02*
X496000D01*
X490500D02*
Y253000D01*
X496000D01*
X522500Y194500D02*
X528000D01*
Y200500D01*
X522500D02*
X528000D01*
X515000Y194500D02*
X520500D01*
X515000D02*
Y200500D01*
X520500D01*
X517500Y194000D02*
X523000D01*
X517500Y188000D02*
Y194000D01*
Y188000D02*
X523000D01*
X525000Y194000D02*
X530500D01*
Y188000D02*
Y194000D01*
X525000Y188000D02*
X530500D01*
X309846Y302000D02*
X315347D01*
X309846Y296000D02*
Y302000D01*
Y296000D02*
X315347D01*
X317347Y302000D02*
X322847D01*
Y296000D02*
Y302000D01*
X317347Y296000D02*
X322847D01*
X348500Y333000D02*
X354000D01*
Y339000D01*
X348500D02*
X354000D01*
X341000Y333000D02*
X346500D01*
X341000D02*
Y339000D01*
X346500D01*
X348500Y339500D02*
X354000D01*
Y345500D01*
X348500D02*
X354000D01*
X341000Y339500D02*
X346500D01*
X341000D02*
Y345500D01*
X346500D01*
X519256Y256922D02*
X527460Y210396D01*
X546846Y213814D01*
X538642Y260341D02*
X546846Y213814D01*
X519256Y256922D02*
X538642Y260341D01*
D58*
X256772Y318342D02*
X261102D01*
X256772Y323657D02*
X261102D01*
Y318342D02*
Y323657D01*
X248898Y318342D02*
X253228D01*
X248898Y323657D02*
X253228D01*
X248898Y318342D02*
Y323657D01*
X256772Y311842D02*
X261102D01*
X256772Y317158D02*
X261102D01*
Y311842D02*
Y317158D01*
X248898Y311842D02*
X253228D01*
X248898Y317158D02*
X253228D01*
X248898Y311842D02*
Y317158D01*
X455940Y371702D02*
X455940Y334103D01*
X455940Y371702D02*
X458499Y374261D01*
X492751Y374261D01*
X495999Y371013D01*
X495999Y344831D02*
X495999Y371013D01*
X524705Y174705D02*
X530020D01*
X524705D02*
Y179035D01*
X530020Y174705D02*
Y179035D01*
X524705Y186909D02*
X530020D01*
X524705Y182579D02*
Y186909D01*
X530020Y182579D02*
Y186909D01*
X518209Y174705D02*
X523524D01*
X518209D02*
Y179035D01*
X523524Y174705D02*
Y179035D01*
X518209Y186909D02*
X523524D01*
X518209Y182579D02*
Y186909D01*
X523524Y182579D02*
Y186909D01*
X492842Y179898D02*
X498158D01*
X492842D02*
Y184228D01*
X498158Y179898D02*
Y184228D01*
X492842Y192102D02*
X498158D01*
X492842Y187772D02*
Y192102D01*
X498158Y187772D02*
Y192102D01*
X486342Y179898D02*
X491657D01*
X486342D02*
Y184228D01*
X491657Y179898D02*
Y184228D01*
X486342Y192102D02*
X491657D01*
X486342Y187772D02*
Y192102D01*
X491657Y187772D02*
Y192102D01*
X490842Y254398D02*
X496158D01*
X490842D02*
Y258728D01*
X496158Y254398D02*
Y258728D01*
X490842Y266602D02*
X496158D01*
X490842Y262272D02*
Y266602D01*
X496158Y262272D02*
Y266602D01*
X497342Y254398D02*
X502658D01*
X497342D02*
Y258728D01*
X502658Y254398D02*
Y258728D01*
X497342Y266602D02*
X502658D01*
X497342Y262272D02*
Y266602D01*
X502658Y262272D02*
Y266602D01*
X483929Y269311D02*
Y274626D01*
X488260D01*
X483929Y269311D02*
X488260D01*
X496134D02*
Y274626D01*
X491803D02*
X496134D01*
X491803Y269311D02*
X496134D01*
X483929Y275311D02*
Y280626D01*
X488260D01*
X483929Y275311D02*
X488260D01*
X496134D02*
Y280626D01*
X491803D02*
X496134D01*
X491803Y275311D02*
X496134D01*
X308842Y346102D02*
X314158D01*
Y341772D02*
Y346102D01*
X308842Y341772D02*
Y346102D01*
Y333898D02*
X314158D01*
Y338228D01*
X308842Y333898D02*
Y338228D01*
X315342Y346102D02*
X320657D01*
Y341772D02*
Y346102D01*
X315342Y341772D02*
Y346102D01*
Y333898D02*
X320657D01*
Y338228D01*
X315342Y333898D02*
Y338228D01*
X322449Y302842D02*
Y308157D01*
X318118Y302842D02*
X322449D01*
X318118Y308157D02*
X322449D01*
X310244Y302842D02*
Y308157D01*
Y302842D02*
X314575D01*
X310244Y308157D02*
X314575D01*
X322449Y289843D02*
Y295158D01*
X318118Y289843D02*
X322449D01*
X318118Y295158D02*
X322449D01*
X310244Y289843D02*
Y295158D01*
Y289843D02*
X314575D01*
X310244Y295158D02*
X314575D01*
X310244Y283842D02*
Y289158D01*
X314575D01*
X310244Y283842D02*
X314575D01*
X322449D02*
Y289158D01*
X318118D02*
X322449D01*
X318118Y283842D02*
X322449D01*
X331343Y320398D02*
X336658D01*
X331343D02*
Y324728D01*
X336658Y320398D02*
Y324728D01*
X331343Y332602D02*
X336658D01*
X331343Y328272D02*
Y332602D01*
X336658Y328272D02*
Y332602D01*
X335398Y352842D02*
Y358157D01*
X339728D01*
X335398Y352842D02*
X339728D01*
X347602D02*
Y358157D01*
X343272D02*
X347602D01*
X343272Y352842D02*
X347602D01*
X335398Y359343D02*
Y364657D01*
X339728D01*
X335398Y359343D02*
X339728D01*
X347602D02*
Y364657D01*
X343272D02*
X347602D01*
X343272Y359343D02*
X347602D01*
X318398Y327343D02*
Y332658D01*
X322728D01*
X318398Y327343D02*
X322728D01*
X330602D02*
Y332658D01*
X326272D02*
X330602D01*
X326272Y327343D02*
X330602D01*
X341398Y320342D02*
Y325658D01*
X345728D01*
X341398Y320342D02*
X345728D01*
X353602D02*
Y325658D01*
X349272D02*
X353602D01*
X349272Y320342D02*
X353602D01*
X341398Y326343D02*
Y331658D01*
X345728D01*
X341398Y326343D02*
X345728D01*
X353602D02*
Y331658D01*
X349272D02*
X353602D01*
X349272Y326343D02*
X353602D01*
X370843Y283398D02*
X376157D01*
X370843D02*
Y287728D01*
X376157Y283398D02*
Y287728D01*
X370843Y295602D02*
X376157D01*
X370843Y291272D02*
Y295602D01*
X376157Y291272D02*
Y295602D01*
X370843Y308602D02*
X376157D01*
Y304272D02*
Y308602D01*
X370843Y304272D02*
Y308602D01*
Y296398D02*
X376157D01*
Y300728D01*
X370843Y296398D02*
Y300728D01*
X328842Y364602D02*
X334157D01*
Y360272D02*
Y364602D01*
X328842Y360272D02*
Y364602D01*
Y352398D02*
X334157D01*
Y356728D01*
X328842Y352398D02*
Y356728D01*
X331343Y319602D02*
X336658D01*
Y315272D02*
Y319602D01*
X331343Y315272D02*
Y319602D01*
Y307398D02*
X336658D01*
Y311728D01*
X331343Y307398D02*
Y311728D01*
X337343Y319602D02*
X342657D01*
Y315272D02*
Y319602D01*
X337343Y315272D02*
Y319602D01*
Y307398D02*
X342657D01*
Y311728D01*
X337343Y307398D02*
Y311728D01*
X343843Y307398D02*
X349158D01*
X343843D02*
Y311728D01*
X349158Y307398D02*
Y311728D01*
X343843Y319602D02*
X349158D01*
X343843Y315272D02*
Y319602D01*
X349158Y315272D02*
Y319602D01*
D59*
X170965Y153051D02*
Y157050D01*
X172964D01*
X173630Y156383D01*
Y155051D01*
X172964Y154384D01*
X170965D01*
X176963Y153051D02*
Y157050D01*
X174963Y155051D01*
X177629D01*
X178962Y152385D02*
X181628D01*
X182961Y153051D02*
X184294D01*
X183627D01*
Y157050D01*
X182961Y156383D01*
X266966Y338386D02*
X270298D01*
X270965Y339052D01*
Y340385D01*
X270298Y341052D01*
X266966D01*
X270965Y342385D02*
Y343717D01*
Y343051D01*
X266966D01*
X267632Y342385D01*
X233760Y375689D02*
X237759D01*
Y373690D01*
X237092Y373023D01*
X235759D01*
X235093Y373690D01*
Y375689D01*
Y374356D02*
X233760Y373023D01*
Y369024D02*
Y371690D01*
X236426Y369024D01*
X237092D01*
X237759Y369691D01*
Y371024D01*
X237092Y371690D01*
X227756Y195571D02*
X224928Y198398D01*
X226342Y199812D01*
X227285D01*
X228227Y198870D01*
Y197927D01*
X226813Y196513D01*
X231997Y199812D02*
X229170Y202640D01*
X229170Y199812D01*
X231055Y201697D01*
X265560Y322820D02*
X264893Y323487D01*
X263560D01*
X262894Y322820D01*
Y320155D01*
X263560Y319488D01*
X264893D01*
X265560Y320155D01*
X269558Y319488D02*
X266892D01*
X269558Y322154D01*
Y322820D01*
X268892Y323487D01*
X267559D01*
X266892Y322820D01*
X265756Y315242D02*
X265090Y315908D01*
X263757D01*
X263090Y315242D01*
Y312576D01*
X263757Y311910D01*
X265090D01*
X265756Y312576D01*
X267089Y311910D02*
X268422D01*
X267756D01*
Y315908D01*
X267089Y315242D01*
X539075Y154035D02*
Y158034D01*
X541074D01*
X541741Y157368D01*
Y156035D01*
X541074Y155368D01*
X539075D01*
X545739Y154035D02*
X543074D01*
X545739Y156701D01*
Y157368D01*
X545073Y158034D01*
X543740D01*
X543074Y157368D01*
X382972Y372933D02*
Y376932D01*
X384972D01*
X385638Y376265D01*
Y374932D01*
X384972Y374266D01*
X382972D01*
X386971Y372933D02*
X388304D01*
X387638D01*
Y376932D01*
X386971Y376265D01*
X539651Y181389D02*
X540318Y182056D01*
Y183389D01*
X539651Y184055D01*
X536985D01*
X536319Y183389D01*
Y182056D01*
X536985Y181389D01*
X539651Y180056D02*
X540318Y179390D01*
Y178057D01*
X539651Y177391D01*
X538985D01*
X538318Y178057D01*
Y178724D01*
Y178057D01*
X537652Y177391D01*
X536985D01*
X536319Y178057D01*
Y179390D01*
X536985Y180056D01*
X534665Y181488D02*
X535331Y182154D01*
Y183487D01*
X534665Y184153D01*
X531999D01*
X531332Y183487D01*
Y182154D01*
X531999Y181488D01*
X531332Y178156D02*
X535331D01*
X533332Y180155D01*
Y177489D01*
X496443Y175582D02*
X497109Y176249D01*
Y177582D01*
X496443Y178248D01*
X493777D01*
X493110Y177582D01*
Y176249D01*
X493777Y175582D01*
X497109Y171583D02*
Y174249D01*
X495110D01*
X495776Y172916D01*
Y172250D01*
X495110Y171583D01*
X493777D01*
X493110Y172250D01*
Y173583D01*
X493777Y174249D01*
X489651Y175681D02*
X490318Y176347D01*
Y177680D01*
X489651Y178347D01*
X486985D01*
X486319Y177680D01*
Y176347D01*
X486985Y175681D01*
X490318Y171682D02*
X489651Y173015D01*
X488318Y174348D01*
X486985D01*
X486319Y173681D01*
Y172348D01*
X486985Y171682D01*
X487652D01*
X488318Y172348D01*
Y174348D01*
X507072Y260917D02*
X507739Y261583D01*
Y262916D01*
X507072Y263583D01*
X504407D01*
X503740Y262916D01*
Y261583D01*
X504407Y260917D01*
X507739Y259584D02*
Y256918D01*
X507072D01*
X504407Y259584D01*
X503740D01*
X512781Y260917D02*
X513448Y261583D01*
Y262916D01*
X512781Y263583D01*
X510115D01*
X509449Y262916D01*
Y261583D01*
X510115Y260917D01*
X512781Y259584D02*
X513448Y258917D01*
Y257585D01*
X512781Y256918D01*
X512115D01*
X511448Y257585D01*
X510782Y256918D01*
X510115D01*
X509449Y257585D01*
Y258917D01*
X510115Y259584D01*
X510782D01*
X511448Y258917D01*
X512115Y259584D01*
X512781D01*
X511448Y258917D02*
Y257585D01*
X500304Y272919D02*
X499637Y273585D01*
X498304D01*
X497638Y272919D01*
Y270253D01*
X498304Y269587D01*
X499637D01*
X500304Y270253D01*
X501637D02*
X502303Y269587D01*
X503636D01*
X504302Y270253D01*
Y272919D01*
X503636Y273585D01*
X502303D01*
X501637Y272919D01*
Y272252D01*
X502303Y271586D01*
X504302D01*
X500205Y279415D02*
X499539Y280081D01*
X498206D01*
X497539Y279415D01*
Y276749D01*
X498206Y276083D01*
X499539D01*
X500205Y276749D01*
X501538Y276083D02*
X502871D01*
X502205D01*
Y280081D01*
X501538Y279415D01*
X504870D02*
X505537Y280081D01*
X506870D01*
X507536Y279415D01*
Y276749D01*
X506870Y276083D01*
X505537D01*
X504870Y276749D01*
Y279415D01*
X310152Y350008D02*
X309486Y349342D01*
Y348009D01*
X310152Y347342D01*
X312818D01*
X313484Y348009D01*
Y349342D01*
X312818Y350008D01*
X313484Y351341D02*
Y352674D01*
Y352008D01*
X309486D01*
X310152Y351341D01*
X313484Y354674D02*
Y356006D01*
Y355340D01*
X309486D01*
X310152Y354674D01*
X316648Y349812D02*
X315982Y349145D01*
Y347812D01*
X316648Y347146D01*
X319314D01*
X319980Y347812D01*
Y349145D01*
X319314Y349812D01*
X319980Y351144D02*
Y352477D01*
Y351811D01*
X315982D01*
X316648Y351144D01*
X319980Y357142D02*
Y354477D01*
X317315Y357142D01*
X316648D01*
X315982Y356476D01*
Y355143D01*
X316648Y354477D01*
X301780Y306777D02*
X301114Y307444D01*
X299781D01*
X299114Y306777D01*
Y304111D01*
X299781Y303445D01*
X301114D01*
X301780Y304111D01*
X303113Y303445D02*
X304446D01*
X303779D01*
Y307444D01*
X303113Y306777D01*
X306445D02*
X307112Y307444D01*
X308444D01*
X309111Y306777D01*
Y306111D01*
X308444Y305444D01*
X307778D01*
X308444D01*
X309111Y304778D01*
Y304111D01*
X308444Y303445D01*
X307112D01*
X306445Y304111D01*
X301583Y293096D02*
X300917Y293762D01*
X299584D01*
X298917Y293096D01*
Y290430D01*
X299584Y289764D01*
X300917D01*
X301583Y290430D01*
X302916Y289764D02*
X304249D01*
X303583D01*
Y293762D01*
X302916Y293096D01*
X308248Y289764D02*
Y293762D01*
X306248Y291763D01*
X308914D01*
X301583Y286895D02*
X300917Y287562D01*
X299584D01*
X298917Y286895D01*
Y284229D01*
X299584Y283563D01*
X300917D01*
X301583Y284229D01*
X302916Y283563D02*
X304249D01*
X303583D01*
Y287562D01*
X302916Y286895D01*
X308914Y287562D02*
X306248D01*
Y285562D01*
X307581Y286229D01*
X308248D01*
X308914Y285562D01*
Y284229D01*
X308248Y283563D01*
X306915D01*
X306248Y284229D01*
X340537Y328141D02*
X341203Y328808D01*
Y330141D01*
X340537Y330807D01*
X337871D01*
X337205Y330141D01*
Y328808D01*
X337871Y328141D01*
X337205Y326808D02*
Y325476D01*
Y326142D01*
X341203D01*
X340537Y326808D01*
X341203Y320810D02*
X340537Y322143D01*
X339204Y323476D01*
X337871D01*
X337205Y322810D01*
Y321477D01*
X337871Y320810D01*
X338538D01*
X339204Y321477D01*
Y323476D01*
X351977Y356679D02*
X351310Y357345D01*
X349977D01*
X349311Y356679D01*
Y354013D01*
X349977Y353346D01*
X351310D01*
X351977Y354013D01*
X353310Y353346D02*
X354643D01*
X353976D01*
Y357345D01*
X353310Y356679D01*
X356642Y357345D02*
X359308D01*
Y356679D01*
X356642Y354013D01*
Y353346D01*
X352075Y363175D02*
X351409Y363841D01*
X350076D01*
X349410Y363175D01*
Y360509D01*
X350076Y359842D01*
X351409D01*
X352075Y360509D01*
X353408Y359842D02*
X354741D01*
X354075D01*
Y363841D01*
X353408Y363175D01*
X356740D02*
X357407Y363841D01*
X358740D01*
X359406Y363175D01*
Y362508D01*
X358740Y361842D01*
X359406Y361175D01*
Y360509D01*
X358740Y359842D01*
X357407D01*
X356740Y360509D01*
Y361175D01*
X357407Y361842D01*
X356740Y362508D01*
Y363175D01*
X357407Y361842D02*
X358740D01*
X321760Y325379D02*
X321094Y326046D01*
X319761D01*
X319094Y325379D01*
Y322714D01*
X319761Y322047D01*
X321094D01*
X321760Y322714D01*
X323093Y322047D02*
X324426D01*
X323760D01*
Y326046D01*
X323093Y325379D01*
X326426Y322714D02*
X327092Y322047D01*
X328425D01*
X329091Y322714D01*
Y325379D01*
X328425Y326046D01*
X327092D01*
X326426Y325379D01*
Y324713D01*
X327092Y324047D01*
X329091D01*
X357292Y324395D02*
X356625Y325062D01*
X355292D01*
X354626Y324395D01*
Y321729D01*
X355292Y321063D01*
X356625D01*
X357292Y321729D01*
X361291Y321063D02*
X358625D01*
X361291Y323729D01*
Y324395D01*
X360624Y325062D01*
X359291D01*
X358625Y324395D01*
X362623D02*
X363290Y325062D01*
X364623D01*
X365289Y324395D01*
Y321729D01*
X364623Y321063D01*
X363290D01*
X362623Y321729D01*
Y324395D01*
X357193Y330596D02*
X356527Y331262D01*
X355194D01*
X354528Y330596D01*
Y327930D01*
X355194Y327264D01*
X356527D01*
X357193Y327930D01*
X361192Y327264D02*
X358526D01*
X361192Y329930D01*
Y330596D01*
X360526Y331262D01*
X359193D01*
X358526Y330596D01*
X362525Y327264D02*
X363858D01*
X363191D01*
Y331262D01*
X362525Y330596D01*
X383057Y291429D02*
X383723Y292095D01*
Y293428D01*
X383057Y294094D01*
X380391D01*
X379724Y293428D01*
Y292095D01*
X380391Y291429D01*
X379724Y287430D02*
Y290096D01*
X382390Y287430D01*
X383057D01*
X383723Y288096D01*
Y289429D01*
X383057Y290096D01*
Y286097D02*
X383723Y285431D01*
Y284098D01*
X383057Y283431D01*
X382390D01*
X381724Y284098D01*
Y284764D01*
Y284098D01*
X381057Y283431D01*
X380391D01*
X379724Y284098D01*
Y285431D01*
X380391Y286097D01*
X383254Y304913D02*
X383920Y305579D01*
Y306912D01*
X383254Y307579D01*
X380588D01*
X379921Y306912D01*
Y305579D01*
X380588Y304913D01*
X379921Y300914D02*
Y303580D01*
X382587Y300914D01*
X383254D01*
X383920Y301581D01*
Y302914D01*
X383254Y303580D01*
X379921Y297582D02*
X383920D01*
X381921Y299581D01*
Y296916D01*
X480610Y245534D02*
Y241535D01*
X482610D01*
X483276Y242202D01*
Y244868D01*
X482610Y245534D01*
X480610D01*
X484609Y241535D02*
X485942D01*
X485275D01*
Y245534D01*
X484609Y244868D01*
X492421Y199471D02*
Y195472D01*
X494421D01*
X495087Y196139D01*
Y198805D01*
X494421Y199471D01*
X492421D01*
X499086Y195472D02*
X496420D01*
X499086Y198138D01*
Y198805D01*
X498419Y199471D01*
X497086D01*
X496420Y198805D01*
X468209Y245337D02*
Y241339D01*
Y243338D01*
X470875D01*
Y245337D01*
Y241339D01*
X472207Y244671D02*
X472874Y245337D01*
X474207D01*
X474873Y244671D01*
Y244004D01*
X474207Y243338D01*
X473540D01*
X474207D01*
X474873Y242671D01*
Y242005D01*
X474207Y241339D01*
X472874D01*
X472207Y242005D01*
X322871Y355906D02*
X326870D01*
X324871D01*
Y358571D01*
X322871D01*
X326870D01*
Y361904D02*
X322871D01*
X324871Y359904D01*
Y362570D01*
X315686Y310827D02*
X319685D01*
X317686D01*
Y313493D01*
X315686D01*
X319685D01*
X315686Y317491D02*
Y314826D01*
X317686D01*
X317019Y316158D01*
Y316825D01*
X317686Y317491D01*
X319019D01*
X319685Y316825D01*
Y315492D01*
X319019Y314826D01*
X321198Y310925D02*
X325197D01*
X323198D01*
Y313591D01*
X321198D01*
X325197D01*
X321198Y317590D02*
X321865Y316257D01*
X323198Y314924D01*
X324530D01*
X325197Y315590D01*
Y316923D01*
X324530Y317590D01*
X323864D01*
X323198Y316923D01*
Y314924D01*
X326218Y310925D02*
X330217D01*
X328217D01*
Y313591D01*
X326218D01*
X330217D01*
X326218Y314924D02*
Y317590D01*
X326884D01*
X329550Y314924D01*
X330217D01*
X350295Y373917D02*
Y377916D01*
X352295D01*
X352961Y377250D01*
Y375917D01*
X352295Y375250D01*
X350295D01*
X356960Y377916D02*
X354294D01*
Y375917D01*
X355627Y376583D01*
X356293D01*
X356960Y375917D01*
Y374584D01*
X356293Y373917D01*
X354960D01*
X354294Y374584D01*
X493405Y241339D02*
Y245337D01*
X495405D01*
X496071Y244671D01*
Y243338D01*
X495405Y242671D01*
X493405D01*
X494738D02*
X496071Y241339D01*
X497404D02*
X498737D01*
X498071D01*
Y245337D01*
X497404Y244671D01*
X531201Y195374D02*
Y199373D01*
X533200D01*
X533867Y198706D01*
Y197373D01*
X533200Y196707D01*
X531201D01*
X532534D02*
X533867Y195374D01*
X535199Y198706D02*
X535866Y199373D01*
X537199D01*
X537865Y198706D01*
Y198040D01*
X537199Y197373D01*
X536532D01*
X537199D01*
X537865Y196707D01*
Y196040D01*
X537199Y195374D01*
X535866D01*
X535199Y196040D01*
X531299Y188779D02*
Y192778D01*
X533299D01*
X533965Y192112D01*
Y190779D01*
X533299Y190112D01*
X531299D01*
X532632D02*
X533965Y188779D01*
X537297D02*
Y192778D01*
X535298Y190779D01*
X537964D01*
X300689Y296358D02*
Y300357D01*
X302688D01*
X303355Y299691D01*
Y298358D01*
X302688Y297691D01*
X300689D01*
X302022D02*
X303355Y296358D01*
X307353Y300357D02*
X304688D01*
Y298358D01*
X306021Y299024D01*
X306687D01*
X307353Y298358D01*
Y297025D01*
X306687Y296358D01*
X305354D01*
X304688Y297025D01*
X355118Y334154D02*
Y338152D01*
X357118D01*
X357784Y337486D01*
Y336153D01*
X357118Y335486D01*
X355118D01*
X356451D02*
X357784Y334154D01*
X361783Y338152D02*
X360450Y337486D01*
X359117Y336153D01*
Y334820D01*
X359783Y334154D01*
X361116D01*
X361783Y334820D01*
Y335486D01*
X361116Y336153D01*
X359117D01*
X355217Y340158D02*
Y344156D01*
X357216D01*
X357882Y343490D01*
Y342157D01*
X357216Y341490D01*
X355217D01*
X356549D02*
X357882Y340158D01*
X359215Y344156D02*
X361881D01*
Y343490D01*
X359215Y340824D01*
Y340158D01*
X510396Y178248D02*
X507064D01*
X506398Y177582D01*
Y176249D01*
X507064Y175582D01*
X510396D01*
X509730Y174249D02*
X510396Y173583D01*
Y172250D01*
X509730Y171583D01*
X509063D01*
X508397Y172250D01*
Y172916D01*
Y172250D01*
X507730Y171583D01*
X507064D01*
X506398Y172250D01*
Y173583D01*
X507064Y174249D01*
X339370Y350751D02*
Y347418D01*
X340037Y346752D01*
X341369D01*
X342036Y347418D01*
Y350751D01*
X346035D02*
X343369D01*
Y348751D01*
X344702Y349418D01*
X345368D01*
X346035Y348751D01*
Y347418D01*
X345368Y346752D01*
X344035D01*
X343369Y347418D01*
X370866Y317188D02*
Y316521D01*
X372199Y315188D01*
X373532Y316521D01*
Y317188D01*
X372199Y315188D02*
Y313189D01*
X374865D02*
X376198D01*
X375531D01*
Y317188D01*
X374865Y316521D01*
X201500Y140500D02*
Y141833D01*
Y141166D01*
X197501D01*
X198168Y140500D01*
X191500Y141166D02*
Y138500D01*
X188834Y141166D01*
X188168D01*
X187501Y140499D01*
Y139166D01*
X188168Y138500D01*
X191500Y166499D02*
X187501D01*
X189501Y164500D01*
Y167166D01*
X198168Y164500D02*
X197501Y165166D01*
Y166499D01*
X198168Y167166D01*
X198834D01*
X199501Y166499D01*
Y165833D01*
Y166499D01*
X200167Y167166D01*
X200834D01*
X201500Y166499D01*
Y165166D01*
X200834Y164500D01*
X211257Y170929D02*
X212200Y171871D01*
X211729Y171400D01*
X208901Y174228D01*
Y173285D01*
X204657Y178471D02*
X202772Y176586D01*
Y180356D01*
X202301Y180827D01*
X201358D01*
X200416Y179885D01*
Y178942D01*
X222571Y196384D02*
X219743Y199212D01*
X219743Y196384D01*
X221628Y198269D01*
X225872Y190256D02*
Y191198D01*
X226814Y192141D01*
X227757D01*
X228228Y191669D01*
Y190727D01*
X227757Y190256D01*
X228228Y190727D01*
X229170D01*
X229642Y190256D01*
Y189313D01*
X228699Y188371D01*
X227757D01*
X529668Y166000D02*
X529001Y166666D01*
Y167999D01*
X529668Y168666D01*
X530334D01*
X531001Y167999D01*
Y167333D01*
Y167999D01*
X531667Y168666D01*
X532334D01*
X533000Y167999D01*
Y166666D01*
X532334Y166000D01*
X523000Y167999D02*
X519001D01*
X521001Y166000D01*
Y168666D01*
X523000Y142666D02*
Y140000D01*
X520334Y142666D01*
X519668D01*
X519001Y141999D01*
Y140666D01*
X519668Y140000D01*
X533000Y142000D02*
Y143333D01*
Y142666D01*
X529001D01*
X529668Y142000D01*
X397500Y368000D02*
X398833D01*
X398166D01*
Y371999D01*
X397500Y371332D01*
X398166Y378000D02*
X395500D01*
X398166Y380666D01*
Y381332D01*
X397499Y381999D01*
X396166D01*
X395500Y381332D01*
X434166Y371999D02*
X431500D01*
Y369999D01*
X432833Y370666D01*
X433499D01*
X434166Y369999D01*
Y368666D01*
X433499Y368000D01*
X432166D01*
X431500Y368666D01*
X434166Y381999D02*
X432833Y381332D01*
X431500Y379999D01*
Y378666D01*
X432166Y378000D01*
X433499D01*
X434166Y378666D01*
Y379333D01*
X433499Y379999D01*
X431500D01*
X456434Y248327D02*
Y250993D01*
X457101D01*
X459767Y248327D01*
X460433D01*
Y252326D02*
X459767D01*
Y252992D01*
X460433D01*
Y252326D01*
Y258324D02*
Y255658D01*
X457767Y258324D01*
X457101D01*
X456434Y257657D01*
Y256324D01*
X457101Y255658D01*
X457767Y259656D02*
X460433Y262322D01*
X459100Y260989D01*
X457767Y262322D01*
X460433Y259656D01*
X456434Y263655D02*
Y266321D01*
X457101D01*
X459767Y263655D01*
X460433D01*
Y267654D02*
X459767D01*
Y268320D01*
X460433D01*
Y267654D01*
Y273652D02*
Y270986D01*
X457767Y273652D01*
X457101D01*
X456434Y272986D01*
Y271653D01*
X457101Y270986D01*
M02*
