G04 Layer_Physical_Order=2*
G04 Layer_Color=16711680*
%FSLAX25Y25*%
%MOIN*%
G70*
G01*
G75*
G04:AMPARAMS|DCode=18|XSize=39.37mil|YSize=35.43mil|CornerRadius=1.77mil|HoleSize=0mil|Usage=FLASHONLY|Rotation=0.000|XOffset=0mil|YOffset=0mil|HoleType=Round|Shape=RoundedRectangle|*
%AMROUNDEDRECTD18*
21,1,0.03937,0.03189,0,0,0.0*
21,1,0.03583,0.03543,0,0,0.0*
1,1,0.00354,0.01791,-0.01595*
1,1,0.00354,-0.01791,-0.01595*
1,1,0.00354,-0.01791,0.01595*
1,1,0.00354,0.01791,0.01595*
%
%ADD18ROUNDEDRECTD18*%
%ADD21R,0.04724X0.19685*%
%ADD28C,0.01000*%
%ADD29C,0.03000*%
%ADD30C,0.02000*%
%ADD38C,0.01969*%
%ADD39C,0.05906*%
%ADD40R,0.05906X0.05906*%
%ADD41P,0.08352X4X90.0*%
%ADD42C,0.07874*%
%ADD43R,0.05906X0.05906*%
%ADD44R,0.06000X0.06000*%
%ADD45C,0.06000*%
G04:AMPARAMS|DCode=46|XSize=98.43mil|YSize=78.74mil|CornerRadius=0mil|HoleSize=0mil|Usage=FLASHONLY|Rotation=10.000|XOffset=0mil|YOffset=0mil|HoleType=Round|Shape=Octagon|*
%AMOCTAGOND46*
4,1,8,0.05188,-0.01084,0.04505,0.02793,0.02224,0.04390,-0.03592,0.03365,-0.05188,0.01084,-0.04505,-0.02793,-0.02224,-0.04390,0.03592,-0.03365,0.05188,-0.01084,0.0*
%
%ADD46OCTAGOND46*%

%ADD47C,0.06299*%
%ADD48C,0.04724*%
%ADD49C,0.20000*%
%ADD50C,0.05000*%
%ADD51C,0.02362*%
%ADD52R,0.02953X0.10039*%
%ADD53R,0.07000X0.10000*%
G36*
X261928Y409070D02*
X266628Y408442D01*
X271253Y407402D01*
X275770Y405958D01*
X280140Y404120D01*
X284331Y401903D01*
X288311Y399324D01*
X292046Y396404D01*
X295509Y393165D01*
X298717Y389584D01*
X298726Y389575D01*
X298734Y389565D01*
X298751Y389548D01*
X298767Y389530D01*
X298776Y389522D01*
X298786Y389512D01*
X300028Y388297D01*
X300042Y388285D01*
X300055Y388272D01*
X300069Y388260D01*
X300082Y388247D01*
X300096Y388235D01*
X300110Y388223D01*
X300125Y388211D01*
X300138Y388200D01*
X300153Y388189D01*
X300168Y388177D01*
X300182Y388166D01*
X300197Y388155D01*
X300213Y388144D01*
X300227Y388134D01*
X300243Y388124D01*
X300258Y388113D01*
X300274Y388104D01*
X300289Y388093D01*
X301768Y387181D01*
X301784Y387172D01*
X301800Y387162D01*
X301816Y387153D01*
X301832Y387144D01*
X301848Y387135D01*
X301865Y387126D01*
X301881Y387118D01*
X301897Y387110D01*
X301914Y387102D01*
X301931Y387094D01*
X301947Y387087D01*
X301964Y387079D01*
X301981Y387072D01*
X301998Y387065D01*
X302015Y387058D01*
X302032Y387052D01*
X302050Y387046D01*
X302067Y387039D01*
X303711Y386473D01*
X303728Y386468D01*
X303746Y386461D01*
X303763Y386456D01*
X303781Y386451D01*
X303799Y386446D01*
X303817Y386441D01*
X303834Y386437D01*
X303852Y386432D01*
X303870Y386428D01*
X303888Y386424D01*
X303906Y386421D01*
X303924Y386417D01*
X303943Y386414D01*
X303961Y386410D01*
X303978Y386408D01*
X303997Y386405D01*
X304015Y386403D01*
X304034Y386401D01*
X305761Y386209D01*
X305770Y386208D01*
X305779Y386207D01*
X305806Y386205D01*
X305834Y386202D01*
X305843Y386202D01*
X305853Y386201D01*
X305880Y386201D01*
X305908Y386200D01*
X305917Y386200D01*
X305926Y386199D01*
X416269D01*
X416278Y386200D01*
X416287Y386200D01*
X416315Y386201D01*
X416342Y386201D01*
X416352Y386202D01*
X416361Y386202D01*
X416389Y386205D01*
X416416Y386207D01*
X416425Y386208D01*
X416434Y386209D01*
X418161Y386401D01*
X418180Y386403D01*
X418198Y386405D01*
X418217Y386408D01*
X418234Y386410D01*
X418253Y386414D01*
X418271Y386417D01*
X418289Y386421D01*
X418307Y386424D01*
X418325Y386428D01*
X418343Y386432D01*
X418361Y386437D01*
X418378Y386441D01*
X418396Y386446D01*
X418414Y386451D01*
X418432Y386456D01*
X418449Y386461D01*
X418467Y386468D01*
X418485Y386473D01*
X420128Y387039D01*
X420145Y387046D01*
X420163Y387052D01*
X420180Y387058D01*
X420197Y387065D01*
X420214Y387072D01*
X420231Y387079D01*
X420248Y387087D01*
X420264Y387094D01*
X420281Y387102D01*
X420298Y387110D01*
X420314Y387118D01*
X420331Y387126D01*
X420347Y387135D01*
X420363Y387144D01*
X420379Y387153D01*
X420395Y387162D01*
X420411Y387171D01*
X420427Y387181D01*
X421906Y388093D01*
X421921Y388104D01*
X421937Y388113D01*
X421952Y388124D01*
X421968Y388134D01*
X421983Y388144D01*
X421998Y388155D01*
X422013Y388166D01*
X422027Y388177D01*
X422042Y388189D01*
X422057Y388200D01*
X422070Y388211D01*
X422085Y388223D01*
X422099Y388235D01*
X422113Y388247D01*
X422126Y388260D01*
X422140Y388272D01*
X422153Y388284D01*
X422167Y388297D01*
X423410Y389512D01*
X423419Y389522D01*
X423428Y389530D01*
X423444Y389548D01*
X423461Y389565D01*
X423469Y389575D01*
X423478Y389584D01*
X426686Y393165D01*
X430149Y396404D01*
X433885Y399324D01*
X437864Y401903D01*
X442055Y404120D01*
X446425Y405958D01*
X450942Y407402D01*
X455568Y408442D01*
X460267Y409070D01*
X465005Y409279D01*
X469609Y409081D01*
X474180Y408489D01*
X478683Y407505D01*
X483085Y406139D01*
X487353Y404400D01*
X491456Y402300D01*
X495364Y399856D01*
X499047Y397085D01*
X502479Y394009D01*
X505633Y390648D01*
X508488Y387030D01*
X511021Y383179D01*
X513214Y379125D01*
X515051Y374898D01*
X516518Y370529D01*
X517612Y366019D01*
X556439Y169385D01*
X556254Y166084D01*
X555682Y162721D01*
X554738Y159443D01*
X553433Y156292D01*
X551783Y153306D01*
X549809Y150524D01*
X547536Y147981D01*
X544992Y145708D01*
X542210Y143734D01*
X539224Y142084D01*
X536073Y140778D01*
X532795Y139834D01*
X529432Y139263D01*
X526026Y139071D01*
X522620Y139263D01*
X519257Y139834D01*
X515979Y140778D01*
X512828Y142084D01*
X509842Y143734D01*
X507060Y145708D01*
X504486Y148009D01*
X423520Y228974D01*
X423502Y228992D01*
X423485Y229009D01*
X423476Y229017D01*
X423467Y229025D01*
X423448Y229041D01*
X423430Y229058D01*
X423420Y229065D01*
X423411Y229073D01*
X423392Y229088D01*
X423372Y229104D01*
X421742Y230355D01*
X421732Y230363D01*
X421722Y230370D01*
X421702Y230384D01*
X421682Y230399D01*
X421672Y230405D01*
X421662Y230412D01*
X421641Y230426D01*
X421621Y230439D01*
X421610Y230445D01*
X421600Y230452D01*
X421578Y230464D01*
X421557Y230476D01*
X421546Y230482D01*
X421535Y230488D01*
X421514Y230499D01*
X421492Y230510D01*
X421481Y230516D01*
X421470Y230521D01*
X421447Y230531D01*
X421425Y230541D01*
X421414Y230546D01*
X421402Y230551D01*
X419503Y231338D01*
X419491Y231342D01*
X419481Y231347D01*
X419458Y231355D01*
X419435Y231364D01*
X419423Y231368D01*
X419411Y231372D01*
X419387Y231380D01*
X419365Y231387D01*
X419353Y231391D01*
X419341Y231394D01*
X419317Y231400D01*
X419294Y231407D01*
X419282Y231410D01*
X419270Y231413D01*
X419246Y231418D01*
X419222Y231423D01*
X419210Y231425D01*
X419198Y231428D01*
X419174Y231431D01*
X419149Y231436D01*
X419137Y231437D01*
X419125Y231439D01*
X418207Y231560D01*
X418157Y231574D01*
X418085Y231590D01*
X418013Y231602D01*
X417940Y231611D01*
X417866Y231617D01*
X417793Y231619D01*
X401575D01*
X401501Y231617D01*
X401428Y231611D01*
X401355Y231602D01*
X401282Y231590D01*
X401210Y231574D01*
X401139Y231554D01*
X401069Y231531D01*
X401001Y231504D01*
X400933Y231474D01*
X400868Y231441D01*
X400803Y231405D01*
X400741Y231366D01*
X400681Y231323D01*
X400623Y231278D01*
X400567Y231230D01*
X400514Y231179D01*
X400463Y231126D01*
X400415Y231070D01*
X400370Y231012D01*
X400327Y230952D01*
X400288Y230890D01*
X400251Y230825D01*
X400218Y230760D01*
X400189Y230692D01*
X400162Y230624D01*
X400139Y230554D01*
X400119Y230483D01*
X400103Y230411D01*
X400091Y230338D01*
X400082Y230265D01*
X400076Y230192D01*
X400074Y230118D01*
Y225689D01*
X400076Y225615D01*
X400082Y225542D01*
X400091Y225469D01*
X400103Y225396D01*
X400119Y225324D01*
X400139Y225253D01*
X400162Y225184D01*
X400189Y225115D01*
X400218Y225047D01*
X400251Y224982D01*
X400288Y224918D01*
X400327Y224855D01*
X400370Y224795D01*
X400415Y224737D01*
X400463Y224681D01*
X400514Y224628D01*
X400567Y224577D01*
X400623Y224529D01*
X400681Y224484D01*
X400741Y224441D01*
X400803Y224402D01*
X400868Y224366D01*
X400933Y224333D01*
X401001Y224303D01*
X401069Y224276D01*
X401139Y224253D01*
X401210Y224234D01*
X401282Y224217D01*
X401355Y224205D01*
X401428Y224196D01*
X401501Y224190D01*
X401575Y224188D01*
X415527D01*
Y154376D01*
X415523Y154376D01*
X415506Y154429D01*
X415440Y154623D01*
X415371Y154817D01*
X415297Y155009D01*
X415220Y155200D01*
X415140Y155389D01*
X415056Y155577D01*
X414968Y155763D01*
X414877Y155948D01*
X414783Y156130D01*
X414685Y156311D01*
X414584Y156490D01*
X414479Y156668D01*
X414371Y156843D01*
X414260Y157016D01*
X414146Y157187D01*
X414029Y157356D01*
X413908Y157522D01*
X413784Y157687D01*
X413658Y157849D01*
X413528Y158009D01*
X413395Y158166D01*
X413260Y158320D01*
X413121Y158472D01*
X412980Y158622D01*
X412836Y158769D01*
X412689Y158913D01*
X412539Y159054D01*
X412387Y159193D01*
X412233Y159328D01*
X412075Y159461D01*
X411916Y159591D01*
X411754Y159717D01*
X411589Y159841D01*
X411423Y159962D01*
X411254Y160079D01*
X411083Y160194D01*
X410910Y160304D01*
X410735Y160412D01*
X410557Y160517D01*
X410378Y160618D01*
X410197Y160716D01*
X410014Y160810D01*
X409830Y160901D01*
X409644Y160989D01*
X409456Y161073D01*
X409267Y161153D01*
X409076Y161230D01*
X408884Y161304D01*
X408690Y161373D01*
X408496Y161440D01*
X408299Y161502D01*
X408102Y161561D01*
X407904Y161616D01*
X407705Y161667D01*
X407505Y161715D01*
X407304Y161759D01*
X407102Y161799D01*
X406900Y161835D01*
X406697Y161868D01*
X406493Y161897D01*
X406289Y161922D01*
X406084Y161943D01*
X405879Y161960D01*
X405674Y161973D01*
X405468Y161983D01*
X405263Y161989D01*
X405057Y161991D01*
X404851Y161989D01*
X404646Y161983D01*
X404440Y161973D01*
X404235Y161960D01*
X404030Y161943D01*
X403825Y161922D01*
X403621Y161897D01*
X403417Y161868D01*
X403214Y161835D01*
X403012Y161799D01*
X402810Y161759D01*
X402609Y161715D01*
X402409Y161667D01*
X402210Y161616D01*
X402012Y161561D01*
X401815Y161502D01*
X401619Y161440D01*
X401424Y161373D01*
X401230Y161304D01*
X401038Y161230D01*
X400847Y161153D01*
X400658Y161073D01*
X400470Y160989D01*
X400284Y160901D01*
X400100Y160810D01*
X399917Y160716D01*
X399736Y160618D01*
X399557Y160517D01*
X399380Y160412D01*
X399204Y160304D01*
X399031Y160194D01*
X398860Y160079D01*
X398691Y159962D01*
X398525Y159841D01*
X398360Y159717D01*
X398198Y159591D01*
X398039Y159461D01*
X397882Y159328D01*
X397727Y159193D01*
X397575Y159054D01*
X397425Y158913D01*
X397279Y158769D01*
X397134Y158622D01*
X396993Y158472D01*
X396855Y158320D01*
X396719Y158166D01*
X396586Y158009D01*
X396457Y157849D01*
X396330Y157687D01*
X396206Y157522D01*
X396086Y157356D01*
X395968Y157187D01*
X395854Y157016D01*
X395743Y156843D01*
X395635Y156668D01*
X395530Y156490D01*
X395429Y156311D01*
X395331Y156130D01*
X395237Y155948D01*
X395146Y155763D01*
X395058Y155577D01*
X394974Y155389D01*
X394894Y155200D01*
X394817Y155009D01*
X394744Y154817D01*
X394674Y154623D01*
X394608Y154429D01*
X394545Y154233D01*
X394486Y154035D01*
X394431Y153837D01*
X394380Y153638D01*
X394332Y153438D01*
X394288Y153237D01*
X394248Y153035D01*
X394212Y152833D01*
X394180Y152630D01*
X394151Y152426D01*
X394126Y152222D01*
X394105Y152017D01*
X394087Y151812D01*
X394074Y151607D01*
X394064Y151401D01*
X394058Y151196D01*
X394057Y150990D01*
X394058Y150785D01*
X394064Y150579D01*
X394074Y150373D01*
X394087Y150168D01*
X394105Y149963D01*
X394126Y149759D01*
X394151Y149554D01*
X394180Y149351D01*
X394212Y149147D01*
X394248Y148945D01*
X394288Y148743D01*
X394332Y148542D01*
X394380Y148342D01*
X394431Y148143D01*
X394486Y147945D01*
X394545Y147748D01*
X394608Y147552D01*
X394674Y147357D01*
X394744Y147163D01*
X394817Y146971D01*
X394894Y146781D01*
X394974Y146591D01*
X395058Y146403D01*
X395146Y146217D01*
X395237Y146033D01*
X395331Y145850D01*
X395429Y145669D01*
X395530Y145490D01*
X395635Y145313D01*
X395743Y145138D01*
X395854Y144964D01*
X395968Y144793D01*
X396086Y144624D01*
X396206Y144458D01*
X396330Y144293D01*
X396457Y144132D01*
X396586Y143972D01*
X396719Y143815D01*
X396855Y143660D01*
X396993Y143508D01*
X397134Y143359D01*
X397279Y143212D01*
X397425Y143068D01*
X397575Y142926D01*
X397727Y142788D01*
X397882Y142652D01*
X398039Y142519D01*
X398198Y142390D01*
X398360Y142263D01*
X398525Y142139D01*
X398691Y142019D01*
X398860Y141901D01*
X399031Y141787D01*
X399204Y141676D01*
X399380Y141568D01*
X399557Y141463D01*
X399736Y141362D01*
X399917Y141264D01*
X400100Y141170D01*
X400284Y141079D01*
X400470Y140992D01*
X400658Y140908D01*
X400847Y140827D01*
X401038Y140750D01*
X401230Y140677D01*
X401424Y140607D01*
X401619Y140541D01*
X401807Y140481D01*
X401807Y140477D01*
X307209D01*
Y224188D01*
X327854D01*
X327928Y224190D01*
X328001Y224196D01*
X328075Y224205D01*
X328147Y224217D01*
X328219Y224234D01*
X328290Y224253D01*
X328360Y224276D01*
X328429Y224303D01*
X328496Y224333D01*
X328562Y224366D01*
X328626Y224402D01*
X328688Y224441D01*
X328748Y224484D01*
X328806Y224529D01*
X328862Y224577D01*
X328915Y224628D01*
X328966Y224681D01*
X329014Y224737D01*
X329060Y224795D01*
X329102Y224855D01*
X329141Y224918D01*
X329178Y224982D01*
X329211Y225047D01*
X329241Y225115D01*
X329267Y225184D01*
X329290Y225253D01*
X329310Y225324D01*
X329326Y225396D01*
X329339Y225469D01*
X329348Y225542D01*
X329353Y225615D01*
X329355Y225689D01*
Y230217D01*
X329353Y230290D01*
X329348Y230364D01*
X329339Y230437D01*
X329326Y230509D01*
X329310Y230581D01*
X329290Y230652D01*
X329267Y230722D01*
X329241Y230791D01*
X329211Y230858D01*
X329178Y230924D01*
X329141Y230988D01*
X329102Y231050D01*
X329060Y231110D01*
X329014Y231168D01*
X328966Y231224D01*
X328915Y231277D01*
X328862Y231328D01*
X328806Y231376D01*
X328748Y231422D01*
X328688Y231464D01*
X328626Y231504D01*
X328562Y231540D01*
X328496Y231573D01*
X328429Y231603D01*
X328360Y231629D01*
X328290Y231652D01*
X328219Y231672D01*
X328147Y231688D01*
X328075Y231701D01*
X328001Y231710D01*
X327928Y231715D01*
X327854Y231717D01*
X303907D01*
X303906Y231717D01*
X303833Y231715D01*
X303759Y231710D01*
X303686Y231701D01*
X303613Y231688D01*
X303542Y231672D01*
X303471Y231652D01*
X303401Y231629D01*
X303332Y231603D01*
X300793Y230551D01*
X300781Y230546D01*
X300770Y230541D01*
X300748Y230531D01*
X300725Y230521D01*
X300714Y230516D01*
X300703Y230510D01*
X300681Y230499D01*
X300660Y230488D01*
X300649Y230482D01*
X300638Y230476D01*
X300617Y230464D01*
X300595Y230452D01*
X300585Y230445D01*
X300575Y230439D01*
X300554Y230426D01*
X300533Y230412D01*
X300523Y230405D01*
X300513Y230399D01*
X300493Y230384D01*
X300473Y230370D01*
X300464Y230363D01*
X300453Y230355D01*
X298823Y229104D01*
X298803Y229088D01*
X298784Y229073D01*
X298775Y229065D01*
X298765Y229058D01*
X298747Y229041D01*
X298729Y229025D01*
X298720Y229017D01*
X298710Y229009D01*
X298693Y228992D01*
X298675Y228974D01*
X217710Y148009D01*
X215135Y145708D01*
X212353Y143734D01*
X209367Y142084D01*
X206216Y140778D01*
X202938Y139834D01*
X199575Y139263D01*
X196169Y139071D01*
X192763Y139263D01*
X189400Y139834D01*
X186122Y140778D01*
X182971Y142084D01*
X179985Y143734D01*
X177203Y145708D01*
X174660Y147981D01*
X172386Y150524D01*
X170413Y153306D01*
X168762Y156292D01*
X167457Y159443D01*
X166513Y162721D01*
X165941Y166084D01*
X165756Y169385D01*
X204583Y366019D01*
X205677Y370529D01*
X207144Y374898D01*
X208981Y379125D01*
X211174Y383179D01*
X213707Y387030D01*
X216562Y390648D01*
X219717Y394009D01*
X223148Y397085D01*
X226832Y399856D01*
X230739Y402300D01*
X234842Y404400D01*
X239110Y406139D01*
X243513Y407505D01*
X248015Y408489D01*
X252586Y409081D01*
X257190Y409279D01*
X261928Y409070D01*
D02*
G37*
%LPC*%
G36*
X350847Y345001D02*
X350748Y344999D01*
X350650Y344993D01*
X350553Y344983D01*
X350455Y344970D01*
X350359Y344952D01*
X350263Y344931D01*
X350168Y344907D01*
X350074Y344878D01*
X349981Y344846D01*
X349890Y344810D01*
X349800Y344771D01*
X349711Y344728D01*
X349625Y344682D01*
X349540Y344632D01*
X349457Y344579D01*
X349377Y344523D01*
X349298Y344464D01*
X349222Y344401D01*
X349149Y344336D01*
X349078Y344268D01*
X349010Y344197D01*
X348945Y344124D01*
X348883Y344048D01*
X348823Y343970D01*
X348767Y343889D01*
X348714Y343807D01*
X348665Y343722D01*
X348619Y343635D01*
X348576Y343547D01*
X348536Y343457D01*
X348500Y343366D01*
X348468Y343273D01*
X348440Y343179D01*
X348415Y343084D01*
X348394Y342988D01*
X348377Y342891D01*
X348363Y342794D01*
X348354Y342696D01*
X348348Y342598D01*
X348346Y342500D01*
Y321469D01*
X347193Y320315D01*
X302674D01*
Y322835D01*
X302672Y322895D01*
X302666Y322955D01*
X302657Y323015D01*
X302645Y323074D01*
X302628Y323132D01*
X302609Y323189D01*
X302586Y323245D01*
X302559Y323300D01*
X302529Y323352D01*
X302497Y323403D01*
X302461Y323452D01*
X302422Y323498D01*
X302381Y323542D01*
X302337Y323584D01*
X302290Y323622D01*
X302242Y323658D01*
X302191Y323691D01*
X302138Y323721D01*
X302084Y323747D01*
X302028Y323770D01*
X301971Y323790D01*
X301913Y323806D01*
X301854Y323819D01*
X301794Y323828D01*
X301734Y323833D01*
X301673Y323835D01*
X298721D01*
X298660Y323833D01*
X298600Y323828D01*
X298540Y323819D01*
X298481Y323806D01*
X298423Y323790D01*
X298366Y323770D01*
X298310Y323747D01*
X298255Y323721D01*
X298203Y323691D01*
X298152Y323658D01*
X298103Y323622D01*
X298057Y323584D01*
X298013Y323542D01*
X297972Y323498D01*
X297933Y323452D01*
X297897Y323403D01*
X297864Y323352D01*
X297835Y323300D01*
X297808Y323245D01*
X297785Y323189D01*
X297765Y323132D01*
X297749Y323074D01*
X297736Y323015D01*
X297727Y322955D01*
X297722Y322895D01*
X297720Y322835D01*
Y318253D01*
X297714Y318207D01*
X297704Y318110D01*
X297698Y318012D01*
X297696Y317913D01*
X297698Y317815D01*
X297704Y317717D01*
X297714Y317619D01*
X297720Y317574D01*
Y312795D01*
X297722Y312735D01*
X297727Y312675D01*
X297736Y312615D01*
X297749Y312556D01*
X297765Y312498D01*
X297785Y312440D01*
X297808Y312385D01*
X297835Y312330D01*
X297864Y312278D01*
X297897Y312227D01*
X297933Y312178D01*
X297972Y312132D01*
X298013Y312088D01*
X298057Y312046D01*
X298103Y312008D01*
X298152Y311972D01*
X298203Y311939D01*
X298255Y311909D01*
X298310Y311883D01*
X298366Y311860D01*
X298423Y311840D01*
X298481Y311824D01*
X298540Y311811D01*
X298600Y311802D01*
X298660Y311797D01*
X298721Y311795D01*
X301673D01*
X301734Y311797D01*
X301794Y311802D01*
X301854Y311811D01*
X301913Y311824D01*
X301971Y311840D01*
X302028Y311860D01*
X302084Y311883D01*
X302138Y311909D01*
X302191Y311939D01*
X302242Y311972D01*
X302290Y312008D01*
X302337Y312046D01*
X302381Y312088D01*
X302422Y312132D01*
X302461Y312178D01*
X302497Y312227D01*
X302529Y312278D01*
X302559Y312330D01*
X302586Y312385D01*
X302609Y312440D01*
X302628Y312498D01*
X302645Y312556D01*
X302657Y312615D01*
X302666Y312675D01*
X302672Y312735D01*
X302674Y312795D01*
Y315315D01*
X348228D01*
X348228Y315315D01*
X348326Y315316D01*
X348425Y315322D01*
X348522Y315332D01*
X348620Y315345D01*
X348716Y315363D01*
X348812Y315384D01*
X348907Y315408D01*
X349001Y315437D01*
X349094Y315469D01*
X349185Y315505D01*
X349275Y315544D01*
X349363Y315587D01*
X349450Y315633D01*
X349535Y315683D01*
X349618Y315736D01*
X349698Y315792D01*
X349776Y315851D01*
X349852Y315914D01*
X349926Y315979D01*
X349996Y316047D01*
X352614Y318665D01*
X352615Y318665D01*
X352683Y318736D01*
X352748Y318809D01*
X352810Y318885D01*
X352869Y318963D01*
X352925Y319044D01*
X352978Y319127D01*
X353028Y319211D01*
X353074Y319298D01*
X353117Y319386D01*
X353157Y319476D01*
X353192Y319568D01*
X353225Y319660D01*
X353253Y319754D01*
X353278Y319849D01*
X353299Y319945D01*
X353316Y320042D01*
X353330Y320139D01*
X353339Y320237D01*
X353345Y320335D01*
X353347Y320433D01*
X353347Y320434D01*
Y342500D01*
X353345Y342598D01*
X353339Y342696D01*
X353330Y342794D01*
X353316Y342891D01*
X353299Y342988D01*
X353278Y343084D01*
X353253Y343179D01*
X353225Y343273D01*
X353192Y343366D01*
X353157Y343457D01*
X353117Y343547D01*
X353074Y343635D01*
X353028Y343722D01*
X352978Y343807D01*
X352925Y343889D01*
X352869Y343970D01*
X352810Y344048D01*
X352748Y344124D01*
X352683Y344197D01*
X352615Y344268D01*
X352544Y344336D01*
X352470Y344401D01*
X352395Y344464D01*
X352316Y344523D01*
X352236Y344579D01*
X352153Y344632D01*
X352068Y344682D01*
X351982Y344728D01*
X351893Y344771D01*
X351803Y344810D01*
X351712Y344846D01*
X351619Y344878D01*
X351525Y344907D01*
X351430Y344931D01*
X351334Y344952D01*
X351238Y344970D01*
X351140Y344983D01*
X351043Y344993D01*
X350945Y344999D01*
X350847Y345001D01*
D02*
G37*
G36*
X535130Y227887D02*
X535004Y227886D01*
X534879Y227881D01*
X534754Y227872D01*
X534629Y227860D01*
X534505Y227844D01*
X534381Y227824D01*
X534258Y227800D01*
X534136Y227773D01*
X534014Y227742D01*
X533894Y227707D01*
X533775Y227669D01*
X533656Y227627D01*
X533539Y227582D01*
X533424Y227533D01*
X533310Y227480D01*
X533198Y227424D01*
X533087Y227365D01*
X532979Y227303D01*
X532872Y227237D01*
X532767Y227168D01*
X532665Y227096D01*
X532564Y227021D01*
X532466Y226943D01*
X532371Y226862D01*
X532278Y226778D01*
X532187Y226691D01*
X532099Y226602D01*
X532014Y226510D01*
X531932Y226415D01*
X531852Y226318D01*
X531776Y226219D01*
X531702Y226117D01*
X531632Y226013D01*
X531565Y225908D01*
X531501Y225800D01*
X531440Y225690D01*
X531383Y225579D01*
X531329Y225465D01*
X531279Y225351D01*
X531231Y225235D01*
X531188Y225117D01*
X531148Y224998D01*
X531112Y224878D01*
X531079Y224757D01*
X531050Y224635D01*
X531025Y224512D01*
X531003Y224389D01*
X530985Y224265D01*
X530971Y224140D01*
X530961Y224015D01*
X530955Y223890D01*
X530952Y223765D01*
X530953Y223639D01*
X530958Y223514D01*
X530966Y223389D01*
X530979Y223264D01*
X530995Y223140D01*
X531015Y223016D01*
X531039Y222893D01*
X531066Y222771D01*
X531097Y222649D01*
X531132Y222529D01*
X531170Y222410D01*
X531212Y222291D01*
X531257Y222175D01*
X531306Y222059D01*
X531358Y221945D01*
X531414Y221833D01*
X531473Y221722D01*
X531536Y221614D01*
X531602Y221507D01*
X531671Y221402D01*
X531743Y221300D01*
X531818Y221199D01*
X531896Y221101D01*
X531977Y221006D01*
X532061Y220913D01*
X532148Y220822D01*
X532237Y220734D01*
X532329Y220649D01*
X532424Y220567D01*
X532521Y220487D01*
X532620Y220411D01*
X532722Y220337D01*
X532825Y220267D01*
X532931Y220200D01*
X533039Y220136D01*
X533149Y220075D01*
X533260Y220018D01*
X533373Y219964D01*
X533488Y219914D01*
X533604Y219866D01*
X533722Y219823D01*
X533841Y219783D01*
X533961Y219747D01*
X534082Y219714D01*
X534204Y219685D01*
X534327Y219660D01*
X534450Y219638D01*
X534574Y219620D01*
X534699Y219606D01*
X534824Y219596D01*
X534949Y219590D01*
X535074Y219587D01*
X535199Y219588D01*
X535325Y219593D01*
X535450Y219601D01*
X535574Y219614D01*
X535699Y219630D01*
X535823Y219650D01*
X535946Y219673D01*
X536068Y219701D01*
X536190Y219732D01*
X536310Y219766D01*
X536429Y219805D01*
X536548Y219847D01*
X536664Y219892D01*
X536780Y219941D01*
X536894Y219993D01*
X537006Y220049D01*
X537116Y220109D01*
X537225Y220171D01*
X537332Y220237D01*
X537436Y220306D01*
X537539Y220378D01*
X537639Y220453D01*
X537737Y220531D01*
X537833Y220612D01*
X537926Y220696D01*
X538017Y220783D01*
X538105Y220872D01*
X538190Y220964D01*
X538272Y221059D01*
X538351Y221156D01*
X538428Y221255D01*
X538502Y221357D01*
X538572Y221460D01*
X538639Y221566D01*
X538703Y221674D01*
X538764Y221784D01*
X538821Y221895D01*
X538875Y222008D01*
X538925Y222123D01*
X538972Y222239D01*
X539016Y222357D01*
X539056Y222476D01*
X539092Y222596D01*
X539125Y222717D01*
X539154Y222839D01*
X539179Y222961D01*
X539200Y223085D01*
X539218Y223209D01*
X539232Y223334D01*
X539243Y223459D01*
X539249Y223584D01*
X539252Y223709D01*
X539251Y223834D01*
X539246Y223960D01*
X539237Y224085D01*
X539225Y224209D01*
X539209Y224334D01*
X539189Y224458D01*
X539165Y224581D01*
X539138Y224703D01*
X539107Y224824D01*
X539072Y224945D01*
X539034Y225064D01*
X538992Y225182D01*
X538947Y225299D01*
X538898Y225415D01*
X538845Y225529D01*
X538790Y225641D01*
X538730Y225751D01*
X538668Y225860D01*
X538602Y225967D01*
X538533Y226071D01*
X538461Y226174D01*
X538386Y226274D01*
X538308Y226372D01*
X538227Y226468D01*
X538143Y226561D01*
X538056Y226652D01*
X537967Y226740D01*
X537875Y226825D01*
X537780Y226907D01*
X537683Y226987D01*
X537584Y227063D01*
X537482Y227136D01*
X537379Y227207D01*
X537273Y227274D01*
X537165Y227338D01*
X537055Y227399D01*
X536944Y227456D01*
X536831Y227510D01*
X536716Y227560D01*
X536600Y227607D01*
X536482Y227651D01*
X536363Y227691D01*
X536243Y227727D01*
X536122Y227760D01*
X536000Y227789D01*
X535877Y227814D01*
X535754Y227835D01*
X535630Y227853D01*
X535505Y227867D01*
X535380Y227878D01*
X535255Y227884D01*
X535130Y227887D01*
D02*
G37*
G36*
X425500Y373953D02*
X425376Y373951D01*
X425252Y373945D01*
X425128Y373936D01*
X425004Y373922D01*
X424882Y373905D01*
X424759Y373883D01*
X424638Y373858D01*
X424517Y373829D01*
X424397Y373796D01*
X424278Y373760D01*
X424161Y373720D01*
X424045Y373676D01*
X423930Y373628D01*
X423817Y373577D01*
X423705Y373522D01*
X423596Y373464D01*
X423488Y373403D01*
X423382Y373338D01*
X423278Y373270D01*
X423176Y373198D01*
X423077Y373124D01*
X422980Y373046D01*
X422886Y372965D01*
X422794Y372882D01*
X422705Y372795D01*
X422618Y372706D01*
X422535Y372614D01*
X422454Y372520D01*
X422376Y372423D01*
X422302Y372324D01*
X422230Y372222D01*
X422162Y372118D01*
X422097Y372012D01*
X422036Y371904D01*
X421978Y371795D01*
X421923Y371683D01*
X421872Y371570D01*
X421824Y371455D01*
X421780Y371339D01*
X421740Y371222D01*
X421704Y371103D01*
X421671Y370983D01*
X421642Y370862D01*
X421617Y370741D01*
X421595Y370618D01*
X421578Y370496D01*
X421564Y370372D01*
X421555Y370248D01*
X421549Y370124D01*
X421547Y370000D01*
X421549Y369876D01*
X421555Y369752D01*
X421564Y369628D01*
X421578Y369504D01*
X421595Y369382D01*
X421617Y369259D01*
X421642Y369138D01*
X421671Y369017D01*
X421704Y368897D01*
X421740Y368778D01*
X421780Y368661D01*
X421824Y368545D01*
X421872Y368430D01*
X421923Y368317D01*
X421978Y368205D01*
X422036Y368095D01*
X422097Y367988D01*
X422162Y367882D01*
X422230Y367778D01*
X422302Y367676D01*
X422376Y367577D01*
X422454Y367480D01*
X422535Y367386D01*
X422618Y367294D01*
X422705Y367205D01*
X422794Y367118D01*
X422886Y367035D01*
X422980Y366954D01*
X423077Y366876D01*
X423176Y366802D01*
X423278Y366730D01*
X423382Y366662D01*
X423488Y366597D01*
X423596Y366536D01*
X423705Y366478D01*
X423817Y366423D01*
X423930Y366372D01*
X424000Y366343D01*
Y356526D01*
X423998Y356502D01*
X423973Y356501D01*
X409500D01*
X409426Y356499D01*
X409353Y356493D01*
X409280Y356484D01*
X409207Y356472D01*
X409135Y356455D01*
X409064Y356436D01*
X408994Y356413D01*
X408926Y356386D01*
X408858Y356356D01*
X408793Y356323D01*
X408729Y356287D01*
X408666Y356248D01*
X408606Y356205D01*
X408548Y356160D01*
X408492Y356112D01*
X408439Y356061D01*
X405439Y353061D01*
X405388Y353008D01*
X405340Y352952D01*
X405295Y352894D01*
X405252Y352834D01*
X405213Y352771D01*
X405177Y352707D01*
X405144Y352642D01*
X405114Y352574D01*
X405087Y352505D01*
X405064Y352436D01*
X405045Y352365D01*
X405028Y352293D01*
X405016Y352220D01*
X405007Y352147D01*
X405001Y352074D01*
X404999Y352000D01*
Y349583D01*
X404957Y349543D01*
X404895Y349478D01*
X404835Y349410D01*
X404778Y349340D01*
X404725Y349268D01*
X404674Y349193D01*
X404626Y349117D01*
X404581Y349038D01*
X404540Y348958D01*
X404502Y348876D01*
X404468Y348793D01*
X404437Y348708D01*
X404409Y348622D01*
X404385Y348535D01*
X404365Y348448D01*
X404348Y348359D01*
X404335Y348270D01*
X404326Y348180D01*
X404320Y348090D01*
X404318Y348000D01*
X404320Y347910D01*
X404326Y347820D01*
X404335Y347730D01*
X404348Y347641D01*
X404365Y347552D01*
X404385Y347464D01*
X404409Y347377D01*
X404437Y347292D01*
X404468Y347207D01*
X404502Y347124D01*
X404540Y347042D01*
X404581Y346962D01*
X404626Y346883D01*
X404674Y346807D01*
X404725Y346732D01*
X404778Y346660D01*
X404835Y346590D01*
X404895Y346522D01*
X404957Y346457D01*
X405022Y346395D01*
X405090Y346335D01*
X405160Y346278D01*
X405232Y346224D01*
X405307Y346174D01*
X405383Y346126D01*
X405462Y346081D01*
X405542Y346040D01*
X405624Y346002D01*
X405707Y345968D01*
X405792Y345937D01*
X405877Y345909D01*
X405965Y345885D01*
X406052Y345865D01*
X406141Y345848D01*
X406230Y345835D01*
X406320Y345826D01*
X406410Y345820D01*
X406500Y345818D01*
X406590Y345820D01*
X406680Y345826D01*
X406770Y345835D01*
X406859Y345848D01*
X406948Y345865D01*
X407035Y345885D01*
X407123Y345909D01*
X407208Y345937D01*
X407293Y345968D01*
X407376Y346002D01*
X407458Y346040D01*
X407538Y346081D01*
X407617Y346126D01*
X407693Y346174D01*
X407768Y346224D01*
X407840Y346278D01*
X407910Y346335D01*
X407977Y346395D01*
X408043Y346457D01*
X408105Y346522D01*
X408165Y346590D01*
X408222Y346660D01*
X408276Y346732D01*
X408326Y346807D01*
X408374Y346883D01*
X408419Y346962D01*
X408460Y347042D01*
X408498Y347124D01*
X408532Y347207D01*
X408563Y347292D01*
X408591Y347377D01*
X408615Y347464D01*
X408635Y347552D01*
X408652Y347641D01*
X408665Y347730D01*
X408674Y347820D01*
X408680Y347910D01*
X408682Y348000D01*
X408680Y348090D01*
X408674Y348180D01*
X408665Y348270D01*
X408652Y348359D01*
X408635Y348448D01*
X408615Y348535D01*
X408591Y348622D01*
X408563Y348708D01*
X408532Y348793D01*
X408498Y348876D01*
X408460Y348958D01*
X408419Y349038D01*
X408374Y349117D01*
X408326Y349193D01*
X408276Y349268D01*
X408222Y349340D01*
X408165Y349410D01*
X408105Y349478D01*
X408043Y349543D01*
X408001Y349583D01*
Y350118D01*
X408004Y350119D01*
X408040Y350042D01*
X408081Y349962D01*
X408126Y349883D01*
X408174Y349807D01*
X408224Y349732D01*
X408278Y349660D01*
X408335Y349590D01*
X408395Y349522D01*
X408457Y349457D01*
X408523Y349395D01*
X408590Y349335D01*
X408660Y349278D01*
X408732Y349224D01*
X408807Y349174D01*
X408883Y349126D01*
X408962Y349081D01*
X409042Y349040D01*
X409124Y349002D01*
X409207Y348968D01*
X409292Y348937D01*
X409377Y348909D01*
X409465Y348885D01*
X409552Y348865D01*
X409641Y348848D01*
X409730Y348835D01*
X409820Y348826D01*
X409910Y348820D01*
X410000Y348818D01*
X410090Y348820D01*
X410180Y348826D01*
X410270Y348835D01*
X410359Y348848D01*
X410448Y348865D01*
X410535Y348885D01*
X410623Y348909D01*
X410708Y348937D01*
X410793Y348968D01*
X410876Y349002D01*
X410958Y349040D01*
X411038Y349081D01*
X411117Y349126D01*
X411193Y349174D01*
X411268Y349224D01*
X411310Y349256D01*
X414946Y349496D01*
X415798Y349500D01*
X473878D01*
X484500Y338878D01*
Y324930D01*
X484496Y324929D01*
X484436Y325026D01*
X484367Y325131D01*
X484295Y325234D01*
X484219Y325335D01*
X484141Y325433D01*
X484059Y325528D01*
X483975Y325621D01*
X483920Y325677D01*
X483722Y325944D01*
X483521Y326391D01*
X483313Y327085D01*
X483127Y327967D01*
X482574Y335727D01*
X482559Y337845D01*
Y337942D01*
X482557Y338015D01*
X482551Y338089D01*
X482543Y338162D01*
X482530Y338234D01*
X482514Y338306D01*
X482494Y338377D01*
X482471Y338447D01*
X482444Y338516D01*
X482415Y338583D01*
X482381Y338649D01*
X482345Y338713D01*
X482306Y338775D01*
X482263Y338836D01*
X482218Y338894D01*
X482170Y338949D01*
X482119Y339003D01*
X473061Y348061D01*
X473008Y348112D01*
X472952Y348160D01*
X472894Y348205D01*
X472834Y348248D01*
X472771Y348287D01*
X472707Y348323D01*
X472642Y348356D01*
X472574Y348386D01*
X472506Y348413D01*
X472436Y348436D01*
X472365Y348456D01*
X472293Y348472D01*
X472220Y348484D01*
X472147Y348493D01*
X472074Y348499D01*
X472000Y348500D01*
X421301D01*
X418938Y348530D01*
X417374Y348615D01*
X417068Y348651D01*
X416889Y348682D01*
X416840Y348722D01*
X416768Y348776D01*
X416693Y348826D01*
X416617Y348874D01*
X416538Y348919D01*
X416458Y348960D01*
X416376Y348998D01*
X416293Y349032D01*
X416208Y349063D01*
X416122Y349091D01*
X416036Y349115D01*
X415948Y349135D01*
X415859Y349152D01*
X415770Y349165D01*
X415680Y349174D01*
X415590Y349180D01*
X415500Y349182D01*
X415410Y349180D01*
X415320Y349174D01*
X415230Y349165D01*
X415141Y349152D01*
X415052Y349135D01*
X414964Y349115D01*
X414878Y349091D01*
X414792Y349063D01*
X414707Y349032D01*
X414624Y348998D01*
X414542Y348960D01*
X414462Y348919D01*
X414383Y348874D01*
X414307Y348826D01*
X414232Y348776D01*
X414160Y348722D01*
X414090Y348665D01*
X414022Y348605D01*
X413957Y348543D01*
X413895Y348478D01*
X413835Y348410D01*
X413778Y348340D01*
X413725Y348268D01*
X413674Y348193D01*
X413626Y348117D01*
X413581Y348038D01*
X413540Y347958D01*
X413502Y347876D01*
X413468Y347793D01*
X413437Y347708D01*
X413409Y347622D01*
X413385Y347535D01*
X413365Y347448D01*
X413348Y347359D01*
X413335Y347270D01*
X413326Y347180D01*
X413320Y347090D01*
X413318Y347000D01*
X413320Y346910D01*
X413326Y346820D01*
X413335Y346730D01*
X413348Y346641D01*
X413365Y346552D01*
X413385Y346464D01*
X413409Y346377D01*
X413437Y346292D01*
X413468Y346207D01*
X413502Y346124D01*
X413540Y346042D01*
X413581Y345962D01*
X413626Y345883D01*
X413674Y345807D01*
X413725Y345732D01*
X413778Y345660D01*
X413835Y345590D01*
X413895Y345522D01*
X413957Y345457D01*
X414022Y345395D01*
X414090Y345335D01*
X414160Y345278D01*
X414232Y345224D01*
X414307Y345174D01*
X414383Y345126D01*
X414462Y345081D01*
X414542Y345040D01*
X414624Y345002D01*
X414707Y344968D01*
X414792Y344937D01*
X414878Y344909D01*
X414964Y344885D01*
X415052Y344865D01*
X415141Y344848D01*
X415230Y344835D01*
X415320Y344826D01*
X415410Y344820D01*
X415500Y344818D01*
X415590Y344820D01*
X415680Y344826D01*
X415770Y344835D01*
X415859Y344848D01*
X415948Y344865D01*
X416036Y344885D01*
X416122Y344909D01*
X416208Y344937D01*
X416293Y344968D01*
X416376Y345002D01*
X416458Y345040D01*
X416538Y345081D01*
X416617Y345126D01*
X416693Y345174D01*
X416768Y345224D01*
X416810Y345256D01*
X418913Y345395D01*
X418914Y345391D01*
X418883Y345374D01*
X418807Y345326D01*
X418732Y345275D01*
X418660Y345222D01*
X418590Y345165D01*
X418523Y345105D01*
X418457Y345043D01*
X418395Y344977D01*
X418335Y344910D01*
X418278Y344840D01*
X418224Y344768D01*
X418174Y344693D01*
X418126Y344617D01*
X418081Y344538D01*
X418040Y344458D01*
X418002Y344376D01*
X417968Y344293D01*
X417937Y344208D01*
X417909Y344123D01*
X417885Y344036D01*
X417865Y343948D01*
X417848Y343859D01*
X417835Y343770D01*
X417826Y343680D01*
X417820Y343590D01*
X417818Y343500D01*
X417820Y343410D01*
X417826Y343320D01*
X417835Y343230D01*
X417848Y343141D01*
X417865Y343052D01*
X417885Y342965D01*
X417909Y342878D01*
X417937Y342792D01*
X417968Y342707D01*
X418002Y342624D01*
X418040Y342542D01*
X418081Y342462D01*
X418126Y342383D01*
X418174Y342307D01*
X418224Y342232D01*
X418278Y342160D01*
X418335Y342090D01*
X418395Y342022D01*
X418457Y341957D01*
X418523Y341895D01*
X418590Y341835D01*
X418660Y341778D01*
X418732Y341724D01*
X418807Y341674D01*
X418883Y341626D01*
X418962Y341581D01*
X419042Y341540D01*
X419119Y341504D01*
X419118Y341500D01*
X405621D01*
X403000Y344122D01*
Y365378D01*
X403254Y365632D01*
X403609Y365962D01*
X403716Y366047D01*
X409453D01*
Y373953D01*
X401547D01*
Y368219D01*
X401307Y367935D01*
X401138Y367760D01*
X400439Y367061D01*
X400388Y367008D01*
X400340Y366952D01*
X400295Y366894D01*
X400252Y366834D01*
X400213Y366771D01*
X400177Y366707D01*
X400144Y366641D01*
X400114Y366574D01*
X400087Y366506D01*
X400064Y366436D01*
X400044Y366365D01*
X400028Y366293D01*
X400016Y366220D01*
X400007Y366147D01*
X400001Y366074D01*
X399999Y366000D01*
Y343500D01*
X400001Y343426D01*
X400007Y343353D01*
X400016Y343280D01*
X400028Y343207D01*
X400044Y343135D01*
X400064Y343064D01*
X400087Y342994D01*
X400114Y342926D01*
X400144Y342859D01*
X400177Y342793D01*
X400213Y342729D01*
X400252Y342666D01*
X400295Y342606D01*
X400340Y342548D01*
X400388Y342492D01*
X400439Y342439D01*
X403939Y338939D01*
X403992Y338888D01*
X404048Y338840D01*
X404106Y338795D01*
X404166Y338752D01*
X404229Y338713D01*
X404293Y338677D01*
X404358Y338644D01*
X404426Y338614D01*
X404494Y338587D01*
X404564Y338564D01*
X404635Y338545D01*
X404707Y338528D01*
X404780Y338516D01*
X404853Y338507D01*
X404926Y338501D01*
X405000Y338499D01*
X419199D01*
X421562Y338471D01*
X423126Y338385D01*
X423432Y338349D01*
X423611Y338318D01*
X423660Y338278D01*
X423732Y338225D01*
X423807Y338174D01*
X423883Y338126D01*
X423962Y338081D01*
X424042Y338040D01*
X424124Y338002D01*
X424207Y337968D01*
X424292Y337937D01*
X424377Y337909D01*
X424465Y337885D01*
X424552Y337865D01*
X424641Y337848D01*
X424730Y337835D01*
X424820Y337826D01*
X424910Y337820D01*
X425000Y337818D01*
X425090Y337820D01*
X425180Y337826D01*
X425270Y337835D01*
X425359Y337848D01*
X425448Y337865D01*
X425535Y337885D01*
X425623Y337909D01*
X425708Y337937D01*
X425793Y337968D01*
X425876Y338002D01*
X425958Y338040D01*
X426038Y338081D01*
X426117Y338126D01*
X426193Y338174D01*
X426268Y338225D01*
X426310Y338256D01*
X428980Y338433D01*
X428981Y338429D01*
X428962Y338419D01*
X428883Y338374D01*
X428807Y338326D01*
X428732Y338276D01*
X428660Y338222D01*
X428590Y338165D01*
X428522Y338105D01*
X428457Y338043D01*
X428395Y337978D01*
X428335Y337910D01*
X428278Y337840D01*
X428225Y337768D01*
X428174Y337693D01*
X428126Y337617D01*
X428081Y337538D01*
X428040Y337458D01*
X428002Y337376D01*
X427968Y337293D01*
X427937Y337208D01*
X427909Y337123D01*
X427885Y337035D01*
X427865Y336948D01*
X427848Y336859D01*
X427835Y336770D01*
X427826Y336680D01*
X427820Y336590D01*
X427818Y336500D01*
X427820Y336410D01*
X427826Y336320D01*
X427835Y336230D01*
X427848Y336141D01*
X427865Y336052D01*
X427885Y335964D01*
X427909Y335877D01*
X427937Y335792D01*
X427968Y335707D01*
X428002Y335624D01*
X428040Y335542D01*
X428081Y335462D01*
X428126Y335383D01*
X428174Y335307D01*
X428225Y335232D01*
X428278Y335160D01*
X428335Y335090D01*
X428395Y335022D01*
X428457Y334957D01*
X428522Y334895D01*
X428590Y334835D01*
X428660Y334778D01*
X428732Y334724D01*
X428807Y334674D01*
X428883Y334626D01*
X428962Y334581D01*
X429042Y334540D01*
X429124Y334502D01*
X429207Y334468D01*
X429292Y334437D01*
X429378Y334409D01*
X429464Y334385D01*
X429552Y334365D01*
X429641Y334348D01*
X429730Y334335D01*
X429820Y334326D01*
X429910Y334320D01*
X430000Y334318D01*
X430090Y334320D01*
X430180Y334326D01*
X430270Y334335D01*
X430359Y334348D01*
X430448Y334365D01*
X430536Y334385D01*
X430622Y334409D01*
X430708Y334437D01*
X430793Y334468D01*
X430876Y334502D01*
X430958Y334540D01*
X431038Y334581D01*
X431117Y334626D01*
X431193Y334674D01*
X431268Y334724D01*
X431310Y334756D01*
X434946Y334996D01*
X435798Y334999D01*
X461878D01*
X464999Y331878D01*
Y317441D01*
X465001Y317367D01*
X465007Y317294D01*
X465016Y317221D01*
X465028Y317148D01*
X465044Y317076D01*
X465064Y317005D01*
X465087Y316935D01*
X465114Y316867D01*
X465144Y316799D01*
X465177Y316734D01*
X465213Y316670D01*
X465252Y316607D01*
X465295Y316547D01*
X465340Y316489D01*
X465388Y316433D01*
X465428Y316391D01*
X465435Y316384D01*
X466679Y315127D01*
X467359Y314405D01*
X467339Y314355D01*
X467294Y314238D01*
X467254Y314119D01*
X467217Y313999D01*
X467183Y313878D01*
X467154Y313755D01*
X467129Y313632D01*
X467107Y313509D01*
X467089Y313384D01*
X467075Y313259D01*
X467066Y313134D01*
X467060Y313008D01*
X467058Y312883D01*
X467060Y312757D01*
X467066Y312632D01*
X467075Y312506D01*
X467089Y312381D01*
X467107Y312257D01*
X467129Y312133D01*
X467154Y312010D01*
X467183Y311888D01*
X467217Y311767D01*
X467254Y311647D01*
X467294Y311528D01*
X467339Y311410D01*
X467387Y311294D01*
X467439Y311179D01*
X467494Y311067D01*
X467553Y310955D01*
X467615Y310846D01*
X467681Y310739D01*
X467750Y310634D01*
X467822Y310531D01*
X467897Y310431D01*
X467976Y310333D01*
X468057Y310237D01*
X468142Y310144D01*
X468229Y310054D01*
X468320Y309966D01*
X468413Y309882D01*
X468508Y309800D01*
X468606Y309722D01*
X468707Y309646D01*
X468810Y309574D01*
X468915Y309505D01*
X469022Y309439D01*
X469131Y309377D01*
X469242Y309318D01*
X469355Y309263D01*
X469469Y309211D01*
X469586Y309163D01*
X469703Y309119D01*
X469822Y309078D01*
X469942Y309041D01*
X470063Y309008D01*
X470186Y308979D01*
X470309Y308953D01*
X470433Y308931D01*
X470557Y308914D01*
X470682Y308900D01*
X470807Y308890D01*
X470933Y308884D01*
X471058Y308882D01*
X471184Y308884D01*
X471310Y308890D01*
X471435Y308900D01*
X471560Y308914D01*
X471684Y308931D01*
X471808Y308953D01*
X471931Y308979D01*
X472053Y309008D01*
X472174Y309041D01*
X472295Y309078D01*
X472413Y309119D01*
X472531Y309163D01*
X472647Y309211D01*
X472762Y309263D01*
X472874Y309318D01*
X472986Y309377D01*
X473095Y309439D01*
X473202Y309505D01*
X473307Y309574D01*
X473410Y309646D01*
X473510Y309722D01*
X473608Y309800D01*
X473704Y309882D01*
X473797Y309966D01*
X473887Y310054D01*
X473975Y310144D01*
X474059Y310237D01*
X474141Y310333D01*
X474219Y310431D01*
X474295Y310531D01*
X474367Y310634D01*
X474436Y310739D01*
X474502Y310846D01*
X474564Y310955D01*
X474623Y311067D01*
X474678Y311179D01*
X474730Y311294D01*
X474778Y311410D01*
X474822Y311528D01*
X474863Y311647D01*
X474900Y311767D01*
X474933Y311888D01*
X474962Y312010D01*
X474988Y312133D01*
X475009Y312257D01*
X475027Y312381D01*
X475041Y312506D01*
X475051Y312632D01*
X475057Y312757D01*
X475059Y312883D01*
X475057Y313008D01*
X475051Y313134D01*
X475041Y313259D01*
X475027Y313384D01*
X475009Y313509D01*
X474988Y313632D01*
X474962Y313755D01*
X474933Y313878D01*
X474900Y313999D01*
X474863Y314119D01*
X474822Y314238D01*
X474778Y314355D01*
X474730Y314472D01*
X474678Y314586D01*
X474623Y314699D01*
X474564Y314810D01*
X474502Y314919D01*
X474436Y315026D01*
X474367Y315131D01*
X474295Y315234D01*
X474219Y315335D01*
X474141Y315433D01*
X474059Y315528D01*
X473975Y315621D01*
X473887Y315711D01*
X473797Y315799D01*
X473704Y315883D01*
X473608Y315965D01*
X473510Y316044D01*
X473410Y316119D01*
X473307Y316191D01*
X473202Y316260D01*
X473095Y316326D01*
X472986Y316388D01*
X472874Y316447D01*
X472762Y316502D01*
X472647Y316554D01*
X472531Y316602D01*
X472413Y316647D01*
X472295Y316687D01*
X472174Y316724D01*
X472053Y316757D01*
X471931Y316787D01*
X471808Y316812D01*
X471684Y316834D01*
X471560Y316852D01*
X471435Y316865D01*
X471310Y316875D01*
X471184Y316881D01*
X471058Y316883D01*
X470933Y316881D01*
X470807Y316875D01*
X470682Y316865D01*
X470557Y316852D01*
X470433Y316834D01*
X470309Y316812D01*
X470186Y316787D01*
X470063Y316757D01*
X469942Y316724D01*
X469822Y316687D01*
X469703Y316647D01*
X469586Y316602D01*
X469579Y316600D01*
X468001Y318088D01*
Y320298D01*
X468004Y320300D01*
X468057Y320237D01*
X468142Y320144D01*
X468229Y320054D01*
X468320Y319966D01*
X468413Y319882D01*
X468508Y319800D01*
X468606Y319722D01*
X468707Y319646D01*
X468810Y319574D01*
X468915Y319505D01*
X469022Y319439D01*
X469131Y319377D01*
X469242Y319318D01*
X469355Y319263D01*
X469469Y319211D01*
X469586Y319163D01*
X469703Y319119D01*
X469822Y319078D01*
X469942Y319041D01*
X470063Y319008D01*
X470186Y318979D01*
X470309Y318953D01*
X470433Y318931D01*
X470557Y318914D01*
X470682Y318900D01*
X470807Y318890D01*
X470933Y318884D01*
X471058Y318882D01*
X471184Y318884D01*
X471310Y318890D01*
X471435Y318900D01*
X471560Y318914D01*
X471684Y318931D01*
X471808Y318953D01*
X471931Y318979D01*
X472053Y319008D01*
X472174Y319041D01*
X472295Y319078D01*
X472413Y319119D01*
X472531Y319163D01*
X472647Y319211D01*
X472762Y319263D01*
X472874Y319318D01*
X472986Y319377D01*
X473095Y319439D01*
X473202Y319505D01*
X473307Y319574D01*
X473410Y319646D01*
X473510Y319722D01*
X473608Y319800D01*
X473704Y319882D01*
X473797Y319966D01*
X473887Y320054D01*
X473975Y320144D01*
X474059Y320237D01*
X474141Y320333D01*
X474219Y320431D01*
X474295Y320531D01*
X474367Y320634D01*
X474436Y320739D01*
X474496Y320837D01*
X474500Y320835D01*
Y317941D01*
X474501Y317867D01*
X474507Y317794D01*
X474516Y317721D01*
X474528Y317648D01*
X474544Y317576D01*
X474564Y317505D01*
X474587Y317436D01*
X474614Y317367D01*
X474644Y317299D01*
X474677Y317234D01*
X474713Y317170D01*
X474752Y317107D01*
X474795Y317047D01*
X474840Y316989D01*
X474888Y316933D01*
X474924Y316896D01*
X474932Y316887D01*
X476419Y315371D01*
X477334Y314373D01*
X477342Y314363D01*
X477339Y314355D01*
X477294Y314238D01*
X477254Y314119D01*
X477217Y313999D01*
X477183Y313878D01*
X477154Y313755D01*
X477129Y313632D01*
X477107Y313509D01*
X477089Y313384D01*
X477075Y313259D01*
X477066Y313134D01*
X477060Y313008D01*
X477058Y312883D01*
X477060Y312757D01*
X477066Y312632D01*
X477075Y312506D01*
X477089Y312381D01*
X477107Y312257D01*
X477129Y312133D01*
X477154Y312010D01*
X477183Y311888D01*
X477217Y311767D01*
X477254Y311647D01*
X477294Y311528D01*
X477339Y311410D01*
X477387Y311294D01*
X477438Y311179D01*
X477494Y311067D01*
X477553Y310956D01*
X477615Y310846D01*
X477680Y310739D01*
X477749Y310634D01*
X477822Y310531D01*
X477897Y310431D01*
X477976Y310333D01*
X478057Y310237D01*
X478142Y310144D01*
X478230Y310054D01*
X478320Y309966D01*
X478413Y309882D01*
X478508Y309800D01*
X478606Y309722D01*
X478707Y309646D01*
X478810Y309574D01*
X478915Y309505D01*
X479022Y309439D01*
X479131Y309377D01*
X479242Y309318D01*
X479355Y309263D01*
X479469Y309211D01*
X479586Y309163D01*
X479703Y309119D01*
X479822Y309078D01*
X479942Y309041D01*
X480063Y309008D01*
X480186Y308979D01*
X480309Y308953D01*
X480433Y308931D01*
X480557Y308914D01*
X480682Y308900D01*
X480807Y308890D01*
X480933Y308884D01*
X481058Y308882D01*
X481184Y308884D01*
X481310Y308890D01*
X481435Y308900D01*
X481560Y308914D01*
X481684Y308931D01*
X481808Y308953D01*
X481931Y308979D01*
X482053Y309008D01*
X482174Y309041D01*
X482295Y309078D01*
X482413Y309119D01*
X482531Y309163D01*
X482647Y309211D01*
X482762Y309263D01*
X482874Y309318D01*
X482985Y309377D01*
X483095Y309439D01*
X483202Y309505D01*
X483307Y309574D01*
X483410Y309646D01*
X483510Y309722D01*
X483608Y309800D01*
X483704Y309882D01*
X483797Y309966D01*
X483887Y310054D01*
X483975Y310144D01*
X484059Y310237D01*
X484141Y310333D01*
X484219Y310431D01*
X484295Y310531D01*
X484367Y310634D01*
X484436Y310739D01*
X484502Y310846D01*
X484564Y310956D01*
X484623Y311067D01*
X484678Y311179D01*
X484730Y311294D01*
X484778Y311410D01*
X484822Y311528D01*
X484863Y311647D01*
X484900Y311767D01*
X484933Y311888D01*
X484962Y312010D01*
X484988Y312133D01*
X485009Y312257D01*
X485027Y312381D01*
X485041Y312506D01*
X485051Y312632D01*
X485057Y312757D01*
X485059Y312883D01*
X485057Y313008D01*
X485051Y313134D01*
X485041Y313259D01*
X485027Y313384D01*
X485009Y313509D01*
X484988Y313632D01*
X484962Y313755D01*
X484933Y313878D01*
X484900Y313999D01*
X484863Y314119D01*
X484822Y314238D01*
X484778Y314355D01*
X484730Y314472D01*
X484678Y314586D01*
X484623Y314699D01*
X484564Y314810D01*
X484502Y314919D01*
X484436Y315026D01*
X484367Y315131D01*
X484295Y315234D01*
X484219Y315335D01*
X484141Y315433D01*
X484059Y315528D01*
X483975Y315621D01*
X483887Y315711D01*
X483797Y315799D01*
X483704Y315883D01*
X483608Y315965D01*
X483510Y316044D01*
X483410Y316119D01*
X483307Y316191D01*
X483202Y316260D01*
X483095Y316326D01*
X482985Y316388D01*
X482874Y316447D01*
X482762Y316502D01*
X482647Y316554D01*
X482531Y316602D01*
X482413Y316647D01*
X482295Y316687D01*
X482174Y316724D01*
X482053Y316757D01*
X481931Y316787D01*
X481808Y316812D01*
X481684Y316834D01*
X481560Y316852D01*
X481435Y316865D01*
X481310Y316875D01*
X481184Y316881D01*
X481058Y316883D01*
X480933Y316881D01*
X480807Y316875D01*
X480682Y316865D01*
X480557Y316852D01*
X480433Y316834D01*
X480309Y316812D01*
X480186Y316787D01*
X480063Y316757D01*
X479942Y316724D01*
X479822Y316687D01*
X479703Y316647D01*
X479690Y316642D01*
X477500Y318609D01*
Y321046D01*
X477504Y321047D01*
X477553Y320955D01*
X477615Y320846D01*
X477680Y320739D01*
X477749Y320634D01*
X477822Y320531D01*
X477897Y320431D01*
X477976Y320333D01*
X478057Y320237D01*
X478142Y320144D01*
X478230Y320054D01*
X478320Y319967D01*
X478413Y319882D01*
X478508Y319800D01*
X478606Y319722D01*
X478707Y319646D01*
X478810Y319574D01*
X478915Y319505D01*
X479022Y319439D01*
X479131Y319377D01*
X479242Y319318D01*
X479355Y319263D01*
X479469Y319211D01*
X479586Y319163D01*
X479703Y319119D01*
X479822Y319078D01*
X479942Y319041D01*
X480063Y319008D01*
X480186Y318979D01*
X480309Y318953D01*
X480432Y318932D01*
X480557Y318914D01*
X480682Y318900D01*
X480807Y318890D01*
X480933Y318884D01*
X481058Y318882D01*
X481184Y318884D01*
X481309Y318890D01*
X481435Y318900D01*
X481560Y318914D01*
X481684Y318932D01*
X481808Y318953D01*
X481931Y318979D01*
X482053Y319008D01*
X482174Y319041D01*
X482295Y319078D01*
X482413Y319119D01*
X482531Y319163D01*
X482647Y319211D01*
X482762Y319263D01*
X482874Y319318D01*
X482985Y319377D01*
X483095Y319439D01*
X483202Y319505D01*
X483307Y319574D01*
X483410Y319646D01*
X483510Y319722D01*
X483608Y319800D01*
X483704Y319882D01*
X483797Y319967D01*
X483887Y320054D01*
X483975Y320144D01*
X484059Y320237D01*
X484141Y320333D01*
X484219Y320431D01*
X484295Y320531D01*
X484367Y320634D01*
X484436Y320739D01*
X484496Y320837D01*
X484500Y320836D01*
Y317941D01*
X484501Y317867D01*
X484507Y317794D01*
X484516Y317721D01*
X484528Y317648D01*
X484545Y317576D01*
X484564Y317505D01*
X484587Y317436D01*
X484614Y317367D01*
X484644Y317299D01*
X484677Y317234D01*
X484713Y317170D01*
X484752Y317107D01*
X484795Y317047D01*
X484840Y316989D01*
X484888Y316933D01*
X484924Y316896D01*
X484932Y316887D01*
X486419Y315371D01*
X487334Y314373D01*
X487342Y314363D01*
X487339Y314355D01*
X487294Y314238D01*
X487254Y314119D01*
X487217Y313999D01*
X487184Y313878D01*
X487154Y313755D01*
X487129Y313632D01*
X487107Y313509D01*
X487089Y313384D01*
X487076Y313259D01*
X487066Y313134D01*
X487060Y313008D01*
X487058Y312883D01*
X487060Y312757D01*
X487066Y312632D01*
X487076Y312506D01*
X487089Y312381D01*
X487107Y312257D01*
X487129Y312133D01*
X487154Y312010D01*
X487184Y311888D01*
X487217Y311767D01*
X487254Y311646D01*
X487294Y311527D01*
X487339Y311410D01*
X487387Y311294D01*
X487439Y311179D01*
X487494Y311067D01*
X487553Y310955D01*
X487615Y310846D01*
X487681Y310739D01*
X487750Y310634D01*
X487822Y310531D01*
X487897Y310431D01*
X487976Y310333D01*
X488058Y310237D01*
X488142Y310144D01*
X488230Y310054D01*
X488320Y309966D01*
X488413Y309882D01*
X488508Y309800D01*
X488606Y309722D01*
X488707Y309646D01*
X488810Y309574D01*
X488915Y309505D01*
X489022Y309439D01*
X489131Y309377D01*
X489242Y309318D01*
X489355Y309263D01*
X489469Y309211D01*
X489586Y309163D01*
X489703Y309119D01*
X489822Y309078D01*
X489942Y309041D01*
X490063Y309008D01*
X490186Y308979D01*
X490309Y308953D01*
X490433Y308931D01*
X490557Y308914D01*
X490682Y308900D01*
X490807Y308890D01*
X490933Y308884D01*
X491058Y308882D01*
X491184Y308884D01*
X491309Y308890D01*
X491435Y308900D01*
X491560Y308914D01*
X491684Y308931D01*
X491808Y308953D01*
X491931Y308979D01*
X492053Y309008D01*
X492174Y309041D01*
X492295Y309078D01*
X492413Y309119D01*
X492531Y309163D01*
X492647Y309211D01*
X492762Y309263D01*
X492874Y309318D01*
X492985Y309377D01*
X493095Y309439D01*
X493202Y309505D01*
X493307Y309574D01*
X493410Y309646D01*
X493510Y309722D01*
X493608Y309800D01*
X493704Y309882D01*
X493797Y309966D01*
X493887Y310054D01*
X493974Y310144D01*
X494059Y310237D01*
X494141Y310333D01*
X494219Y310431D01*
X494295Y310531D01*
X494367Y310634D01*
X494436Y310739D01*
X494502Y310846D01*
X494564Y310955D01*
X494623Y311067D01*
X494678Y311179D01*
X494730Y311294D01*
X494778Y311410D01*
X494822Y311527D01*
X494863Y311646D01*
X494900Y311767D01*
X494933Y311888D01*
X494962Y312010D01*
X494988Y312133D01*
X495010Y312257D01*
X495027Y312381D01*
X495041Y312506D01*
X495051Y312632D01*
X495057Y312757D01*
X495059Y312883D01*
X495057Y313008D01*
X495051Y313134D01*
X495041Y313259D01*
X495027Y313384D01*
X495010Y313509D01*
X494988Y313632D01*
X494962Y313755D01*
X494933Y313878D01*
X494900Y313999D01*
X494863Y314119D01*
X494822Y314238D01*
X494778Y314355D01*
X494730Y314471D01*
X494678Y314586D01*
X494623Y314699D01*
X494564Y314810D01*
X494502Y314919D01*
X494436Y315026D01*
X494367Y315131D01*
X494295Y315234D01*
X494219Y315335D01*
X494141Y315433D01*
X494059Y315528D01*
X493974Y315621D01*
X493887Y315711D01*
X493797Y315799D01*
X493704Y315883D01*
X493608Y315965D01*
X493510Y316044D01*
X493410Y316119D01*
X493307Y316191D01*
X493202Y316260D01*
X493095Y316326D01*
X492985Y316388D01*
X492874Y316447D01*
X492762Y316502D01*
X492647Y316554D01*
X492531Y316602D01*
X492413Y316647D01*
X492295Y316687D01*
X492174Y316724D01*
X492053Y316757D01*
X491931Y316787D01*
X491808Y316812D01*
X491684Y316834D01*
X491560Y316852D01*
X491435Y316865D01*
X491309Y316875D01*
X491184Y316881D01*
X491058Y316883D01*
X490933Y316881D01*
X490807Y316875D01*
X490682Y316865D01*
X490557Y316852D01*
X490433Y316834D01*
X490309Y316812D01*
X490186Y316787D01*
X490063Y316757D01*
X489942Y316724D01*
X489822Y316687D01*
X489703Y316647D01*
X489690Y316642D01*
X487500Y318609D01*
Y321046D01*
X487504Y321047D01*
X487553Y320955D01*
X487615Y320846D01*
X487681Y320739D01*
X487749Y320634D01*
X487822Y320531D01*
X487897Y320431D01*
X487976Y320333D01*
X488058Y320237D01*
X488142Y320144D01*
X488230Y320054D01*
X488320Y319966D01*
X488413Y319882D01*
X488508Y319800D01*
X488606Y319722D01*
X488707Y319646D01*
X488810Y319574D01*
X488915Y319505D01*
X489022Y319439D01*
X489131Y319377D01*
X489242Y319318D01*
X489355Y319263D01*
X489469Y319211D01*
X489586Y319163D01*
X489703Y319119D01*
X489822Y319078D01*
X489942Y319041D01*
X490063Y319008D01*
X490186Y318979D01*
X490309Y318953D01*
X490433Y318931D01*
X490557Y318914D01*
X490682Y318900D01*
X490807Y318890D01*
X490933Y318884D01*
X491058Y318882D01*
X491184Y318884D01*
X491309Y318890D01*
X491435Y318900D01*
X491560Y318914D01*
X491684Y318931D01*
X491808Y318953D01*
X491931Y318979D01*
X492053Y319008D01*
X492174Y319041D01*
X492295Y319078D01*
X492413Y319119D01*
X492531Y319163D01*
X492647Y319211D01*
X492762Y319263D01*
X492874Y319318D01*
X492985Y319377D01*
X493095Y319439D01*
X493202Y319505D01*
X493307Y319574D01*
X493410Y319646D01*
X493510Y319722D01*
X493608Y319800D01*
X493704Y319882D01*
X493797Y319966D01*
X493887Y320054D01*
X493974Y320144D01*
X494059Y320237D01*
X494141Y320333D01*
X494219Y320431D01*
X494295Y320531D01*
X494367Y320634D01*
X494436Y320739D01*
X494502Y320846D01*
X494564Y320955D01*
X494623Y321066D01*
X494678Y321179D01*
X494730Y321294D01*
X494778Y321410D01*
X494822Y321528D01*
X494863Y321646D01*
X494900Y321767D01*
X494933Y321888D01*
X494962Y322010D01*
X494988Y322133D01*
X495010Y322257D01*
X495027Y322381D01*
X495041Y322506D01*
X495051Y322632D01*
X495057Y322757D01*
X495059Y322883D01*
X495057Y323008D01*
X495051Y323134D01*
X495041Y323259D01*
X495027Y323384D01*
X495010Y323509D01*
X494988Y323632D01*
X494962Y323755D01*
X494933Y323878D01*
X494900Y323999D01*
X494863Y324119D01*
X494822Y324238D01*
X494778Y324355D01*
X494730Y324471D01*
X494678Y324586D01*
X494623Y324699D01*
X494564Y324810D01*
X494502Y324919D01*
X494436Y325026D01*
X494367Y325131D01*
X494295Y325234D01*
X494219Y325335D01*
X494141Y325433D01*
X494059Y325528D01*
X493974Y325621D01*
X493920Y325677D01*
X493722Y325944D01*
X493521Y326391D01*
X493313Y327084D01*
X493127Y327967D01*
X492575Y335727D01*
X492559Y337845D01*
Y342442D01*
X492557Y342515D01*
X492552Y342589D01*
X492543Y342662D01*
X492530Y342734D01*
X492514Y342806D01*
X492494Y342877D01*
X492471Y342947D01*
X492445Y343016D01*
X492415Y343083D01*
X492382Y343149D01*
X492345Y343213D01*
X492306Y343275D01*
X492264Y343336D01*
X492218Y343394D01*
X492170Y343449D01*
X492119Y343503D01*
X479561Y356061D01*
X479508Y356112D01*
X479452Y356160D01*
X479394Y356205D01*
X479334Y356248D01*
X479271Y356287D01*
X479207Y356323D01*
X479142Y356356D01*
X479074Y356386D01*
X479005Y356413D01*
X478936Y356436D01*
X478865Y356455D01*
X478793Y356472D01*
X478720Y356484D01*
X478647Y356493D01*
X478574Y356499D01*
X478500Y356501D01*
X427027D01*
X427002Y356502D01*
X427001Y356526D01*
Y366343D01*
X427070Y366372D01*
X427183Y366423D01*
X427295Y366478D01*
X427404Y366536D01*
X427512Y366597D01*
X427618Y366662D01*
X427722Y366730D01*
X427824Y366802D01*
X427923Y366876D01*
X428020Y366954D01*
X428114Y367035D01*
X428206Y367118D01*
X428295Y367205D01*
X428382Y367294D01*
X428465Y367386D01*
X428546Y367480D01*
X428624Y367577D01*
X428698Y367676D01*
X428770Y367778D01*
X428838Y367882D01*
X428903Y367988D01*
X428964Y368095D01*
X429022Y368205D01*
X429077Y368317D01*
X429128Y368430D01*
X429176Y368545D01*
X429219Y368661D01*
X429260Y368778D01*
X429296Y368897D01*
X429329Y369017D01*
X429358Y369138D01*
X429383Y369259D01*
X429405Y369382D01*
X429422Y369504D01*
X429436Y369628D01*
X429445Y369752D01*
X429451Y369876D01*
X429453Y370000D01*
X429451Y370124D01*
X429445Y370248D01*
X429436Y370372D01*
X429422Y370496D01*
X429405Y370618D01*
X429383Y370741D01*
X429358Y370862D01*
X429329Y370983D01*
X429296Y371103D01*
X429260Y371222D01*
X429219Y371339D01*
X429176Y371455D01*
X429128Y371570D01*
X429077Y371683D01*
X429022Y371795D01*
X428964Y371904D01*
X428903Y372012D01*
X428838Y372118D01*
X428770Y372222D01*
X428698Y372324D01*
X428624Y372423D01*
X428546Y372520D01*
X428465Y372614D01*
X428382Y372706D01*
X428295Y372795D01*
X428206Y372882D01*
X428114Y372965D01*
X428020Y373046D01*
X427923Y373124D01*
X427824Y373198D01*
X427722Y373270D01*
X427618Y373338D01*
X427512Y373403D01*
X427404Y373464D01*
X427295Y373522D01*
X427183Y373577D01*
X427070Y373628D01*
X426955Y373676D01*
X426839Y373720D01*
X426722Y373760D01*
X426603Y373796D01*
X426483Y373829D01*
X426362Y373858D01*
X426241Y373883D01*
X426118Y373905D01*
X425995Y373922D01*
X425872Y373936D01*
X425748Y373945D01*
X425624Y373951D01*
X425500Y373953D01*
D02*
G37*
G36*
X215500Y196095D02*
X215376Y196093D01*
X215252Y196088D01*
X215128Y196078D01*
X215004Y196064D01*
X214882Y196047D01*
X214759Y196025D01*
X214638Y196000D01*
X214517Y195971D01*
X214397Y195938D01*
X214278Y195902D01*
X214161Y195862D01*
X214045Y195818D01*
X213930Y195770D01*
X213817Y195719D01*
X213705Y195665D01*
X213596Y195606D01*
X213488Y195545D01*
X213382Y195480D01*
X213278Y195412D01*
X213176Y195340D01*
X213077Y195266D01*
X212980Y195188D01*
X212886Y195107D01*
X212794Y195024D01*
X212705Y194938D01*
X212618Y194848D01*
X212535Y194756D01*
X212454Y194662D01*
X212376Y194565D01*
X212302Y194466D01*
X212230Y194364D01*
X212162Y194260D01*
X212097Y194155D01*
X212036Y194047D01*
X211978Y193937D01*
X211923Y193825D01*
X211872Y193712D01*
X211824Y193597D01*
X211781Y193481D01*
X211740Y193364D01*
X211704Y193245D01*
X211671Y193125D01*
X211642Y193005D01*
X211617Y192883D01*
X211595Y192761D01*
X211578Y192638D01*
X211564Y192514D01*
X211555Y192390D01*
X211549Y192266D01*
X211547Y192142D01*
X211549Y192018D01*
X211555Y191894D01*
X211564Y191770D01*
X211578Y191647D01*
X211595Y191524D01*
X211617Y191401D01*
X211642Y191280D01*
X211671Y191159D01*
X211704Y191039D01*
X211740Y190920D01*
X211781Y190803D01*
X211824Y190687D01*
X211872Y190572D01*
X211923Y190459D01*
X211978Y190347D01*
X212036Y190238D01*
X212097Y190130D01*
X212162Y190024D01*
X212230Y189920D01*
X212302Y189819D01*
X212376Y189719D01*
X212454Y189622D01*
X212535Y189528D01*
X212618Y189436D01*
X212705Y189347D01*
X212794Y189260D01*
X212886Y189177D01*
X212980Y189096D01*
X213077Y189018D01*
X213176Y188944D01*
X213278Y188873D01*
X213382Y188804D01*
X213488Y188739D01*
X213596Y188678D01*
X213705Y188620D01*
X213817Y188565D01*
X213930Y188514D01*
X214045Y188467D01*
X214161Y188423D01*
X214278Y188382D01*
X214397Y188346D01*
X214517Y188313D01*
X214638Y188284D01*
X214759Y188259D01*
X214882Y188238D01*
X215004Y188220D01*
X215128Y188206D01*
X215252Y188197D01*
X215376Y188191D01*
X215500Y188189D01*
X215624Y188191D01*
X215748Y188197D01*
X215872Y188206D01*
X215996Y188220D01*
X216118Y188238D01*
X216241Y188259D01*
X216362Y188284D01*
X216483Y188313D01*
X216603Y188346D01*
X216722Y188382D01*
X216839Y188423D01*
X216955Y188467D01*
X217070Y188514D01*
X217183Y188565D01*
X217295Y188620D01*
X217405Y188678D01*
X217512Y188739D01*
X217618Y188804D01*
X217722Y188873D01*
X217824Y188944D01*
X217923Y189018D01*
X218020Y189096D01*
X218114Y189177D01*
X218206Y189260D01*
X218295Y189347D01*
X218382Y189436D01*
X218465Y189528D01*
X218546Y189622D01*
X218624Y189719D01*
X218698Y189819D01*
X218770Y189920D01*
X218838Y190024D01*
X218903Y190130D01*
X218964Y190238D01*
X219022Y190347D01*
X219077Y190459D01*
X219128Y190572D01*
X219176Y190687D01*
X219219Y190803D01*
X219260Y190920D01*
X219296Y191039D01*
X219329Y191159D01*
X219358Y191280D01*
X219383Y191401D01*
X219405Y191524D01*
X219422Y191647D01*
X219436Y191770D01*
X219445Y191894D01*
X219451Y192018D01*
X219453Y192142D01*
X219451Y192266D01*
X219445Y192390D01*
X219436Y192514D01*
X219422Y192638D01*
X219405Y192761D01*
X219383Y192883D01*
X219358Y193005D01*
X219329Y193125D01*
X219296Y193245D01*
X219260Y193364D01*
X219219Y193481D01*
X219176Y193597D01*
X219128Y193712D01*
X219077Y193825D01*
X219022Y193937D01*
X218964Y194047D01*
X218903Y194155D01*
X218838Y194260D01*
X218770Y194364D01*
X218698Y194466D01*
X218624Y194565D01*
X218546Y194662D01*
X218465Y194756D01*
X218382Y194848D01*
X218295Y194938D01*
X218206Y195024D01*
X218114Y195107D01*
X218020Y195188D01*
X217923Y195266D01*
X217824Y195340D01*
X217722Y195412D01*
X217618Y195480D01*
X217512Y195545D01*
X217405Y195606D01*
X217295Y195665D01*
X217183Y195719D01*
X217070Y195770D01*
X216955Y195818D01*
X216839Y195862D01*
X216722Y195902D01*
X216603Y195938D01*
X216483Y195971D01*
X216362Y196000D01*
X216241Y196025D01*
X216118Y196047D01*
X215996Y196064D01*
X215872Y196078D01*
X215748Y196088D01*
X215624Y196093D01*
X215500Y196095D01*
D02*
G37*
G36*
X460013Y209935D02*
X459888Y209933D01*
X459762Y209927D01*
X459637Y209917D01*
X459512Y209903D01*
X459388Y209886D01*
X459264Y209864D01*
X459141Y209839D01*
X459019Y209809D01*
X458897Y209776D01*
X458777Y209739D01*
X458658Y209698D01*
X458541Y209654D01*
X458425Y209606D01*
X458310Y209554D01*
X458197Y209499D01*
X458086Y209440D01*
X457977Y209378D01*
X457870Y209312D01*
X457765Y209243D01*
X457662Y209171D01*
X457561Y209095D01*
X457463Y209017D01*
X457368Y208935D01*
X457275Y208851D01*
X457185Y208763D01*
X457097Y208673D01*
X457013Y208580D01*
X456931Y208484D01*
X456852Y208386D01*
X456777Y208286D01*
X456705Y208183D01*
X456636Y208078D01*
X456570Y207971D01*
X456508Y207862D01*
X456449Y207751D01*
X456394Y207638D01*
X456342Y207523D01*
X456294Y207407D01*
X456250Y207290D01*
X456209Y207171D01*
X456172Y207050D01*
X456139Y206929D01*
X456109Y206807D01*
X456084Y206684D01*
X456062Y206560D01*
X456044Y206436D01*
X456031Y206311D01*
X456021Y206186D01*
X456015Y206060D01*
X456013Y205934D01*
X456015Y205809D01*
X456021Y205683D01*
X456031Y205558D01*
X456044Y205433D01*
X456062Y205309D01*
X456084Y205185D01*
X456109Y205062D01*
X456139Y204940D01*
X456172Y204818D01*
X456209Y204698D01*
X456250Y204579D01*
X456294Y204462D01*
X456342Y204346D01*
X456394Y204231D01*
X456449Y204118D01*
X456508Y204007D01*
X456570Y203898D01*
X456636Y203791D01*
X456705Y203686D01*
X456777Y203583D01*
X456852Y203483D01*
X456931Y203384D01*
X457013Y203289D01*
X457097Y203196D01*
X457185Y203106D01*
X457275Y203018D01*
X457368Y202934D01*
X457463Y202852D01*
X457561Y202773D01*
X457662Y202698D01*
X457765Y202626D01*
X457870Y202557D01*
X457977Y202491D01*
X458086Y202429D01*
X458197Y202370D01*
X458310Y202315D01*
X458425Y202263D01*
X458541Y202215D01*
X458658Y202170D01*
X458777Y202130D01*
X458897Y202093D01*
X459019Y202060D01*
X459141Y202030D01*
X459264Y202005D01*
X459388Y201983D01*
X459512Y201965D01*
X459637Y201952D01*
X459762Y201942D01*
X459888Y201936D01*
X460013Y201934D01*
X460139Y201936D01*
X460265Y201942D01*
X460390Y201952D01*
X460515Y201965D01*
X460639Y201983D01*
X460763Y202005D01*
X460886Y202030D01*
X461008Y202060D01*
X461130Y202093D01*
X461250Y202130D01*
X461369Y202170D01*
X461486Y202215D01*
X461602Y202263D01*
X461717Y202315D01*
X461830Y202370D01*
X461941Y202429D01*
X462050Y202491D01*
X462157Y202557D01*
X462262Y202626D01*
X462365Y202698D01*
X462465Y202773D01*
X462564Y202852D01*
X462659Y202934D01*
X462752Y203018D01*
X462842Y203106D01*
X462930Y203196D01*
X463014Y203289D01*
X463096Y203384D01*
X463174Y203483D01*
X463250Y203583D01*
X463322Y203686D01*
X463391Y203791D01*
X463457Y203898D01*
X463519Y204007D01*
X463578Y204118D01*
X463633Y204231D01*
X463685Y204346D01*
X463733Y204462D01*
X463777Y204579D01*
X463818Y204698D01*
X463855Y204818D01*
X463888Y204940D01*
X463918Y205062D01*
X463943Y205185D01*
X463965Y205309D01*
X463982Y205433D01*
X463996Y205558D01*
X464006Y205683D01*
X464012Y205809D01*
X464014Y205934D01*
X464012Y206060D01*
X464006Y206186D01*
X463996Y206311D01*
X463982Y206436D01*
X463965Y206560D01*
X463943Y206684D01*
X463918Y206807D01*
X463888Y206929D01*
X463855Y207050D01*
X463818Y207171D01*
X463777Y207290D01*
X463733Y207407D01*
X463685Y207523D01*
X463633Y207638D01*
X463578Y207751D01*
X463519Y207862D01*
X463457Y207971D01*
X463391Y208078D01*
X463322Y208183D01*
X463250Y208286D01*
X463174Y208386D01*
X463096Y208484D01*
X463014Y208580D01*
X462930Y208673D01*
X462842Y208763D01*
X462752Y208851D01*
X462659Y208935D01*
X462564Y209017D01*
X462465Y209095D01*
X462365Y209171D01*
X462262Y209243D01*
X462157Y209312D01*
X462050Y209378D01*
X461941Y209440D01*
X461830Y209499D01*
X461717Y209554D01*
X461602Y209606D01*
X461486Y209654D01*
X461369Y209698D01*
X461250Y209739D01*
X461130Y209776D01*
X461008Y209809D01*
X460886Y209839D01*
X460763Y209864D01*
X460639Y209886D01*
X460515Y209903D01*
X460390Y209917D01*
X460265Y209927D01*
X460139Y209933D01*
X460013Y209935D01*
D02*
G37*
G36*
X539696Y217567D02*
X532895Y216368D01*
X530893Y213508D01*
X531750Y208646D01*
X534610Y206644D01*
X541410Y207843D01*
X543413Y210703D01*
X542556Y215564D01*
X539696Y217567D01*
D02*
G37*
G36*
X533079Y239518D02*
X532954Y239517D01*
X532828Y239512D01*
X532703Y239504D01*
X532578Y239492D01*
X532454Y239475D01*
X532330Y239456D01*
X532207Y239432D01*
X532085Y239405D01*
X531963Y239373D01*
X531843Y239339D01*
X531724Y239300D01*
X531605Y239259D01*
X531489Y239213D01*
X531373Y239164D01*
X531259Y239112D01*
X531147Y239056D01*
X531037Y238997D01*
X530928Y238934D01*
X530821Y238869D01*
X530716Y238800D01*
X530614Y238728D01*
X530513Y238652D01*
X530415Y238574D01*
X530320Y238493D01*
X530227Y238409D01*
X530136Y238323D01*
X530048Y238233D01*
X529963Y238141D01*
X529881Y238047D01*
X529801Y237950D01*
X529725Y237850D01*
X529651Y237749D01*
X529581Y237645D01*
X529514Y237539D01*
X529450Y237431D01*
X529389Y237322D01*
X529332Y237210D01*
X529278Y237097D01*
X529227Y236982D01*
X529181Y236866D01*
X529137Y236749D01*
X529097Y236630D01*
X529061Y236510D01*
X529028Y236389D01*
X528999Y236267D01*
X528974Y236144D01*
X528952Y236020D01*
X528935Y235896D01*
X528921Y235772D01*
X528910Y235647D01*
X528904Y235522D01*
X528901Y235396D01*
X528902Y235271D01*
X528907Y235146D01*
X528916Y235021D01*
X528928Y234896D01*
X528944Y234771D01*
X528964Y234648D01*
X528988Y234525D01*
X529015Y234402D01*
X529046Y234281D01*
X529081Y234160D01*
X529119Y234041D01*
X529161Y233923D01*
X529206Y233806D01*
X529255Y233691D01*
X529308Y233577D01*
X529363Y233465D01*
X529423Y233354D01*
X529485Y233245D01*
X529551Y233139D01*
X529620Y233034D01*
X529692Y232931D01*
X529767Y232831D01*
X529845Y232733D01*
X529926Y232637D01*
X530010Y232544D01*
X530097Y232454D01*
X530186Y232366D01*
X530278Y232281D01*
X530373Y232198D01*
X530470Y232119D01*
X530569Y232042D01*
X530671Y231969D01*
X530774Y231898D01*
X530880Y231831D01*
X530988Y231767D01*
X531098Y231707D01*
X531209Y231649D01*
X531322Y231595D01*
X531437Y231545D01*
X531553Y231498D01*
X531671Y231455D01*
X531790Y231415D01*
X531910Y231378D01*
X532031Y231346D01*
X532153Y231317D01*
X532275Y231292D01*
X532399Y231270D01*
X532523Y231252D01*
X532648Y231238D01*
X532773Y231228D01*
X532898Y231221D01*
X533023Y231219D01*
X533148Y231220D01*
X533274Y231224D01*
X533399Y231233D01*
X533524Y231245D01*
X533648Y231261D01*
X533772Y231281D01*
X533895Y231305D01*
X534017Y231332D01*
X534138Y231363D01*
X534259Y231398D01*
X534378Y231436D01*
X534496Y231478D01*
X534613Y231524D01*
X534729Y231573D01*
X534843Y231625D01*
X534955Y231681D01*
X535065Y231740D01*
X535174Y231803D01*
X535281Y231868D01*
X535386Y231937D01*
X535488Y232009D01*
X535588Y232084D01*
X535686Y232163D01*
X535782Y232244D01*
X535875Y232328D01*
X535966Y232414D01*
X536054Y232504D01*
X536139Y232596D01*
X536221Y232690D01*
X536301Y232787D01*
X536377Y232887D01*
X536450Y232988D01*
X536521Y233092D01*
X536588Y233198D01*
X536652Y233306D01*
X536713Y233415D01*
X536770Y233527D01*
X536824Y233640D01*
X536874Y233755D01*
X536921Y233871D01*
X536965Y233988D01*
X537005Y234107D01*
X537041Y234227D01*
X537074Y234348D01*
X537103Y234470D01*
X537128Y234593D01*
X537149Y234717D01*
X537167Y234841D01*
X537181Y234965D01*
X537192Y235090D01*
X537198Y235215D01*
X537201Y235341D01*
X537200Y235466D01*
X537195Y235591D01*
X537186Y235716D01*
X537174Y235841D01*
X537158Y235965D01*
X537138Y236089D01*
X537114Y236212D01*
X537087Y236334D01*
X537056Y236456D01*
X537021Y236577D01*
X536983Y236696D01*
X536941Y236814D01*
X536896Y236931D01*
X536847Y237046D01*
X536794Y237160D01*
X536738Y237272D01*
X536679Y237383D01*
X536617Y237491D01*
X536551Y237598D01*
X536482Y237703D01*
X536410Y237806D01*
X536335Y237906D01*
X536257Y238004D01*
X536176Y238100D01*
X536092Y238193D01*
X536005Y238283D01*
X535916Y238371D01*
X535824Y238456D01*
X535729Y238539D01*
X535632Y238618D01*
X535533Y238695D01*
X535431Y238768D01*
X535328Y238838D01*
X535222Y238906D01*
X535114Y238969D01*
X535004Y239030D01*
X534893Y239087D01*
X534780Y239141D01*
X534665Y239192D01*
X534549Y239239D01*
X534431Y239282D01*
X534312Y239322D01*
X534192Y239358D01*
X534071Y239391D01*
X533949Y239420D01*
X533826Y239445D01*
X533703Y239467D01*
X533579Y239485D01*
X533454Y239499D01*
X533329Y239509D01*
X533204Y239516D01*
X533079Y239518D01*
D02*
G37*
G36*
X350969Y293468D02*
X347031D01*
Y290912D01*
X347011Y290909D01*
X346947Y290896D01*
X346883Y290880D01*
X346820Y290860D01*
X346758Y290836D01*
X346698Y290809D01*
X346639Y290779D01*
X346582Y290745D01*
X346527Y290708D01*
X346474Y290669D01*
X346424Y290626D01*
X346376Y290581D01*
X346331Y290533D01*
X346288Y290482D01*
X346248Y290429D01*
X346212Y290375D01*
X346178Y290318D01*
X346148Y290259D01*
X346121Y290199D01*
X346097Y290137D01*
X346077Y290074D01*
X346061Y290010D01*
X346048Y289945D01*
X346038Y289880D01*
X346033Y289814D01*
X346031Y289748D01*
Y286559D01*
X346033Y286493D01*
X346038Y286427D01*
X346048Y286362D01*
X346061Y286297D01*
X346077Y286233D01*
X346097Y286170D01*
X346121Y286108D01*
X346148Y286048D01*
X346178Y285989D01*
X346212Y285932D01*
X346248Y285878D01*
X346280Y285835D01*
X346288Y285824D01*
X346289Y285823D01*
X346290Y285822D01*
X346308Y285800D01*
X346326Y285778D01*
X346327Y285776D01*
X346328Y285775D01*
X346347Y285755D01*
X346367Y285733D01*
X346368Y285732D01*
X346369Y285731D01*
X346391Y285710D01*
X346411Y285691D01*
X346412Y285690D01*
X346413Y285689D01*
X346436Y285670D01*
X346457Y285652D01*
X346458Y285651D01*
X346459Y285650D01*
X346473Y285640D01*
X346474Y285638D01*
X346527Y285599D01*
X346582Y285562D01*
X346639Y285528D01*
X346648Y285524D01*
X346659Y285506D01*
X346693Y285426D01*
X346730Y285301D01*
X346762Y285146D01*
X346812Y284654D01*
X346818Y284370D01*
Y256084D01*
X346802Y256064D01*
X346748Y255992D01*
X346697Y255918D01*
X346650Y255841D01*
X346605Y255763D01*
X346564Y255682D01*
X346526Y255601D01*
X346491Y255517D01*
X346460Y255433D01*
X346433Y255347D01*
X346409Y255260D01*
X346389Y255172D01*
X346372Y255083D01*
X346359Y254994D01*
X346350Y254905D01*
X346344Y254815D01*
X346342Y254724D01*
X346344Y254634D01*
X346350Y254544D01*
X346359Y254455D01*
X346372Y254365D01*
X346389Y254277D01*
X346409Y254189D01*
X346433Y254102D01*
X346460Y254016D01*
X346491Y253931D01*
X346526Y253848D01*
X346564Y253766D01*
X346605Y253686D01*
X346650Y253608D01*
X346697Y253531D01*
X346748Y253457D01*
X346802Y253384D01*
X346859Y253314D01*
X346919Y253247D01*
X346981Y253182D01*
X347046Y253119D01*
X347114Y253060D01*
X347184Y253003D01*
X347256Y252949D01*
X347330Y252898D01*
X347407Y252850D01*
X347485Y252806D01*
X347566Y252765D01*
X347647Y252727D01*
X347731Y252692D01*
X347815Y252661D01*
X347901Y252634D01*
X347988Y252610D01*
X348076Y252589D01*
X348165Y252573D01*
X348254Y252560D01*
X348343Y252550D01*
X348433Y252545D01*
X348524Y252543D01*
X348614Y252545D01*
X348704Y252550D01*
X348794Y252560D01*
X348883Y252573D01*
X348971Y252589D01*
X349059Y252610D01*
X349146Y252634D01*
X349232Y252661D01*
X349317Y252692D01*
X349400Y252727D01*
X349482Y252765D01*
X349562Y252806D01*
X349640Y252850D01*
X349717Y252898D01*
X349791Y252949D01*
X349864Y253003D01*
X349934Y253060D01*
X350001Y253119D01*
X350066Y253182D01*
X350129Y253247D01*
X350188Y253314D01*
X350245Y253384D01*
X350299Y253457D01*
X350350Y253531D01*
X350398Y253608D01*
X350442Y253686D01*
X350483Y253766D01*
X350521Y253848D01*
X350556Y253931D01*
X350587Y254016D01*
X350615Y254102D01*
X350638Y254189D01*
X350639Y254189D01*
X350667Y254254D01*
X350699Y254335D01*
X350727Y254418D01*
X350751Y254502D01*
X350772Y254587D01*
X350789Y254672D01*
X350802Y254759D01*
X350812Y254845D01*
X350817Y254932D01*
X350819Y255020D01*
Y284368D01*
X350828Y284710D01*
X350852Y284987D01*
X350888Y285206D01*
X350929Y285363D01*
X350941Y285391D01*
X350989Y285398D01*
X351053Y285411D01*
X351117Y285427D01*
X351180Y285448D01*
X351242Y285471D01*
X351302Y285498D01*
X351361Y285528D01*
X351418Y285562D01*
X351473Y285599D01*
X351526Y285638D01*
X351576Y285681D01*
X351624Y285726D01*
X351669Y285774D01*
X351712Y285825D01*
X351752Y285878D01*
X351788Y285932D01*
X351822Y285989D01*
X351852Y286048D01*
X351879Y286108D01*
X351903Y286170D01*
X351923Y286233D01*
X351939Y286297D01*
X351952Y286362D01*
X351962Y286427D01*
X351967Y286493D01*
X351969Y286559D01*
Y289748D01*
X351967Y289814D01*
X351962Y289880D01*
X351952Y289945D01*
X351939Y290010D01*
X351923Y290074D01*
X351903Y290137D01*
X351879Y290199D01*
X351852Y290259D01*
X351822Y290318D01*
X351788Y290375D01*
X351752Y290429D01*
X351712Y290482D01*
X351669Y290533D01*
X351624Y290581D01*
X351576Y290626D01*
X351526Y290669D01*
X351473Y290708D01*
X351418Y290745D01*
X351361Y290779D01*
X351302Y290809D01*
X351242Y290836D01*
X351180Y290860D01*
X351117Y290880D01*
X351053Y290896D01*
X350989Y290909D01*
X350969Y290912D01*
Y293468D01*
D02*
G37*
G36*
X361500Y289863D02*
X361385Y289861D01*
X361270Y289855D01*
X361156Y289845D01*
X361042Y289831D01*
X360929Y289814D01*
X360816Y289792D01*
X360704Y289767D01*
X360593Y289738D01*
X360483Y289705D01*
X360374Y289668D01*
X360266Y289628D01*
X360160Y289584D01*
X360056Y289537D01*
X359953Y289486D01*
X359852Y289431D01*
X359753Y289373D01*
X359656Y289312D01*
X359561Y289247D01*
X359468Y289179D01*
X359378Y289108D01*
X359290Y289035D01*
X359205Y288958D01*
X359122Y288878D01*
X359042Y288795D01*
X358965Y288710D01*
X358892Y288622D01*
X358821Y288532D01*
X358753Y288439D01*
X358688Y288344D01*
X358627Y288247D01*
X358569Y288148D01*
X358514Y288047D01*
X358463Y287944D01*
X358416Y287840D01*
X358372Y287734D01*
X358331Y287626D01*
X358295Y287517D01*
X358262Y287407D01*
X358233Y287296D01*
X358208Y287184D01*
X358186Y287071D01*
X358169Y286958D01*
X358155Y286844D01*
X358145Y286730D01*
X358139Y286615D01*
X358137Y286500D01*
X358139Y286385D01*
X358145Y286270D01*
X358155Y286156D01*
X358169Y286042D01*
X358186Y285929D01*
X358208Y285816D01*
X358233Y285704D01*
X358262Y285593D01*
X358295Y285483D01*
X358331Y285374D01*
X358372Y285266D01*
X358416Y285160D01*
X358463Y285056D01*
X358514Y284953D01*
X358569Y284852D01*
X358627Y284753D01*
X358688Y284656D01*
X358753Y284561D01*
X358821Y284468D01*
X358892Y284378D01*
X358965Y284290D01*
X359042Y284205D01*
X359122Y284122D01*
X359205Y284042D01*
X359290Y283965D01*
X359378Y283892D01*
X359468Y283821D01*
X359561Y283753D01*
X359656Y283688D01*
X359753Y283627D01*
X359852Y283569D01*
X359953Y283514D01*
X360056Y283463D01*
X360160Y283416D01*
X360266Y283372D01*
X360374Y283331D01*
X360483Y283295D01*
X360593Y283262D01*
X360704Y283233D01*
X360816Y283208D01*
X360929Y283186D01*
X361042Y283169D01*
X361156Y283155D01*
X361270Y283145D01*
X361385Y283139D01*
X361500Y283137D01*
X361615Y283139D01*
X361730Y283145D01*
X361844Y283155D01*
X361958Y283169D01*
X362071Y283186D01*
X362184Y283208D01*
X362296Y283233D01*
X362407Y283262D01*
X362517Y283295D01*
X362626Y283331D01*
X362734Y283372D01*
X362840Y283416D01*
X362944Y283463D01*
X363047Y283514D01*
X363148Y283569D01*
X363247Y283627D01*
X363344Y283688D01*
X363439Y283753D01*
X363532Y283821D01*
X363622Y283892D01*
X363710Y283965D01*
X363795Y284042D01*
X363878Y284122D01*
X363958Y284205D01*
X364035Y284290D01*
X364108Y284378D01*
X364179Y284468D01*
X364247Y284561D01*
X364312Y284656D01*
X364373Y284753D01*
X364431Y284852D01*
X364486Y284953D01*
X364537Y285056D01*
X364584Y285160D01*
X364628Y285266D01*
X364668Y285374D01*
X364705Y285483D01*
X364738Y285593D01*
X364767Y285704D01*
X364792Y285816D01*
X364814Y285929D01*
X364831Y286042D01*
X364845Y286156D01*
X364855Y286270D01*
X364861Y286385D01*
X364863Y286500D01*
X364861Y286615D01*
X364855Y286730D01*
X364845Y286844D01*
X364831Y286958D01*
X364814Y287071D01*
X364792Y287184D01*
X364767Y287296D01*
X364738Y287407D01*
X364705Y287517D01*
X364668Y287626D01*
X364628Y287734D01*
X364584Y287840D01*
X364537Y287944D01*
X364486Y288047D01*
X364431Y288148D01*
X364373Y288247D01*
X364312Y288344D01*
X364247Y288439D01*
X364179Y288532D01*
X364108Y288622D01*
X364035Y288710D01*
X363958Y288795D01*
X363878Y288878D01*
X363795Y288958D01*
X363710Y289035D01*
X363622Y289108D01*
X363532Y289179D01*
X363439Y289247D01*
X363344Y289312D01*
X363247Y289373D01*
X363148Y289431D01*
X363047Y289486D01*
X362944Y289537D01*
X362840Y289584D01*
X362734Y289628D01*
X362626Y289668D01*
X362517Y289705D01*
X362407Y289738D01*
X362296Y289767D01*
X362184Y289792D01*
X362071Y289814D01*
X361958Y289831D01*
X361844Y289845D01*
X361730Y289855D01*
X361615Y289861D01*
X361500Y289863D01*
D02*
G37*
G36*
X531492Y264093D02*
X524691Y262894D01*
X522689Y260034D01*
X523546Y255172D01*
X526406Y253170D01*
X533207Y254369D01*
X535209Y257229D01*
X534352Y262091D01*
X531492Y264093D01*
D02*
G37*
G36*
X531028Y251150D02*
X530902Y251149D01*
X530777Y251144D01*
X530652Y251135D01*
X530527Y251123D01*
X530403Y251107D01*
X530279Y251087D01*
X530156Y251063D01*
X530034Y251036D01*
X529912Y251005D01*
X529792Y250970D01*
X529673Y250932D01*
X529554Y250890D01*
X529438Y250845D01*
X529322Y250796D01*
X529208Y250743D01*
X529096Y250688D01*
X528986Y250628D01*
X528877Y250566D01*
X528770Y250500D01*
X528665Y250431D01*
X528563Y250359D01*
X528463Y250284D01*
X528365Y250206D01*
X528269Y250125D01*
X528176Y250041D01*
X528085Y249954D01*
X527997Y249865D01*
X527912Y249773D01*
X527830Y249678D01*
X527750Y249581D01*
X527674Y249482D01*
X527600Y249380D01*
X527530Y249277D01*
X527463Y249171D01*
X527399Y249063D01*
X527338Y248953D01*
X527281Y248842D01*
X527227Y248729D01*
X527177Y248614D01*
X527130Y248498D01*
X527086Y248380D01*
X527046Y248261D01*
X527010Y248141D01*
X526977Y248020D01*
X526948Y247898D01*
X526923Y247776D01*
X526901Y247652D01*
X526884Y247528D01*
X526870Y247403D01*
X526859Y247278D01*
X526853Y247153D01*
X526850Y247028D01*
X526851Y246902D01*
X526856Y246777D01*
X526864Y246652D01*
X526877Y246527D01*
X526893Y246403D01*
X526913Y246279D01*
X526937Y246156D01*
X526964Y246034D01*
X526995Y245912D01*
X527030Y245792D01*
X527068Y245673D01*
X527110Y245554D01*
X527155Y245438D01*
X527204Y245322D01*
X527257Y245208D01*
X527312Y245096D01*
X527372Y244986D01*
X527434Y244877D01*
X527500Y244770D01*
X527569Y244666D01*
X527641Y244563D01*
X527716Y244463D01*
X527794Y244365D01*
X527875Y244269D01*
X527959Y244176D01*
X528046Y244085D01*
X528135Y243997D01*
X528227Y243912D01*
X528322Y243830D01*
X528419Y243750D01*
X528518Y243674D01*
X528620Y243601D01*
X528723Y243530D01*
X528829Y243463D01*
X528937Y243399D01*
X529047Y243338D01*
X529158Y243281D01*
X529271Y243227D01*
X529386Y243177D01*
X529502Y243130D01*
X529620Y243086D01*
X529739Y243046D01*
X529859Y243010D01*
X529980Y242977D01*
X530102Y242948D01*
X530225Y242923D01*
X530348Y242901D01*
X530472Y242884D01*
X530597Y242870D01*
X530722Y242859D01*
X530847Y242853D01*
X530972Y242850D01*
X531098Y242851D01*
X531223Y242856D01*
X531348Y242864D01*
X531473Y242877D01*
X531597Y242893D01*
X531721Y242913D01*
X531844Y242937D01*
X531966Y242964D01*
X532088Y242995D01*
X532208Y243030D01*
X532327Y243068D01*
X532446Y243110D01*
X532562Y243155D01*
X532678Y243204D01*
X532792Y243257D01*
X532904Y243312D01*
X533014Y243372D01*
X533123Y243434D01*
X533230Y243500D01*
X533334Y243569D01*
X533437Y243641D01*
X533537Y243716D01*
X533636Y243794D01*
X533731Y243875D01*
X533824Y243959D01*
X533915Y244046D01*
X534003Y244135D01*
X534088Y244227D01*
X534170Y244322D01*
X534250Y244419D01*
X534326Y244518D01*
X534400Y244620D01*
X534470Y244723D01*
X534537Y244829D01*
X534601Y244937D01*
X534662Y245047D01*
X534719Y245158D01*
X534773Y245271D01*
X534823Y245386D01*
X534870Y245502D01*
X534914Y245620D01*
X534954Y245739D01*
X534990Y245859D01*
X535023Y245980D01*
X535052Y246102D01*
X535077Y246224D01*
X535099Y246348D01*
X535116Y246472D01*
X535130Y246597D01*
X535141Y246722D01*
X535147Y246847D01*
X535150Y246972D01*
X535149Y247097D01*
X535144Y247223D01*
X535136Y247348D01*
X535123Y247473D01*
X535107Y247597D01*
X535087Y247721D01*
X535063Y247844D01*
X535036Y247966D01*
X535005Y248088D01*
X534970Y248208D01*
X534932Y248327D01*
X534890Y248446D01*
X534845Y248562D01*
X534796Y248678D01*
X534743Y248792D01*
X534688Y248904D01*
X534628Y249014D01*
X534566Y249123D01*
X534500Y249230D01*
X534431Y249335D01*
X534359Y249437D01*
X534284Y249537D01*
X534206Y249636D01*
X534125Y249731D01*
X534041Y249824D01*
X533954Y249915D01*
X533865Y250003D01*
X533773Y250088D01*
X533678Y250170D01*
X533581Y250250D01*
X533482Y250326D01*
X533380Y250399D01*
X533277Y250470D01*
X533171Y250537D01*
X533063Y250601D01*
X532953Y250662D01*
X532842Y250719D01*
X532729Y250773D01*
X532614Y250823D01*
X532498Y250870D01*
X532380Y250914D01*
X532261Y250954D01*
X532141Y250990D01*
X532020Y251023D01*
X531898Y251052D01*
X531776Y251077D01*
X531652Y251098D01*
X531528Y251116D01*
X531403Y251130D01*
X531278Y251141D01*
X531153Y251147D01*
X531028Y251150D01*
D02*
G37*
G36*
X465058Y316883D02*
X457058D01*
Y308883D01*
X465058D01*
Y316883D01*
D02*
G37*
G36*
X361500Y309863D02*
X361385Y309861D01*
X361270Y309855D01*
X361156Y309845D01*
X361042Y309831D01*
X360929Y309814D01*
X360816Y309792D01*
X360704Y309767D01*
X360593Y309738D01*
X360483Y309705D01*
X360374Y309668D01*
X360266Y309628D01*
X360160Y309584D01*
X360056Y309537D01*
X359953Y309486D01*
X359852Y309431D01*
X359753Y309373D01*
X359656Y309312D01*
X359561Y309247D01*
X359468Y309179D01*
X359378Y309108D01*
X359290Y309034D01*
X359205Y308958D01*
X359122Y308878D01*
X359042Y308795D01*
X358965Y308710D01*
X358892Y308622D01*
X358821Y308532D01*
X358753Y308439D01*
X358688Y308344D01*
X358627Y308247D01*
X358569Y308148D01*
X358514Y308047D01*
X358463Y307944D01*
X358416Y307840D01*
X358372Y307734D01*
X358331Y307626D01*
X358295Y307517D01*
X358262Y307407D01*
X358233Y307296D01*
X358208Y307184D01*
X358186Y307071D01*
X358169Y306958D01*
X358155Y306844D01*
X358145Y306730D01*
X358139Y306615D01*
X358137Y306500D01*
X358139Y306385D01*
X358145Y306271D01*
X358155Y306156D01*
X358169Y306042D01*
X358186Y305929D01*
X358208Y305816D01*
X358233Y305704D01*
X358262Y305593D01*
X358295Y305483D01*
X358331Y305374D01*
X358372Y305266D01*
X358416Y305160D01*
X358463Y305056D01*
X358514Y304953D01*
X358569Y304852D01*
X358627Y304753D01*
X358688Y304656D01*
X358753Y304561D01*
X358821Y304468D01*
X358892Y304378D01*
X358965Y304290D01*
X359042Y304205D01*
X359122Y304122D01*
X359205Y304042D01*
X359290Y303965D01*
X359378Y303891D01*
X359468Y303821D01*
X359561Y303753D01*
X359656Y303688D01*
X359753Y303627D01*
X359852Y303569D01*
X359953Y303514D01*
X360056Y303463D01*
X360160Y303416D01*
X360266Y303372D01*
X360374Y303331D01*
X360483Y303295D01*
X360593Y303262D01*
X360704Y303233D01*
X360816Y303208D01*
X360929Y303186D01*
X361042Y303169D01*
X361156Y303155D01*
X361270Y303145D01*
X361385Y303139D01*
X361500Y303137D01*
X361615Y303139D01*
X361730Y303145D01*
X361844Y303155D01*
X361958Y303169D01*
X362071Y303186D01*
X362184Y303208D01*
X362296Y303233D01*
X362407Y303262D01*
X362517Y303295D01*
X362626Y303331D01*
X362734Y303372D01*
X362840Y303416D01*
X362944Y303463D01*
X363047Y303514D01*
X363148Y303569D01*
X363247Y303627D01*
X363344Y303688D01*
X363439Y303753D01*
X363532Y303821D01*
X363622Y303891D01*
X363710Y303965D01*
X363795Y304042D01*
X363878Y304122D01*
X363958Y304205D01*
X364035Y304290D01*
X364108Y304378D01*
X364179Y304468D01*
X364247Y304561D01*
X364312Y304656D01*
X364373Y304753D01*
X364431Y304852D01*
X364486Y304953D01*
X364537Y305056D01*
X364584Y305160D01*
X364628Y305266D01*
X364668Y305374D01*
X364705Y305483D01*
X364738Y305593D01*
X364767Y305704D01*
X364792Y305816D01*
X364814Y305929D01*
X364831Y306042D01*
X364845Y306156D01*
X364855Y306271D01*
X364861Y306385D01*
X364863Y306500D01*
X364861Y306615D01*
X364855Y306730D01*
X364845Y306844D01*
X364831Y306958D01*
X364814Y307071D01*
X364792Y307184D01*
X364767Y307296D01*
X364738Y307407D01*
X364705Y307517D01*
X364668Y307626D01*
X364628Y307734D01*
X364584Y307840D01*
X364537Y307944D01*
X364486Y308047D01*
X364431Y308148D01*
X364373Y308247D01*
X364312Y308344D01*
X364247Y308439D01*
X364179Y308532D01*
X364108Y308622D01*
X364035Y308710D01*
X363958Y308795D01*
X363878Y308878D01*
X363795Y308958D01*
X363710Y309034D01*
X363622Y309108D01*
X363532Y309179D01*
X363439Y309247D01*
X363344Y309312D01*
X363247Y309373D01*
X363148Y309431D01*
X363047Y309486D01*
X362944Y309537D01*
X362840Y309584D01*
X362734Y309628D01*
X362626Y309668D01*
X362517Y309705D01*
X362407Y309738D01*
X362296Y309767D01*
X362184Y309792D01*
X362071Y309814D01*
X361958Y309831D01*
X361844Y309845D01*
X361730Y309855D01*
X361615Y309861D01*
X361500Y309863D01*
D02*
G37*
G36*
X222571Y189024D02*
X222447Y189022D01*
X222323Y189016D01*
X222199Y189007D01*
X222076Y188993D01*
X221953Y188976D01*
X221830Y188954D01*
X221709Y188929D01*
X221588Y188900D01*
X221468Y188867D01*
X221349Y188831D01*
X221232Y188791D01*
X221116Y188747D01*
X221001Y188699D01*
X220888Y188648D01*
X220776Y188593D01*
X220667Y188535D01*
X220559Y188474D01*
X220453Y188409D01*
X220349Y188341D01*
X220247Y188269D01*
X220148Y188195D01*
X220051Y188117D01*
X219957Y188036D01*
X219865Y187953D01*
X219776Y187866D01*
X219689Y187777D01*
X219606Y187685D01*
X219525Y187591D01*
X219447Y187494D01*
X219373Y187395D01*
X219301Y187293D01*
X219233Y187189D01*
X219168Y187083D01*
X219107Y186976D01*
X219049Y186866D01*
X218994Y186754D01*
X218943Y186641D01*
X218895Y186526D01*
X218851Y186410D01*
X218811Y186293D01*
X218775Y186174D01*
X218742Y186054D01*
X218713Y185933D01*
X218688Y185812D01*
X218667Y185689D01*
X218649Y185566D01*
X218635Y185443D01*
X218626Y185319D01*
X218620Y185195D01*
X218618Y185071D01*
X218620Y184947D01*
X218626Y184823D01*
X218635Y184699D01*
X218649Y184576D01*
X218667Y184453D01*
X218688Y184330D01*
X218713Y184209D01*
X218742Y184088D01*
X218775Y183968D01*
X218811Y183850D01*
X218851Y183732D01*
X218895Y183616D01*
X218943Y183501D01*
X218994Y183388D01*
X219049Y183276D01*
X219107Y183167D01*
X219168Y183059D01*
X219233Y182953D01*
X219301Y182849D01*
X219373Y182747D01*
X219447Y182648D01*
X219525Y182551D01*
X219606Y182457D01*
X219689Y182365D01*
X219776Y182276D01*
X219865Y182189D01*
X219957Y182106D01*
X220051Y182025D01*
X220148Y181947D01*
X220247Y181873D01*
X220349Y181801D01*
X220453Y181733D01*
X220559Y181668D01*
X220667Y181607D01*
X220776Y181549D01*
X220888Y181494D01*
X221001Y181443D01*
X221116Y181395D01*
X221232Y181351D01*
X221349Y181311D01*
X221468Y181275D01*
X221588Y181242D01*
X221709Y181213D01*
X221830Y181188D01*
X221953Y181167D01*
X222076Y181149D01*
X222199Y181135D01*
X222323Y181126D01*
X222447Y181120D01*
X222571Y181118D01*
X222695Y181120D01*
X222819Y181126D01*
X222943Y181135D01*
X223066Y181149D01*
X223189Y181167D01*
X223312Y181188D01*
X223433Y181213D01*
X223554Y181242D01*
X223674Y181275D01*
X223793Y181311D01*
X223910Y181351D01*
X224026Y181395D01*
X224141Y181443D01*
X224254Y181494D01*
X224366Y181549D01*
X224476Y181607D01*
X224583Y181668D01*
X224689Y181733D01*
X224793Y181801D01*
X224895Y181873D01*
X224994Y181947D01*
X225091Y182025D01*
X225185Y182106D01*
X225277Y182189D01*
X225366Y182276D01*
X225453Y182365D01*
X225536Y182457D01*
X225617Y182551D01*
X225695Y182648D01*
X225769Y182747D01*
X225841Y182849D01*
X225909Y182953D01*
X225974Y183059D01*
X226035Y183167D01*
X226093Y183276D01*
X226148Y183388D01*
X226199Y183501D01*
X226247Y183616D01*
X226291Y183732D01*
X226331Y183850D01*
X226367Y183968D01*
X226400Y184088D01*
X226429Y184209D01*
X226454Y184330D01*
X226476Y184453D01*
X226493Y184576D01*
X226507Y184699D01*
X226517Y184823D01*
X226522Y184947D01*
X226524Y185071D01*
X226522Y185195D01*
X226517Y185319D01*
X226507Y185443D01*
X226493Y185566D01*
X226476Y185689D01*
X226454Y185812D01*
X226429Y185933D01*
X226400Y186054D01*
X226367Y186174D01*
X226331Y186293D01*
X226291Y186410D01*
X226247Y186526D01*
X226199Y186641D01*
X226148Y186754D01*
X226093Y186866D01*
X226035Y186976D01*
X225974Y187083D01*
X225909Y187189D01*
X225841Y187293D01*
X225769Y187395D01*
X225695Y187494D01*
X225617Y187591D01*
X225536Y187685D01*
X225453Y187777D01*
X225366Y187866D01*
X225277Y187953D01*
X225185Y188036D01*
X225091Y188117D01*
X224994Y188195D01*
X224895Y188269D01*
X224793Y188341D01*
X224689Y188409D01*
X224583Y188474D01*
X224476Y188535D01*
X224366Y188593D01*
X224254Y188648D01*
X224141Y188699D01*
X224026Y188747D01*
X223910Y188791D01*
X223793Y188831D01*
X223674Y188867D01*
X223554Y188900D01*
X223433Y188929D01*
X223312Y188954D01*
X223189Y188976D01*
X223066Y188993D01*
X222943Y189007D01*
X222819Y189016D01*
X222695Y189022D01*
X222571Y189024D01*
D02*
G37*
G36*
X405500Y383953D02*
X405376Y383951D01*
X405252Y383945D01*
X405128Y383936D01*
X405005Y383922D01*
X404882Y383905D01*
X404759Y383883D01*
X404638Y383858D01*
X404517Y383829D01*
X404397Y383796D01*
X404278Y383760D01*
X404161Y383719D01*
X404045Y383676D01*
X403930Y383628D01*
X403817Y383577D01*
X403705Y383522D01*
X403595Y383464D01*
X403488Y383403D01*
X403382Y383338D01*
X403278Y383270D01*
X403176Y383198D01*
X403077Y383124D01*
X402980Y383046D01*
X402886Y382965D01*
X402794Y382882D01*
X402705Y382795D01*
X402618Y382706D01*
X402535Y382614D01*
X402454Y382520D01*
X402376Y382423D01*
X402302Y382324D01*
X402230Y382222D01*
X402162Y382118D01*
X402097Y382012D01*
X402036Y381905D01*
X401978Y381795D01*
X401923Y381683D01*
X401872Y381570D01*
X401824Y381455D01*
X401781Y381339D01*
X401740Y381222D01*
X401704Y381103D01*
X401671Y380983D01*
X401642Y380862D01*
X401617Y380741D01*
X401595Y380618D01*
X401578Y380496D01*
X401564Y380372D01*
X401555Y380248D01*
X401549Y380124D01*
X401547Y380000D01*
X401549Y379876D01*
X401555Y379752D01*
X401564Y379628D01*
X401578Y379504D01*
X401595Y379382D01*
X401617Y379259D01*
X401642Y379138D01*
X401671Y379017D01*
X401704Y378897D01*
X401740Y378778D01*
X401781Y378661D01*
X401824Y378545D01*
X401872Y378430D01*
X401923Y378317D01*
X401978Y378205D01*
X402036Y378096D01*
X402097Y377988D01*
X402162Y377882D01*
X402230Y377778D01*
X402302Y377676D01*
X402376Y377577D01*
X402454Y377480D01*
X402535Y377386D01*
X402618Y377294D01*
X402705Y377205D01*
X402794Y377118D01*
X402886Y377035D01*
X402980Y376954D01*
X403077Y376876D01*
X403176Y376802D01*
X403278Y376730D01*
X403382Y376662D01*
X403488Y376597D01*
X403595Y376536D01*
X403705Y376478D01*
X403817Y376423D01*
X403930Y376372D01*
X404045Y376324D01*
X404161Y376280D01*
X404278Y376240D01*
X404397Y376204D01*
X404517Y376171D01*
X404638Y376142D01*
X404759Y376117D01*
X404882Y376095D01*
X405005Y376078D01*
X405128Y376064D01*
X405252Y376055D01*
X405376Y376049D01*
X405500Y376047D01*
X405624Y376049D01*
X405748Y376055D01*
X405872Y376064D01*
X405996Y376078D01*
X406118Y376095D01*
X406241Y376117D01*
X406362Y376142D01*
X406483Y376171D01*
X406603Y376204D01*
X406722Y376240D01*
X406839Y376280D01*
X406955Y376324D01*
X407070Y376372D01*
X407183Y376423D01*
X407295Y376478D01*
X407405Y376536D01*
X407512Y376597D01*
X407618Y376662D01*
X407722Y376730D01*
X407824Y376802D01*
X407923Y376876D01*
X408020Y376954D01*
X408114Y377035D01*
X408206Y377118D01*
X408295Y377205D01*
X408382Y377294D01*
X408465Y377386D01*
X408546Y377480D01*
X408624Y377577D01*
X408698Y377676D01*
X408770Y377778D01*
X408838Y377882D01*
X408903Y377988D01*
X408964Y378096D01*
X409022Y378205D01*
X409077Y378317D01*
X409128Y378430D01*
X409176Y378545D01*
X409220Y378661D01*
X409260Y378778D01*
X409296Y378897D01*
X409329Y379017D01*
X409358Y379138D01*
X409383Y379259D01*
X409405Y379382D01*
X409422Y379504D01*
X409436Y379628D01*
X409445Y379752D01*
X409451Y379876D01*
X409453Y380000D01*
X409451Y380124D01*
X409445Y380248D01*
X409436Y380372D01*
X409422Y380496D01*
X409405Y380618D01*
X409383Y380741D01*
X409358Y380862D01*
X409329Y380983D01*
X409296Y381103D01*
X409260Y381222D01*
X409220Y381339D01*
X409176Y381455D01*
X409128Y381570D01*
X409077Y381683D01*
X409022Y381795D01*
X408964Y381905D01*
X408903Y382012D01*
X408838Y382118D01*
X408770Y382222D01*
X408698Y382324D01*
X408624Y382423D01*
X408546Y382520D01*
X408465Y382614D01*
X408382Y382706D01*
X408295Y382795D01*
X408206Y382882D01*
X408114Y382965D01*
X408020Y383046D01*
X407923Y383124D01*
X407824Y383198D01*
X407722Y383270D01*
X407618Y383338D01*
X407512Y383403D01*
X407405Y383464D01*
X407295Y383522D01*
X407183Y383577D01*
X407070Y383628D01*
X406955Y383676D01*
X406839Y383719D01*
X406722Y383760D01*
X406603Y383796D01*
X406483Y383829D01*
X406362Y383858D01*
X406241Y383883D01*
X406118Y383905D01*
X405996Y383922D01*
X405872Y383936D01*
X405748Y383945D01*
X405624Y383951D01*
X405500Y383953D01*
D02*
G37*
G36*
X251500Y384941D02*
X251361Y384940D01*
X251223Y384934D01*
X251085Y384924D01*
X250947Y384910D01*
X250810Y384893D01*
X250673Y384872D01*
X250537Y384846D01*
X250401Y384818D01*
X250267Y384785D01*
X250133Y384749D01*
X250001Y384708D01*
X249869Y384664D01*
X249739Y384617D01*
X249610Y384566D01*
X249483Y384511D01*
X249358Y384452D01*
X249234Y384391D01*
X249112Y384325D01*
X248991Y384257D01*
X248873Y384185D01*
X248757Y384109D01*
X248643Y384031D01*
X248531Y383949D01*
X248422Y383864D01*
X248314Y383776D01*
X248210Y383685D01*
X248108Y383592D01*
X248009Y383495D01*
X247912Y383396D01*
X247818Y383294D01*
X247728Y383190D01*
X247640Y383082D01*
X247555Y382973D01*
X247473Y382861D01*
X247395Y382747D01*
X247319Y382631D01*
X247247Y382512D01*
X247179Y382392D01*
X247113Y382270D01*
X247052Y382146D01*
X246993Y382021D01*
X246938Y381893D01*
X246887Y381765D01*
X246840Y381635D01*
X246796Y381503D01*
X246756Y381371D01*
X246719Y381237D01*
X246686Y381103D01*
X246657Y380967D01*
X246632Y380831D01*
X246611Y380694D01*
X246594Y380557D01*
X246580Y380419D01*
X246570Y380281D01*
X246564Y380142D01*
X246563Y380004D01*
X246564Y379865D01*
X246570Y379727D01*
X246580Y379589D01*
X246594Y379451D01*
X246611Y379314D01*
X246632Y379177D01*
X246657Y379041D01*
X246686Y378905D01*
X246719Y378771D01*
X246756Y378637D01*
X246796Y378504D01*
X246840Y378373D01*
X246887Y378243D01*
X246938Y378114D01*
X246993Y377987D01*
X247052Y377862D01*
X247113Y377738D01*
X247179Y377616D01*
X247247Y377495D01*
X247319Y377377D01*
X247395Y377261D01*
X247473Y377147D01*
X247555Y377035D01*
X247640Y376925D01*
X247728Y376818D01*
X247818Y376714D01*
X247912Y376612D01*
X248009Y376513D01*
X248108Y376416D01*
X248210Y376322D01*
X248314Y376232D01*
X248422Y376144D01*
X248531Y376059D01*
X248643Y375977D01*
X248757Y375899D01*
X248873Y375823D01*
X248991Y375751D01*
X249112Y375682D01*
X249234Y375617D01*
X249358Y375555D01*
X249483Y375497D01*
X249610Y375442D01*
X249739Y375391D01*
X249869Y375343D01*
X250001Y375300D01*
X250133Y375259D01*
X250267Y375223D01*
X250401Y375190D01*
X250537Y375161D01*
X250673Y375136D01*
X250810Y375115D01*
X250947Y375097D01*
X251085Y375084D01*
X251223Y375074D01*
X251361Y375068D01*
X251500Y375066D01*
X251639Y375068D01*
X251777Y375074D01*
X251915Y375084D01*
X252053Y375097D01*
X252190Y375115D01*
X252327Y375136D01*
X252463Y375161D01*
X252599Y375190D01*
X252733Y375223D01*
X252867Y375259D01*
X252999Y375300D01*
X253131Y375343D01*
X253261Y375391D01*
X253390Y375442D01*
X253517Y375497D01*
X253642Y375555D01*
X253766Y375617D01*
X253888Y375682D01*
X254009Y375751D01*
X254127Y375823D01*
X254243Y375899D01*
X254357Y375977D01*
X254469Y376059D01*
X254578Y376144D01*
X254685Y376232D01*
X254790Y376322D01*
X254892Y376416D01*
X254991Y376513D01*
X255088Y376612D01*
X255182Y376714D01*
X255272Y376818D01*
X255360Y376925D01*
X255445Y377035D01*
X255527Y377147D01*
X255605Y377261D01*
X255681Y377377D01*
X255753Y377495D01*
X255821Y377616D01*
X255887Y377738D01*
X255948Y377862D01*
X256007Y377987D01*
X256062Y378114D01*
X256113Y378243D01*
X256160Y378373D01*
X256204Y378504D01*
X256244Y378637D01*
X256281Y378771D01*
X256314Y378905D01*
X256343Y379041D01*
X256368Y379177D01*
X256389Y379314D01*
X256406Y379451D01*
X256420Y379589D01*
X256430Y379727D01*
X256436Y379865D01*
X256437Y380004D01*
X256436Y380142D01*
X256430Y380281D01*
X256420Y380419D01*
X256406Y380557D01*
X256389Y380694D01*
X256368Y380831D01*
X256343Y380967D01*
X256314Y381103D01*
X256281Y381237D01*
X256244Y381371D01*
X256204Y381503D01*
X256160Y381635D01*
X256113Y381765D01*
X256062Y381893D01*
X256007Y382021D01*
X255948Y382146D01*
X255887Y382270D01*
X255821Y382392D01*
X255753Y382512D01*
X255681Y382631D01*
X255605Y382747D01*
X255527Y382861D01*
X255445Y382973D01*
X255360Y383082D01*
X255272Y383190D01*
X255182Y383294D01*
X255088Y383396D01*
X254991Y383495D01*
X254892Y383592D01*
X254790Y383685D01*
X254685Y383776D01*
X254578Y383864D01*
X254469Y383949D01*
X254357Y384031D01*
X254243Y384109D01*
X254127Y384185D01*
X254009Y384257D01*
X253888Y384325D01*
X253766Y384391D01*
X253642Y384452D01*
X253517Y384511D01*
X253390Y384566D01*
X253261Y384617D01*
X253131Y384664D01*
X252999Y384708D01*
X252867Y384749D01*
X252733Y384785D01*
X252599Y384818D01*
X252463Y384846D01*
X252327Y384872D01*
X252190Y384893D01*
X252053Y384910D01*
X251915Y384924D01*
X251777Y384934D01*
X251639Y384940D01*
X251500Y384941D01*
D02*
G37*
G36*
X415500Y373953D02*
X415376Y373951D01*
X415252Y373945D01*
X415128Y373936D01*
X415004Y373922D01*
X414882Y373905D01*
X414759Y373883D01*
X414638Y373858D01*
X414517Y373829D01*
X414397Y373796D01*
X414278Y373760D01*
X414161Y373720D01*
X414045Y373676D01*
X413930Y373628D01*
X413817Y373577D01*
X413705Y373522D01*
X413595Y373464D01*
X413488Y373403D01*
X413382Y373338D01*
X413278Y373270D01*
X413176Y373198D01*
X413077Y373124D01*
X412980Y373046D01*
X412886Y372965D01*
X412794Y372882D01*
X412705Y372795D01*
X412618Y372706D01*
X412535Y372614D01*
X412454Y372520D01*
X412376Y372423D01*
X412302Y372324D01*
X412230Y372222D01*
X412162Y372118D01*
X412097Y372012D01*
X412036Y371904D01*
X411978Y371795D01*
X411923Y371683D01*
X411872Y371570D01*
X411824Y371455D01*
X411781Y371339D01*
X411740Y371222D01*
X411704Y371103D01*
X411671Y370983D01*
X411642Y370862D01*
X411617Y370741D01*
X411595Y370618D01*
X411578Y370496D01*
X411564Y370372D01*
X411555Y370248D01*
X411549Y370124D01*
X411547Y370000D01*
X411549Y369876D01*
X411555Y369752D01*
X411564Y369628D01*
X411578Y369504D01*
X411595Y369382D01*
X411617Y369259D01*
X411642Y369138D01*
X411671Y369017D01*
X411704Y368897D01*
X411740Y368778D01*
X411781Y368661D01*
X411824Y368545D01*
X411872Y368430D01*
X411923Y368317D01*
X411978Y368205D01*
X412036Y368095D01*
X412097Y367988D01*
X412162Y367882D01*
X412230Y367778D01*
X412302Y367676D01*
X412376Y367577D01*
X412454Y367480D01*
X412535Y367386D01*
X412618Y367294D01*
X412705Y367205D01*
X412794Y367118D01*
X412886Y367035D01*
X412980Y366954D01*
X413077Y366876D01*
X413176Y366802D01*
X413278Y366730D01*
X413382Y366662D01*
X413488Y366597D01*
X413595Y366536D01*
X413705Y366478D01*
X413817Y366423D01*
X413930Y366372D01*
X414045Y366324D01*
X414161Y366281D01*
X414278Y366240D01*
X414397Y366204D01*
X414517Y366171D01*
X414638Y366142D01*
X414759Y366117D01*
X414882Y366095D01*
X415004Y366078D01*
X415128Y366064D01*
X415252Y366055D01*
X415376Y366049D01*
X415500Y366047D01*
X415624Y366049D01*
X415748Y366055D01*
X415872Y366064D01*
X415996Y366078D01*
X416118Y366095D01*
X416241Y366117D01*
X416362Y366142D01*
X416483Y366171D01*
X416603Y366204D01*
X416722Y366240D01*
X416839Y366281D01*
X416955Y366324D01*
X417070Y366372D01*
X417183Y366423D01*
X417295Y366478D01*
X417405Y366536D01*
X417512Y366597D01*
X417618Y366662D01*
X417722Y366730D01*
X417824Y366802D01*
X417923Y366876D01*
X418020Y366954D01*
X418114Y367035D01*
X418206Y367118D01*
X418295Y367205D01*
X418382Y367294D01*
X418465Y367386D01*
X418546Y367480D01*
X418624Y367577D01*
X418698Y367676D01*
X418770Y367778D01*
X418838Y367882D01*
X418903Y367988D01*
X418964Y368095D01*
X419022Y368205D01*
X419077Y368317D01*
X419128Y368430D01*
X419176Y368545D01*
X419219Y368661D01*
X419260Y368778D01*
X419296Y368897D01*
X419329Y369017D01*
X419358Y369138D01*
X419383Y369259D01*
X419405Y369382D01*
X419422Y369504D01*
X419436Y369628D01*
X419445Y369752D01*
X419451Y369876D01*
X419453Y370000D01*
X419451Y370124D01*
X419445Y370248D01*
X419436Y370372D01*
X419422Y370496D01*
X419405Y370618D01*
X419383Y370741D01*
X419358Y370862D01*
X419329Y370983D01*
X419296Y371103D01*
X419260Y371222D01*
X419219Y371339D01*
X419176Y371455D01*
X419128Y371570D01*
X419077Y371683D01*
X419022Y371795D01*
X418964Y371904D01*
X418903Y372012D01*
X418838Y372118D01*
X418770Y372222D01*
X418698Y372324D01*
X418624Y372423D01*
X418546Y372520D01*
X418465Y372614D01*
X418382Y372706D01*
X418295Y372795D01*
X418206Y372882D01*
X418114Y372965D01*
X418020Y373046D01*
X417923Y373124D01*
X417824Y373198D01*
X417722Y373270D01*
X417618Y373338D01*
X417512Y373403D01*
X417405Y373464D01*
X417295Y373522D01*
X417183Y373577D01*
X417070Y373628D01*
X416955Y373676D01*
X416839Y373720D01*
X416722Y373760D01*
X416603Y373796D01*
X416483Y373829D01*
X416362Y373858D01*
X416241Y373883D01*
X416118Y373905D01*
X415996Y373922D01*
X415872Y373936D01*
X415748Y373945D01*
X415624Y373951D01*
X415500Y373953D01*
D02*
G37*
G36*
X251500Y404113D02*
X251329Y404111D01*
X251158Y404105D01*
X250987Y404095D01*
X250817Y404082D01*
X250647Y404064D01*
X250477Y404042D01*
X250308Y404017D01*
X250139Y403987D01*
X249972Y403954D01*
X249804Y403917D01*
X249639Y403875D01*
X249473Y403830D01*
X249309Y403782D01*
X249147Y403729D01*
X248985Y403673D01*
X248825Y403613D01*
X248666Y403549D01*
X248509Y403482D01*
X248353Y403411D01*
X248199Y403337D01*
X248047Y403259D01*
X247897Y403177D01*
X247748Y403092D01*
X247602Y403004D01*
X247457Y402912D01*
X247315Y402817D01*
X247175Y402719D01*
X247037Y402617D01*
X246902Y402513D01*
X246769Y402405D01*
X246639Y402294D01*
X246511Y402180D01*
X246386Y402064D01*
X246264Y401944D01*
X246144Y401822D01*
X246027Y401697D01*
X245914Y401569D01*
X245803Y401439D01*
X245695Y401306D01*
X245590Y401170D01*
X245489Y401033D01*
X245391Y400893D01*
X245295Y400751D01*
X245204Y400606D01*
X245115Y400460D01*
X245030Y400311D01*
X244949Y400161D01*
X244871Y400009D01*
X244796Y399855D01*
X244725Y399699D01*
X244658Y399542D01*
X244595Y399383D01*
X244535Y399223D01*
X244478Y399061D01*
X244426Y398898D01*
X244377Y398734D01*
X244332Y398569D01*
X244291Y398403D01*
X244254Y398236D01*
X244221Y398068D01*
X244191Y397900D01*
X244165Y397731D01*
X244144Y397561D01*
X244126Y397391D01*
X244112Y397220D01*
X244102Y397050D01*
X244096Y396879D01*
X244094Y396708D01*
X244096Y396537D01*
X244102Y396366D01*
X244112Y396195D01*
X244126Y396024D01*
X244144Y395854D01*
X244165Y395685D01*
X244191Y395515D01*
X244221Y395347D01*
X244254Y395179D01*
X244291Y395012D01*
X244332Y394846D01*
X244377Y394681D01*
X244426Y394517D01*
X244478Y394354D01*
X244535Y394193D01*
X244595Y394033D01*
X244658Y393874D01*
X244725Y393717D01*
X244796Y393561D01*
X244871Y393407D01*
X244949Y393255D01*
X245030Y393104D01*
X245115Y392956D01*
X245204Y392809D01*
X245295Y392665D01*
X245391Y392523D01*
X245489Y392383D01*
X245590Y392245D01*
X245695Y392110D01*
X245803Y391977D01*
X245914Y391846D01*
X246027Y391719D01*
X246144Y391594D01*
X246264Y391471D01*
X246386Y391352D01*
X246511Y391235D01*
X246639Y391121D01*
X246769Y391010D01*
X246902Y390903D01*
X247037Y390798D01*
X247175Y390697D01*
X247315Y390598D01*
X247457Y390503D01*
X247602Y390411D01*
X247748Y390323D01*
X247897Y390238D01*
X248047Y390157D01*
X248199Y390079D01*
X248353Y390004D01*
X248509Y389933D01*
X248666Y389866D01*
X248825Y389802D01*
X248985Y389742D01*
X249147Y389686D01*
X249309Y389634D01*
X249473Y389585D01*
X249639Y389540D01*
X249804Y389499D01*
X249972Y389462D01*
X250139Y389428D01*
X250308Y389399D01*
X250477Y389373D01*
X250647Y389352D01*
X250817Y389334D01*
X250987Y389320D01*
X251158Y389310D01*
X251329Y389304D01*
X251500Y389302D01*
X251671Y389304D01*
X251842Y389310D01*
X252013Y389320D01*
X252183Y389334D01*
X252353Y389352D01*
X252523Y389373D01*
X252692Y389399D01*
X252861Y389428D01*
X253028Y389462D01*
X253196Y389499D01*
X253362Y389540D01*
X253527Y389585D01*
X253691Y389634D01*
X253853Y389686D01*
X254015Y389742D01*
X254175Y389802D01*
X254334Y389866D01*
X254491Y389933D01*
X254647Y390004D01*
X254801Y390079D01*
X254953Y390157D01*
X255103Y390238D01*
X255252Y390323D01*
X255399Y390411D01*
X255543Y390503D01*
X255685Y390598D01*
X255825Y390697D01*
X255963Y390798D01*
X256098Y390903D01*
X256231Y391010D01*
X256361Y391121D01*
X256489Y391235D01*
X256614Y391352D01*
X256736Y391471D01*
X256856Y391594D01*
X256973Y391719D01*
X257086Y391846D01*
X257197Y391977D01*
X257305Y392110D01*
X257410Y392245D01*
X257511Y392383D01*
X257610Y392523D01*
X257705Y392665D01*
X257796Y392809D01*
X257885Y392956D01*
X257970Y393104D01*
X258051Y393255D01*
X258129Y393407D01*
X258204Y393561D01*
X258275Y393717D01*
X258342Y393874D01*
X258405Y394033D01*
X258465Y394193D01*
X258522Y394354D01*
X258574Y394517D01*
X258623Y394681D01*
X258668Y394846D01*
X258709Y395012D01*
X258746Y395179D01*
X258779Y395347D01*
X258809Y395515D01*
X258835Y395685D01*
X258856Y395854D01*
X258874Y396024D01*
X258888Y396195D01*
X258898Y396366D01*
X258904Y396537D01*
X258906Y396708D01*
X258904Y396879D01*
X258898Y397050D01*
X258888Y397220D01*
X258874Y397391D01*
X258856Y397561D01*
X258835Y397731D01*
X258809Y397900D01*
X258779Y398068D01*
X258746Y398236D01*
X258709Y398403D01*
X258668Y398569D01*
X258623Y398734D01*
X258574Y398898D01*
X258522Y399061D01*
X258465Y399223D01*
X258405Y399383D01*
X258342Y399542D01*
X258275Y399699D01*
X258204Y399855D01*
X258129Y400009D01*
X258051Y400161D01*
X257970Y400311D01*
X257885Y400460D01*
X257796Y400606D01*
X257705Y400751D01*
X257610Y400893D01*
X257511Y401033D01*
X257410Y401170D01*
X257305Y401306D01*
X257197Y401439D01*
X257086Y401569D01*
X256973Y401697D01*
X256856Y401822D01*
X256736Y401944D01*
X256614Y402064D01*
X256489Y402180D01*
X256361Y402294D01*
X256231Y402405D01*
X256098Y402513D01*
X255963Y402617D01*
X255825Y402719D01*
X255685Y402817D01*
X255543Y402912D01*
X255399Y403004D01*
X255252Y403092D01*
X255103Y403177D01*
X254953Y403259D01*
X254801Y403337D01*
X254647Y403411D01*
X254491Y403482D01*
X254334Y403549D01*
X254175Y403613D01*
X254015Y403673D01*
X253853Y403729D01*
X253691Y403782D01*
X253527Y403830D01*
X253362Y403875D01*
X253196Y403917D01*
X253028Y403954D01*
X252861Y403987D01*
X252692Y404017D01*
X252523Y404042D01*
X252353Y404064D01*
X252183Y404082D01*
X252013Y404095D01*
X251842Y404105D01*
X251671Y404111D01*
X251500Y404113D01*
D02*
G37*
G36*
X425500Y383953D02*
X425376Y383951D01*
X425252Y383945D01*
X425128Y383936D01*
X425004Y383922D01*
X424882Y383905D01*
X424759Y383883D01*
X424638Y383858D01*
X424517Y383829D01*
X424397Y383796D01*
X424278Y383760D01*
X424161Y383719D01*
X424045Y383676D01*
X423930Y383628D01*
X423817Y383577D01*
X423705Y383522D01*
X423596Y383464D01*
X423488Y383403D01*
X423382Y383338D01*
X423278Y383270D01*
X423176Y383198D01*
X423077Y383124D01*
X422980Y383046D01*
X422886Y382965D01*
X422794Y382882D01*
X422705Y382795D01*
X422618Y382706D01*
X422535Y382614D01*
X422454Y382520D01*
X422376Y382423D01*
X422302Y382324D01*
X422230Y382222D01*
X422162Y382118D01*
X422097Y382012D01*
X422036Y381905D01*
X421978Y381795D01*
X421923Y381683D01*
X421872Y381570D01*
X421824Y381455D01*
X421780Y381339D01*
X421740Y381222D01*
X421704Y381103D01*
X421671Y380983D01*
X421642Y380862D01*
X421617Y380741D01*
X421595Y380618D01*
X421578Y380496D01*
X421564Y380372D01*
X421555Y380248D01*
X421549Y380124D01*
X421547Y380000D01*
X421549Y379876D01*
X421555Y379752D01*
X421564Y379628D01*
X421578Y379504D01*
X421595Y379382D01*
X421617Y379259D01*
X421642Y379138D01*
X421671Y379017D01*
X421704Y378897D01*
X421740Y378778D01*
X421780Y378661D01*
X421824Y378545D01*
X421872Y378430D01*
X421923Y378317D01*
X421978Y378205D01*
X422036Y378096D01*
X422097Y377988D01*
X422162Y377882D01*
X422230Y377778D01*
X422302Y377676D01*
X422376Y377577D01*
X422454Y377480D01*
X422535Y377386D01*
X422618Y377294D01*
X422705Y377205D01*
X422794Y377118D01*
X422886Y377035D01*
X422980Y376954D01*
X423077Y376876D01*
X423176Y376802D01*
X423278Y376730D01*
X423382Y376662D01*
X423488Y376597D01*
X423596Y376536D01*
X423705Y376478D01*
X423817Y376423D01*
X423930Y376372D01*
X424045Y376324D01*
X424161Y376280D01*
X424278Y376240D01*
X424397Y376204D01*
X424517Y376171D01*
X424638Y376142D01*
X424759Y376117D01*
X424882Y376095D01*
X425004Y376078D01*
X425128Y376064D01*
X425252Y376055D01*
X425376Y376049D01*
X425500Y376047D01*
X425624Y376049D01*
X425748Y376055D01*
X425872Y376064D01*
X425995Y376078D01*
X426118Y376095D01*
X426241Y376117D01*
X426362Y376142D01*
X426483Y376171D01*
X426603Y376204D01*
X426722Y376240D01*
X426839Y376280D01*
X426955Y376324D01*
X427070Y376372D01*
X427183Y376423D01*
X427295Y376478D01*
X427404Y376536D01*
X427512Y376597D01*
X427618Y376662D01*
X427722Y376730D01*
X427824Y376802D01*
X427923Y376876D01*
X428020Y376954D01*
X428114Y377035D01*
X428206Y377118D01*
X428295Y377205D01*
X428382Y377294D01*
X428465Y377386D01*
X428546Y377480D01*
X428624Y377577D01*
X428698Y377676D01*
X428770Y377778D01*
X428838Y377882D01*
X428903Y377988D01*
X428964Y378096D01*
X429022Y378205D01*
X429077Y378317D01*
X429128Y378430D01*
X429176Y378545D01*
X429219Y378661D01*
X429260Y378778D01*
X429296Y378897D01*
X429329Y379017D01*
X429358Y379138D01*
X429383Y379259D01*
X429405Y379382D01*
X429422Y379504D01*
X429436Y379628D01*
X429445Y379752D01*
X429451Y379876D01*
X429453Y380000D01*
X429451Y380124D01*
X429445Y380248D01*
X429436Y380372D01*
X429422Y380496D01*
X429405Y380618D01*
X429383Y380741D01*
X429358Y380862D01*
X429329Y380983D01*
X429296Y381103D01*
X429260Y381222D01*
X429219Y381339D01*
X429176Y381455D01*
X429128Y381570D01*
X429077Y381683D01*
X429022Y381795D01*
X428964Y381905D01*
X428903Y382012D01*
X428838Y382118D01*
X428770Y382222D01*
X428698Y382324D01*
X428624Y382423D01*
X428546Y382520D01*
X428465Y382614D01*
X428382Y382706D01*
X428295Y382795D01*
X428206Y382882D01*
X428114Y382965D01*
X428020Y383046D01*
X427923Y383124D01*
X427824Y383198D01*
X427722Y383270D01*
X427618Y383338D01*
X427512Y383403D01*
X427404Y383464D01*
X427295Y383522D01*
X427183Y383577D01*
X427070Y383628D01*
X426955Y383676D01*
X426839Y383719D01*
X426722Y383760D01*
X426603Y383796D01*
X426483Y383829D01*
X426362Y383858D01*
X426241Y383883D01*
X426118Y383905D01*
X425995Y383922D01*
X425872Y383936D01*
X425748Y383945D01*
X425624Y383951D01*
X425500Y383953D01*
D02*
G37*
G36*
X415500D02*
X415376Y383951D01*
X415252Y383945D01*
X415128Y383936D01*
X415004Y383922D01*
X414882Y383905D01*
X414759Y383883D01*
X414638Y383858D01*
X414517Y383829D01*
X414397Y383796D01*
X414278Y383760D01*
X414161Y383719D01*
X414045Y383676D01*
X413930Y383628D01*
X413817Y383577D01*
X413705Y383522D01*
X413595Y383464D01*
X413488Y383403D01*
X413382Y383338D01*
X413278Y383270D01*
X413176Y383198D01*
X413077Y383124D01*
X412980Y383046D01*
X412886Y382965D01*
X412794Y382882D01*
X412705Y382795D01*
X412618Y382706D01*
X412535Y382614D01*
X412454Y382520D01*
X412376Y382423D01*
X412302Y382324D01*
X412230Y382222D01*
X412162Y382118D01*
X412097Y382012D01*
X412036Y381905D01*
X411978Y381795D01*
X411923Y381683D01*
X411872Y381570D01*
X411824Y381455D01*
X411781Y381339D01*
X411740Y381222D01*
X411704Y381103D01*
X411671Y380983D01*
X411642Y380862D01*
X411617Y380741D01*
X411595Y380618D01*
X411578Y380496D01*
X411564Y380372D01*
X411555Y380248D01*
X411549Y380124D01*
X411547Y380000D01*
X411549Y379876D01*
X411555Y379752D01*
X411564Y379628D01*
X411578Y379504D01*
X411595Y379382D01*
X411617Y379259D01*
X411642Y379138D01*
X411671Y379017D01*
X411704Y378897D01*
X411740Y378778D01*
X411781Y378661D01*
X411824Y378545D01*
X411872Y378430D01*
X411923Y378317D01*
X411978Y378205D01*
X412036Y378096D01*
X412097Y377988D01*
X412162Y377882D01*
X412230Y377778D01*
X412302Y377676D01*
X412376Y377577D01*
X412454Y377480D01*
X412535Y377386D01*
X412618Y377294D01*
X412705Y377205D01*
X412794Y377118D01*
X412886Y377035D01*
X412980Y376954D01*
X413077Y376876D01*
X413176Y376802D01*
X413278Y376730D01*
X413382Y376662D01*
X413488Y376597D01*
X413595Y376536D01*
X413705Y376478D01*
X413817Y376423D01*
X413930Y376372D01*
X414045Y376324D01*
X414161Y376280D01*
X414278Y376240D01*
X414397Y376204D01*
X414517Y376171D01*
X414638Y376142D01*
X414759Y376117D01*
X414882Y376095D01*
X415004Y376078D01*
X415128Y376064D01*
X415252Y376055D01*
X415376Y376049D01*
X415500Y376047D01*
X415624Y376049D01*
X415748Y376055D01*
X415872Y376064D01*
X415996Y376078D01*
X416118Y376095D01*
X416241Y376117D01*
X416362Y376142D01*
X416483Y376171D01*
X416603Y376204D01*
X416722Y376240D01*
X416839Y376280D01*
X416955Y376324D01*
X417070Y376372D01*
X417183Y376423D01*
X417295Y376478D01*
X417405Y376536D01*
X417512Y376597D01*
X417618Y376662D01*
X417722Y376730D01*
X417824Y376802D01*
X417923Y376876D01*
X418020Y376954D01*
X418114Y377035D01*
X418206Y377118D01*
X418295Y377205D01*
X418382Y377294D01*
X418465Y377386D01*
X418546Y377480D01*
X418624Y377577D01*
X418698Y377676D01*
X418770Y377778D01*
X418838Y377882D01*
X418903Y377988D01*
X418964Y378096D01*
X419022Y378205D01*
X419077Y378317D01*
X419128Y378430D01*
X419176Y378545D01*
X419219Y378661D01*
X419260Y378778D01*
X419296Y378897D01*
X419329Y379017D01*
X419358Y379138D01*
X419383Y379259D01*
X419405Y379382D01*
X419422Y379504D01*
X419436Y379628D01*
X419445Y379752D01*
X419451Y379876D01*
X419453Y380000D01*
X419451Y380124D01*
X419445Y380248D01*
X419436Y380372D01*
X419422Y380496D01*
X419405Y380618D01*
X419383Y380741D01*
X419358Y380862D01*
X419329Y380983D01*
X419296Y381103D01*
X419260Y381222D01*
X419219Y381339D01*
X419176Y381455D01*
X419128Y381570D01*
X419077Y381683D01*
X419022Y381795D01*
X418964Y381905D01*
X418903Y382012D01*
X418838Y382118D01*
X418770Y382222D01*
X418698Y382324D01*
X418624Y382423D01*
X418546Y382520D01*
X418465Y382614D01*
X418382Y382706D01*
X418295Y382795D01*
X418206Y382882D01*
X418114Y382965D01*
X418020Y383046D01*
X417923Y383124D01*
X417824Y383198D01*
X417722Y383270D01*
X417618Y383338D01*
X417512Y383403D01*
X417405Y383464D01*
X417295Y383522D01*
X417183Y383577D01*
X417070Y383628D01*
X416955Y383676D01*
X416839Y383719D01*
X416722Y383760D01*
X416603Y383796D01*
X416483Y383829D01*
X416362Y383858D01*
X416241Y383883D01*
X416118Y383905D01*
X415996Y383922D01*
X415872Y383936D01*
X415748Y383945D01*
X415624Y383951D01*
X415500Y383953D01*
D02*
G37*
G36*
X251500Y372934D02*
X251361Y372932D01*
X251223Y372926D01*
X251085Y372916D01*
X250947Y372902D01*
X250810Y372885D01*
X250673Y372864D01*
X250537Y372839D01*
X250401Y372810D01*
X250267Y372777D01*
X250133Y372741D01*
X250001Y372700D01*
X249869Y372656D01*
X249739Y372609D01*
X249610Y372558D01*
X249483Y372503D01*
X249358Y372445D01*
X249234Y372383D01*
X249112Y372318D01*
X248991Y372249D01*
X248873Y372177D01*
X248757Y372101D01*
X248643Y372023D01*
X248531Y371941D01*
X248422Y371856D01*
X248314Y371768D01*
X248210Y371678D01*
X248108Y371584D01*
X248009Y371487D01*
X247912Y371388D01*
X247818Y371286D01*
X247728Y371182D01*
X247640Y371075D01*
X247555Y370965D01*
X247473Y370853D01*
X247395Y370739D01*
X247319Y370623D01*
X247247Y370505D01*
X247179Y370384D01*
X247113Y370262D01*
X247052Y370138D01*
X246993Y370013D01*
X246938Y369886D01*
X246887Y369757D01*
X246840Y369627D01*
X246796Y369496D01*
X246756Y369363D01*
X246719Y369229D01*
X246686Y369095D01*
X246657Y368959D01*
X246632Y368823D01*
X246611Y368686D01*
X246594Y368549D01*
X246580Y368411D01*
X246570Y368273D01*
X246564Y368134D01*
X246563Y367996D01*
X246564Y367858D01*
X246570Y367719D01*
X246580Y367581D01*
X246594Y367443D01*
X246611Y367306D01*
X246632Y367169D01*
X246657Y367033D01*
X246686Y366897D01*
X246719Y366763D01*
X246756Y366629D01*
X246796Y366497D01*
X246840Y366365D01*
X246887Y366235D01*
X246938Y366107D01*
X246993Y365979D01*
X247052Y365854D01*
X247113Y365730D01*
X247179Y365608D01*
X247247Y365487D01*
X247319Y365369D01*
X247395Y365253D01*
X247473Y365139D01*
X247555Y365027D01*
X247640Y364918D01*
X247728Y364810D01*
X247818Y364706D01*
X247912Y364604D01*
X248009Y364505D01*
X248108Y364408D01*
X248210Y364314D01*
X248314Y364224D01*
X248422Y364136D01*
X248531Y364051D01*
X248643Y363969D01*
X248757Y363891D01*
X248873Y363815D01*
X248991Y363743D01*
X249112Y363675D01*
X249234Y363609D01*
X249358Y363547D01*
X249483Y363489D01*
X249610Y363434D01*
X249739Y363383D01*
X249869Y363336D01*
X250001Y363292D01*
X250133Y363251D01*
X250267Y363215D01*
X250401Y363182D01*
X250537Y363153D01*
X250673Y363128D01*
X250810Y363107D01*
X250947Y363090D01*
X251085Y363076D01*
X251223Y363066D01*
X251361Y363060D01*
X251500Y363059D01*
X251639Y363060D01*
X251777Y363066D01*
X251915Y363076D01*
X252053Y363090D01*
X252190Y363107D01*
X252327Y363128D01*
X252463Y363153D01*
X252599Y363182D01*
X252733Y363215D01*
X252867Y363251D01*
X252999Y363292D01*
X253131Y363336D01*
X253261Y363383D01*
X253390Y363434D01*
X253517Y363489D01*
X253642Y363547D01*
X253766Y363609D01*
X253888Y363675D01*
X254009Y363743D01*
X254127Y363815D01*
X254243Y363891D01*
X254357Y363969D01*
X254469Y364051D01*
X254578Y364136D01*
X254685Y364224D01*
X254790Y364314D01*
X254892Y364408D01*
X254991Y364505D01*
X255088Y364604D01*
X255182Y364706D01*
X255272Y364810D01*
X255360Y364918D01*
X255445Y365027D01*
X255527Y365139D01*
X255605Y365253D01*
X255681Y365369D01*
X255753Y365487D01*
X255821Y365608D01*
X255887Y365730D01*
X255948Y365854D01*
X256007Y365979D01*
X256062Y366107D01*
X256113Y366235D01*
X256160Y366365D01*
X256204Y366497D01*
X256244Y366629D01*
X256281Y366763D01*
X256314Y366897D01*
X256343Y367033D01*
X256368Y367169D01*
X256389Y367306D01*
X256406Y367443D01*
X256420Y367581D01*
X256430Y367719D01*
X256436Y367858D01*
X256437Y367996D01*
X256436Y368134D01*
X256430Y368273D01*
X256420Y368411D01*
X256406Y368549D01*
X256389Y368686D01*
X256368Y368823D01*
X256343Y368959D01*
X256314Y369095D01*
X256281Y369229D01*
X256244Y369363D01*
X256204Y369496D01*
X256160Y369627D01*
X256113Y369757D01*
X256062Y369886D01*
X256007Y370013D01*
X255948Y370138D01*
X255887Y370262D01*
X255821Y370384D01*
X255753Y370505D01*
X255681Y370623D01*
X255605Y370739D01*
X255527Y370853D01*
X255445Y370965D01*
X255360Y371075D01*
X255272Y371182D01*
X255182Y371286D01*
X255088Y371388D01*
X254991Y371487D01*
X254892Y371584D01*
X254790Y371678D01*
X254685Y371768D01*
X254578Y371856D01*
X254469Y371941D01*
X254357Y372023D01*
X254243Y372101D01*
X254127Y372177D01*
X254009Y372249D01*
X253888Y372318D01*
X253766Y372383D01*
X253642Y372445D01*
X253517Y372503D01*
X253390Y372558D01*
X253261Y372609D01*
X253131Y372656D01*
X252999Y372700D01*
X252867Y372741D01*
X252733Y372777D01*
X252599Y372810D01*
X252463Y372839D01*
X252327Y372864D01*
X252190Y372885D01*
X252053Y372902D01*
X251915Y372916D01*
X251777Y372926D01*
X251639Y372932D01*
X251500Y372934D01*
D02*
G37*
G36*
X531000Y163953D02*
X530876Y163951D01*
X530752Y163945D01*
X530628Y163936D01*
X530505Y163922D01*
X530382Y163905D01*
X530259Y163883D01*
X530138Y163858D01*
X530017Y163829D01*
X529897Y163796D01*
X529778Y163760D01*
X529661Y163719D01*
X529545Y163676D01*
X529430Y163628D01*
X529317Y163577D01*
X529205Y163522D01*
X529096Y163464D01*
X528988Y163403D01*
X528882Y163338D01*
X528778Y163270D01*
X528676Y163198D01*
X528577Y163124D01*
X528480Y163046D01*
X528386Y162965D01*
X528294Y162882D01*
X528205Y162795D01*
X528118Y162706D01*
X528035Y162614D01*
X527954Y162520D01*
X527876Y162423D01*
X527802Y162324D01*
X527730Y162222D01*
X527662Y162118D01*
X527597Y162012D01*
X527536Y161905D01*
X527478Y161795D01*
X527423Y161683D01*
X527372Y161570D01*
X527324Y161455D01*
X527281Y161339D01*
X527240Y161222D01*
X527204Y161103D01*
X527171Y160983D01*
X527142Y160862D01*
X527117Y160741D01*
X527095Y160618D01*
X527078Y160495D01*
X527064Y160372D01*
X527055Y160248D01*
X527049Y160124D01*
X527047Y160000D01*
X527049Y159876D01*
X527055Y159752D01*
X527064Y159628D01*
X527078Y159504D01*
X527095Y159382D01*
X527117Y159259D01*
X527142Y159138D01*
X527171Y159017D01*
X527204Y158897D01*
X527240Y158778D01*
X527281Y158661D01*
X527324Y158545D01*
X527372Y158430D01*
X527423Y158317D01*
X527478Y158205D01*
X527536Y158096D01*
X527597Y157988D01*
X527662Y157882D01*
X527730Y157778D01*
X527802Y157676D01*
X527876Y157577D01*
X527954Y157480D01*
X528035Y157386D01*
X528118Y157294D01*
X528205Y157205D01*
X528294Y157118D01*
X528386Y157035D01*
X528480Y156954D01*
X528577Y156876D01*
X528676Y156802D01*
X528778Y156730D01*
X528882Y156662D01*
X528988Y156597D01*
X529096Y156536D01*
X529205Y156478D01*
X529317Y156423D01*
X529430Y156372D01*
X529545Y156324D01*
X529661Y156281D01*
X529778Y156240D01*
X529897Y156204D01*
X530017Y156171D01*
X530138Y156142D01*
X530259Y156117D01*
X530382Y156095D01*
X530505Y156078D01*
X530628Y156064D01*
X530752Y156055D01*
X530876Y156049D01*
X531000Y156047D01*
X531124Y156049D01*
X531248Y156055D01*
X531372Y156064D01*
X531496Y156078D01*
X531618Y156095D01*
X531741Y156117D01*
X531862Y156142D01*
X531983Y156171D01*
X532103Y156204D01*
X532222Y156240D01*
X532339Y156281D01*
X532455Y156324D01*
X532570Y156372D01*
X532683Y156423D01*
X532795Y156478D01*
X532904Y156536D01*
X533012Y156597D01*
X533118Y156662D01*
X533222Y156730D01*
X533324Y156802D01*
X533423Y156876D01*
X533520Y156954D01*
X533614Y157035D01*
X533706Y157118D01*
X533795Y157205D01*
X533882Y157294D01*
X533965Y157386D01*
X534046Y157480D01*
X534124Y157577D01*
X534198Y157676D01*
X534270Y157778D01*
X534338Y157882D01*
X534403Y157988D01*
X534464Y158096D01*
X534522Y158205D01*
X534577Y158317D01*
X534628Y158430D01*
X534676Y158545D01*
X534720Y158661D01*
X534760Y158778D01*
X534796Y158897D01*
X534829Y159017D01*
X534858Y159138D01*
X534883Y159259D01*
X534905Y159382D01*
X534922Y159504D01*
X534936Y159628D01*
X534945Y159752D01*
X534951Y159876D01*
X534953Y160000D01*
X534951Y160124D01*
X534945Y160248D01*
X534936Y160372D01*
X534922Y160495D01*
X534905Y160618D01*
X534883Y160741D01*
X534858Y160862D01*
X534829Y160983D01*
X534796Y161103D01*
X534760Y161222D01*
X534720Y161339D01*
X534676Y161455D01*
X534628Y161570D01*
X534577Y161683D01*
X534522Y161795D01*
X534464Y161905D01*
X534403Y162012D01*
X534338Y162118D01*
X534270Y162222D01*
X534198Y162324D01*
X534124Y162423D01*
X534046Y162520D01*
X533965Y162614D01*
X533882Y162706D01*
X533795Y162795D01*
X533706Y162882D01*
X533614Y162965D01*
X533520Y163046D01*
X533423Y163124D01*
X533324Y163198D01*
X533222Y163270D01*
X533118Y163338D01*
X533012Y163403D01*
X532904Y163464D01*
X532795Y163522D01*
X532683Y163577D01*
X532570Y163628D01*
X532455Y163676D01*
X532339Y163719D01*
X532222Y163760D01*
X532103Y163796D01*
X531983Y163829D01*
X531862Y163858D01*
X531741Y163883D01*
X531618Y163905D01*
X531496Y163922D01*
X531372Y163936D01*
X531248Y163945D01*
X531124Y163951D01*
X531000Y163953D01*
D02*
G37*
G36*
X215500Y183590D02*
X209910Y178000D01*
X215500Y172410D01*
X221090Y178000D01*
X215500Y183590D01*
D02*
G37*
G36*
X208429Y189024D02*
X208305Y189022D01*
X208181Y189016D01*
X208057Y189007D01*
X207933Y188993D01*
X207810Y188976D01*
X207688Y188954D01*
X207567Y188929D01*
X207446Y188900D01*
X207326Y188867D01*
X207207Y188831D01*
X207090Y188791D01*
X206974Y188747D01*
X206859Y188699D01*
X206746Y188648D01*
X206634Y188593D01*
X206524Y188535D01*
X206417Y188474D01*
X206311Y188409D01*
X206207Y188341D01*
X206105Y188269D01*
X206006Y188195D01*
X205909Y188117D01*
X205815Y188036D01*
X205723Y187953D01*
X205634Y187866D01*
X205547Y187777D01*
X205464Y187685D01*
X205383Y187591D01*
X205305Y187494D01*
X205231Y187395D01*
X205159Y187293D01*
X205091Y187189D01*
X205026Y187083D01*
X204965Y186976D01*
X204907Y186866D01*
X204852Y186754D01*
X204801Y186641D01*
X204753Y186526D01*
X204709Y186410D01*
X204669Y186293D01*
X204633Y186174D01*
X204600Y186054D01*
X204571Y185933D01*
X204546Y185812D01*
X204524Y185689D01*
X204507Y185566D01*
X204493Y185443D01*
X204484Y185319D01*
X204478Y185195D01*
X204476Y185071D01*
X204478Y184947D01*
X204484Y184823D01*
X204493Y184699D01*
X204507Y184576D01*
X204524Y184453D01*
X204546Y184330D01*
X204571Y184209D01*
X204600Y184088D01*
X204633Y183968D01*
X204669Y183850D01*
X204709Y183732D01*
X204753Y183616D01*
X204801Y183501D01*
X204852Y183388D01*
X204907Y183276D01*
X204965Y183167D01*
X205026Y183059D01*
X205091Y182953D01*
X205159Y182849D01*
X205231Y182747D01*
X205305Y182648D01*
X205383Y182551D01*
X205464Y182457D01*
X205547Y182365D01*
X205634Y182276D01*
X205723Y182189D01*
X205815Y182106D01*
X205909Y182025D01*
X206006Y181947D01*
X206105Y181873D01*
X206207Y181801D01*
X206311Y181733D01*
X206417Y181668D01*
X206524Y181607D01*
X206634Y181549D01*
X206746Y181494D01*
X206859Y181443D01*
X206974Y181395D01*
X207090Y181351D01*
X207207Y181311D01*
X207326Y181275D01*
X207446Y181242D01*
X207567Y181213D01*
X207688Y181188D01*
X207810Y181167D01*
X207933Y181149D01*
X208057Y181135D01*
X208181Y181126D01*
X208305Y181120D01*
X208429Y181118D01*
X208553Y181120D01*
X208677Y181126D01*
X208801Y181135D01*
X208924Y181149D01*
X209047Y181167D01*
X209170Y181188D01*
X209291Y181213D01*
X209412Y181242D01*
X209532Y181275D01*
X209651Y181311D01*
X209768Y181351D01*
X209884Y181395D01*
X209999Y181443D01*
X210112Y181494D01*
X210224Y181549D01*
X210333Y181607D01*
X210441Y181668D01*
X210547Y181733D01*
X210651Y181801D01*
X210753Y181873D01*
X210852Y181947D01*
X210949Y182025D01*
X211043Y182106D01*
X211135Y182189D01*
X211224Y182276D01*
X211311Y182365D01*
X211394Y182457D01*
X211475Y182551D01*
X211553Y182648D01*
X211627Y182747D01*
X211699Y182849D01*
X211767Y182953D01*
X211832Y183059D01*
X211893Y183167D01*
X211951Y183276D01*
X212006Y183388D01*
X212057Y183501D01*
X212105Y183616D01*
X212148Y183732D01*
X212189Y183850D01*
X212225Y183968D01*
X212258Y184088D01*
X212287Y184209D01*
X212312Y184330D01*
X212333Y184453D01*
X212351Y184576D01*
X212365Y184699D01*
X212374Y184823D01*
X212380Y184947D01*
X212382Y185071D01*
X212380Y185195D01*
X212374Y185319D01*
X212365Y185443D01*
X212351Y185566D01*
X212333Y185689D01*
X212312Y185812D01*
X212287Y185933D01*
X212258Y186054D01*
X212225Y186174D01*
X212189Y186293D01*
X212148Y186410D01*
X212105Y186526D01*
X212057Y186641D01*
X212006Y186754D01*
X211951Y186866D01*
X211893Y186976D01*
X211832Y187083D01*
X211767Y187189D01*
X211699Y187293D01*
X211627Y187395D01*
X211553Y187494D01*
X211475Y187591D01*
X211394Y187685D01*
X211311Y187777D01*
X211224Y187866D01*
X211135Y187953D01*
X211043Y188036D01*
X210949Y188117D01*
X210852Y188195D01*
X210753Y188269D01*
X210651Y188341D01*
X210547Y188409D01*
X210441Y188474D01*
X210333Y188535D01*
X210224Y188593D01*
X210112Y188648D01*
X209999Y188699D01*
X209884Y188747D01*
X209768Y188791D01*
X209651Y188831D01*
X209532Y188867D01*
X209412Y188900D01*
X209291Y188929D01*
X209170Y188954D01*
X209047Y188976D01*
X208924Y188993D01*
X208801Y189007D01*
X208677Y189016D01*
X208553Y189022D01*
X208429Y189024D01*
D02*
G37*
G36*
X203453Y152453D02*
X195547D01*
Y144547D01*
X203453D01*
Y152453D01*
D02*
G37*
G36*
X534953Y153953D02*
X527047D01*
Y146047D01*
X534953D01*
Y153953D01*
D02*
G37*
G36*
X199500Y162453D02*
X199376Y162451D01*
X199252Y162445D01*
X199128Y162436D01*
X199004Y162422D01*
X198882Y162405D01*
X198759Y162383D01*
X198638Y162358D01*
X198517Y162329D01*
X198397Y162296D01*
X198278Y162260D01*
X198161Y162220D01*
X198045Y162176D01*
X197930Y162128D01*
X197817Y162077D01*
X197705Y162022D01*
X197596Y161964D01*
X197488Y161903D01*
X197382Y161838D01*
X197278Y161770D01*
X197176Y161698D01*
X197077Y161624D01*
X196980Y161546D01*
X196886Y161465D01*
X196794Y161382D01*
X196705Y161295D01*
X196618Y161206D01*
X196535Y161114D01*
X196454Y161020D01*
X196376Y160923D01*
X196302Y160824D01*
X196230Y160722D01*
X196162Y160618D01*
X196097Y160512D01*
X196036Y160405D01*
X195978Y160295D01*
X195923Y160183D01*
X195872Y160070D01*
X195824Y159955D01*
X195781Y159839D01*
X195740Y159722D01*
X195704Y159603D01*
X195671Y159483D01*
X195642Y159362D01*
X195617Y159241D01*
X195595Y159118D01*
X195578Y158995D01*
X195564Y158872D01*
X195555Y158748D01*
X195549Y158624D01*
X195547Y158500D01*
X195549Y158376D01*
X195555Y158252D01*
X195564Y158128D01*
X195578Y158004D01*
X195595Y157882D01*
X195617Y157759D01*
X195642Y157638D01*
X195671Y157517D01*
X195704Y157397D01*
X195740Y157278D01*
X195781Y157161D01*
X195824Y157045D01*
X195872Y156930D01*
X195923Y156817D01*
X195978Y156705D01*
X196036Y156596D01*
X196097Y156488D01*
X196162Y156382D01*
X196230Y156278D01*
X196302Y156176D01*
X196376Y156077D01*
X196454Y155980D01*
X196535Y155886D01*
X196618Y155794D01*
X196705Y155705D01*
X196794Y155618D01*
X196886Y155535D01*
X196980Y155454D01*
X197077Y155376D01*
X197176Y155302D01*
X197278Y155230D01*
X197382Y155162D01*
X197488Y155097D01*
X197596Y155036D01*
X197705Y154978D01*
X197817Y154923D01*
X197930Y154872D01*
X198045Y154824D01*
X198161Y154780D01*
X198278Y154740D01*
X198397Y154704D01*
X198517Y154671D01*
X198638Y154642D01*
X198759Y154617D01*
X198882Y154595D01*
X199004Y154578D01*
X199128Y154564D01*
X199252Y154555D01*
X199376Y154549D01*
X199500Y154547D01*
X199624Y154549D01*
X199748Y154555D01*
X199872Y154564D01*
X199996Y154578D01*
X200118Y154595D01*
X200241Y154617D01*
X200362Y154642D01*
X200483Y154671D01*
X200603Y154704D01*
X200722Y154740D01*
X200839Y154780D01*
X200955Y154824D01*
X201070Y154872D01*
X201183Y154923D01*
X201295Y154978D01*
X201405Y155036D01*
X201512Y155097D01*
X201618Y155162D01*
X201722Y155230D01*
X201824Y155302D01*
X201923Y155376D01*
X202020Y155454D01*
X202114Y155535D01*
X202206Y155618D01*
X202295Y155705D01*
X202382Y155794D01*
X202465Y155886D01*
X202546Y155980D01*
X202624Y156077D01*
X202698Y156176D01*
X202770Y156278D01*
X202838Y156382D01*
X202903Y156488D01*
X202964Y156596D01*
X203022Y156705D01*
X203077Y156817D01*
X203128Y156930D01*
X203176Y157045D01*
X203220Y157161D01*
X203260Y157278D01*
X203296Y157397D01*
X203329Y157517D01*
X203358Y157638D01*
X203383Y157759D01*
X203405Y157882D01*
X203422Y158004D01*
X203436Y158128D01*
X203445Y158252D01*
X203451Y158376D01*
X203453Y158500D01*
X203451Y158624D01*
X203445Y158748D01*
X203436Y158872D01*
X203422Y158995D01*
X203405Y159118D01*
X203383Y159241D01*
X203358Y159362D01*
X203329Y159483D01*
X203296Y159603D01*
X203260Y159722D01*
X203220Y159839D01*
X203176Y159955D01*
X203128Y160070D01*
X203077Y160183D01*
X203022Y160295D01*
X202964Y160405D01*
X202903Y160512D01*
X202838Y160618D01*
X202770Y160722D01*
X202698Y160824D01*
X202624Y160923D01*
X202546Y161020D01*
X202465Y161114D01*
X202382Y161206D01*
X202295Y161295D01*
X202206Y161382D01*
X202114Y161465D01*
X202020Y161546D01*
X201923Y161624D01*
X201824Y161698D01*
X201722Y161770D01*
X201618Y161838D01*
X201512Y161903D01*
X201405Y161964D01*
X201295Y162022D01*
X201183Y162077D01*
X201070Y162128D01*
X200955Y162176D01*
X200839Y162220D01*
X200722Y162260D01*
X200603Y162296D01*
X200483Y162329D01*
X200362Y162358D01*
X200241Y162383D01*
X200118Y162405D01*
X199996Y162422D01*
X199872Y162436D01*
X199748Y162445D01*
X199624Y162451D01*
X199500Y162453D01*
D02*
G37*
%LPD*%
G36*
X420951Y344265D02*
X421144Y344209D01*
X421424Y344160D01*
X421789Y344118D01*
X423404Y344029D01*
X425794Y344000D01*
Y343000D01*
X424911Y342997D01*
X420951Y342735D01*
X420844Y342673D01*
Y344327D01*
X420951Y344265D01*
D02*
G37*
G36*
X425951Y340765D02*
X426144Y340709D01*
X426424Y340660D01*
X426789Y340618D01*
X428404Y340529D01*
X430794Y340500D01*
Y339500D01*
X429911Y339497D01*
X425951Y339235D01*
X425843Y339173D01*
Y340827D01*
X425951Y340765D01*
D02*
G37*
G36*
X424157Y339173D02*
X424049Y339235D01*
X423856Y339291D01*
X423576Y339340D01*
X423211Y339382D01*
X421596Y339471D01*
X419206Y339500D01*
Y340500D01*
X420089Y340503D01*
X424049Y340765D01*
X424157Y340827D01*
Y339173D01*
D02*
G37*
G36*
X416451Y347765D02*
X416644Y347709D01*
X416924Y347660D01*
X417289Y347618D01*
X418904Y347529D01*
X421294Y347500D01*
Y346500D01*
X420411Y346497D01*
X416451Y346235D01*
X416343Y346173D01*
Y347827D01*
X416451Y347765D01*
D02*
G37*
G36*
X403973Y367059D02*
X403896Y367116D01*
X403804Y367144D01*
X403698D01*
X403578Y367116D01*
X403443Y367059D01*
X403295Y366974D01*
X403132Y366861D01*
X402955Y366720D01*
X402559Y366352D01*
X401852Y367059D01*
X402050Y367264D01*
X402361Y367632D01*
X402474Y367795D01*
X402559Y367943D01*
X402616Y368077D01*
X402644Y368198D01*
Y368304D01*
X402616Y368396D01*
X402559Y368474D01*
X403973Y367059D01*
D02*
G37*
G36*
X426010Y356310D02*
X426040Y356140D01*
X426090Y355990D01*
X426160Y355860D01*
X426250Y355750D01*
X426360Y355660D01*
X426490Y355590D01*
X426640Y355540D01*
X426810Y355510D01*
X427000Y355500D01*
X425500Y354500D01*
X424000Y355500D01*
X424190Y355510D01*
X424360Y355540D01*
X424510Y355590D01*
X424640Y355660D01*
X424750Y355750D01*
X424840Y355860D01*
X424910Y355990D01*
X424960Y356140D01*
X424990Y356310D01*
X425000Y356500D01*
X426000D01*
X426010Y356310D01*
D02*
G37*
G36*
X410951Y351765D02*
X411144Y351709D01*
X411424Y351660D01*
X411789Y351618D01*
X413404Y351529D01*
X415794Y351500D01*
Y350500D01*
X414911Y350497D01*
X410951Y350235D01*
X410844Y350173D01*
Y351827D01*
X410951Y351765D01*
D02*
G37*
G36*
X430951Y337265D02*
X431144Y337209D01*
X431424Y337160D01*
X431789Y337118D01*
X433404Y337029D01*
X435794Y337000D01*
Y336000D01*
X434911Y335997D01*
X430951Y335735D01*
X430843Y335673D01*
Y337327D01*
X430951Y337265D01*
D02*
G37*
G36*
X479514Y315455D02*
X478486Y314427D01*
X478479Y314494D01*
X478411Y314617D01*
X478281Y314795D01*
X478090Y315029D01*
X477145Y316060D01*
X475646Y317587D01*
X476354Y318295D01*
X479514Y315455D01*
D02*
G37*
G36*
X489514Y315455D02*
X488486Y314427D01*
X488480Y314494D01*
X488411Y314617D01*
X488281Y314795D01*
X488090Y315029D01*
X487145Y316060D01*
X485646Y317587D01*
X486353Y318295D01*
X489514Y315455D01*
D02*
G37*
G36*
X469407Y315387D02*
X468554Y314534D01*
X468540Y314576D01*
X468476Y314665D01*
X468362Y314801D01*
X467399Y315822D01*
X466147Y317087D01*
X466854Y317794D01*
X469407Y315387D01*
D02*
G37*
G36*
X471566Y331610D02*
X471919Y326415D01*
X472029Y326016D01*
X472154Y325750D01*
X472294Y325617D01*
X469823D01*
X469963Y325750D01*
X470088Y326016D01*
X470198Y326415D01*
X470294Y326948D01*
X470374Y327614D01*
X470492Y329345D01*
X470558Y332942D01*
X471558D01*
X471566Y331610D01*
D02*
G37*
G36*
X481574Y335688D02*
X482134Y327828D01*
X482342Y326837D01*
X482582Y326040D01*
X482854Y325436D01*
X483158Y325025D01*
X478958D01*
X479262Y325436D01*
X479534Y326040D01*
X479774Y326837D01*
X479982Y327828D01*
X480158Y329013D01*
X480414Y331963D01*
X480558Y337841D01*
X481558D01*
X481574Y335688D01*
D02*
G37*
G36*
X491574Y335688D02*
X492134Y327828D01*
X492342Y326837D01*
X492582Y326040D01*
X492854Y325435D01*
X493158Y325025D01*
X488958D01*
X489262Y325435D01*
X489534Y326040D01*
X489774Y326837D01*
X489982Y327828D01*
X490158Y329013D01*
X490414Y331963D01*
X490558Y337841D01*
X491558D01*
X491574Y335688D01*
D02*
G37*
G36*
X350814Y286403D02*
X350625Y286384D01*
X350456Y286324D01*
X350307Y286224D01*
X350177Y286083D01*
X350068Y285901D01*
X349978Y285679D01*
X349908Y285415D01*
X349859Y285111D01*
X349829Y284766D01*
X349819Y284380D01*
X347819D01*
X347812Y284715D01*
X347753Y285299D01*
X347701Y285547D01*
X347635Y285767D01*
X347554Y285958D01*
X347458Y286120D01*
X347347Y286253D01*
X347222Y286357D01*
X347082Y286433D01*
X350814Y286403D01*
D02*
G37*
D18*
X349000Y294847D02*
D03*
Y288154D02*
D03*
D21*
X342524Y376500D02*
D03*
X320476D02*
D03*
D28*
X471058Y322883D02*
Y332942D01*
X464000Y340000D02*
X471058Y332942D01*
X466500Y317441D02*
X471058Y312883D01*
X466500Y317441D02*
Y332500D01*
X462500Y336500D02*
X466500Y332500D01*
X430000Y336500D02*
X462500D01*
X481058Y322883D02*
Y337942D01*
X472000Y347000D02*
X481058Y337942D01*
X476000Y317941D02*
X481058Y312883D01*
X476000Y317941D02*
Y336000D01*
X468500Y343500D02*
X476000Y336000D01*
X420000Y343500D02*
X468500D01*
X415500Y347000D02*
X472000D01*
X486000Y317941D02*
X491058Y312883D01*
X486000Y317941D02*
Y339500D01*
X410000Y351000D02*
X474500D01*
X486000Y339500D01*
X491058Y322883D02*
Y342442D01*
X478500Y355000D02*
X491058Y342442D01*
X406500Y348000D02*
Y352000D01*
X409500Y355000D01*
X478500D01*
X425500D02*
Y370000D01*
X401500Y366000D02*
X405500Y370000D01*
X401500Y343500D02*
Y366000D01*
Y343500D02*
X405000Y340000D01*
X425000D01*
X464000D01*
D29*
X350847Y320433D02*
Y342500D01*
X348228Y317815D02*
X350847Y320433D01*
X300295Y317815D02*
X348228D01*
X300197Y317913D02*
X300295Y317815D01*
D30*
X348819Y255020D02*
Y287992D01*
X348524Y254724D02*
X348819Y255020D01*
D38*
X479500Y261500D02*
D03*
X483764D02*
D03*
X481500Y265240D02*
D03*
Y257760D02*
D03*
D39*
X189500Y158500D02*
D03*
X199500D02*
D03*
X189500Y148500D02*
D03*
X215500Y192142D02*
D03*
X222571Y185071D02*
D03*
X208429D02*
D03*
X521000Y150000D02*
D03*
X531000Y160000D02*
D03*
X521000D02*
D03*
X425500Y380000D02*
D03*
Y370000D02*
D03*
X415500Y380000D02*
D03*
Y370000D02*
D03*
X405500Y380000D02*
D03*
D40*
X199500Y148500D02*
D03*
X531000Y150000D02*
D03*
D41*
X215500Y178000D02*
D03*
D42*
X251500Y367996D02*
D03*
Y380004D02*
D03*
D43*
X405500Y370000D02*
D03*
D44*
X461058Y312883D02*
D03*
D45*
X461000Y323000D02*
D03*
X471058Y322883D02*
D03*
X471058Y312883D02*
D03*
X481058Y322883D02*
D03*
X491058Y312883D02*
D03*
X481058Y312883D02*
D03*
X491058Y322883D02*
D03*
X460013Y205934D02*
D03*
X467085Y213005D02*
D03*
D46*
X528949Y258632D02*
D03*
X537153Y212105D02*
D03*
D47*
X535102Y223737D02*
D03*
X531000Y247000D02*
D03*
X533051Y235368D02*
D03*
D48*
X361500Y306500D02*
D03*
Y286500D02*
D03*
D49*
X405057Y150990D02*
D03*
D50*
X372736Y227756D02*
D03*
X360236Y228051D02*
D03*
X348425D02*
D03*
X396654Y227756D02*
D03*
X384547D02*
D03*
X333957Y227953D02*
D03*
D51*
X336327Y351189D02*
D03*
X341248Y347547D02*
D03*
X327654Y352665D02*
D03*
X312606Y376583D02*
D03*
X350894D02*
D03*
X425000Y340000D02*
D03*
X430000Y336500D02*
D03*
X420000Y343500D02*
D03*
X415500Y347000D02*
D03*
X410000Y351000D02*
D03*
X406500Y348000D02*
D03*
X474902Y250000D02*
D03*
X532142Y191000D02*
D03*
X531988Y184055D02*
D03*
X508858Y187795D02*
D03*
X513779Y187760D02*
D03*
X489075Y195472D02*
D03*
X495472D02*
D03*
X348819Y287992D02*
D03*
X348524Y254724D02*
D03*
X307972Y305610D02*
D03*
X307776Y299114D02*
D03*
X307874Y292717D02*
D03*
X307791Y286500D02*
D03*
X326969Y282480D02*
D03*
X353346Y291043D02*
D03*
X328150Y309547D02*
D03*
X339862Y328937D02*
D03*
X340158Y323130D02*
D03*
X317323Y330020D02*
D03*
X311516Y332579D02*
D03*
X307185Y336614D02*
D03*
X350492Y355512D02*
D03*
Y362106D02*
D03*
X251673Y307087D02*
D03*
X378248Y299114D02*
D03*
X377854Y292913D02*
D03*
X350847Y342500D02*
D03*
X300197Y317913D02*
D03*
Y321161D02*
D03*
X300000Y314567D02*
D03*
X338165Y295165D02*
D03*
Y290835D02*
D03*
X333661Y295177D02*
D03*
X333858Y290846D02*
D03*
D52*
X300197Y317815D02*
D03*
D53*
X481500Y261500D02*
D03*
M02*
